<?xml version="1.0" encoding="UTF-8"?><svg id="Layer_1" xmlns="http://www.w3.org/2000/svg" viewBox="0 0 500 500"><defs><style>.cls-1{fill:#322b29;}.cls-2{fill:#fefefe;}.cls-3{fill:#33bba6;}.cls-4{fill:#b5b6b6;}</style></defs><path class="cls-1" d="M151.87,425.09c-.51-5.47,2.14-14.53,5.96-18.54,4.49-4.73,23.14-9.37,23.87-10.62.6-1.02-.07-3.52.38-5.11,1.94-6.82,5.67-3.05,6.75-3.74.95-.61,1.42-18.15,2.35-22.19,1.13-4.91,3.4-9.38,5.7-13.79-5.94-1.23-12.07-4.2-17.31-7.21-3.62-2.08-17.28-13.38-18.4-13.64-1.87-.44-7.86,1.38-11.73.77-10.27-1.63-13.27-13.56-12.45-22.33.22-2.4,2.19-5.93,1.72-7.9-.58-2.45-9.72-12.44-10.83-16.27-1.52-.95-7.63,3.08-10.2,3.87-11.37,3.49-23.71-.28-32.33-8.28-2.22-2.06-6.42-8.9-7.48-9.52-2.11-1.24-5.59.22-8.4-1.6-2.48-1.6-1.94-4.63-3.62-6.38-1.55-1.61-6.06-2.97-8.51-5.49-4.72-4.85-12.19-18.67-7.92-24.99,1.1-1.62,3.3-2,3.93-3.07,2.68-4.53-.35-10.47,10.52-8.98-.34-7.41-11.75-30.55,2.5-30.55,13.31,0,9.85,28.42,13.51,36.55,1.44.24,1.4-1.76,1.68-2.79,1.01-3.62.91-8.21,4.33-10.68,5.58-4.04,14.25-.64,13.47,6.61-.46,4.31-5.26,7.41-5.58,11.37-.11,1.36.05,15.98.25,16.8.36,1.53,3.39,3.08,3.55,6.36.21,4.52-4.96,4.75.36,9.8,2.04,1.93,7.98,4.96,10.69,5.33,4.16.56,6.41-.75,10.24-1.8-26.52-53.51-38.2-142.27,19.69-179.8,34.31-22.24,75-13.9,108.81,4.74,9.32-5.39,17.89-11.77,27.82-16.1,33.46-14.61,81.45-14.46,110.15,10.2,45.39,39,42.96,112.35,26.54,164.94,18.05,7.55,26.57,23.39,29.57,42.04.39,2.43-.67,5.89.43,8.24,1.21,2.59,8.16,1.19,6.95,10.2-1.09,8.14-.44,4.03,1.51,11.59,3.29,12.73,2.29,32.97-14.03,35-4.65.58-5.47,1.32-8.99,1.92-7.72,1.32-6.56-1.5-10.49-3.41-2.24-1.09-5.12-.62-7.88-2.12-6.22-3.4-3.43-9.24-4.14-14.86-.56-4.46-2.9-5.07-1.5-11.62s9.84-12.29,10.4-14.63c.36-1.53-.91-3.26-.88-4.83.14-7.17,7.7-5.78,8.1-8.93,1.25-9.9-6.1-26.69-15.06-31.54-15,41.07-48.9,72.52-90.55,85.97-.99,1.27,2.49,5.49,3.31,7.76,1.05,2.9,2.6,8.07,2.97,11.03.41,3.26-.37,12.69.71,14.28.89,1.31,3.94.94,5.6,2.68,2.65,2.79,1.53,7.52,2.07,8.16.63.77,16.04,5.26,18.88,6.62,8.38,4,11.19,12.72,12,21.5-.17.11.06,2.08-2.04,3.45-12.43,8.08-43.12,3.52-56.72-1.18-3.78-1.31-8.42-1.43-8.24-6.27.26-6.98,2.48-14.9,3.04-21.56.32-3.87-2.67-7.2,1.43-10.48,2.23-1.78,5.31-.77,5.62-3.45.66-5.77-4.57-26.41-11.54-26.57-5.69-.13-15.59,2.69-22.06,3.04-9.5.52-20.4-.08-29.87-1.11-6.11-.67-17.17-4.06-22.18-3.92-7.86.21-11.44,21.2-10.5,27.47.16.96,6.69.34,7.87,4.27-.29,10.68,1.8,21.78,4.19,32.3-13.15,8.79-36.53,11.71-52.24,9.74-2.58-.32-13.46-3.29-15.14-4.66-1.02-.83-.53-1.12-.62-2.08ZM357.87,78.09c-37.55-14.51-81.84-3.07-111.47,23.03-12.82,11.29-13.15,19.28-21.67,30.33-2.5,3.24-6.83,4.99-9.5,9.5-1.92,3.23-7.15,20.88-5.23,23.04,1.38-.04,2.79.91,3.88,1.11,4.41.79,6.95.25,12,2,1.68.59,3.54.88,5,2s4.47,6.57,5.58,6.83c.41.1,7.25-.66,8.42-.83,1.83-.28,6.33-5.23,7.46-7.04,1.85-2.97,2.43-6.81,4.17-9.83,11.65-20.22,22.68-26.83,44.12-34.88,12.62-4.74,26.69-10.07,40.25-7.25,7.33,3.54,15.26,6.17,17.99,15-2.91-2.09-5.15-4.8-7.99-7-10.34-8-17.31-7.68-29.99-4.99l11.99,3.99c4.26,2.81,8.47,6.36,12,10,19.19,31.26,10.59,77.85-3.82,109.68-3.02,6.67-7.23,13-10.17,19.32.6.16,1.67-.19,2,0,19.23,11.33,41.38,21.15,40.01,48,8.84-9.03,16.65-20.68,22.51-31.98,1.76-3.4,5.57-10.24,6.46-13.54.2-.73-9.79-4.24-4.43-12.44,3.28-5.02,8.31-3.33,9.33-4.16.87-.72,5.07-19.1,5.63-21.87,8.91-44.1,6.89-100.76-28.51-133.01-7.81-7.12-15.48-12.73-26-15ZM140.87,293.09c.17.15.08.86.5.99h1.5c.16-.58-.19-1.72,0-1.99,10-14.16,25.51-24,40-33.02-22.14-29.34-35.81-75.09-20.86-110.34,8.03-18.93,25.37-28.08,45.66-21.94,6.96,2.11,9.09,7.63,14.2-.7,3.02-4.92,4.77-10.35,8.17-15.33s8.5-8.98,11.83-14.15c-.48-2.08-18.02-8.8-21-9.52-20.02-8.92-46.56-9.97-66.98-1.48-66.14,27.49-56.35,116.62-33.48,170.45,3.53,8.31,14.35,31.6,20.47,37.03ZM302.87,246.08c6.35,1.54,15.3,10.2,20.99,11.62,1.31.33,1.45.37,2.55-.5,3.66-2.88,12.59-24.2,14.47-29.58,8.69-24.89,16.66-71.29-2.51-92.53-14.83-16.44-36.18-7.5-52.49,1.51,5.68,2.52,11.84,27.47,13.15,28.34,1.58,1.06,12.41,1.09,15.19,3.07,1.87,1.33,1.13,7.18,1.77,7.95,1.27,1.53,22.73,4.89,26.33,9.17,2.73,3.24,2.88,12.04-2.96,12.06-5.05.01-3.86-5.21-6.13-5.97l-23.36-2.11c-.57,6.02-1.08,14.47-5.51,18.99-1.88,1.92-7,3.58-7.97,5.03-1.52,2.27-2.62,10.41-4.55,13.45,6.44,1.73,11.79-2.86,16.06-6.96,1.91-1.83,1.47-4.36,4.95-3.53.11,7.32.74,13.9-2.96,20.54-1.19,2.14-7.9,8.26-7.03,9.45ZM203.77,163.99l3.38-18.11,4.28-10.81c-34.05-16.87-51.8,18.74-49.55,48.03,2.7-1.97,5.61-3.54,8.99-4.01-3.56-1.8-4.64-7.63-1.42-9.91,5.67-4.02,26.85-3.96,34.32-5.18ZM287.87,151.09c-1.06-2.14-4.86-10.37-6.66-10.91-5.86-1.76-21.31,18.71-22.35,24.41-.41,2.23-.09,1.29,1.02,1.04,3.99-.9,6.85-1.4,10.99-1.53,7.31-.24,14.69.18,22,0-.87-4.64-2.93-8.82-5-12.99ZM284.38,170.11l-7,1.99-20.06,26.02c.97,9.85,5.65,2.03,8.96-2.11,6.46-8.07,13.12-16.95,18.1-25.89ZM208.87,171.1c-2.5.16-5.53-.83-7.48,1.01l-18.77,24.25c-1.59,3.14-.11,9.58,3.24,5.21l23.02-30.47ZM299.87,172.1c-3.54.19-7.22-2.62-10.08.42-7.01,10.16-15.38,19.49-22.29,29.7-.61.9-3.47,4.15-2.62,4.87l8.98.53,26.01-35.52ZM223.87,173.1c-3.21-.83-6.72-1.85-9.99-.5l-24.52,33.49c1.99,1.15,6.61,2.71,8.5,1.52l26.01-34.52ZM232.15,220.79c3.68,3.08,5.28-.04,7.4-.38,1.54-.25,2.62.97,5.04-.03,2.26-.94,6.86-8.01,7.61-10.46,1.77-5.78-.54-5.07-1.83-8.82-1.95-5.7-2.67-14.28-10.76-12.85-6.07,1.08-6.59,12.58-10.3,17.78-2.76,3.86-16.98,10.06-7.98,11.11,7.97.93,4.41-.78,5.71-4.37.59-1.63,2.85-1.91,3.85-3.17,3.39-4.28,6.05-8.94,6.49-14.5,2.97,2.23-.19,10.92-1.71,13.28-1.37,2.11-6.24,4.29-6.63,6.37-.17.91,2.42,5.45,3.13,6.05ZM173.86,190.09c-.16-.19-4.7.94-4.86,1.13-1.24,1.52,2.05,7.45-6.13,5.87,2.44,12.74,5.82,25.48,11.14,37.35,1.82,4.05,8.54,17.14,11.38,19.64,2.22,1.97,8.01-1.24,9.85-2.91.76-.69,1.05-1.6.63-2.07-15.21-4.16-20.97-17.06-18.99-32.02,3.51-.86,3.03,1.77,4.94,3.54,5.98,5.53,10.21,7.88,18.61,5.52,1.27-.36,10.99-4.64,11.32-5.17.88-1.39-.7-6.28-2.53-6.77-1.38-.37-3.78,1.04-5.8.94-4.52-.23-12.34-1.17-16.52-2.57-10.59-3.56-13.18-12.08-13.04-22.47ZM74.87,222.09c-1.06-5.99.26-27.63-7.73-28.82-5.5-.82-4.68,4.06-4.17,8.22.37,3.04,3.17,16.45,4.08,18.91.63,1.7,4.39,3.2,5.81,4.69,1.53,1.6,3.12,3.63,3.01,6,4.13-1.35-.51-6.17-1.01-9ZM279.87,214.09c-8.14-.13-15.78.89-22.98-4,.62,2.71-5.56,6.48-1.54,7,8.66,1.13,13.66.49,22.52,4,1.45.58,7.33,5.46,8.99,4l3.01-10.99c-3.32-.05-6.67.05-10,0ZM80.87,231.09c-6.25.75-6.14,8.87-6,14-1.11.93-3.28,2.88-4,4-5.23.68-10.44-.68-12.57-5.94-.74-1.84-1.29-3.56,1.57-3.06.2.37.78.64,1,1,.31.51.13,1.68.93,2.52,5.29,5.61,14.93.99,7.07-7.52-6.35-6.88-18.46-7.55-17,4,1.07,8.42,12.43,21.92,21.99,21.01-.34,1.49-6.9,2.06-3.03,4.52,4.99,3.18,16.43-2.4,20.03-6.53,1.56-1.79,4.33-4.28,2.51-7.01-2.06-3.09-6.23,5.22-8.5,1.03,4.31-1.09,7.5-9.54,7.49-13.51,0-3.25-2.38-6.27-2.07-9.54.35-3.67,11.69-15.92,1.07-15.88-7.06.02-5.93,9.98-7.75,14.18-.84,1.93-2.59,2.45-2.74,2.74ZM72.87,234.09c1.78-6.89-12.32-14.65-15.52-9.02-2.58,4.53,3.03,2.37,6.08,3.97l9.44,5.05ZM266.87,253.09c-1.65.11-3.35-.06-5-.01l2.99-2.99c-5.44,2.56-21.41-7.92-23.32-7.82-1.58.08-8.19,4.75-11.14,5.85-4.06,1.52-9.2,2.47-13.53,2.97-.39,2.26,1.52,2.83,3.19,3.3,6.46,1.82,15.02,1.87,21.8,2.71.23,1.75-2.27.94-3.48.99-2.83.12-5.69-.13-8.51,0l-9-1c-.8,5.81.92,4.97,4,7,12.28,8.09,27.1,9.88,40,2,3.39-2.07,13.56-9.54,7.01-13.52-2.73-1.66-4.2.46-5.01.52ZM294.87,249.09c-4.7.9-9.09,2.42-14.05,2.45-1.47,5.15-3.78,7.31-6.99,11.05-.73.85-.77,2.28-.97,2.49-.61.66-5.79,1.7-4.99,4.98,18.37,12.82,38.02,23.62,56.91,35.6,6.24,3.96,16.75,13.66,23.02,14.97,18.34,3.82,27.3-15.12,16.06-28.55-.6-2.55-2.56-5.33-4.43-7.07-14.5-13.5-28.53-17.34-45.59-26.4-2.88-1.53-16.22-10.49-17.5-10.51-.9-.01-1.31.95-1.47.99ZM141.87,314.09c-.06.31.02.67,0,1-.5,6.69,6.66,12.73,13.23,11.81,7.17-1.01,21.3-13.27,28.46-17.61,19.02-11.52,40.94-19.03,57.29-34.69.04-1.49-10.25-2.79-11.98-3.5-3.38-1.38-11.75-8-14-11-.91-1.21-1.95-3.4-3-5-1.7-2.6-.02-3.63-5-4-2.39-.18-3.38,0-5.57.93-8.32,3.56-33.56,21.62-40.96,28.05s-15.04,15.06-17.99,25.01c-.7,2.35-2.2,6.85-.48,9.02ZM287.87,288.1l-25.48-16.63c-3.88,2.41-11.22,1.66-14.5,3.13-1.87.83-10.69,9.12-13.7,11.3-3.88,2.82-8.07,5.46-12.31,7.68,15.13,8.66,36.11,6.29,52.2,1.21,1.46-.46,14.72-5.32,13.79-6.7ZM239.87,305.09c-5.66-.78-12.24-2.42-18-5-3.09-1.38-2.05-4.09-7.72-2.23-8.15,2.67-25.63,12.84-33.2,17.81-4.97,3.26-9.79,6.75-14.06,10.92,10.5,10.62,24.09,17.26,38.19,21.79,51.36,16.47,108.4,10.02,151.78-22.79-3.3-1.05-6.83-.16-10.26-.73-4.7-.79-40.3-25-48.74-29.76-1.3-.73-2.4-2.93-4.33-2.82-16.29,9.24-34.98,13.16-53.67,12.82ZM441.87,306.09c-5.72-3.53-18.33-4.66-23.56-.06-1.21,1.06-2.13,4.31-1.43,5.06.41.44,8.84-4.2,6.99-.51-.41.81-9.3,7.01-11.5,9.5-3.07,3.47-4.52,5.53-5.49,10.01-.34,1.58-1.83,6.19,1.44,6.66.23.03,4.34-.55,4.5-.71.97-.95-1.82-7.03,2.05-5.94-.33,4.13,1.76,12.1-3.99,12.99l-.49-3.98c-7.16,10.58,2.94,18.26,11.49,7.99.75-.9,2.47-5.04,2.99-3.99-.05.98.13,2.02.01,2.99-.44.16-.89.56-1,1-.14.57.09,1.36,0,2-1.55.33-2.47,4.26-5,4.02,3.55,6.9,12.19,2.98,14-3.02l3.99-7c.33,3.87-.12,7.56-1.99,10.99,19.14-1.84,16.54-35.22,2-42.49.4-.83,3.29-.66,3.99-.49s3.5,2.37,3.99,2c1.71-5.07.38-4.92-2.99-7ZM189.86,388.1c-3.54-.43-6.54,4.47-6.07,7.38.13.78,10.71,3.49,10.13,10.11-.37,4.23-4.64,1.43-4.94,1.64-.34.23-.35,2.35-1.73,2.82-1.71.58-4.2-1.09-4.38-.95-2.44,1.84,2.28,10.17,2,13.01,11.58-1.68,22.79-3.66,23.93-17.65.73-8.96-5.94-6.38-12.97-8.82-1.11-.39-10.16-4.3-8.97-5.53l3-2ZM325.61,391.35c-.75-.79-2.59-1.32-3.73-1.26l2.99,2.49c-3.62,3.29-5.48,5.53-10.58,6.43-5.65,1-10.88-2.38-10.44,6.53.67,13.53,12.64,16.68,24.01,17.55l4.02-10c-2.32,1.09-3.33-2.01-3.59-2.01-1.03-.02-2.45,1.31-3.8.94-1.11-.3-1.21-2.25-1.87-2.67-2.63-1.66-8.47-.16-2.26-7.3,2.56-2.94,10.71-4.95,5.26-10.71ZM191.87,406.09c-.76-5.31-5.72-8.81-10.99-7.98l10.99,7.98ZM185.86,408.09c.83-5.6-5.44-8.7-9.98-8.99l9.98,8.99ZM330.87,400.1c-5.32-.78-9.1,2.24-11,6.98l4.05-1.44,6.95-5.54ZM335.86,401.1c-2.57-2.09-10.78,5.84-10.99,8.98.69.66,7.84-5.48,9.11-6.41.5-.37,3.69-1.11,1.89-2.58ZM181.87,409.08c-1.9-4.74-5.68-7.76-10.99-6.98l10.99,6.98ZM181.88,424.1c-.86-20.36-21.68-28.48-27.04-4.58-.04,2.21,24.01,5.31,27.04,4.58ZM340.87,404.1c-3.03-2.42-11.39,5.61-9.99,6.98l9.99-6.98ZM330.87,425.09h14.5c.65,0,11.48-2.97,11.57-3.57.15-5.46-5.57-15.35-11.57-15.35s-15.61,12.47-14.5,18.92ZM171.87,426.09c-5.45-.43-11.67-2.65-16.99-4-.66,5.77,9.08,5.43,12.99,6,.11.02.26.83,2,1,.66.06,1.34-.04,2,0,15.22,1,30.97-1.84,45.01-7.51-.1-4.2-7.62.04-10.38.64-10.2,2.21-24.28,4.69-34.63,3.87ZM338.87,427.09c-14.21.56-28.03-1.57-41.49-6.01-.89-.03-.64,2.83-.51,2.99.81.97,21.67,5.49,24.63,5.89,6.65.91,14.92,2.27,21.37.13,3.09.1,12.13-1.23,14.4-2.91.95-.7.77-2.89.59-3.08-.44-.47-10.43,2.62-12.63,2.87s-4.24.04-6.36.12Z"/><path class="cls-3" d="M357.87,78.09c10.52,2.27,18.19,7.88,26,15l13.27,28.23c17.4,49.97,1.69,117.95-27.77,160.75-9.36-10.41-21.54-17.92-34.5-22.98,23.26-31.16,40.02-95,10-126-3.53-3.64-7.74-7.19-12-10,5.71-2.93,12.26.28,18,1,2.84,2.2,5.08,4.91,7.99,7-2.73-8.83-10.66-11.46-17.99-15-2.14-1.03-3.96-2.77-6.73-3.77-37.75-13.73-88.53,22.61-89.27,62.77-1.16.17-8,.93-8.42.83-1.12-.26-4.11-5.7-5.58-6.83.93-5.38,7.97-25.6,12-28,5.72,4.35,10.76-5.81,4-7-.31-.05-.68,0-1,0,.04-2.94-2.06-3.4-4.45-3.02-7.56,1.18-17.07,28.41-15.55,36.02-5.05-1.75-7.59-1.21-12-2,.62-11.29,3.99-22.66,10.6-31.9,30.97-43.24,79.3-66.76,133.4-55.1ZM253.87,113.09c-.28,7.67,6.82,6.61,6,0,1.54-.13,13.22-8,15.98-9.52,2.56-1.41,12.6-4.91,13.02-5.48,4.37,6.94,10.09,3.37,7-4,6.6-.25,13.66-3.43,20.52-3.98,3.73-.3,21.08.84,22.39-1.1,4-5.94-11.49-8.74-14.91-8.91-.99-.05-2.01,0-3,0-17.98.15-44.5,9.61-58.48,21.02-3.51,2.87-8.35,7.26-8.52,11.98ZM352.37,98.08c0-2.76-2.24-5-5-5s-5,2.24-5,5,2.24,5,5,5,5-2.24,5-5ZM333.71,97.58c0-2-1.62-3.62-3.62-3.62s-3.62,1.62-3.62,3.62,1.62,3.62,3.62,3.62,3.62-1.62,3.62-3.62ZM359.16,100.29c0-1.68-1.36-3.04-3.04-3.04s-3.04,1.36-3.04,3.04,1.36,3.04,3.04,3.04,3.04-1.36,3.04-3.04ZM285.75,106.26c0-1.7-1.38-3.08-3.08-3.08s-3.08,1.38-3.08,3.08,1.38,3.08,3.08,3.08,3.08-1.38,3.08-3.08ZM376.88,109.09c2.81,2.84,7.95-4.67,3.48-5.99-3.86-1.14-4.19,5.27-3.48,5.99ZM380.87,119.09c-1.91-7.78-10.05-6.37-10,1,.07,10.54,11.64,8.06,11,.56-.08-.89-.95-1.33-1-1.56ZM398.21,139.01c0-2.67-2.16-4.83-4.83-4.83s-4.83,2.16-4.83,4.83,2.16,4.83,4.83,4.83,4.83-2.16,4.83-4.83ZM377.87,163.09c-.61,1.84-1.71,4.03,1.71,4.85s3.59-.97,4.29-2.85c2.84-7.63-3.87-8.42-6-2ZM401.26,183.07c0-1.6-1.3-2.9-2.9-2.9s-2.9,1.3-2.9,2.9,1.3,2.9,2.9,2.9,2.9-1.3,2.9-2.9ZM368.54,186.22c-6.52,2.21,1.82,13.49,6.34,8.39,3.47-3.91-1.59-10-6.34-8.39ZM390.99,202.32c0-2-1.62-3.62-3.62-3.62s-3.62,1.62-3.62,3.62,1.62,3.62,3.62,3.62,3.62-1.62,3.62-3.62ZM358.87,242.09c-4.03-4.16-9.59-.7-7.36,4.74.76,1.85,3.25,1.99,3.36,2.26.53,1.26-.98,4.73,1.52,6,7.76-4.78,11.56-14.74,14.48-23,.89-2.5,1.42-2.44,2-6,.04-.27.94-.65.83-2.23-.26-3.67-5.48-5.1-7.89-2.32-.72.83-6.31,18.03-6.94,20.56ZM374.87,258.09c2.73-9.99-5.66-9.82-8-5-3.84,7.9,3.52,11.8,8.14,6.48.89-1.02-.16-1.4-.14-1.48ZM356.87,262.69c0-1.76-1.42-3.18-3.18-3.18s-3.18,1.42-3.18,3.18,1.42,3.18,3.18,3.18,3.18-1.42,3.18-3.18Z"/><path class="cls-3" d="M291.87,299.09l35.04,19.46c.8.49,1.39,1.9.96,2.52-.55.81-15.1,8.18-17.32,9.19-41.44,18.82-92.07,19.38-132.65-1.67,10.55-11.35,26.18-15.02,38.9-23.08,2.1-1.33,4.97-2.52,5.08-5.42,5.76,2.58,12.34,4.22,18,5,16.86,2.32,35.97.79,52-6ZM278.87,310.09c-1.32.47-3.53-.84-5.52.98-3.68,3.35-.95,13.02,8.52,4.02,2.11-2.01,5.44-3,3.56-7.06-3.56-3.56-5.99,1.85-6.56,2.06ZM232,311.23c-2.31,3.63,2.82,8.91,5.41,3.86,2.09-4.08-4-6.06-5.41-3.86ZM308.87,323.09c4.1,4.2,7.83-.87,6.53-4.01-1-2.4-2.38-.95-2.53-.99-1.86-.49-3.69-2.1-5.56-.06-1.54,3.1.05,3.51,1.56,5.06ZM212.87,331.09c3.78,3.33,7.77,2.21,8-3,.56-12.32-17.62-5.47-8,3ZM198.74,328.95c2.31-3.63-2.82-8.91-5.41-3.86-2.09,4.08,4,6.06,5.41,3.86ZM260.87,332.09c3.97,5.39,10.12,3.07,8-3-3.06-8.73-12.94-3.71-8,3Z"/><path class="cls-3" d="M297.87,295.09c8.44,4.77,44.03,28.98,48.74,29.76,3.43.57,6.95-.32,10.26.73-43.38,32.81-100.42,39.26-151.78,22.79-14.1-4.52-27.69-11.17-38.19-21.79,4.27-4.16,9.09-7.65,14.06-10.92,7.58-4.97,25.05-15.15,33.2-17.81,5.67-1.86,4.63.85,7.72,2.23-.11,2.89-2.98,4.08-5.08,5.42-12.72,8.07-28.34,11.73-38.9,23.08,40.58,21.05,91.22,20.5,132.65,1.67,2.23-1.01,16.77-8.38,17.32-9.19.43-.62-.16-2.03-.96-2.52l-35.04-19.46c1.47-.62,4.49-2.94,6-4ZM306.63,340.09c0-1.25-1.01-2.26-2.26-2.26s-2.26,1.01-2.26,2.26,1.01,2.26,2.26,2.26,2.26-1.01,2.26-2.26ZM259.59,352.34c0-2.1-1.7-3.8-3.8-3.8s-3.8,1.7-3.8,3.8,1.7,3.8,3.8,3.8,3.8-1.7,3.8-3.8Z"/><path class="cls-3" d="M383.87,93.09c35.4,32.25,37.42,88.91,28.51,133.01-.56,2.77-4.76,21.15-5.63,21.87-1.02.84-6.05-.85-9.33,4.16-5.36,8.21,4.63,11.72,4.43,12.44-.89,3.3-4.69,10.14-6.46,13.54-5.86,11.3-13.68,22.95-22.51,31.98,1.37-26.85-20.78-36.67-40.01-48-1.06-3.6,1.86-2.82,2-3,12.96,5.06,25.15,12.57,34.5,22.98,29.46-42.81,45.17-110.79,27.77-160.75l-13.27-28.23ZM405.75,235.3c0-2.26-1.83-4.09-4.09-4.09s-4.09,1.83-4.09,4.09,1.83,4.09,4.09,4.09,4.09-1.83,4.09-4.09Z"/><path class="cls-3" d="M294.87,249.09c6.44,4.35,12.65,9.16,19.33,13.17,15.94,9.57,30.35,13.29,44.67,25.83,3.25,6.98,2.67,14.94-4.29,19.21-13.51,8.28-20.86-3.09-30.8-9.61-16.82-11.04-34.27-21.27-50.91-32.59.2-.21.24-1.64.97-2.49,3.21-3.74,5.52-5.9,6.99-11.05,4.96-.03,9.34-1.56,14.05-2.45ZM297.74,261.08c0-1.89-1.53-3.42-3.42-3.42s-3.42,1.53-3.42,3.42,1.53,3.42,3.42,3.42,3.42-1.53,3.42-3.42ZM305.87,270.09c4.42,10.41,10.33-1.31,5.4-2.92-3.41-1.12-3.76,1.64-5.4,2.92-.49-1.16-.51-2.71-1.09-3.9-7.85-1.53-5.44,9,1.09,3.9ZM318.87,276.09c-3.97,4.01-1.57,7.24,3.43,6.05,1.18-.28.35-1.47.57-2.05,1.85-4.87.39-8.43-4-4ZM349.81,289.01c0-2.13-1.73-3.85-3.85-3.85s-3.85,1.73-3.85,3.85,1.73,3.85,3.85,3.85,3.85-1.73,3.85-3.85ZM326.98,289.43c0-1.36-1.1-2.46-2.46-2.46s-2.46,1.1-2.46,2.46,1.1,2.46,2.46,2.46,2.46-1.1,2.46-2.46ZM338.38,295.1c-1.66.37-3.76,4.24-1,4.99,4.51,1.22,4.31-5.72,1-4.99Z"/><path class="cls-3" d="M211.87,255.09c-6.8,7.17-48.23,26.54-48.88,34.65-.12,1.47,1,2.4,2.39,2.39.88,0,12.13-8.59,14.49-10.04-3.74,15.48,16.79,6.47,3-1,2.68-1.61,19.4-11,20-12,4.69,3.92,7.88,2.22,7-4,.38-.04,5.97-3.76,5-5,2.25,3,10.62,9.62,14,11-16.55,14.52-40.69,20.77-57.48,34.02-3.67,2.89-6.16,7.19-10.47,9.53-7.11,3.86-11.77,2.35-19.05.45.02-.33-.06-.69,0-1,.73-3.55,5.57-12.38,7.77-15.73,13.18-20,39.75-31.44,58.7-45.26l-1.47-2.01c4.98.37,3.3,1.4,5,4ZM203.95,281.58c0-1.43-1.16-2.58-2.58-2.58s-2.58,1.16-2.58,2.58,1.16,2.58,2.58,2.58,2.58-1.16,2.58-2.58ZM160.87,303.09c1.43,1.84,1.07,5.63,6.07,3.57,3.96-6.77-2.55-6.02-3.07-6.57-.28-.29-1.22-7.53-5.07-2.58-2.78,3.58.87,4.04,2.07,5.58Z"/><path class="cls-3" d="M141.87,315.09c7.28,1.9,11.94,3.41,19.05-.45,4.31-2.34,6.8-6.63,10.47-9.53,16.79-13.25,40.93-19.51,57.48-34.02,1.73.71,12.02,2.01,11.98,3.5-16.35,15.66-38.27,23.17-57.29,34.69-7.16,4.34-21.29,16.6-28.46,17.61-6.58.93-13.73-5.12-13.23-11.81Z"/><path class="cls-3" d="M340.87,116.09c-13.56-2.82-27.63,2.51-40.25,7.25-21.45,8.05-32.48,14.66-44.12,34.88-1.74,3.02-2.31,6.86-4.17,9.83-1.13,1.81-5.63,6.76-7.46,7.04.74-40.16,51.53-76.5,89.27-62.77,2.76,1.01,4.59,2.74,6.73,3.77Z"/><path class="cls-3" d="M272.87,265.09c16.64,11.32,34.09,21.55,50.91,32.59,9.94,6.52,17.29,17.89,30.8,9.61,6.97-4.27,7.55-12.23,4.29-19.21,1.42,1.24,3.16,1.81,5,4,11.24,13.43,2.28,32.38-16.06,28.55-6.27-1.31-16.79-11.01-23.02-14.97-18.89-11.99-38.54-22.78-56.91-35.6-.8-3.28,4.38-4.32,4.99-4.98Z"/><path class="cls-2" d="M229.87,258.09c2.82-.13,5.68.12,8.51,0,1.21-.05,3.71.76,3.48-.99-6.78-.84-15.33-.89-21.8-2.71-1.67-.47-3.59-1.03-3.19-3.3,4.33-.5,9.47-1.45,13.53-2.97,2.95-1.1,9.56-5.77,11.14-5.85,1.91-.1,17.88,10.38,23.32,7.82l-2.99,2.99c1.65-.05,3.35.12,5,.01,2.12,4.59-.4,8.7-2,13-12.9,7.88-27.72,6.09-40-2v-6.01c1.65-.06,3.34.08,5,0Z"/><path class="cls-3" d="M357.87,78.09c-54.1-11.66-102.43,11.86-133.4,55.1-6.61,9.24-9.99,20.61-10.6,31.9-1.08-.19-2.5-1.15-3.88-1.11-1.92-2.16,3.31-19.81,5.23-23.04,2.68-4.51,7.01-6.26,9.5-9.5,8.52-11.05,8.85-19.04,21.67-30.33,29.63-26.09,73.92-37.54,111.47-23.03Z"/><path class="cls-3" d="M232.15,220.79c-.71-.6-3.3-5.14-3.13-6.05.39-2.08,5.27-4.25,6.63-6.37,1.52-2.35,4.68-11.05,1.71-13.28-.44,5.56-3.1,10.22-6.49,14.5-1,1.26-3.26,1.54-3.85,3.17-1.29,3.6,2.26,5.3-5.71,4.37-9-1.05,5.22-7.26,7.98-11.11,3.72-5.19,4.23-16.7,10.3-17.78,8.08-1.43,8.8,7.14,10.76,12.85,1.29,3.75,3.6,3.05,1.83,8.82-.75,2.46-5.34,9.53-7.61,10.46-2.42,1-3.5-.21-5.04.03-2.12.34-3.72,3.46-7.4.38ZM235.88,211.09c-.7.71-.37,7.13,3.48,5.99,4.46-1.32-.68-8.82-3.48-5.99Z"/><path class="cls-3" d="M334.87,259.09c-.14.18-3.06-.6-2,3-.33-.19-1.4.16-2,0,2.95-6.32,7.15-12.65,10.17-19.32,14.42-31.83,23.01-78.42,3.82-109.68,30.02,31,13.26,94.84-10,126Z"/><path class="cls-3" d="M206.87,251.09l1.47,2.01c-18.95,13.82-45.52,25.26-58.7,45.26-2.2,3.34-7.05,12.17-7.77,15.73-1.72-2.16-.22-6.67.48-9.02,2.96-9.95,10.3-18.33,17.99-25.01s32.64-24.49,40.96-28.05c2.19-.94,3.18-1.1,5.57-.93Z"/><path class="cls-3" d="M214.87,260.09c.97,1.24-4.62,4.96-5,5-.59.07-2.39-1.86-5-.54-2.33,1.18-1.52,3.75-2,4.54-.6,1-17.32,10.39-20,12-.6.36-2,.39-3,1-2.37,1.44-13.61,10.03-14.49,10.04-1.39.01-2.51-.91-2.39-2.39.65-8.11,42.08-27.48,48.88-34.65,1.05,1.6,2.09,3.79,3,5Z"/><path class="cls-3" d="M287.87,151.09c-4.13-1.17-5.01.92-6.85,2.31-4.76,2.19-8.17,5.53-10.15,10.69-4.13.14-7,.63-10.99,1.53-1.11.25-1.43,1.2-1.02-1.04,1.04-5.7,16.49-26.17,22.35-24.41,1.8.54,5.6,8.77,6.66,10.91Z"/><path class="cls-3" d="M245.87,134.09c-6.5-.1-6.81,3.6-2,7-.24.15-.75-.15-1,0-4.03,2.4-11.07,22.62-12,28-1.46-1.12-3.32-1.41-5-2-1.53-7.61,7.99-34.85,15.55-36.02,2.39-.37,4.5.09,4.45,3.02Z"/><path class="cls-3" d="M294.87,249.09c.16-.03.57-1,1.47-.99,1.28.02,14.63,8.98,17.5,10.51,17.06,9.06,31.09,12.91,45.59,26.4,1.87,1.74,3.83,4.52,4.43,7.07-1.84-2.19-3.58-2.76-5-4-14.32-12.54-28.73-16.26-44.67-25.83-6.68-4.01-12.89-8.82-19.33-13.17Z"/><path class="cls-3" d="M299.87,172.1l-26.01,35.52-8.98-.53c-.85-.72,2.01-3.97,2.62-4.87,6.91-10.21,15.29-19.54,22.29-29.7,2.86-3.04,6.54-.22,10.08-.42Z"/><path class="cls-3" d="M223.87,173.1l-26.01,34.52c-1.89,1.18-6.51-.37-8.5-1.52l24.52-33.49c3.28-1.35,6.78-.33,9.99.5Z"/><path class="cls-3" d="M208.87,171.1l-23.02,30.47c-3.34,4.37-4.83-2.08-3.24-5.21l18.77-24.25c1.95-1.84,4.98-.84,7.48-1.01Z"/><path class="cls-3" d="M284.38,170.11c-4.98,8.95-11.64,17.83-18.1,25.89-3.32,4.14-8,11.97-8.96,2.11l20.06-26.02,7-1.99Z"/><path class="cls-3" d="M297.87,295.09c-1.51,1.06-4.53,3.38-6,4-16.03,6.79-35.14,8.32-52,6,18.69.35,37.38-3.58,53.67-12.82,1.93-.11,3.03,2.08,4.33,2.82Z"/><path class="cls-3" d="M287.87,151.09c2.06,4.17,4.12,8.36,5,12.99-7.31.19-14.69-.23-22,0,1.98-5.17,5.4-8.51,10.15-10.69-2.01,1.01-2.83,3.46-1.82,5.47s3.46,2.83,5.47,1.82,2.83-3.46,1.82-5.47-3.46-2.83-5.47-1.82c1.84-1.39,2.72-3.48,6.85-2.31Z"/><path class="cls-3" d="M279.87,214.09l-2,7c-8.86-3.51-13.86-2.87-22.52-4-4.02-.52,2.16-4.3,1.54-7,7.2,4.89,14.84,3.87,22.98,4Z"/><path class="cls-3" d="M279.87,214.09c3.32.05,6.67-.04,10,0l-3.01,10.99c-1.66,1.46-7.54-3.42-8.99-4l2-7Z"/><path class="cls-3" d="M350.87,124.09c-5.74-.72-12.29-3.93-18-1l-11.99-3.99c12.68-2.69,19.66-3.01,29.99,4.99Z"/><path class="cls-4" d="M264.87,266.09c1.6-4.3,4.12-8.41,2-13,.81-.05,2.29-2.18,5.01-.52,6.55,3.98-3.62,11.45-7.01,13.52Z"/><path class="cls-4" d="M229.87,258.09c-1.66.08-3.35-.07-5.01,0v6.01c-3.08-2.03-4.8-1.19-4-7l9,1Z"/><path class="cls-2" d="M80.87,231.09c.16-.29,1.9-.81,2.74-2.74,1.83-4.19.69-14.15,7.75-14.18,10.62-.03-.72,12.22-1.07,15.88-.31,3.27,2.06,6.29,2.07,9.54,0,3.97-3.18,12.42-7.49,13.51,2.27,4.19,6.45-4.12,8.5-1.03,1.82,2.73-.95,5.22-2.51,7.01-4.27-.05-16.27,9.3-13.99,0-3.75,1.03-11.67-3.31-13-6.52-1.2-2.89,5.88-.76,6.93-1.58.39-.3-.12-1.63.06-1.9.72-1.12,2.89-3.07,4-4,.71-.6,3.02,1.44,1-1.99l2.99.99c1.1-2.55-1.94-1.83-1.91-2.42.19-3.14,2.4-7.72,3.92-10.58Z"/><path class="cls-2" d="M74.87,222.09c-.01,1.46-.57,2.57-2,3-1.42-1.49-5.18-3-5.81-4.69-.92-2.46-3.71-15.87-4.08-18.91-.51-4.16-1.34-9.05,4.17-8.22,7.98,1.19,6.67,22.83,7.73,28.82Z"/><path class="cls-4" d="M51.87,240.09c2.4-.69,3.72-2.13,6.51-2.08,2.58.05,1.08,1.32,1.49,2.08-2.86-.49-2.31,1.23-1.57,3.06,2.12,5.26,7.34,6.62,12.57,5.94-.17.27.33,1.6-.06,1.9-1.06.82-8.13-1.3-6.93,1.58,1.33,3.21,9.24,7.55,13,6.52-2.28,9.29,9.72-.05,13.99,0-3.6,4.14-15.04,9.71-20.03,6.53-3.87-2.46,2.68-3.04,3.03-4.52-9.56.91-20.93-12.59-21.99-21.01Z"/><path class="cls-2" d="M68.87,236.09c.29,5.11-3.76,5.42-8,5-.22-.36-.8-.63-1-1-.41-.76,1.09-2.04-1.49-2.08-2.8-.05-4.11,1.4-6.51,2.08-1.46-11.55,10.65-10.88,17-4Z"/><path class="cls-2" d="M72.87,234.09l-9.44-5.05c-3.05-1.6-8.66.56-6.08-3.97,3.2-5.63,17.31,2.13,15.52,9.02Z"/><path class="cls-4" d="M60.87,241.09c4.24.42,8.29.11,8-5,7.86,8.52-1.78,13.14-7.07,7.52-.8-.85-.62-2.02-.93-2.52Z"/><path class="cls-4" d="M80.87,231.09c-1.51,2.86-3.72,7.44-3.92,10.58-.04.59,3.01-.14,1.91,2.42l-2.99-.99c2.02,3.43-.29,1.4-1,1.99-.14-5.13-.25-13.25,6-14Z"/><path class="cls-4" d="M74.87,222.09c.5,2.83,5.14,7.65,1.01,9,.11-2.37-1.49-4.4-3.01-6,1.43-.43,1.99-1.54,2-3Z"/><path class="cls-3" d="M325.61,391.35c5.44,5.77-2.71,7.77-5.26,10.71-6.2,7.14-.36,5.63,2.26,7.3.66.42.76,2.36,1.87,2.67,1.36.37,2.77-.96,3.8-.94.27,0,1.28,3.1,3.59,2.01l-4.02,10c-11.37-.87-23.34-4.02-24.01-17.55-.44-8.91,4.8-5.54,10.44-6.53,5.1-.9,6.96-3.13,10.58-6.43l-2.99-2.49c1.14-.06,2.98.46,3.73,1.26Z"/><path class="cls-2" d="M330.87,425.09c-1.11-6.45,8.31-18.92,14.5-18.92s11.71,9.88,11.57,15.35c-.09.6-10.91,3.57-11.57,3.57h-14.5Z"/><path class="cls-4" d="M338.87,427.09c-.55,4.12.62,2.89,4,3-6.44,2.13-14.72.78-21.37-.13-2.96-.41-23.82-4.92-24.63-5.89-.13-.16-.38-3.02.51-2.99,13.45,4.44,27.28,6.58,41.49,6.01Z"/><path class="cls-2" d="M338.87,427.09c2.13-.08,4.22.12,6.36-.12s12.19-3.34,12.63-2.87c.18.19.36,2.38-.59,3.08-2.27,1.68-11.31,3.02-14.4,2.91-3.38-.11-4.55,1.12-4-3Z"/><path class="cls-2" d="M335.86,401.1c1.8,1.46-1.39,2.21-1.89,2.58-1.27.93-8.42,7.07-9.11,6.41.22-3.15,8.42-11.07,10.99-8.98Z"/><path class="cls-2" d="M330.87,400.1l-6.95,5.54-4.05,1.44c1.9-4.74,5.68-7.76,11-6.98Z"/><path class="cls-2" d="M340.87,404.1l-9.99,6.98c-1.4-1.38,6.96-9.4,9.99-6.98Z"/><path class="cls-3" d="M189.86,388.1l-3,2c-1.19,1.22,7.86,5.14,8.97,5.53,7.03,2.44,13.7-.14,12.97,8.82-1.14,13.99-12.35,15.97-23.93,17.65.28-2.84-4.44-11.17-2-13.01.18-.14,2.66,1.53,4.38.95,1.38-.47,1.39-2.59,1.73-2.82.3-.2,4.57,2.59,4.94-1.64.58-6.61-10-9.32-10.13-10.11-.47-2.9,2.53-7.81,6.07-7.38Z"/><path class="cls-2" d="M181.88,424.1c-3.02.73-27.08-2.37-27.04-4.58,5.36-23.9,26.18-15.78,27.04,4.58Z"/><path class="cls-4" d="M171.87,426.09c10.35.82,24.43-1.66,34.63-3.87,2.76-.6,10.28-4.84,10.38-.64-14.04,5.67-29.79,8.51-45.01,7.51v-3Z"/><path class="cls-2" d="M171.87,426.09v3c-.66-.04-1.34.06-2,0l-2-1c-3.91-.57-13.65-.22-12.99-6,5.32,1.35,11.55,3.57,16.99,4Z"/><path class="cls-4" d="M185.86,408.09l-9.98-8.99c4.54.29,10.82,3.4,9.98,8.99Z"/><path class="cls-2" d="M191.87,406.09l-10.99-7.98c5.27-.83,10.23,2.67,10.99,7.98Z"/><path class="cls-2" d="M181.87,409.08l-10.99-6.98c5.31-.78,9.1,2.24,10.99,6.98Z"/><path class="cls-4" d="M169.87,429.09c-1.74-.17-1.89-.98-2-1l2,1Z"/><path class="cls-3" d="M320.87,80.09c-4.35,7.53,6.29,6.74,3,0,3.42.17,18.91,2.98,14.91,8.91-1.31,1.95-18.66.8-22.39,1.1-6.85.56-13.92,3.74-20.52,3.98-.91.03-2.45-1.87-5-.55-2.29,1.19-1.64,4.06-2,4.55-.42.57-10.47,4.07-13.02,5.48-2.76,1.52-14.44,9.39-15.98,9.52-1.44.12-4.08-1.97-6,0,.17-4.72,5.01-9.11,8.52-11.98,13.98-11.41,40.5-20.87,58.48-21.02Z"/><path class="cls-3" d="M358.87,242.09c.62-2.53,6.22-19.73,6.94-20.56,2.41-2.77,7.63-1.35,7.89,2.32.11,1.58-.79,1.96-.83,2.23-8.22-7.57-12.49,6.51-2,6-2.92,8.26-6.72,18.21-14.48,23-2.49-1.27-.99-4.74-1.52-6,5.29-1.3,3.24-3.91,4-7Z"/><circle class="cls-4" cx="347.37" cy="98.08" r="5"/><path class="cls-3" d="M368.54,186.22c4.75-1.61,9.81,4.47,6.34,8.39-4.52,5.1-12.86-6.18-6.34-8.39Z"/><path class="cls-4" d="M370.87,120.09c-.05-7.37,8.09-8.78,10-1-.75,5.43-7.64,5.5-10,1Z"/><circle class="cls-3" cx="393.38" cy="139.01" r="4.83"/><path class="cls-4" d="M374.87,258.09c-4.82,2.67-8.03.38-8-5,2.34-4.82,10.73-4.99,8,5Z"/><path class="cls-3" d="M372.87,226.09c-.58,3.56-1.11,3.5-2,6-10.49.51-6.22-13.57,2-6Z"/><path class="cls-3" d="M358.87,242.09c-.76,3.09,1.29,5.7-4,7-.11-.27-2.6-.41-3.36-2.26-2.23-5.44,3.33-8.9,7.36-4.74Z"/><path class="cls-4" d="M295.87,94.09c3.09,7.37-2.63,10.94-7,4,.36-.48-.3-3.36,2-4.55,2.55-1.33,4.1.58,5,.55Z"/><path class="cls-3" d="M370.87,120.09c2.36,4.5,9.25,4.43,10-1,.06.23.93.67,1,1.56.63,7.51-10.93,9.98-11-.56Z"/><circle class="cls-3" cx="330.09" cy="97.58" r="3.62"/><circle class="cls-4" cx="387.37" cy="202.32" r="3.62"/><path class="cls-4" d="M245.87,134.09c.32,0,.69-.05,1,0,2.73,5.27.06,5.15-3,7-4.81-3.4-4.5-7.1,2-7Z"/><path class="cls-4" d="M383.87,165.09c-2.6.08-4.84.75-6-2,2.13-6.42,8.84-5.63,6,2Z"/><circle class="cls-3" cx="353.69" cy="262.69" r="3.18"/><path class="cls-3" d="M259.87,113.09c.82,6.61-6.28,7.67-6,0,1.92-1.97,4.56.12,6,0Z"/><path class="cls-3" d="M374.87,258.09c-.02.07,1.02.46.14,1.48-4.62,5.32-11.98,1.43-8.14-6.48-.03,5.38,3.18,7.67,8,5Z"/><circle class="cls-4" cx="282.67" cy="106.26" r="3.08"/><circle class="cls-3" cx="356.11" cy="100.29" r="3.04"/><path class="cls-3" d="M376.88,109.09c-.7-.71-.37-7.13,3.48-5.99,4.46,1.32-.68,8.82-3.48,5.99Z"/><circle class="cls-3" cx="398.36" cy="183.07" r="2.9"/><path class="cls-3" d="M323.87,80.09c3.29,6.74-7.35,7.53-3,0,.99,0,2.01-.05,3,0Z"/><path class="cls-3" d="M377.87,163.09c1.16,2.75,3.4,2.08,6,2-.7,1.88-1.03,3.64-4.29,2.85s-2.32-3.01-1.71-4.85Z"/><path class="cls-3" d="M246.87,134.09c6.76,1.19,1.72,11.35-4,7,.25-.15.76.15,1,0,3.06-1.85,5.73-1.73,3-7Z"/><path class="cls-4" d="M220.87,328.09c-2.53,2.18-4.39,3.7-8,3-9.62-8.47,8.56-15.32,8-3Z"/><path class="cls-3" d="M278.87,310.09c2.18.89,3.26,2.64,3,5-9.47,9-12.2-.67-8.52-4.02,1.99-1.81,4.2-.5,5.52-.98Z"/><path class="cls-4" d="M268.87,329.09c-2.28,3.04-3.98,5.55-8,3-4.94-6.71,4.94-11.73,8-3Z"/><path class="cls-3" d="M281.87,315.09c.26-2.36-.82-4.11-3-5,.57-.21,3-5.61,6.56-2.06,1.88,4.06-1.45,5.05-3.56,7.06Z"/><path class="cls-3" d="M232,311.23c1.41-2.21,7.5-.23,5.41,3.86-2.59,5.05-7.72-.23-5.41-3.86Z"/><path class="cls-3" d="M198.74,328.95c-1.41,2.21-7.5.23-5.41-3.86,2.59-5.05,7.72.23,5.41,3.86Z"/><path class="cls-4" d="M312.87,318.09c.4,3.31-.27,5.46-4,5-1.51-1.55-3.11-1.96-1.56-5.06,1.88-2.04,3.7-.43,5.56.06Z"/><path class="cls-3" d="M308.87,323.09c3.73.46,4.4-1.69,4-5,.16.04,1.54-1.41,2.53.99,1.3,3.14-2.44,8.2-6.53,4.01Z"/><path class="cls-3" d="M268.87,329.09c2.12,6.07-4.03,8.39-8,3,4.02,2.55,5.72.04,8-3Z"/><path class="cls-3" d="M220.87,328.09c-.23,5.21-4.22,6.33-8,3,3.61.7,5.47-.82,8-3Z"/><circle class="cls-4" cx="255.8" cy="352.34" r="3.8"/><circle class="cls-4" cx="304.37" cy="340.09" r="2.26"/><circle class="cls-4" cx="401.66" cy="235.3" r="4.09"/><circle class="cls-3" cx="345.95" cy="289.01" r="3.85"/><path class="cls-3" d="M305.87,270.09c1.64-1.28,1.98-4.04,5.4-2.92,4.93,1.61-.98,13.33-5.4,2.92Z"/><circle class="cls-3" cx="294.32" cy="261.08" r="3.42"/><path class="cls-3" d="M305.87,270.09c-6.53,5.1-8.93-5.43-1.09-3.9.58,1.19.59,2.74,1.09,3.9Z"/><path class="cls-4" d="M322.87,280.09c-3,.38-4.38-.94-4-4,4.39-4.43,5.85-.87,4,4Z"/><circle class="cls-3" cx="324.51" cy="289.43" r="2.46"/><path class="cls-3" d="M322.87,280.09c-.22.58.61,1.77-.57,2.05-5,1.19-7.4-2.04-3.43-6.05-.38,3.06,1,4.38,4,4Z"/><path class="cls-3" d="M338.38,295.1c3.3-.74,3.51,6.2-1,4.99-2.75-.74-.65-4.62,1-4.99Z"/><path class="cls-3" d="M182.87,281.09c13.79,7.47-6.74,16.48-3,1,1-.61,2.4-.64,3-1Z"/><path class="cls-3" d="M209.87,265.09c.88,6.22-2.31,7.92-7,4,.48-.8-.33-3.36,2-4.54,2.61-1.32,4.42.61,5,.54Z"/><path class="cls-3" d="M160.87,303.09l3-3c.52.55,7.03-.2,3.07,6.57-5,2.06-4.64-1.74-6.07-3.57Z"/><path class="cls-3" d="M160.87,303.09c-1.2-1.54-4.84-2-2.07-5.58,3.84-4.96,4.79,2.29,5.07,2.58l-3,3Z"/><circle class="cls-3" cx="201.37" cy="281.58" r="2.58"/><path class="cls-2" d="M441.87,306.09l-1,5c-.7-.17-3.6-.34-3.99.49,14.54,7.27,17.14,40.65-2,42.49,1.87-3.42,2.32-7.11,1.99-10.99l-3.99,7c-2.62.9-7.06-1.41-9-1,.09-.64-.14-1.43,0-2,.47-.11.94-.54,1-1,.12-.97-.06-2.02-.01-2.99-.52-1.04-2.24,3.09-2.99,3.99-11.34,1.06-2.03-13.11-5.44-18.06-.76-1.1-4.23-1.28-4.55-.95-.35.35-.66,10.74-5.01,2.01.97-4.48,2.42-6.54,5.49-10.01,2.2-2.49,11.1-8.69,11.5-9.5,1.85-3.69-6.58.95-6.99.51-.69-.75.22-3.99,1.43-5.06,5.23-4.59,17.85-3.47,23.56.06ZM424.87,337.09v1h21v-1h-21Z"/><path class="cls-4" d="M421.87,347.09c-8.54,10.27-18.65,2.59-11.49-7.99l.49,3.98c5.76-.89,3.66-8.86,3.99-12.99-3.87-1.09-1.08,4.99-2.05,5.94-.16.16-4.28.75-4.5.71-3.27-.47-1.78-5.08-1.44-6.66,4.34,8.73,4.66-1.66,5.01-2.01.33-.33,3.79-.16,4.55.95,3.41,4.95-5.9,19.12,5.44,18.06Z"/><path class="cls-4" d="M432.87,350.09c-1.8,6-10.44,9.93-14,3.02,2.52.23,3.45-3.7,5-4.02,1.94-.41,6.38,1.9,9,1Z"/><path class="cls-4" d="M441.87,306.09c3.36,2.08,4.7,1.93,2.99,7-.48.37-3.26-1.82-3.99-2l1-5Z"/><path class="cls-4" d="M423.87,347.09c.11-.44.56-.84,1-1-.06.46-.53.89-1,1Z"/><rect class="cls-1" x="424.87" y="337.09" width="21" height="1"/><path class="cls-4" d="M235.88,211.09c2.81-2.84,7.95,4.67,3.48,5.99-3.86,1.14-4.19-5.27-3.48-5.99Z"/><circle class="cls-4" cx="282.85" cy="157.04" r="4.08"/><path class="cls-3" d="M220.87,87.09c2.99.72,20.52,7.44,21,9.52-3.33,5.17-8.35,9.06-11.83,14.15s-5.15,10.41-8.17,15.33c-36.55-20.47-72.87.22-76.04,41.46-2.14,27.86,4.6,55.06,17.52,79.55,1.23,2.34,9.4,13.79,8.52,14.97-9.96,4.97-22.94,16.12-28.64,25.87-.7,1.19-2.62,3.18-.36,4.14-.19.27.16,1.41,0,2h-1.5c-.42-.14-.33-.85-.5-1,.4-2.21-.13-3.59-.94-5.55-4.15-10-10.56-19.59-14.81-30.2-21.96-54.9-29.97-131.55,30.75-163.25-1.45,1.88-.67,3.96,0,6-5.64.53-22.65,17.36-21.83,23.26,1.3,9.34,10.18-.52,13.83-2.26,1.2,8.64,12.18,6.66,11.99.58-.03-1.09-.84-1.88-.99-2.58-.57-2.69-.06-4.35-3-6-.31-2.42,3.32-3.6,4.99-4.52,5.08-2.79,11.49-6.29,17.01-7.48.15,1.59-.55,4.51.93,5.57,3.56,2.55,6.9-2.37,4.63-5.63-1.53-2.2-4.05-.27-5.56.06-.34-3.67,1.48-6.05-3.22-7.37-2.11-.59-11.98,1.01-12.78,2.37-.76-1.73-2.03-2.93-4-3,21.17-10.22,39.84-11.59,63-6ZM226.02,96.33c0-2.45-1.98-4.43-4.43-4.43s-4.43,1.98-4.43,4.43,1.98,4.43,4.43,4.43,4.43-1.98,4.43-4.43ZM195.87,107.09c4.55,6.24,13.05,1.04,10-7-3.99-10.52-16.31-1.67-10,7ZM122.87,151.09c-.06.09-1.81-.38-2.07.63-.46,1.75,1.06,3.08,1.07,3.37.12,4.45-1.29,9.32-1.04,14.54.14,3,1.27,13.73,4.57,14.44,1.25.3,1.76-.7,2.36-1.59,1.58-2.38,1.64-16.92,2.39-21.61s2.19-9.61,3.7-14.3c1.35-4.18,8.79-15.22-.62-16.22-6.74-.72-8.39,9.11-9.71,13.9-.52,1.89-.48,6.55-.66,6.85ZM138.04,164.82c0-1.9-1.54-3.44-3.44-3.44s-3.44,1.54-3.44,3.44,1.54,3.44,3.44,3.44,3.44-1.54,3.44-3.44ZM126.87,189.51l-3.58,3.58,3.58,3.58,3.58-3.58-3.58-3.58ZM131.95,207.58c0-1.43-1.16-2.58-2.58-2.58s-2.58,1.16-2.58,2.58,1.16,2.58,2.58,2.58,2.58-1.16,2.58-2.58ZM147.03,210.97c0-1.95-1.58-3.53-3.53-3.53s-3.53,1.58-3.53,3.53,1.58,3.53,3.53,3.53,3.53-1.58,3.53-3.53ZM130.87,243.09c5.09,5.64,13.68-2.82,7-8s-11.98,2.48-7,8ZM158.14,248.56c0-1.26-1.02-2.27-2.27-2.27s-2.27,1.02-2.27,2.27,1.02,2.27,2.27,2.27,2.27-1.02,2.27-2.27ZM161.18,262.59c0-2.11-1.71-3.81-3.81-3.81s-3.81,1.71-3.81,3.81,1.71,3.81,3.81,3.81,3.81-1.71,3.81-3.81ZM146.76,266.98c3.01-4.84-8.69-8.79-3.92.67.71.78,3.81-.49,3.92-.67Z"/><path class="cls-3" d="M221.87,126.09c-5.11,8.33-7.24,2.81-14.2.7-20.28-6.14-37.63,3.02-45.66,21.94-14.95,35.25-1.29,80.99,20.86,110.34-14.49,9.02-30,18.86-40,33.02-2.26-.96-.34-2.96.36-4.14,5.7-9.75,18.67-20.9,28.64-25.87.88-1.18-7.28-12.63-8.52-14.97-12.91-24.49-19.66-51.69-17.52-79.55,3.17-41.24,39.49-61.94,76.04-41.46Z"/><path class="cls-3" d="M220.87,87.09c-23.16-5.59-41.83-4.22-63,6-.69.33-1.32.64-2,1-60.72,31.7-52.71,108.35-30.75,163.25,4.24,10.61,10.66,20.2,14.81,30.2.82,1.96,1.35,3.34.94,5.55-6.12-5.43-16.94-28.72-20.47-37.03-22.87-53.83-32.65-142.96,33.48-170.45,20.42-8.49,46.96-7.44,66.98,1.48Z"/><path class="cls-3" d="M177.87,101.09c-5.53,1.2-11.93,4.7-17.01,7.48-1.67.92-5.29,2.1-4.99,4.52-5.81-3.27-7.98,1.8-8,7,0,.32-.04.68,0,1-3.66,1.74-12.53,11.6-13.83,2.26-.82-5.91,16.19-22.74,21.83-23.26,1.84-.17,3.31,2.4,5.47-1.07.63-1.01.31-2.57.53-2.93.8-1.36,10.68-2.96,12.78-2.37,4.69,1.32,2.87,3.69,3.22,7.37Z"/><path class="cls-3" d="M121.87,155.09c3.51.1,4.63-4.71,1-4,.18-.29.14-4.96.66-6.85,1.32-4.79,2.96-14.61,9.71-13.9,9.41,1,1.97,12.04.62,16.22-1.51,4.68-2.93,9.42-3.7,14.3s-.8,19.23-2.39,21.61c-.59.89-1.11,1.89-2.36,1.59-3.31-.71-4.43-11.44-4.57-14.44-.25-5.22,1.16-10.09,1.04-14.54Z"/><path class="cls-4" d="M205.87,100.09c-.27,5.66-4.3,9.83-10,7-6.31-8.67,6.01-17.52,10-7Z"/><path class="cls-4" d="M155.87,113.09c2.94,1.65,2.43,3.31,3,6-3.43,4.83-6.83,5.31-11,1,.02-5.2,2.19-10.27,8-7Z"/><path class="cls-4" d="M137.87,235.09c.72,5.78-.84,8.84-7,8-4.98-5.52.26-13.22,7-8Z"/><circle class="cls-3" cx="221.6" cy="96.33" r="4.43"/><path class="cls-3" d="M147.87,121.09c-.04-.32,0-.68,0-1,4.17,4.31,7.57,3.83,11-1,.15.7.95,1.49.99,2.58.19,6.08-10.79,8.06-11.99-.58Z"/><circle class="cls-3" cx="157.37" cy="262.59" r="3.81"/><path class="cls-3" d="M157.87,93.09c1.97.07,3.24,1.27,4,3-.22.37.11,1.92-.53,2.93-2.17,3.47-3.63.89-5.47,1.07-.67-2.04-1.45-4.12,0-6,.68-.36,1.31-.67,2-1Z"/><path class="cls-3" d="M177.87,101.09c1.51-.33,4.03-2.26,5.56-.06,2.27,3.26-1.07,8.18-4.63,5.63-1.48-1.06-.78-3.99-.93-5.57Z"/><circle class="cls-3" cx="143.5" cy="210.97" r="3.53"/><circle class="cls-4" cx="134.6" cy="164.82" r="3.44"/><path class="cls-3" d="M130.87,243.09c6.16.84,7.72-2.22,7-8,6.68,5.18-1.91,13.64-7,8Z"/><path class="cls-3" d="M195.87,107.09c5.7,2.83,9.73-1.34,10-7,3.05,8.04-5.45,13.24-10,7Z"/><path class="cls-4" d="M146.76,266.98c-.11.18-3.22,1.45-3.92.67-4.76-9.46,6.93-5.51,3.92-.67Z"/><rect class="cls-3" x="124.34" y="190.56" width="5.07" height="5.07" transform="translate(-99.38 146.27) rotate(-45)"/><circle class="cls-3" cx="129.37" cy="207.58" r="2.58"/><circle class="cls-3" cx="155.86" cy="248.56" r="2.27"/><path class="cls-3" d="M122.87,151.09c3.63-.71,2.51,4.1-1,4,0-.29-1.52-1.62-1.07-3.37.26-1.01,2.01-.54,2.07-.63Z"/></svg>