<?xml version="1.0" encoding="UTF-8"?><svg id="Layer_1" xmlns="http://www.w3.org/2000/svg" viewBox="0 0 500 500"><defs><style>.cls-1{fill:#322b29;}.cls-2{fill:#fefefe;}.cls-3,.cls-4{fill:#231f20;}.cls-5{fill:#33bba6;}.cls-6{letter-spacing:-.06em;}.cls-7{letter-spacing:-.07em;}.cls-4,.cls-8{font-family:AzoSansUber-Regular, 'Azo Sans Uber';font-size:70px;stroke:#231f20;stroke-miterlimit:10;stroke-width:2px;}.cls-8{fill:#fff;}.cls-9{letter-spacing:-.07em;}.cls-10{fill:#b5b6b6;}</style></defs><text class="cls-4" transform="translate(123.78 440.53)"><tspan x="0" y="0">SQ</tspan><tspan class="cls-6" x="105.14" y="0">U</tspan><tspan x="158.97" y="0">AD</tspan></text><text class="cls-4" transform="translate(32.57 81.69)"><tspan x="0" y="0">SN</tspan><tspan class="cls-9" x="103.6" y="0">A</tspan><tspan x="158.27" y="0">CK </tspan><tspan class="cls-7" x="285.81" y="0">D</tspan><tspan x="337.12" y="0">AD </tspan></text><path class="cls-3" d="M219.52,364.36c.14.03.27.07.4.1l6.29.17c-2.06-.39-3.91-.64-5.25-.61-.5.01-.98.14-1.45.34Z"/><path class="cls-3" d="M280.25,366.08l-54.04-1.45c4.64.87,10.39,2.41,14.08,2.81,8.25.9,17.75,1.42,26.02.97,3.81-.21,8.98-1.39,13.47-2.11.15-.08.31-.16.47-.22Z"/><path class="cls-3" d="M377.02,271.74c-4.29,6.57,2.71,9.68,3.74,10.64,2.1-4.5,3.55-9.07,4.36-14.25-.95.68-5.27-.72-8.09,3.61Z"/><path class="cls-3" d="M226.39,286.01c-2.86-3.43-5.93-6.24-9.23-8.58.28.47.55.91.8,1.25,1.34,1.79,5.19,5.06,8.43,7.33Z"/><path class="cls-3" d="M206.38,271.54c-1.57-.65-3.17-1.25-4.82-1.8,0,.01,0,.03,0,.04,1.29.71,2.55,1.46,3.8,2.22.28-.13.54-.26.79-.36.08-.04.16-.06.24-.1Z"/><path class="cls-3" d="M254.45,195.77c-.96.25-1.92.51-2.87.75-.07.16-.13.32-.2.48,1.06-.44,2.07-.85,3.07-1.23Z"/><path class="cls-3" d="M293.97,265.9c.29-.15.58-.28.88-.43.18-.32.44-.7.75-1.1-.58.46-1.12.98-1.63,1.53Z"/><path class="cls-3" d="M214.27,194.98h-6.24s-.05,0-.08.01c2.3.07,4.61.08,6.91.14-.2-.06-.39-.12-.59-.15Z"/><path class="cls-3" d="M256.39,195.09c-.64.21-1.29.44-1.93.68.63-.17,1.26-.33,1.89-.49.02-.06.03-.12.05-.19Z"/><path class="cls-3" d="M290.77,194.77c-.08-.2-.17-.42-.26-.66h-4.79c.06.28.13.56.19.84,1.62.08,3.24.04,4.86-.18Z"/><path class="cls-3" d="M262.01,287.47c.71-.32,1.41-.64,2.1-.99.03-.23.11-.45.22-.65-.77.55-1.54,1.1-2.32,1.64Z"/><path class="cls-3" d="M291.27,269.37c.73-1.06,1.37-2.1,2.22-2.95.15-.19.32-.35.48-.53-1.54.79-3.05,1.63-4.54,2.49.42.19,1.06.53,1.84.99Z"/><path class="cls-3" d="M268.62,282.71c-.4.29-.79.58-1.19.87.52-.23.94-.4,1.08-.55.04-.05.08-.16.12-.32Z"/><path class="cls-3" d="M376.78,157.76l-11.56-24.6c-6.81-6.2-13.49-11.1-22.65-13.07-47.13-10.16-89.25,10.33-116.23,48.01-5.76,8.05-8.7,17.96-9.24,27.79,3.85.69,6.05.21,10.46,1.74-1.33-6.63,6.96-30.36,13.54-31.39,2.08-.32,3.92.07,3.88,2.63.28,0,.6-.05.87,0,5.89,1.04,1.49,9.89-3.49,6.1-3.51,2.09-9.64,19.71-10.46,24.4,1.29.99,3.89,5.72,4.87,5.95.36.08,6.32-.57,7.33-.73.65-34.99,44.89-66.65,77.78-54.69,2.41.88,4,2.39,5.86,3.29,6.39,3.08,13.3,5.37,15.67,13.07-2.53-1.82-4.49-4.18-6.96-6.1-5-.63-10.7-3.42-15.68-.87,3.71,2.45,7.38,5.54,10.46,8.71,26.16,27.01,11.56,82.64-8.71,109.78,11.29,4.41,21.91,10.95,30.06,20.02,25.67-37.3,39.36-96.53,24.2-140.06ZM277.04,147.32c-1.48,0-2.68-1.2-2.68-2.68s1.2-2.68,2.68-2.68,2.68,1.2,2.68,2.68-1.2,2.68-2.68,2.68ZM318.36,140.23c-1.74,0-3.16-1.41-3.16-3.16s1.41-3.16,3.16-3.16,3.16,1.41,3.16,3.16-1.41,3.16-3.16,3.16ZM325.93,129.6c-1.14,1.7-16.26.7-19.51.96-5.97.48-12.13,3.26-17.88,3.47,2.7,6.42-2.29,9.53-6.1,3.49-.37.49-9.12,3.55-11.35,4.77-2.41,1.33-12.58,8.18-13.92,8.3.72,5.76-5.47,6.68-5.23,0,.15-4.11,4.36-7.94,7.43-10.44,12.18-9.94,35.29-18.18,50.95-18.32.87,0,1.75-.04,2.61,0,2.98.15,16.47,2.59,12.99,7.76ZM333.41,141.87c-2.41,0-4.36-1.95-4.36-4.36s1.95-4.36,4.36-4.36,4.36,1.95,4.36,4.36-1.95,4.36-4.36,4.36ZM341.03,142.09c-1.46,0-2.65-1.19-2.65-2.65s1.19-2.65,2.65-2.65,2.65,1.19,2.65,2.65-1.19,2.65-2.65,2.65ZM362.16,141.89c3.89,1.15-.59,7.69-3.04,5.22-.61-.62-.32-6.21,3.04-5.22ZM338.92,283.71c-1.53,0-2.77-1.24-2.77-2.77s1.24-2.77,2.77-2.77,2.77,1.24,2.77,2.77-1.24,2.77-2.77,2.77ZM341.27,274.31c-2.17-1.1-.86-4.13-1.32-5.22-.1-.23-2.27-.36-2.93-1.97-1.95-4.74,2.9-7.75,6.41-4.13.54-2.2,5.42-17.19,6.05-17.91,2.1-2.42,6.65-1.18,6.88,2.02.1,1.38-.68,1.71-.72,1.95-.51,3.1-.97,3.05-1.74,5.23-2.55,7.2-5.86,15.87-12.62,20.04ZM357.5,278.22c-4.03,4.64-10.44,1.24-7.09-5.64,2.04-4.2,9.35-4.35,6.97,4.36-.02.06.89.4.12,1.29ZM357.38,221.62c-3.94,4.44-11.21-5.38-5.52-7.31,4.14-1.4,8.55,3.9,5.52,7.31ZM353.89,156.69c-.04-6.42,7.05-7.65,8.71-.87.05.2.81.58.87,1.36.55,6.54-9.53,8.7-9.59-.48ZM361.48,198.39c-2.98-.72-2.02-2.62-1.49-4.23,1.85-5.6,7.7-4.91,5.23,1.74-.61,1.64-.9,3.17-3.74,2.49ZM368.27,231.48c-1.74,0-3.15-1.41-3.15-3.15s1.41-3.15,3.15-3.15,3.15,1.41,3.15,3.15-1.41,3.15-3.15,3.15ZM369.29,173.18c0-2.32,1.88-4.21,4.21-4.21s4.21,1.88,4.21,4.21-1.88,4.21-4.21,4.21-4.21-1.88-4.21-4.21ZM377.84,214.09c-1.4,0-2.53-1.13-2.53-2.53s1.13-2.53,2.53-2.53,2.53,1.13,2.53,2.53-1.13,2.53-2.53,2.53Z"/><path class="cls-3" d="M375.26,294.38c1.54-2.96,4.85-8.92,5.63-11.8.17-.63-8.53-3.69-3.86-10.84,2.85-4.37,7.24-2.9,8.13-3.63.76-.63,4.42-16.64,4.91-19.05,7.77-38.42,6-87.79-24.84-115.89l11.56,24.6c15.16,43.54,1.47,102.77-24.2,140.06-8.15-9.07-18.77-15.61-30.06-20.02-.12.16-2.67-.52-1.74,2.61,16.76,9.87,36.06,18.43,34.86,41.82,7.7-7.87,14.51-18.02,19.61-27.86ZM380.72,253.51c1.97,0,3.56,1.59,3.56,3.56s-1.59,3.56-3.56,3.56-3.56-1.59-3.56-3.56,1.59-3.56,3.56-3.56Z"/><path class="cls-3" d="M287.67,269.09c5.61,3.79,11.02,7.98,16.84,11.48,13.89,8.34,26.45,11.58,38.92,22.5,2.84,6.08,2.33,13.01-3.74,16.73-11.77,7.21-18.18-2.69-26.83-8.38-14.66-9.62-29.86-18.53-44.36-28.4.17-.19.21-1.43.84-2.17,2.79-3.26,4.81-5.14,6.09-9.63,4.32-.03,8.14-1.36,12.24-2.14ZM290.17,279.54c0-1.64-1.33-2.98-2.98-2.98s-2.98,1.33-2.98,2.98,1.33,2.98,2.98,2.98,2.98-1.33,2.98-2.98ZM297.26,287.39c3.85,9.07,9-1.14,4.7-2.55-2.98-.97-3.27,1.43-4.7,2.55-.43-1.01-.44-2.36-.95-3.4-6.84-1.33-4.74,7.84.95,3.4ZM308.58,292.61c-3.46,3.49-1.37,6.31,2.99,5.27,1.03-.24.31-1.28.5-1.79,1.61-4.24.34-7.34-3.49-3.49ZM335.54,303.87c0-1.85-1.5-3.36-3.36-3.36s-3.36,1.5-3.36,3.36,1.5,3.36,3.36,3.36,3.36-1.5,3.36-3.36ZM315.65,304.24c0-1.19-.96-2.15-2.15-2.15s-2.15.96-2.15,2.15.96,2.15,2.15,2.15,2.15-.96,2.15-2.15ZM325.58,309.17c-1.44.32-3.27,3.7-.87,4.34,3.93,1.06,3.75-4.99.87-4.34Z"/><path class="cls-3" d="M215.35,274.32c-5.92,6.24-42.02,23.12-42.59,30.19-.1,1.28.87,2.09,2.08,2.08.77,0,10.57-7.49,12.63-8.74-3.26,13.49,14.63,5.64,2.61-.87,2.33-1.4,16.9-9.58,17.43-10.46,4.09,3.42,6.87,1.93,6.1-3.49.33-.04,5.2-3.28,4.36-4.36,1.96,2.61,9.25,8.38,12.2,9.58-14.42,12.65-35.45,18.1-50.08,29.64-3.2,2.52-5.37,6.27-9.12,8.3-6.19,3.36-10.26,2.05-16.6.39.02-.29-.05-.6,0-.87.63-3.1,4.85-10.79,6.77-13.7,11.48-17.43,34.64-27.39,51.15-39.44l-1.28-1.75c4.34.32,2.88,1.22,4.36,3.49ZM208.45,297.4c0-1.24-1.01-2.25-2.25-2.25s-2.25,1.01-2.25,2.25,1.01,2.25,2.25,2.25,2.25-1.01,2.25-2.25ZM170.92,316.14c1.24,1.6.93,4.91,5.29,3.11,3.45-5.9-2.22-5.25-2.67-5.73-.24-.25-1.06-6.57-4.41-2.24-2.42,3.12.76,3.52,1.8,4.86Z"/><path class="cls-3" d="M327.75,153.21c-11.82-2.46-24.07,2.19-35.07,6.32-18.69,7.01-28.3,12.77-38.44,30.39-1.52,2.63-2.02,5.98-3.63,8.57-.98,1.58-4.9,5.89-6.5,6.13.65-34.99,44.89-66.65,77.78-54.69,2.41.88,4,2.39,5.86,3.29Z"/><path class="cls-3" d="M342.56,120.1c-47.13-10.16-89.25,10.33-116.23,48.01-5.76,8.05-8.7,17.96-9.24,27.79-.94-.17-2.18-1-3.38-.96-1.67-1.88,2.89-17.26,4.56-20.07,2.33-3.93,6.1-5.45,8.28-8.27,7.43-9.63,7.71-16.59,18.88-26.43,25.82-22.74,64.41-32.71,97.13-20.06Z"/><path class="cls-3" d="M322.52,277.8c-.12.16-2.67-.52-1.74,2.61-.29-.17-1.22.14-1.74,0,2.57-5.51,6.23-11.02,8.86-16.83,12.56-27.73,20.05-68.33,3.33-95.56,26.16,27.01,11.56,82.64-8.71,109.78Z"/><path class="cls-3" d="M211,270.83l1.28,1.75c-16.51,12.04-39.66,22.01-51.15,39.44-1.92,2.91-6.14,10.61-6.77,13.7-1.5-1.89-.19-5.81.42-7.86,2.58-8.67,8.98-15.97,15.68-21.79,6.45-5.6,28.44-21.34,35.69-24.44,1.91-.82,2.77-.96,4.85-.81Z"/><path class="cls-3" d="M217.97,278.67c.84,1.08-4.03,4.32-4.36,4.36-.51.06-2.09-1.62-4.36-.47-2.03,1.03-1.32,3.26-1.74,3.96-.53.88-15.09,9.06-17.43,10.46-.52.31-1.74.34-2.61.87-2.06,1.26-11.86,8.74-12.63,8.74-1.21.01-2.18-.8-2.08-2.08.57-7.07,36.67-23.95,42.59-30.19.91,1.4,1.82,3.3,2.61,4.36Z"/><path class="cls-3" d="M281.57,183.7c-3.6-1.02-4.36.8-5.96,2.01-4.14,1.9-7.12,4.82-8.85,9.32-3.6.12-6.1.55-9.57,1.33-.97.22-1.25,1.04-.89-.9.91-4.96,14.37-22.8,19.48-21.27,1.57.47,4.88,7.64,5.8,9.51Z"/><path class="cls-3" d="M244.98,168.89c-5.66-.08-5.93,3.13-1.74,6.1-.21.13-.66-.13-.87,0-3.51,2.09-9.64,19.71-10.46,24.4-1.27-.98-2.89-1.23-4.36-1.74-1.33-6.63,6.96-30.36,13.54-31.39,2.08-.32,3.92.07,3.88,2.63Z"/><path class="cls-3" d="M287.67,269.09c.14-.03.5-.87,1.28-.86,1.12.02,12.74,7.82,15.25,9.15,14.86,7.9,27.09,11.25,39.72,23.01,1.63,1.52,3.34,3.94,3.86,6.16-1.6-1.91-3.12-2.4-4.36-3.49-12.48-10.92-25.03-14.17-38.92-22.5-5.82-3.49-11.23-7.69-16.84-11.48Z"/><path class="cls-3" d="M290.28,309.17c-1.32.92-3.95,2.94-5.23,3.49-13.97,5.92-30.62,7.25-45.31,5.23,16.29.3,32.57-3.12,46.76-11.17,1.68-.1,2.64,1.82,3.77,2.45Z"/><path class="cls-3" d="M281.57,183.7c1.8,3.64,3.59,7.28,4.35,11.32-6.37.16-12.8-.2-19.16,0,1.73-4.5,4.7-7.41,8.85-9.32-1.75.88-2.46,3.01-1.59,4.77s3.01,2.46,4.77,1.59,2.46-3.01,1.59-4.77-3.01-2.46-4.77-1.59c1.6-1.21,2.37-3.03,5.96-2.01Z"/><path class="cls-3" d="M336.46,160.18c-5-.63-10.7-3.42-15.68-.87l-10.45-3.48c11.05-2.34,17.13-2.62,26.13,4.35Z"/><path class="cls-3" d="M310.32,121.84c-3.79,6.56,5.48,5.87,2.61,0,2.98.15,16.47,2.59,12.99,7.76-1.14,1.7-16.26.7-19.51.96-5.97.48-12.13,3.26-17.88,3.47-.79.03-2.13-1.63-4.36-.48-2,1.04-1.43,3.54-1.74,3.96-.37.49-9.12,3.55-11.35,4.77-2.41,1.33-12.58,8.18-13.92,8.3-1.25.11-3.56-1.72-5.23,0,.15-4.11,4.36-7.94,7.43-10.44,12.18-9.94,35.29-18.18,50.95-18.32Z"/><path class="cls-3" d="M343.43,262.99c.54-2.2,5.42-17.19,6.05-17.91,2.1-2.42,6.65-1.18,6.88,2.02.1,1.38-.68,1.71-.72,1.95-7.16-6.6-10.88,5.67-1.74,5.23-2.55,7.2-5.86,15.87-12.62,20.04-2.17-1.1-.86-4.13-1.32-5.22,4.61-1.14,2.82-3.41,3.49-6.1Z"/><circle class="cls-3" cx="333.41" cy="137.52" r="4.36"/><path class="cls-3" d="M351.86,214.31c4.14-1.4,8.55,3.9,5.52,7.31-3.94,4.44-11.21-5.38-5.52-7.31Z"/><path class="cls-3" d="M353.89,156.69c-.04-6.42,7.05-7.65,8.71-.87-.65,4.73-6.65,4.79-8.71.87Z"/><circle class="cls-3" cx="373.5" cy="173.18" r="4.21"/><path class="cls-3" d="M357.38,276.93c-4.2,2.33-7,.33-6.97-4.36,2.04-4.2,9.35-4.35,6.97,4.36Z"/><path class="cls-3" d="M355.63,249.05c-.51,3.1-.97,3.05-1.74,5.23-9.14.44-5.42-11.83,1.74-5.23Z"/><path class="cls-3" d="M343.43,262.99c-.66,2.69,1.13,4.96-3.49,6.1-.1-.23-2.27-.36-2.93-1.97-1.95-4.74,2.9-7.75,6.41-4.13Z"/><path class="cls-3" d="M288.54,134.04c2.7,6.42-2.29,9.53-6.1,3.49.31-.42-.26-2.92,1.74-3.96,2.23-1.16,3.57.51,4.36.48Z"/><path class="cls-3" d="M353.89,156.69c2.06,3.92,8.06,3.86,8.71-.87.05.2.81.58.87,1.36.55,6.54-9.53,8.7-9.59-.48Z"/><circle class="cls-3" cx="318.36" cy="137.08" r="3.16"/><circle class="cls-3" cx="368.27" cy="228.33" r="3.15"/><path class="cls-3" d="M244.98,168.89c.28,0,.6-.05.87,0,2.38,4.59.05,4.48-2.61,6.1-4.19-2.97-3.92-6.18,1.74-6.1Z"/><path class="cls-3" d="M365.22,195.9c-2.26.07-4.22.65-5.23-1.74,1.85-5.6,7.7-4.91,5.23,1.74Z"/><circle class="cls-3" cx="338.92" cy="280.94" r="2.77"/><path class="cls-3" d="M257.18,150.59c.72,5.76-5.47,6.68-5.23,0,1.67-1.72,3.97.11,5.23,0Z"/><path class="cls-3" d="M357.38,276.93c-.02.06.89.4.12,1.29-4.03,4.64-10.44,1.24-7.09-5.64-.02,4.69,2.77,6.69,6.97,4.36Z"/><circle class="cls-3" cx="277.04" cy="144.64" r="2.68"/><circle class="cls-3" cx="341.03" cy="139.44" r="2.65"/><path class="cls-3" d="M359.12,147.1c-.61-.62-.32-6.21,3.04-5.22,3.89,1.15-.59,7.69-3.04,5.22Z"/><circle class="cls-3" cx="377.84" cy="211.57" r="2.53"/><path class="cls-3" d="M312.94,121.84c2.86,5.87-6.4,6.56-2.61,0,.87,0,1.75-.04,2.61,0Z"/><path class="cls-3" d="M359.99,194.16c1.01,2.39,2.97,1.81,5.23,1.74-.61,1.64-.9,3.17-3.74,2.49s-2.02-2.62-1.49-4.23Z"/><path class="cls-3" d="M245.85,168.89c5.89,1.04,1.49,9.89-3.49,6.1.21-.13.66.13.87,0,2.66-1.61,4.99-1.5,2.61-6.1Z"/><path class="cls-3" d="M223.19,337.92c-2.2,1.9-3.82,3.22-6.97,2.61-8.38-7.38,7.45-13.35,6.97-2.61Z"/><path class="cls-3" d="M273.73,322.24c1.9.78,2.84,2.3,2.61,4.36-8.25,7.84-10.63-.58-7.42-3.51,1.73-1.58,3.66-.44,4.81-.85Z"/><path class="cls-3" d="M265.02,338.79c-1.98,2.65-3.47,4.84-6.97,2.61-4.31-5.84,4.31-10.22,6.97-2.61Z"/><path class="cls-3" d="M276.34,326.6c.22-2.06-.72-3.58-2.61-4.36.5-.18,2.62-4.89,5.72-1.79,1.64,3.53-1.26,4.4-3.1,6.15Z"/><path class="cls-3" d="M232.9,323.23c1.23-1.92,6.53-.2,4.71,3.36-2.25,4.4-6.73-.2-4.71-3.36Z"/><path class="cls-3" d="M203.91,338.67c-1.23,1.92-6.53.2-4.71-3.36,2.25-4.4,6.73.2,4.71,3.36Z"/><path class="cls-3" d="M303.35,329.21c.35,2.88-.24,4.76-3.49,4.36-1.32-1.35-2.71-1.71-1.36-4.41,1.63-1.78,3.22-.37,4.85.05Z"/><path class="cls-3" d="M299.87,333.57c3.25.4,3.84-1.48,3.49-4.36.14.04,1.34-1.23,2.21.87,1.13,2.73-2.12,7.15-5.69,3.49Z"/><path class="cls-3" d="M265.02,338.79c1.85,5.29-3.51,7.31-6.97,2.61,3.5,2.22,4.99.03,6.97-2.61Z"/><path class="cls-3" d="M223.19,337.92c-.2,4.54-3.67,5.52-6.97,2.61,3.15.61,4.77-.71,6.97-2.61Z"/><path class="cls-3" d="M366.5,127.09c-25.01-21.49-66.82-21.62-95.97-8.89-8.65,3.78-16.12,9.34-24.24,14.03-29.46-16.24-64.91-23.51-94.81-4.13-17.22,11.16-28.25,28.89-33.01,48.63-4.9,20.32-3.83,41.85.31,62.2,2.07,10.19,5.17,20.15,8.93,29.84,2.42,6.23,4.61,12.72,7.82,18.59,3.78,6.89,7.39,15.13,12.51,21.28,1.37,1.64,3.06,3.34,3.57,5.49.41,1.72-1.31,4.79-1.5,6.88-.14,1.46-.15,3.01-.02,4.59-2.72-.34-5.97,1.22-5.16,4.16,2.79,10.19,11.9,12.95,21.09,14.48.79.13,1.59.27,2.31.61.88.42,1.58,1.14,2.29,1.81,7.34,7.01,16.79,11.21,26.32,14.36,10.61,3.51,21.02,3.76,31.92,5.41,9.19,1.39,18.5,1.96,27.49,2.11,7.23.12,14.25-.67,21.39-1.76,2.49-.38,4.99-.76,7.48-1.14,11.29-1.71,23.52-5.67,33.91-10.39,6.02-2.74,11.83-5.94,17.36-9.58,10.98-7.22,20.82-16.16,29.01-26.44.08-.09.15-.19.23-.29,5.38-6.81,10.04-14.19,13.84-22,4.26-8.75,7.75-18.51,10.56-27.8,13.85-45.69,15.46-108.49-23.62-142.07ZM135.66,275.16c-19.92-46.9-28.45-124.56,29.17-148.51,17.8-7.4,40.92-6.48,58.36,1.29,2.6.63,17.88,6.48,18.3,8.3-2.9,4.5-7.28,7.89-10.31,12.33-2.97,4.34-4.49,9.07-7.12,13.36-4.46,7.25-6.31,2.45-12.37.61-17.67-5.35-32.79,2.63-39.78,19.12-13.03,30.71-1.12,70.57,18.17,96.14-12.62,7.86-26.14,16.43-34.85,28.77-.17.24.14,1.23,0,1.74h-1.3c-.36-.12-.29-.74-.44-.87-5.33-4.73-14.76-25.03-17.83-32.27ZM193.62,331.87h0c1.29-.84,2.61-1.62,3.97-2.37-1.35.74-2.68,1.53-3.97,2.37ZM203.91,338.67c-1.23,1.92-6.53.2-4.71-3.36,2.25-4.4,6.73.2,4.71,3.36ZM268.92,323.09c1.73-1.58,3.66-.44,4.81-.85.5-.18,2.62-4.89,5.72-1.79,1.64,3.53-1.26,4.4-3.1,6.15-8.25,7.84-10.63-.58-7.42-3.51ZM258.05,341.41c-4.31-5.84,4.31-10.22,6.97-2.61,1.85,5.29-3.51,7.31-6.97,2.61ZM237.61,326.59c-2.25,4.4-6.73-.2-4.71-3.36,1.23-1.92,6.53-.2,4.71,3.36ZM235.78,351.87c-2.49-.15-4.97-.37-7.44-.66-3.71-.43-7.4-1.02-11.05-1.77,3.65.75,7.34,1.34,11.05,1.77,2.47.29,4.96.51,7.44.66ZM223.19,337.92c-.2,4.54-3.68,5.52-6.97,2.61-8.38-7.38,7.45-13.35,6.97-2.61ZM219.64,318.24c-2.08,1.32-4.25,2.5-6.46,3.62,2.21-1.12,4.38-2.3,6.46-3.62.46-.29.96-.57,1.45-.87-.49.3-.99.58-1.45.87ZM295.95,350.35c-1.09,0-1.97-.88-1.97-1.97s.88-1.97,1.97-1.97,1.97.88,1.97,1.97-.88,1.97-1.97,1.97ZM299.87,333.57c-1.32-1.35-2.71-1.71-1.36-4.41,1.63-1.78,3.22-.37,4.85.05.14.04.84-.94,2.21.87,24.32,32.09-2.12,7.15-5.69,3.49ZM336.77,339.26c1.66-1.13,3.3-2.3,4.91-3.52-2.88-.92-5.95-.14-8.94-.64-4.1-.69-35.11-21.78-42.47-25.93-1.32.92-3.95,2.94-5.23,3.49-13.97,5.92-30.62,7.25-45.31,5.23-4.93-.68-10.66-2.11-15.68-4.36,0,.16-.02.31-.05.46.02-.15.04-.3.05-.46-2.69-1.2-1.78-3.56-6.72-1.94-7.1,2.32-22.33,11.19-28.93,15.52-3.38,2.22-6.67,4.56-9.72,7.2,3.05-2.64,6.34-4.98,9.72-7.2,6.6-4.33,21.83-13.2,28.93-15.52,4.94-1.62,4.03.74,6.72,1.94,5.02,2.25,10.75,3.68,15.68,4.36,16.29.3,32.57-3.12,46.76-11.17,1.68-.1,2.64,1.82,3.77,2.45,7.35,4.15,38.37,25.25,42.47,25.93,2.99.5,6.06-.28,8.94.64-1.61,1.22-3.26,2.39-4.91,3.52ZM224.07,307.86c3.7-1.93,7.34-4.24,10.73-6.69,1.66-1.2,5.34-4.53,8.24-7,.49-.42.95-.8,1.38-1.15,1.02-.56,2.04-1.13,3.06-1.69,5,.35,10.32,2.95,14.7,4.6,6.48,2.44,12.96,4.87,19.44,7.31-.11,1.37-10.83,5.3-12.05,5.68-14.03,4.42-32.3,6.49-45.49-1.06ZM390.06,249.06c-.49,2.41-4.15,18.43-4.91,19.05,0,0-.02.01-.03.02-.81,5.18-2.26,9.75-4.36,14.25.09.08.14.15.13.2-.78,2.87-4.09,8.83-5.63,11.8-5.11,9.84-11.92,20-19.61,27.86,1.2-23.39-18.11-31.95-34.86-41.82-.29-.17-1.22.14-1.74,0,2.57-5.51,6.23-11.02,8.86-16.83,12.56-27.73,20.05-68.33,3.33-95.56-3.08-3.18-6.74-6.27-10.46-8.71l-10.45-3.48c11.05-2.34,17.13-2.62,26.13,4.35,2.48,1.92,4.43,4.28,6.96,6.1-2.38-7.7-9.29-9.99-15.67-13.07-11.82-2.46-24.07,2.19-35.07,6.32-18.69,7.01-28.3,12.77-38.44,30.39-1.16,2.01-1.73,4.43-2.66,6.61.96-.25,1.91-.5,2.87-.75.65-.25,1.29-.48,1.93-.68,1.44-5.42,14.4-22.39,19.39-20.89,1.57.47,4.88,7.64,5.8,9.51,1.66,3.36,3.31,6.73,4.15,10.41h4.79c-1.96-5.25-6.47-21.18-10.66-23.04,14.22-7.85,32.81-15.63,45.74-1.31,16.7,18.51,9.76,58.94,2.18,80.62-1.64,4.69-9.42,23.26-12.61,25.78-.96.76-1.08.72-2.22.44-4.96-1.23-12.76-8.78-18.29-10.12-.14-.2-.04-.55.21-.99-.29.14-.59.28-.88.43-.16.18-.33.34-.48.53-.84.84-1.49,1.89-2.22,2.95,3.81,2.22,11.02,7,12.93,8.01,14.86,7.9,27.09,11.25,39.72,23.01,1.63,1.52,3.34,3.94,3.86,6.16,1.67,2,2.83,4.14,3.52,6.3-.69-2.16-1.85-4.3-3.52-6.3-1.6-1.91-3.12-2.4-4.36-3.49,2.84,6.08,2.33,13.01-3.74,16.73-11.77,7.21-18.18-2.69-26.83-8.38-14.66-9.62-29.86-18.53-44.36-28.4-.47.51-4.07,1.29-4.39,3.45-.69.35-1.39.68-2.1.99-.32.22-.63.44-.95.66-.73-.26-1.46-.54-2.2-.8-1.22-.43-2.47-.82-3.73-1.17.87-2.52-3.08-5.09-6.33-3.73-1.96.82-3.91,1.64-5.87,2.47-3.49.4-6.83,1.62-9.77,4.06-1.38-.27-2.53-.51-2.99-.7-14.42,12.65-35.45,18.1-50.08,29.64-3.2,2.52-5.37,6.27-9.12,8.3-6.19,3.36-10.26,2.05-16.6.39-.03.36-.03.73,0,1.08-.02-.36-.02-.72,0-1.08.02-.29-.05-.6,0-.87-1.5-1.89-.19-5.81.42-7.86,2.58-8.67,8.98-15.97,15.68-21.79,6.23-5.41,26.96-20.28,34.9-24.08-1.25-.77-2.51-1.51-3.8-2.22-.07.37-.31.78-.69,1.13-1.61,1.46-6.65,4.25-8.59,2.54-2.47-2.18-8.33-13.59-9.91-17.11-4.32-9.63-7.16-19.92-9.25-30.25-2.07-4.72-2.28-9.87-1.37-15.1-1.67-25.4,13.78-55.83,43.21-41.25l-3.73,9.42-2.95,15.78c-.09.01-.18.03-.27.04h6.24c-.18-.03-.37-.05-.55-.04-1.67-1.88,2.89-17.26,4.56-20.07,2.33-3.93,6.1-5.45,8.28-8.27,7.43-9.63,7.71-16.59,18.88-26.43,25.82-22.74,64.41-32.71,97.13-20.06,9.16,1.97,15.85,6.87,22.65,13.07,30.84,28.1,32.61,77.47,24.84,115.89Z"/><circle class="cls-3" cx="295.95" cy="348.38" r="1.97"/><circle class="cls-3" cx="380.72" cy="257.07" r="3.56"/><circle class="cls-3" cx="332.18" cy="303.87" r="3.36"/><path class="cls-3" d="M297.26,287.39c1.43-1.12,1.73-3.52,4.7-2.55,4.3,1.4-.85,11.61-4.7,2.55Z"/><circle class="cls-3" cx="287.19" cy="279.54" r="2.98"/><path class="cls-3" d="M297.26,287.39c-5.69,4.44-7.78-4.73-.95-3.4.51,1.04.52,2.39.95,3.4Z"/><path class="cls-3" d="M312.07,296.1c-2.61.33-3.82-.82-3.49-3.49,3.82-3.86,5.09-.75,3.49,3.49Z"/><circle class="cls-3" cx="313.5" cy="304.24" r="2.15"/><path class="cls-3" d="M312.07,296.1c-.19.5.53,1.54-.5,1.79-4.36,1.04-6.45-1.78-2.99-5.27-.33,2.67.87,3.81,3.49,3.49Z"/><path class="cls-3" d="M325.58,309.17c2.88-.64,3.06,5.4-.87,4.34-2.4-.65-.57-4.02.87-4.34Z"/><path class="cls-3" d="M190.09,296.97c12.01,6.51-5.87,14.36-2.61.87.87-.53,2.09-.56,2.61-.87Z"/><path class="cls-3" d="M213.61,283.03c.77,5.42-2.01,6.9-6.1,3.49.42-.69-.29-2.93,1.74-3.96,2.27-1.15,3.85.53,4.36.47Z"/><path class="cls-3" d="M170.92,316.14l2.61-2.61c.46.48,6.12-.17,2.67,5.73-4.36,1.79-4.04-1.51-5.29-3.11Z"/><path class="cls-3" d="M170.92,316.14c-1.04-1.34-4.22-1.74-1.8-4.86,3.35-4.32,4.17,1.99,4.41,2.24l-2.61,2.61Z"/><circle class="cls-3" cx="206.2" cy="297.4" r="2.25"/><circle class="cls-3" cx="277.2" cy="188.89" r="3.55"/><path class="cls-3" d="M223.19,127.94c-20.18-4.87-36.44-3.68-54.89,5.23,1.72.06,2.82,1.1,3.49,2.61.7-1.19,9.3-2.58,11.14-2.06,4.09,1.15,2.5,3.22,2.8,6.42,1.32-.28,3.51-1.97,4.84-.05,1.98,2.84-.93,7.13-4.04,4.91-1.29-.92-.68-3.47-.81-4.86-4.82,1.04-10.4,4.09-14.82,6.52-1.46.8-4.61,1.83-4.34,3.93,2.56,1.44,2.11,2.88,2.61,5.23.13.61.83,1.3.86,2.25.17,5.3-9.4,7.02-10.45-.5-3.19,1.52-10.92,10.11-12.05,1.97-.72-5.15,14.11-19.81,19.02-20.27-.59-1.78-1.26-3.59,0-5.23-52.9,27.62-45.93,94.4-26.79,142.24,3.7,9.24,9.28,17.6,12.9,26.31.71,1.71,1.17,2.91.82,4.84.14.13.07.75.44.86h1.3c.14-.5-.16-1.5,0-1.73-1.97-.84-.29-2.58.31-3.61,4.97-8.5,16.27-18.21,24.95-22.54.77-1.03-6.35-11-7.42-13.04-11.25-21.34-17.13-45.04-15.26-69.31,2.76-35.94,34.41-53.96,66.25-36.13,2.63-4.28,4.15-9.02,7.12-13.36,3.03-4.43,7.41-7.83,10.31-12.33-.42-1.81-15.7-7.67-18.3-8.3ZM166.55,266.65c1.09,0,1.98.89,1.98,1.98s-.89,1.98-1.98,1.98-1.98-.89-1.98-1.98.89-1.98,1.98-1.98ZM167.87,277.53c1.83,0,3.32,1.49,3.32,3.32s-1.49,3.32-3.32,3.32-3.32-1.49-3.32-3.32,1.49-3.32,3.32-3.32ZM136.94,187.19c0-.25-1.33-1.41-.93-2.94.23-.88,1.75-.47,1.8-.55.16-.26.12-4.32.57-5.97,1.15-4.17,2.58-12.73,8.46-12.11,8.2.87,1.71,10.49.54,14.14-1.32,4.08-2.55,8.21-3.23,12.46-.65,4.09-.7,16.76-2.08,18.83-.51.78-.96,1.65-2.05,1.39-2.88-.61-3.86-9.96-3.99-12.58-.21-4.55,1.01-8.79.91-12.67ZM151.03,195.67c0,1.66-1.34,3-3,3s-3-1.34-3-3,1.34-3,3-3,3,1.34,3,3ZM138.17,220.3l3.12-3.12,3.12,3.12-3.12,3.12-3.12-3.12ZM141.22,232.92c0-1.24,1.01-2.25,2.25-2.25s2.25,1.01,2.25,2.25-1.01,2.25-2.25,2.25-2.25-1.01-2.25-2.25ZM144.78,263.86c-4.34-4.81.23-11.52,6.1-6.97,5.82,4.51-1.66,11.89-6.1,6.97ZM158.63,284.68c-.1.16-2.8,1.26-3.42.58-4.15-8.24,6.04-4.8,3.42-.58ZM158.85,235.88c0,1.7-1.38,3.07-3.07,3.07s-3.07-1.38-3.07-3.07,1.38-3.07,3.07-3.07,3.07,1.38,3.07,3.07ZM201.41,145.36c-5.5-7.56,5.24-15.26,8.71-6.1,2.66,7.01-4.75,11.54-8.71,6.1ZM223.83,139.84c-2.13,0-3.86-1.73-3.86-3.86s1.73-3.86,3.86-3.86,3.86,1.73,3.86,3.86-1.73,3.86-3.86,3.86Z"/><path class="cls-3" d="M157.82,198.05c-1.87,24.28,4.01,47.98,15.26,69.31,1.07,2.04,8.19,12.01,7.42,13.04-8.68,4.33-19.98,14.04-24.95,22.54-.61,1.04-2.28,2.77-.31,3.61,8.71-12.34,22.23-20.91,34.85-28.77-19.29-25.56-31.2-65.42-18.17-96.14,7-16.49,22.11-24.47,39.78-19.12,6.07,1.84,7.92,6.64,12.37-.61-31.84-17.84-63.49.19-66.25,36.13Z"/><path class="cls-3" d="M164.83,126.65c-57.63,23.95-49.1,101.61-29.17,148.51,3.08,7.24,12.5,27.53,17.83,32.27.35-1.93-.11-3.13-.82-4.84-3.62-8.71-9.2-17.07-12.9-26.31-19.14-47.84-26.11-114.62,26.79-142.24.59-.31,1.14-.58,1.74-.87,18.45-8.91,34.71-10.1,54.89-5.23-17.45-7.77-40.57-8.69-58.36-1.29Z"/><path class="cls-3" d="M185.73,140.14c-4.82,1.04-10.4,4.09-14.82,6.52-1.46.8-4.61,1.83-4.34,3.93-5.07-2.85-6.95,1.57-6.97,6.1,0,.28-.04.6,0,.87-3.19,1.52-10.92,10.11-12.05,1.97-.72-5.15,14.11-19.81,19.02-20.27,1.61-.15,2.88,2.09,4.77-.93.55-.88.27-2.24.46-2.56.7-1.19,9.3-2.58,11.14-2.06,4.09,1.15,2.5,3.22,2.8,6.42Z"/><path class="cls-3" d="M136.94,187.19c3.06.08,4.04-4.11.87-3.49.16-.26.12-4.32.57-5.97,1.15-4.17,2.58-12.73,8.46-12.11,8.2.87,1.71,10.49.54,14.14-1.32,4.08-2.55,8.21-3.23,12.46s-.7,16.76-2.08,18.83c-.51.78-.96,1.65-2.05,1.39-2.88-.61-3.86-9.96-3.99-12.58-.21-4.55,1.01-8.79.91-12.67Z"/><path class="cls-3" d="M210.13,139.27c-.24,4.93-3.75,8.56-8.71,6.1-5.5-7.56,5.24-15.26,8.71-6.1Z"/><path class="cls-3" d="M166.56,150.59c2.56,1.44,2.11,2.88,2.61,5.23-2.99,4.21-5.95,4.63-9.58.87.02-4.53,1.9-8.95,6.97-6.1Z"/><path class="cls-3" d="M150.88,256.89c.63,5.04-.73,7.7-6.1,6.97-4.34-4.81.23-11.52,6.1-6.97Z"/><circle class="cls-3" cx="223.83" cy="135.99" r="3.86"/><path class="cls-3" d="M159.59,157.56c-.04-.28,0-.59,0-.87,3.64,3.76,6.6,3.34,9.58-.87.13.61.83,1.3.86,2.25.17,5.3-9.4,7.02-10.45-.5Z"/><circle class="cls-3" cx="167.87" cy="280.85" r="3.32"/><path class="cls-3" d="M168.3,133.17c1.72.06,2.82,1.1,3.49,2.61-.19.32.09,1.68-.46,2.56-1.89,3.02-3.17.78-4.77.93-.59-1.78-1.26-3.59,0-5.23.59-.31,1.14-.58,1.74-.87Z"/><path class="cls-3" d="M185.73,140.14c1.32-.28,3.51-1.97,4.84-.05,1.98,2.84-.93,7.13-4.04,4.91-1.29-.92-.68-3.47-.81-4.86Z"/><circle class="cls-3" cx="155.78" cy="235.88" r="3.07"/><circle class="cls-3" cx="148.03" cy="195.67" r="3"/><path class="cls-3" d="M144.78,263.86c5.37.73,6.72-1.93,6.1-6.97,5.82,4.51-1.66,11.89-6.1,6.97Z"/><path class="cls-3" d="M201.41,145.36c4.97,2.46,8.47-1.17,8.71-6.1,2.66,7.01-4.75,11.54-8.71,6.1Z"/><path class="cls-3" d="M158.63,284.68c-.1.16-2.8,1.26-3.42.58-4.15-8.24,6.04-4.8,3.42-.58Z"/><rect class="cls-3" x="139.09" y="218.09" width="4.41" height="4.41" transform="translate(-114.39 164.43) rotate(-45)"/><circle class="cls-3" cx="143.47" cy="232.92" r="2.25"/><circle class="cls-3" cx="166.55" cy="268.63" r="1.98"/><path class="cls-3" d="M137.81,183.7c3.16-.62,2.19,3.57-.87,3.49,0-.25-1.33-1.41-.93-2.94.23-.88,1.75-.47,1.8-.55Z"/><path class="cls-2" d="M211.64,361.01c.14.03.27.07.4.1l6.29.17c-2.06-.39-3.91-.64-5.25-.61-.5.01-.98.14-1.45.34Z"/><path class="cls-2" d="M272.37,362.74l-54.04-1.45c4.64.87,10.39,2.41,14.08,2.81,8.25.9,17.75,1.42,26.02.97,3.81-.21,8.98-1.39,13.47-2.11.15-.08.31-.16.47-.22Z"/><path class="cls-1" d="M201.67,357.99c.32.15.65.31.97.46,2.28.97,4.71,1.54,7.13,2.11l-8.1-2.57Z"/><path class="cls-5" d="M369.14,268.39c-4.29,6.57,2.71,9.68,3.74,10.64,2.1-4.5,3.55-9.07,4.36-14.25-.95.68-5.27-.72-8.09,3.61Z"/><path class="cls-3" d="M358.62,123.75c-25.01-21.49-66.82-21.62-95.97-8.89-8.65,3.78-16.12,9.34-24.24,14.03-29.46-16.24-64.91-23.51-94.81-4.13-17.22,11.16-28.25,28.89-33.01,48.63-4.9,20.32-3.83,41.85.31,62.2,2.07,10.19,5.17,20.15,8.93,29.84,2.42,6.23,4.61,12.72,7.82,18.59,3.78,6.89,7.39,15.13,12.51,21.28,1.37,1.64,3.06,3.34,3.57,5.49.41,1.72-1.31,4.79-1.5,6.88-.72,7.64,1.9,18.03,10.85,19.45,3.37.54,8.59-1.05,10.22-.67,1.58.37,3.43,2.42,4.67,3.38,2.62,2.02,5.21,4.08,7.86,6.06,20.48,15.26,47.79,18.89,72.64,19.29,7.23.12,14.25-.67,21.39-1.76,2.49-.38,4.99-.76,7.48-1.14,11.29-1.71,23.52-5.67,33.91-10.39,6.02-2.74,11.83-5.94,17.36-9.58,10.98-7.22,20.82-16.16,29.01-26.44.08-.09.15-.19.23-.29,5.38-6.81,10.04-14.19,13.84-22,4.26-8.75,7.75-18.51,10.56-27.8,13.85-45.69,15.46-108.49-23.62-142.07ZM127.78,271.82c-19.92-46.9-28.45-124.56,29.17-148.51,17.8-7.4,40.92-6.48,58.36,1.29,2.6.63,17.88,6.48,18.3,8.3-2.9,4.5-7.28,7.89-10.31,12.33-2.97,4.34-4.49,9.07-7.12,13.36-4.46,7.25-6.31,2.45-12.37.61-17.67-5.35-32.79,2.63-39.78,19.12-13.03,30.71-1.12,70.57,18.17,96.14-12.62,7.86-26.14,16.43-34.85,28.77-.17.24.14,1.23,0,1.74h-1.3c-.36-.12-.29-.74-.44-.87-5.33-4.73-14.76-25.03-17.83-32.27ZM246.69,231.76c6.28,4.26,12.93,3.37,20.03,3.49,2.89.05,5.82-.04,8.71,0l-2.62,9.58c-1.44,1.28-6.57-2.98-7.83-3.48-7.72-3.06-12.08-2.5-19.62-3.48-3.5-.46,1.88-3.74,1.34-6.1ZM295.47,236.99c-3.03-.73-2.65,1.48-4.31,3.08-3.72,3.57-8.39,7.57-14,6.06,1.68-2.65,2.64-9.74,3.96-11.72.84-1.27,5.3-2.71,6.94-4.38,3.86-3.93,4.31-11.3,4.8-16.54l20.35,1.84c1.98.66.94,5.21,5.34,5.2,5.09-.01,4.96-7.68,2.58-10.51-3.13-3.73-21.83-6.66-22.94-7.99-.56-.67.08-5.77-1.55-6.93-2.43-1.73-11.86-1.75-13.24-2.67-1.14-.76-6.51-22.5-11.46-24.7,14.22-7.85,32.81-15.63,45.74-1.31,16.7,18.51,9.76,58.94,2.18,80.62-1.64,4.69-9.42,23.26-12.61,25.78-.96.76-1.08.72-2.22.44-4.96-1.23-12.76-8.78-18.29-10.12-.76-1.04,5.09-6.37,6.13-8.24,3.22-5.79,2.68-11.51,2.58-17.89ZM261.48,229.61l-7.83-.47c-.74-.63,1.75-3.46,2.28-4.24,6.02-8.9,13.32-17.02,19.43-25.88,2.49-2.65,5.7-.2,8.78-.36l-22.67,30.95ZM273.69,180.36c1.8,3.64,3.59,7.28,4.35,11.32-6.37.16-12.8-.2-19.16,0-3.6.12-6.1.55-9.57,1.33-.97.22-1.25,1.04-.89-.9.91-4.96,14.37-22.8,19.48-21.27,1.57.47,4.88,7.64,5.8,9.51ZM264.55,198.67l6.1-1.73c-4.34,7.79-10.14,15.53-15.77,22.56-2.89,3.61-6.97,10.43-7.81,1.84l17.48-22.67ZM253.65,266.62l-2.61,2.6c1.44-.05,2.92.1,4.35,0,.71-.05,1.99-1.9,4.37-.45,5.71,3.47-3.15,9.97-6.11,11.78-11.24,6.86-24.15,5.3-34.85-1.74-2.69-1.77-4.18-1.04-3.49-6.1l7.85.87c2.46-.12,4.95.11,7.42,0,1.06-.05,3.24.66,3.03-.86-5.91-.73-13.36-.77-18.99-2.36-1.45-.41-3.12-.9-2.78-2.87,3.77-.44,8.25-1.27,11.79-2.59,2.57-.96,8.33-5.03,9.71-5.1,1.66-.09,15.58,9.04,20.32,6.81ZM273.69,299.74c.81,1.2-10.74,5.43-12.01,5.83-14.03,4.42-32.3,6.49-45.49-1.06,3.7-1.93,7.34-4.24,10.73-6.69,2.62-1.9,10.31-9.12,11.94-9.85,2.86-1.28,9.26-.62,12.64-2.72l22.2,14.49ZM242.61,231.62c-.66,2.14-4.66,8.3-6.63,9.12-2.11.87-3.05-.19-4.39.03-1.85.3-3.24,3.01-6.44.33-.62-.52-2.88-4.48-2.73-5.27.34-1.81,4.59-3.71,5.78-5.55,1.33-2.05,4.08-9.63,1.49-11.57-.38,4.85-2.7,8.91-5.65,12.63-.87,1.1-2.84,1.34-3.35,2.76-1.13,3.13,1.97,4.62-4.97,3.81-7.84-.91,4.55-6.32,6.96-9.68,3.24-4.52,3.69-14.55,8.98-15.49,7.04-1.25,7.67,6.22,9.37,11.19,1.12,3.27,3.14,2.66,1.59,7.69ZM195.26,229.61c-1.65,1.03-5.67-.32-7.41-1.33l21.37-29.18c2.85-1.18,5.91-.29,8.71.44l-22.66,30.07ZM193.53,265.76c.37.41.12,1.2-.54,1.8-1.61,1.46-6.65,4.25-8.59,2.54-2.47-2.18-8.33-13.59-9.91-17.11-4.64-10.34-7.58-21.44-9.71-32.54,7.13,1.38,4.27-3.79,5.34-5.12.14-.17,4.09-1.15,4.23-.99-.13,9.05,2.13,16.47,11.36,19.58,3.64,1.22,10.45,2.04,14.39,2.24,1.76.09,3.85-1.14,5.05-.82,1.6.43,2.97,4.68,2.21,5.9-.29.46-8.76,4.19-9.86,4.51-7.32,2.06-11,.01-16.21-4.81-1.67-1.54-1.24-3.83-4.31-3.08-1.72,13.04,3.3,24.28,16.55,27.9ZM184.8,224.34c-2.91,3.81-4.2-1.81-2.82-4.54l16.36-21.13c1.7-1.6,4.34-.74,6.52-.88l-20.06,26.55ZM203.36,175.81l-2.95,15.78c-6.51,1.06-24.96,1.01-29.91,4.51-2.8,1.99-1.87,7.06,1.24,8.64-2.95.41-5.48,1.78-7.83,3.5-1.96-25.52,13.51-56.55,43.17-41.85l-3.73,9.42ZM158.01,333.54c-5.73.81-11.97-4.46-11.53-10.29.02-.29-.05-.6,0-.87-1.5-1.89-.19-5.81.42-7.86,2.58-8.67,8.98-15.97,15.68-21.79,6.45-5.6,28.44-21.34,35.69-24.44,1.91-.82,2.77-.96,4.85-.81,4.34.32,2.88,1.22,4.36,3.49.91,1.4,1.82,3.3,2.61,4.36,1.96,2.61,9.25,8.38,12.2,9.58,1.51.62,10.47,1.75,10.44,3.05-14.24,13.64-33.34,20.19-49.91,30.23-6.24,3.78-18.55,14.47-24.8,15.35ZM201.56,352.25c-12.28-3.94-24.12-9.73-33.27-18.98,3.72-3.63,7.92-6.67,12.25-9.51,6.6-4.33,21.83-13.2,28.93-15.52,4.94-1.62,4.03.74,6.72,1.94,5.02,2.25,10.75,3.68,15.68,4.36,16.29.3,32.57-3.12,46.76-11.17,1.68-.1,2.64,1.82,3.77,2.45,7.35,4.15,38.37,25.25,42.47,25.93,2.99.5,6.06-.28,8.94.64-37.79,28.59-87.5,34.21-132.25,19.86ZM325.91,328.09c-5.46-1.14-14.63-9.59-20.06-13.04-16.46-10.44-33.58-19.85-49.58-31.02-.7-2.85,3.82-3.76,4.35-4.34.17-.19.21-1.43.84-2.17,2.79-3.26,4.81-5.14,6.09-9.63,4.32-.03,8.14-1.36,12.24-2.14.14-.03.5-.87,1.28-.86,1.12.02,12.74,7.82,15.25,9.15,14.86,7.9,27.09,11.25,39.72,23.01,1.63,1.52,3.34,3.94,3.86,6.16,9.79,11.7,1.99,28.21-13.99,24.88ZM382.17,245.71c-.49,2.41-4.15,18.43-4.91,19.05,0,0-.02.01-.03.02-.81,5.18-2.26,9.75-4.36,14.25.09.08.14.15.13.2-.78,2.87-4.09,8.83-5.63,11.8-5.11,9.84-11.92,20-19.61,27.86,1.2-23.39-18.11-31.95-34.86-41.82-.29-.17-1.22.14-1.74,0,2.57-5.51,6.23-11.02,8.86-16.83,12.56-27.73,20.05-68.33,3.33-95.56-3.08-3.18-6.74-6.27-10.46-8.71l-10.45-3.48c11.05-2.34,17.13-2.62,26.13,4.35,2.48,1.92,4.43,4.28,6.96,6.1-2.38-7.7-9.29-9.99-15.67-13.07-11.82-2.46-24.07,2.19-35.07,6.32-18.69,7.01-28.3,12.77-38.44,30.39-1.52,2.63-2.02,5.98-3.63,8.57-.98,1.58-4.9,5.89-6.5,6.13-1.01.15-6.97.81-7.33.73-.98-.23-3.58-4.97-4.87-5.95-1.27-.98-2.89-1.23-4.36-1.74-4.4-1.53-6.61-1.05-10.46-1.74-.94-.17-2.18-1-3.38-.96-1.67-1.88,2.89-17.26,4.56-20.07,2.33-3.93,6.1-5.45,8.28-8.27,7.43-9.63,7.71-16.59,18.88-26.43,25.82-22.74,64.41-32.71,97.13-20.06,9.16,1.97,15.85,6.87,22.65,13.07,30.84,28.1,32.61,77.47,24.84,115.89Z"/><path class="cls-5" d="M368.9,154.42l-11.56-24.6c-6.81-6.2-13.49-11.1-22.65-13.07-47.13-10.16-89.25,10.33-116.23,48.01-5.76,8.05-8.7,17.96-9.24,27.79,3.85.69,6.05.21,10.46,1.74-1.33-6.63,6.96-30.36,13.54-31.39,2.08-.32,3.92.07,3.88,2.63.28,0,.6-.05.87,0,5.89,1.04,1.49,9.89-3.49,6.1-3.51,2.09-9.64,19.71-10.46,24.4,1.29.99,3.89,5.72,4.87,5.95.36.08,6.32-.57,7.33-.73.65-34.99,44.89-66.65,77.78-54.69,2.41.88,4,2.39,5.86,3.29,6.39,3.08,13.3,5.37,15.67,13.07-2.53-1.82-4.49-4.18-6.96-6.1-5-.63-10.7-3.42-15.68-.87,3.71,2.45,7.38,5.54,10.46,8.71,26.16,27.01,11.56,82.64-8.71,109.78,11.29,4.41,21.91,10.95,30.06,20.02,25.67-37.3,39.36-96.53,24.2-140.06ZM269.16,143.98c-1.48,0-2.68-1.2-2.68-2.68s1.2-2.68,2.68-2.68,2.68,1.2,2.68,2.68-1.2,2.68-2.68,2.68ZM310.47,136.89c-1.74,0-3.16-1.41-3.16-3.16s1.41-3.16,3.16-3.16,3.16,1.41,3.16,3.16-1.41,3.16-3.16,3.16ZM318.04,126.26c-1.14,1.7-16.26.7-19.51.96-5.97.48-12.13,3.26-17.88,3.47,2.7,6.42-2.29,9.53-6.1,3.49-.37.49-9.12,3.55-11.35,4.77-2.41,1.33-12.58,8.18-13.92,8.3.72,5.76-5.47,6.68-5.23,0,.15-4.11,4.36-7.94,7.43-10.44,12.18-9.94,35.29-18.18,50.95-18.32.87,0,1.75-.04,2.61,0,2.98.15,16.47,2.59,12.99,7.76ZM325.53,138.53c-2.41,0-4.36-1.95-4.36-4.36s1.95-4.36,4.36-4.36,4.36,1.95,4.36,4.36-1.95,4.36-4.36,4.36ZM333.15,138.75c-1.46,0-2.65-1.19-2.65-2.65s1.19-2.65,2.65-2.65,2.65,1.19,2.65,2.65-1.19,2.65-2.65,2.65ZM354.28,138.54c3.89,1.15-.59,7.69-3.04,5.22-.61-.62-.32-6.21,3.04-5.22ZM331.04,280.36c-1.53,0-2.77-1.24-2.77-2.77s1.24-2.77,2.77-2.77,2.77,1.24,2.77,2.77-1.24,2.77-2.77,2.77ZM333.39,270.97c-2.17-1.1-.86-4.13-1.32-5.22-.1-.23-2.27-.36-2.93-1.97-1.95-4.74,2.9-7.75,6.41-4.13.54-2.2,5.42-17.19,6.05-17.91,2.1-2.42,6.65-1.18,6.88,2.02.1,1.38-.68,1.71-.72,1.95-.51,3.1-.97,3.05-1.74,5.23-2.55,7.2-5.86,15.87-12.62,20.04ZM349.61,274.87c-4.03,4.64-10.44,1.24-7.09-5.64,2.04-4.2,9.35-4.35,6.97,4.36-.02.06.89.4.12,1.29ZM349.5,218.28c-3.94,4.44-11.21-5.38-5.52-7.31,4.14-1.4,8.55,3.9,5.52,7.31ZM346.01,153.35c-.04-6.42,7.05-7.65,8.71-.87.05.2.81.58.87,1.36.55,6.54-9.53,8.7-9.59-.48ZM353.59,195.04c-2.98-.72-2.02-2.62-1.49-4.23,1.85-5.6,7.7-4.91,5.23,1.74-.61,1.64-.9,3.17-3.74,2.49ZM360.38,228.14c-1.74,0-3.15-1.41-3.15-3.15s1.41-3.15,3.15-3.15,3.15,1.41,3.15,3.15-1.41,3.15-3.15,3.15ZM361.41,169.83c0-2.32,1.88-4.21,4.21-4.21s4.21,1.88,4.21,4.21-1.88,4.21-4.21,4.21-4.21-1.88-4.21-4.21ZM369.96,210.75c-1.4,0-2.53-1.13-2.53-2.53s1.13-2.53,2.53-2.53,2.53,1.13,2.53,2.53-1.13,2.53-2.53,2.53Z"/><path class="cls-5" d="M277.17,309.31l30.53,16.96c.7.43,1.21,1.65.84,2.19-.48.7-13.15,7.13-15.09,8.01-36.1,16.4-80.22,16.88-115.58-1.46,9.2-9.89,22.81-13.08,33.89-20.11,1.83-1.16,4.33-2.2,4.43-4.72,5.02,2.25,10.75,3.68,15.68,4.36,14.69,2.02,31.34.69,45.31-5.23ZM265.85,318.9c-1.15.41-3.08-.73-4.81.85-3.21,2.92-.83,11.35,7.42,3.51,1.84-1.75,4.74-2.62,3.1-6.15-3.1-3.1-5.22,1.61-5.72,1.79ZM225.01,319.89c-2.02,3.16,2.46,7.76,4.71,3.36,1.82-3.56-3.49-5.28-4.71-3.36ZM291.99,330.22c3.57,3.66,6.82-.76,5.69-3.49-.87-2.09-2.07-.83-2.21-.87-1.62-.42-3.21-1.83-4.85-.05-1.35,2.7.04,3.06,1.36,4.41ZM208.34,337.19c3.3,2.9,6.77,1.92,6.97-2.61.48-10.74-15.35-4.77-6.97,2.61ZM196.03,335.33c2.02-3.16-2.46-7.76-4.71-3.36-1.82,3.56,3.49,5.28,4.71,3.36ZM250.16,338.06c3.46,4.69,8.82,2.67,6.97-2.61-2.66-7.61-11.28-3.23-6.97,2.61Z"/><path class="cls-5" d="M324.87,331.76c-4.1-.69-35.11-21.78-42.47-25.93-1.32.92-3.95,2.94-5.23,3.49l30.53,16.96c.7.43,1.21,1.65.84,2.19-.48.7-13.15,7.13-15.09,8.01-36.1,16.4-80.22,16.88-115.58-1.46,9.2-9.89,22.81-13.08,33.89-20.11,1.83-1.16,4.33-2.2,4.43-4.72-2.69-1.2-1.78-3.56-6.72-1.94-7.1,2.32-22.33,11.19-28.93,15.52-4.33,2.84-8.53,5.88-12.25,9.51,9.15,9.25,20.99,15.04,33.27,18.98,44.75,14.35,94.45,8.73,132.25-19.86-2.88-.92-5.95-.14-8.94-.64ZM245.74,359.02c-1.83,0-3.31-1.48-3.31-3.31s1.48-3.31,3.31-3.31,3.31,1.48,3.31,3.31-1.48,3.31-3.31,3.31ZM288.07,347.01c-1.09,0-1.97-.88-1.97-1.97s.88-1.97,1.97-1.97,1.97.88,1.97,1.97-.88,1.97-1.97,1.97Z"/><path class="cls-5" d="M367.37,291.03c1.54-2.96,4.85-8.92,5.63-11.8.17-.63-8.53-3.69-3.86-10.84,2.85-4.37,7.24-2.9,8.13-3.63.76-.63,4.42-16.64,4.91-19.05,7.77-38.42,6-87.79-24.84-115.89l11.56,24.6c15.16,43.54,1.47,102.77-24.2,140.06-8.15-9.07-18.77-15.61-30.06-20.02-.12.16-2.67-.52-1.74,2.61,16.76,9.87,36.06,18.43,34.86,41.82,7.7-7.87,14.51-18.02,19.61-27.86ZM372.84,250.17c1.97,0,3.56,1.59,3.56,3.56s-1.59,3.56-3.56,3.56-3.56-1.59-3.56-3.56,1.59-3.56,3.56-3.56Z"/><path class="cls-5" d="M279.79,265.75c5.61,3.79,11.02,7.98,16.84,11.48,13.89,8.34,26.45,11.58,38.92,22.5,2.84,6.08,2.33,13.01-3.74,16.73-11.77,7.21-18.18-2.69-26.83-8.38-14.66-9.62-29.86-18.53-44.36-28.4.17-.19.21-1.43.84-2.17,2.79-3.26,4.81-5.14,6.09-9.63,4.32-.03,8.14-1.36,12.24-2.14ZM282.29,276.19c0-1.64-1.33-2.98-2.98-2.98s-2.98,1.33-2.98,2.98,1.33,2.98,2.98,2.98,2.98-1.33,2.98-2.98ZM289.37,284.04c3.85,9.07,9-1.14,4.7-2.55-2.98-.97-3.27,1.43-4.7,2.55-.43-1.01-.44-2.36-.95-3.4-6.84-1.33-4.74,7.84.95,3.4ZM300.7,289.27c-3.46,3.49-1.37,6.31,2.99,5.27,1.03-.24.31-1.28.5-1.79,1.61-4.24.34-7.34-3.49-3.49ZM327.66,300.53c0-1.85-1.5-3.36-3.36-3.36s-3.36,1.5-3.36,3.36,1.5,3.36,3.36,3.36,3.36-1.5,3.36-3.36ZM307.76,300.89c0-1.19-.96-2.15-2.15-2.15s-2.15.96-2.15,2.15.96,2.15,2.15,2.15,2.15-.96,2.15-2.15ZM317.7,305.83c-1.44.32-3.27,3.7-.87,4.34,3.93,1.06,3.75-4.99.87-4.34Z"/><path class="cls-5" d="M207.47,270.97c-5.92,6.24-42.02,23.12-42.59,30.19-.1,1.28.87,2.09,2.08,2.08.77,0,10.57-7.49,12.63-8.74-3.26,13.49,14.63,5.64,2.61-.87,2.33-1.4,16.9-9.58,17.43-10.46,4.09,3.42,6.87,1.93,6.1-3.49.33-.04,5.2-3.28,4.36-4.36,1.96,2.61,9.25,8.38,12.2,9.58-14.42,12.65-35.45,18.1-50.08,29.64-3.2,2.52-5.37,6.27-9.12,8.3-6.19,3.36-10.26,2.05-16.6.39.02-.29-.05-.6,0-.87.63-3.1,4.85-10.79,6.77-13.7,11.48-17.43,34.64-27.39,51.15-39.44l-1.28-1.75c4.34.32,2.88,1.22,4.36,3.49ZM200.57,294.06c0-1.24-1.01-2.25-2.25-2.25s-2.25,1.01-2.25,2.25,1.01,2.25,2.25,2.25,2.25-1.01,2.25-2.25ZM163.03,312.8c1.24,1.6.93,4.91,5.29,3.11,3.45-5.9-2.22-5.25-2.67-5.73-.24-.25-1.06-6.57-4.41-2.24-2.42,3.12.76,3.52,1.8,4.86Z"/><path class="cls-5" d="M146.48,323.25c6.34,1.66,10.41,2.97,16.6-.39,3.76-2.04,5.93-5.78,9.12-8.3,14.63-11.55,35.67-17,50.08-29.64,1.51.62,10.47,1.75,10.44,3.05-14.24,13.64-33.34,20.19-49.91,30.23-6.24,3.78-18.55,14.47-24.8,15.35-5.73.81-11.97-4.46-11.53-10.29Z"/><path class="cls-5" d="M319.87,149.86c-11.82-2.46-24.07,2.19-35.07,6.32-18.69,7.01-28.3,12.77-38.44,30.39-1.52,2.63-2.02,5.98-3.63,8.57-.98,1.58-4.9,5.89-6.5,6.13.65-34.99,44.89-66.65,77.78-54.69,2.41.88,4,2.39,5.86,3.29Z"/><path class="cls-5" d="M260.62,279.69c14.5,9.87,29.7,18.77,44.36,28.4,8.66,5.68,15.07,15.59,26.83,8.38,6.07-3.72,6.58-10.65,3.74-16.73,1.24,1.08,2.76,1.57,4.36,3.49,9.79,11.7,1.99,28.21-13.99,24.88-5.46-1.14-14.63-9.59-20.06-13.04-16.46-10.44-33.58-19.85-49.58-31.02-.7-2.85,3.82-3.76,4.35-4.34Z"/><path class="cls-2" d="M223.15,273.59c2.46-.12,4.95.11,7.42,0,1.06-.05,3.24.66,3.03-.86-5.91-.73-13.36-.77-18.99-2.36-1.45-.41-3.12-.9-2.78-2.87,3.77-.44,8.25-1.27,11.79-2.59,2.57-.96,8.33-5.03,9.71-5.1,1.66-.09,15.58,9.04,20.32,6.81l-2.61,2.6c1.44-.05,2.92.1,4.35,0,1.85,4-.34,7.58-1.74,11.33-11.24,6.86-24.15,5.3-34.85-1.74v-5.23c1.44-.05,2.91.07,4.36,0Z"/><path class="cls-5" d="M334.68,116.75c-47.13-10.16-89.25,10.33-116.23,48.01-5.76,8.05-8.7,17.96-9.24,27.79-.94-.17-2.18-1-3.38-.96-1.67-1.88,2.89-17.26,4.56-20.07,2.33-3.93,6.1-5.45,8.28-8.27,7.43-9.63,7.71-16.59,18.88-26.43,25.82-22.74,64.41-32.71,97.13-20.06Z"/><path class="cls-5" d="M225.14,241.09c-.62-.52-2.88-4.48-2.73-5.27.34-1.81,4.59-3.71,5.78-5.55,1.33-2.05,4.08-9.63,1.49-11.57-.38,4.85-2.7,8.91-5.65,12.63-.87,1.1-2.84,1.34-3.35,2.76-1.13,3.13,1.97,4.62-4.97,3.81-7.84-.91,4.55-6.32,6.96-9.68,3.24-4.52,3.69-14.55,8.98-15.49,7.04-1.25,7.67,6.22,9.37,11.19,1.12,3.27,3.14,2.66,1.59,7.69-.66,2.14-4.66,8.3-6.63,9.12-2.11.87-3.05-.19-4.39.03-1.85.3-3.24,3.01-6.44.33ZM228.39,232.64c-.61.62-.32,6.21,3.04,5.22,3.89-1.15-.59-7.69-3.04-5.22Z"/><path class="cls-5" d="M314.64,274.46c-.12.16-2.67-.52-1.74,2.61-.29-.17-1.22.14-1.74,0,2.57-5.51,6.23-11.02,8.86-16.83,12.56-27.73,20.05-68.33,3.33-95.56,26.16,27.01,11.56,82.64-8.71,109.78Z"/><path class="cls-5" d="M203.11,267.49l1.28,1.75c-16.51,12.04-39.66,22.01-51.15,39.44-1.92,2.91-6.14,10.61-6.77,13.7-1.5-1.89-.19-5.81.42-7.86,2.58-8.67,8.98-15.97,15.68-21.79s28.44-21.34,35.69-24.44c1.91-.82,2.77-.96,4.85-.81Z"/><path class="cls-5" d="M210.08,275.33c.84,1.08-4.03,4.32-4.36,4.36-.51.06-2.09-1.62-4.36-.47-2.03,1.03-1.32,3.26-1.74,3.96-.53.88-15.09,9.06-17.43,10.46-.52.31-1.74.34-2.61.87-2.06,1.26-11.86,8.74-12.63,8.74-1.21.01-2.18-.8-2.08-2.08.57-7.07,36.67-23.95,42.59-30.19.91,1.4,1.82,3.3,2.61,4.36Z"/><path class="cls-5" d="M273.69,180.36c-3.6-1.02-4.36.8-5.96,2.01-4.14,1.9-7.12,4.82-8.85,9.32-3.6.12-6.1.55-9.57,1.33-.97.22-1.25,1.04-.89-.9.91-4.96,14.37-22.8,19.48-21.27,1.57.47,4.88,7.64,5.8,9.51Z"/><path class="cls-5" d="M237.09,165.55c-5.66-.08-5.93,3.13-1.74,6.1-.21.13-.66-.13-.87,0-3.51,2.09-9.64,19.71-10.46,24.4-1.27-.98-2.89-1.23-4.36-1.74-1.33-6.63,6.96-30.36,13.54-31.39,2.08-.32,3.92.07,3.88,2.63Z"/><path class="cls-5" d="M279.79,265.75c.14-.03.5-.87,1.28-.86,1.12.02,12.74,7.82,15.25,9.15,14.86,7.9,27.09,11.25,39.72,23.01,1.63,1.52,3.34,3.94,3.86,6.16-1.6-1.91-3.12-2.4-4.36-3.49-12.48-10.92-25.03-14.17-38.92-22.5-5.82-3.49-11.23-7.69-16.84-11.48Z"/><path class="cls-5" d="M284.14,198.66l-22.67,30.95-7.83-.47c-.74-.63,1.75-3.46,2.28-4.24,6.02-8.9,13.32-17.02,19.43-25.88,2.49-2.65,5.7-.2,8.78-.36Z"/><path class="cls-5" d="M217.92,199.54l-22.66,30.07c-1.65,1.03-5.67-.32-7.41-1.33l21.37-29.18c2.85-1.18,5.91-.29,8.71.44Z"/><path class="cls-5" d="M204.86,197.79l-20.06,26.55c-2.91,3.81-4.2-1.81-2.82-4.54l16.36-21.13c1.7-1.6,4.34-.74,6.52-.88Z"/><path class="cls-5" d="M270.65,196.93c-4.34,7.79-10.14,15.53-15.77,22.56-2.89,3.61-6.97,10.43-7.81,1.84l17.48-22.67,6.1-1.73Z"/><path class="cls-5" d="M282.4,305.83c-1.32.92-3.95,2.94-5.23,3.49-13.97,5.92-30.62,7.25-45.31,5.23,16.29.3,32.57-3.12,46.76-11.17,1.68-.1,2.64,1.82,3.77,2.45Z"/><path class="cls-5" d="M273.69,180.36c1.8,3.64,3.59,7.28,4.35,11.32-6.37.16-12.8-.2-19.16,0,1.73-4.5,4.7-7.41,8.85-9.32-1.75.88-2.46,3.01-1.59,4.77s3.01,2.46,4.77,1.59,2.46-3.01,1.59-4.77-3.01-2.46-4.77-1.59c1.6-1.21,2.37-3.03,5.96-2.01Z"/><path class="cls-5" d="M266.72,235.25l-1.74,6.1c-7.72-3.06-12.08-2.5-19.62-3.48-3.5-.46,1.88-3.74,1.34-6.1,6.28,4.26,12.93,3.37,20.03,3.49Z"/><path class="cls-5" d="M266.72,235.25c2.89.05,5.82-.04,8.71,0l-2.62,9.58c-1.44,1.28-6.57-2.98-7.83-3.48l1.74-6.1Z"/><path class="cls-5" d="M328.58,156.83c-5-.63-10.7-3.42-15.68-.87l-10.45-3.48c11.05-2.34,17.13-2.62,26.13,4.35Z"/><path class="cls-10" d="M253.65,280.56c1.4-3.74,3.59-7.33,1.74-11.33.71-.05,1.99-1.9,4.37-.45,5.71,3.47-3.15,9.97-6.11,11.78Z"/><path class="cls-10" d="M223.15,273.59c-1.45.07-2.92-.06-4.36,0v5.23c-2.68-1.77-4.18-1.04-3.48-6.1l7.85.87Z"/><path class="cls-5" d="M302.44,118.5c-3.79,6.56,5.48,5.87,2.61,0,2.98.15,16.47,2.59,12.99,7.76-1.14,1.7-16.26.7-19.51.96-5.97.48-12.13,3.26-17.88,3.47-.79.03-2.13-1.63-4.36-.48-2,1.04-1.43,3.54-1.74,3.96-.37.49-9.12,3.55-11.35,4.77-2.41,1.33-12.58,8.18-13.92,8.3-1.25.11-3.56-1.72-5.23,0,.15-4.11,4.36-7.94,7.43-10.44,12.18-9.94,35.29-18.18,50.95-18.32Z"/><path class="cls-5" d="M335.55,259.65c.54-2.2,5.42-17.19,6.05-17.91,2.1-2.42,6.65-1.18,6.88,2.02.1,1.38-.68,1.71-.72,1.95-7.16-6.6-10.88,5.67-1.74,5.23-2.55,7.2-5.86,15.87-12.62,20.04-2.17-1.1-.86-4.13-1.32-5.22,4.61-1.14,2.82-3.41,3.49-6.1Z"/><circle class="cls-10" cx="325.53" cy="134.17" r="4.36"/><path class="cls-5" d="M343.98,210.97c4.14-1.4,8.55,3.9,5.52,7.31-3.94,4.44-11.21-5.38-5.52-7.31Z"/><path class="cls-10" d="M346.01,153.35c-.04-6.42,7.05-7.65,8.71-.87-.65,4.73-6.65,4.79-8.71.87Z"/><circle class="cls-5" cx="365.62" cy="169.83" r="4.21"/><path class="cls-10" d="M349.49,273.59c-4.2,2.33-7,.33-6.97-4.36,2.04-4.2,9.35-4.35,6.97,4.36Z"/><path class="cls-5" d="M347.75,245.71c-.51,3.1-.97,3.05-1.74,5.23-9.14.44-5.42-11.83,1.74-5.23Z"/><path class="cls-5" d="M335.55,259.65c-.66,2.69,1.13,4.96-3.49,6.1-.1-.23-2.27-.36-2.93-1.97-1.95-4.74,2.9-7.75,6.41-4.13Z"/><path class="cls-10" d="M280.66,130.69c2.7,6.42-2.29,9.53-6.1,3.49.31-.42-.26-2.92,1.74-3.96,2.23-1.16,3.57.51,4.36.48Z"/><path class="cls-5" d="M346.01,153.35c2.06,3.92,8.06,3.86,8.71-.87.05.2.81.58.87,1.36.55,6.54-9.53,8.7-9.59-.48Z"/><circle class="cls-5" cx="310.47" cy="133.74" r="3.16"/><circle class="cls-10" cx="360.38" cy="224.99" r="3.15"/><path class="cls-10" d="M237.09,165.55c.28,0,.6-.05.87,0,2.38,4.59.05,4.48-2.61,6.1-4.19-2.97-3.92-6.18,1.74-6.1Z"/><path class="cls-10" d="M357.33,192.56c-2.26.07-4.22.65-5.23-1.74,1.85-5.6,7.7-4.91,5.23,1.74Z"/><circle class="cls-5" cx="331.04" cy="277.59" r="2.77"/><path class="cls-5" d="M249.29,147.25c.72,5.76-5.47,6.68-5.23,0,1.67-1.72,3.97.11,5.23,0Z"/><path class="cls-5" d="M349.49,273.59c-.02.06.89.4.12,1.29-4.03,4.64-10.44,1.24-7.09-5.64-.02,4.69,2.77,6.69,6.97,4.36Z"/><circle class="cls-10" cx="269.16" cy="141.3" r="2.68"/><circle class="cls-5" cx="333.15" cy="136.1" r="2.65"/><path class="cls-5" d="M351.24,143.76c-.61-.62-.32-6.21,3.04-5.22,3.89,1.15-.59,7.69-3.04,5.22Z"/><circle class="cls-5" cx="369.96" cy="208.22" r="2.53"/><path class="cls-5" d="M305.06,118.5c2.86,5.87-6.4,6.56-2.61,0,.87,0,1.75-.04,2.61,0Z"/><path class="cls-5" d="M352.11,190.81c1.01,2.39,2.97,1.81,5.23,1.74-.61,1.64-.9,3.17-3.74,2.49s-2.02-2.62-1.49-4.23Z"/><path class="cls-5" d="M237.97,165.55c5.89,1.04,1.49,9.89-3.49,6.1.21-.13.66.13.87,0,2.66-1.61,4.99-1.5,2.61-6.1Z"/><path class="cls-10" d="M215.31,334.58c-2.2,1.9-3.82,3.22-6.97,2.61-8.38-7.38,7.45-13.35,6.97-2.61Z"/><path class="cls-5" d="M265.85,318.9c1.9.78,2.84,2.3,2.61,4.36-8.25,7.84-10.63-.58-7.42-3.51,1.73-1.58,3.66-.44,4.81-.85Z"/><path class="cls-10" d="M257.13,335.45c-1.98,2.65-3.47,4.84-6.97,2.61-4.31-5.84,4.31-10.22,6.97-2.61Z"/><path class="cls-5" d="M268.46,323.25c.22-2.06-.72-3.58-2.61-4.36.5-.18,2.62-4.89,5.72-1.79,1.64,3.53-1.26,4.4-3.1,6.15Z"/><path class="cls-5" d="M225.01,319.89c1.23-1.92,6.53-.2,4.71,3.36-2.25,4.4-6.73-.2-4.71-3.36Z"/><path class="cls-5" d="M196.03,335.33c-1.23,1.92-6.53.2-4.71-3.36,2.25-4.4,6.73.2,4.71,3.36Z"/><path class="cls-10" d="M295.47,325.87c.35,2.88-.24,4.76-3.49,4.36-1.32-1.35-2.71-1.71-1.36-4.41,1.63-1.78,3.22-.37,4.85.05Z"/><path class="cls-5" d="M291.99,330.22c3.25.4,3.84-1.48,3.49-4.36.14.04,1.34-1.23,2.21.87,1.13,2.73-2.12,7.15-5.69,3.49Z"/><path class="cls-5" d="M257.13,335.45c1.85,5.29-3.51,7.31-6.97,2.61,3.5,2.22,4.99.03,6.97-2.61Z"/><path class="cls-5" d="M215.31,334.58c-.2,4.54-3.67,5.52-6.97,2.61,3.15.61,4.77-.71,6.97-2.61Z"/><circle class="cls-10" cx="245.74" cy="355.71" r="3.31"/><circle class="cls-10" cx="288.07" cy="345.04" r="1.97"/><circle class="cls-10" cx="372.84" cy="253.73" r="3.56"/><circle class="cls-5" cx="324.3" cy="300.53" r="3.36"/><path class="cls-5" d="M289.37,284.04c1.43-1.12,1.73-3.52,4.7-2.55,4.3,1.4-.85,11.61-4.7,2.55Z"/><circle class="cls-5" cx="279.31" cy="276.19" r="2.98"/><path class="cls-5" d="M289.37,284.04c-5.69,4.44-7.78-4.73-.95-3.4.51,1.04.52,2.39.95,3.4Z"/><path class="cls-10" d="M304.18,292.76c-2.61.33-3.82-.82-3.49-3.49,3.82-3.86,5.09-.75,3.49,3.49Z"/><circle class="cls-5" cx="305.62" cy="300.89" r="2.15"/><path class="cls-5" d="M304.18,292.76c-.19.5.53,1.54-.5,1.79-4.36,1.04-6.45-1.78-2.99-5.27-.33,2.67.87,3.81,3.49,3.49Z"/><path class="cls-5" d="M317.7,305.83c2.88-.64,3.06,5.4-.87,4.34-2.4-.65-.57-4.02.87-4.34Z"/><path class="cls-5" d="M182.2,293.63c12.01,6.51-5.87,14.36-2.61.87.87-.53,2.09-.56,2.61-.87Z"/><path class="cls-5" d="M205.73,279.69c.77,5.42-2.01,6.9-6.1,3.49.42-.69-.29-2.93,1.74-3.96,2.27-1.15,3.85.53,4.36.47Z"/><path class="cls-5" d="M163.03,312.8l2.61-2.61c.46.48,6.12-.17,2.67,5.73-4.36,1.79-4.04-1.51-5.29-3.11Z"/><path class="cls-5" d="M163.03,312.8c-1.04-1.34-4.22-1.74-1.8-4.86,3.35-4.32,4.17,1.99,4.41,2.24l-2.61,2.61Z"/><circle class="cls-5" cx="198.32" cy="294.06" r="2.25"/><path class="cls-10" d="M228.39,232.64c2.45-2.47,6.92,4.06,3.04,5.22-3.36,1-3.65-4.6-3.04-5.22Z"/><circle class="cls-10" cx="269.31" cy="185.55" r="3.55"/><path class="cls-5" d="M215.31,124.6c-20.18-4.87-36.44-3.68-54.89,5.23,1.72.06,2.82,1.1,3.49,2.61.7-1.19,9.3-2.58,11.14-2.06,4.09,1.15,2.5,3.22,2.8,6.42,1.32-.28,3.51-1.97,4.84-.05,1.98,2.84-.93,7.13-4.04,4.91-1.29-.92-.68-3.47-.81-4.86-4.82,1.04-10.4,4.09-14.82,6.52-1.46.8-4.61,1.83-4.34,3.93,2.56,1.44,2.11,2.88,2.61,5.23.13.61.83,1.3.86,2.25.17,5.3-9.4,7.02-10.45-.5-3.19,1.52-10.92,10.11-12.05,1.97-.72-5.15,14.11-19.81,19.02-20.27-.59-1.78-1.26-3.59,0-5.23-52.9,27.62-45.93,94.4-26.79,142.24,3.7,9.24,9.28,17.6,12.9,26.31.71,1.71,1.17,2.91.82,4.84.14.13.07.75.44.86h1.3c.14-.5-.16-1.5,0-1.73-1.97-.84-.29-2.58.31-3.61,4.97-8.5,16.27-18.21,24.95-22.54.77-1.03-6.35-11-7.42-13.04-11.25-21.34-17.13-45.04-15.26-69.31,2.76-35.94,34.41-53.96,66.25-36.13,2.63-4.28,4.15-9.02,7.12-13.36,3.03-4.43,7.41-7.83,10.31-12.33-.42-1.81-15.7-7.67-18.3-8.3ZM158.67,263.31c1.09,0,1.98.89,1.98,1.98s-.89,1.98-1.98,1.98-1.98-.89-1.98-1.98.89-1.98,1.98-1.98ZM159.98,274.18c1.83,0,3.32,1.49,3.32,3.32s-1.49,3.32-3.32,3.32-3.32-1.49-3.32-3.32,1.49-3.32,3.32-3.32ZM129.05,183.84c0-.25-1.33-1.41-.93-2.94.23-.88,1.75-.47,1.8-.55.16-.26.12-4.32.57-5.97,1.15-4.17,2.58-12.73,8.46-12.11,8.2.87,1.71,10.49.54,14.14-1.32,4.08-2.55,8.21-3.23,12.46-.65,4.09-.7,16.76-2.08,18.83-.51.78-.96,1.65-2.05,1.39-2.88-.61-3.86-9.96-3.99-12.58-.21-4.55,1.01-8.79.91-12.67ZM143.14,192.32c0,1.66-1.34,3-3,3s-3-1.34-3-3,1.34-3,3-3,3,1.34,3,3ZM130.29,216.95l3.12-3.12,3.12,3.12-3.12,3.12-3.12-3.12ZM133.33,229.58c0-1.24,1.01-2.25,2.25-2.25s2.25,1.01,2.25,2.25-1.01,2.25-2.25,2.25-2.25-1.01-2.25-2.25ZM136.89,260.52c-4.34-4.81.23-11.52,6.1-6.97,5.82,4.51-1.66,11.89-6.1,6.97ZM150.74,281.34c-.1.16-2.8,1.26-3.42.58-4.15-8.24,6.04-4.8,3.42-.58ZM150.97,232.53c0,1.7-1.38,3.07-3.07,3.07s-3.07-1.38-3.07-3.07,1.38-3.07,3.07-3.07,3.07,1.38,3.07,3.07ZM193.53,142.02c-5.5-7.56,5.24-15.26,8.71-6.1,2.66,7.01-4.75,11.54-8.71,6.1ZM215.94,136.5c-2.13,0-3.86-1.73-3.86-3.86s1.73-3.86,3.86-3.86,3.86,1.73,3.86,3.86-1.73,3.86-3.86,3.86Z"/><path class="cls-5" d="M216.18,158.58c-4.46,7.25-6.31,2.45-12.37.61-17.67-5.35-32.79,2.63-39.78,19.12-13.03,30.71-1.12,70.57,18.17,96.14-12.62,7.86-26.14,16.43-34.85,28.77-1.97-.84-.29-2.58.31-3.61,4.97-8.5,16.27-18.21,24.95-22.54.77-1.03-6.35-11-7.42-13.04-11.25-21.34-17.13-45.04-15.26-69.31,2.76-35.94,34.41-53.96,66.25-36.13Z"/><path class="cls-5" d="M156.95,123.3c-57.63,23.95-49.1,101.61-29.17,148.51,3.08,7.24,12.5,27.53,17.83,32.27.35-1.93-.11-3.13-.82-4.84-3.62-8.71-9.2-17.07-12.9-26.31-19.14-47.84-26.11-114.62,26.79-142.24.59-.31,1.14-.58,1.74-.87,18.45-8.91,34.71-10.1,54.89-5.23-17.45-7.77-40.57-8.69-58.36-1.29Z"/><path class="cls-5" d="M177.85,136.79c-4.82,1.04-10.4,4.09-14.82,6.52-1.46.8-4.61,1.83-4.34,3.93-5.07-2.85-6.95,1.57-6.97,6.1,0,.28-.04.6,0,.87-3.19,1.52-10.92,10.11-12.05,1.97-.72-5.15,14.11-19.81,19.02-20.27,1.61-.15,2.88,2.09,4.77-.93.55-.88.27-2.24.46-2.56.7-1.19,9.3-2.58,11.14-2.06,4.09,1.15,2.5,3.22,2.8,6.42Z"/><path class="cls-5" d="M129.05,183.84c3.06.08,4.04-4.11.87-3.49.16-.26.12-4.32.57-5.97,1.15-4.17,2.58-12.73,8.46-12.11,8.2.87,1.71,10.49.54,14.14-1.32,4.08-2.55,8.21-3.23,12.46-.65,4.09-.7,16.76-2.08,18.83-.51.78-.96,1.65-2.05,1.39-2.88-.61-3.86-9.96-3.99-12.58-.21-4.55,1.01-8.79.91-12.67Z"/><path class="cls-10" d="M202.24,135.92c-.24,4.93-3.75,8.56-8.71,6.1-5.5-7.56,5.24-15.26,8.71-6.1Z"/><path class="cls-10" d="M158.68,147.25c2.56,1.44,2.11,2.88,2.61,5.23-2.99,4.21-5.95,4.63-9.58.87.02-4.53,1.9-8.95,6.97-6.1Z"/><path class="cls-10" d="M142.99,253.55c.63,5.04-.73,7.7-6.1,6.97-4.34-4.81.23-11.52,6.1-6.97Z"/><circle class="cls-5" cx="215.94" cy="132.64" r="3.86"/><path class="cls-5" d="M151.71,154.22c-.04-.28,0-.59,0-.87,3.64,3.76,6.6,3.34,9.58-.87.13.61.83,1.3.86,2.25.17,5.3-9.4,7.02-10.45-.5Z"/><circle class="cls-5" cx="159.98" cy="277.51" r="3.32"/><path class="cls-5" d="M160.42,129.82c1.72.06,2.82,1.1,3.49,2.61-.19.32.09,1.68-.46,2.56-1.89,3.02-3.17.78-4.77.93-.59-1.78-1.26-3.59,0-5.23.59-.31,1.14-.58,1.74-.87Z"/><path class="cls-5" d="M177.85,136.79c1.32-.28,3.51-1.97,4.84-.05,1.98,2.84-.93,7.13-4.04,4.91-1.29-.92-.68-3.47-.81-4.86Z"/><circle class="cls-5" cx="147.9" cy="232.53" r="3.07"/><circle class="cls-10" cx="140.14" cy="192.32" r="3"/><path class="cls-5" d="M136.89,260.52c5.37.73,6.72-1.93,6.1-6.97,5.82,4.51-1.66,11.89-6.1,6.97Z"/><path class="cls-5" d="M193.53,142.02c4.97,2.46,8.47-1.17,8.71-6.1,2.66,7.01-4.75,11.54-8.71,6.1Z"/><path class="cls-10" d="M150.74,281.34c-.1.16-2.8,1.26-3.42.58-4.15-8.24,6.04-4.8,3.42-.58Z"/><rect class="cls-5" x="131.2" y="214.75" width="4.41" height="4.41" transform="translate(-114.33 157.88) rotate(-45)"/><circle class="cls-5" cx="135.58" cy="229.58" r="2.25"/><circle class="cls-5" cx="158.67" cy="265.29" r="1.98"/><path class="cls-5" d="M129.92,180.36c3.16-.62,2.19,3.57-.87,3.49,0-.25-1.33-1.41-.93-2.94.23-.88,1.75-.47,1.8-.55Z"/><text class="cls-8" transform="translate(24.74 77.28)"><tspan x="0" y="0">SN</tspan><tspan class="cls-9" x="103.6" y="0">A</tspan><tspan x="158.27" y="0">CK </tspan><tspan class="cls-7" x="285.81" y="0">D</tspan><tspan x="337.12" y="0">AD </tspan></text><text class="cls-8" transform="translate(116.28 430.02)"><tspan x="0" y="0">SQ</tspan><tspan class="cls-6" x="105.14" y="0">U</tspan><tspan x="158.97" y="0">AD</tspan></text></svg>