<?xml version="1.0" encoding="UTF-8"?><svg id="Layer_1" xmlns="http://www.w3.org/2000/svg" viewBox="0 0 500 500"><defs><style>.cls-1{fill:#e78024;}.cls-2{fill:#231f20;}.cls-3{fill:#fff;}</style></defs><path d="M391.47,288.33c17.69-11.2,33.51-37.64,38.67-57.75,6.45-25.1-16.5-17.92-29.83-10.14-16.79,9.8-24.51,25.13-38.24,36.45-12.14,10.02-13.86-.12-19.69-8.85-1.62-2.42-7.2-8.86-7.83-10.56-.65-1.75,1.97-9.07,1.75-12.54-.53-8.21-8.16-10.93-12.61-15.92-5.84-6.55-4.78-9.12-13.89-13.95-8.57-4.53-20.51-10.22-29.44-14.02-21.7-9.24-46.19-11.32-62.95,7.91-2.69,3.08-6.86,11.18-8.83,12.9-1.67,1.46-9.82,3.58-12.66,4.99-4.18,2.08-10.21,7.82-13.29,9.12-1.8.76-3.58.28-5.52,1.27-3.71,1.89-6.92,9.27-8.69,13.04-5.31,11.33-7.27,21.33-9.19,33.59-.61,3.87-.46,13.5-1.71,15.95-.72,1.41-3.74,2.72-4.91,4.6-3.21,5.15.58,11.31,5.76,13.19,1.78.65,4.93.72,6.07,1.4.68.41,3.91,5.78,5.11,7.12,12.09,13.6,28.85,24.71,45.75,31.32.02,6.86-.15,13.06,1.65,19.74,2.83,10.56,9.78,16.25,15.68,3.85,2.7-5.69,3.28-10.63,3.47-16.88,4.1,1.47,8.6,2.25,12.92,2.7,2.64.28,6.88.65,9.47.71,2.97.07,11.13-1.17,12.82-.59.97.33,4.96,6.64,6.21,8.04,4.57,5.12,21.09,17.52,27.82,16.29,8.98-1.65,2.03-22.23-1.37-27.12-.6-.86-3.68-3.51-3.68-3.78,0-.42,6.05-3.21,6.98-2.97.49.13,6.4,5.28,8.01,6.31,7.21,4.62,19.07,9.82,25.36,1.03,6.75-9.43-.34-18.45-9.8-21.34,6.54-4.13,14.12-15.72,22.63-10.41,5.23,3.26,15.59,24.11,20.27,30.66,6.46,9.02,16.14,18.54,26.37,23.2,20.11,9.17,10.71-14.68,9.03-24.65-2.27-13.41-2.18-23.38-9.17-35.64-3.36-5.89-7.97-10.06-11.42-15.06-1.59-2.31.73-1.8,2.93-3.2Z"/><path class="cls-2" d="M304.32,371.64c-7.51,0-22.95-11.93-26.99-16.45-.48-.54-1.32-1.73-2.29-3.11-1.31-1.86-3.29-4.68-3.82-4.86-.95-.33-4.33-.02-7.31.25-2.17.2-4.22.38-5.44.35-2.57-.06-6.72-.42-9.49-.72-4.98-.52-9.13-1.37-12.66-2.6-.21,6.35-.87,11.15-3.48,16.64-2.97,6.25-5.93,7.35-7.9,7.17-3.33-.3-6.49-4.54-8.24-11.06-1.64-6.11-1.64-11.87-1.65-17.96v-1.68c-17.42-6.84-34.07-18.25-45.69-31.32-.56-.63-1.55-2.11-2.51-3.55-.99-1.48-2.22-3.33-2.54-3.52-.57-.34-1.74-.52-2.98-.72-1.09-.17-2.21-.35-3.06-.66-3.07-1.12-5.61-3.65-6.63-6.61-.83-2.42-.57-4.82.75-6.94.63-1.01,1.78-1.87,2.79-2.62.92-.68,1.79-1.33,2.11-1.96.76-1.48,1-5.89,1.21-9.78.13-2.39.25-4.64.48-6.1,1.8-11.5,3.73-21.97,9.21-33.65l.4-.85c1.83-3.93,4.88-10.51,8.4-12.3,1.09-.56,2.12-.66,3.12-.77.84-.09,1.62-.17,2.42-.51,1.49-.63,3.72-2.34,6.07-4.15,2.49-1.91,5.06-3.89,7.2-4.96,1.2-.6,3.29-1.3,5.5-2.05,2.89-.98,6.17-2.09,7.11-2.91,1-.87,2.6-3.45,4.29-6.19,1.58-2.55,3.21-5.19,4.52-6.69,7.81-8.97,17.84-13.92,29.79-14.72,10.1-.67,21.35,1.59,33.44,6.74,9,3.83,20.84,9.47,29.46,14.03,6.19,3.28,7.74,5.54,9.87,8.66,1.03,1.5,2.19,3.21,4.09,5.34,1.33,1.49,2.98,2.8,4.58,4.08,3.79,3.02,7.72,6.15,8.1,12,.11,1.75-.46,4.37-1.02,6.91-.51,2.34-1.04,4.75-.74,5.57.37.99,2.6,3.8,4.57,6.28,1.33,1.68,2.59,3.26,3.24,4.23,1.07,1.61,2,3.25,2.89,4.83,2.24,3.98,4.18,7.41,7.25,7.98,2.37.44,5.37-.87,9.18-4.01,5.56-4.59,10.23-9.94,14.74-15.12,6.65-7.63,13.53-15.52,23.53-21.36,9.19-5.36,22.04-10.01,28.02-5.49,3.48,2.63,4.21,7.98,2.17,15.9-5.03,19.57-20.91,46.58-38.78,57.89-.72.46-1.46.72-2.05.93-.66.23-1.18.42-1.28.72-.08.24.08.64.46,1.2,1.4,2.03,2.97,3.9,4.63,5.87,2.36,2.81,4.8,5.71,6.8,9.21,5.5,9.64,6.64,17.88,7.96,27.41.37,2.65.75,5.4,1.24,8.31.28,1.67.79,3.75,1.32,5.96,1.81,7.48,4.07,16.79.26,19.94-2.1,1.73-5.68,1.41-10.95-.99-9.11-4.15-19-12.86-26.47-23.28-1.6-2.24-3.91-6.22-6.35-10.43-4.66-8.04-10.46-18.04-13.85-20.16-6.07-3.78-11.79,1.37-16.84,5.91-1.77,1.6-3.46,3.11-5.1,4.22,5.62,1.86,10.02,5.75,11.55,10.24,1.26,3.72.53,7.63-2.11,11.32-6.62,9.25-18.94,3.36-25.69-.97-.82-.53-2.69-2.07-4.5-3.55-1.49-1.23-3.19-2.62-3.45-2.72-.73-.18-5.86,2.09-6.61,2.75.21.26.88.89,1.43,1.41.9.86,1.84,1.75,2.16,2.21,2.73,3.92,7.72,17.85,5.08,24.26-.75,1.82-2.05,2.91-3.86,3.24-.33.06-.68.09-1.05.09ZM269.71,346.58c.74,0,1.32.05,1.67.17.63.22,2.02,2.14,4.06,5.04.92,1.31,1.79,2.55,2.26,3.07,4.87,5.45,21.07,17.41,27.6,16.21,1.64-.3,2.81-1.29,3.5-2.95,2.58-6.26-2.34-19.93-5.03-23.79-.29-.42-1.25-1.33-2.1-2.14-1.43-1.36-1.63-1.57-1.63-1.78,0-.16.12-.27.25-.38.95-.74,6.07-3.08,7.03-2.83.27.07,1.26.87,3.62,2.82,1.71,1.41,3.65,3.01,4.45,3.52,6.61,4.24,18.64,10.02,25.03,1.09,2.55-3.56,3.25-7.32,2.05-10.88-1.52-4.48-6.01-8.34-11.72-10.09l-.51-.16.45-.28c1.74-1.1,3.55-2.73,5.47-4.45,5.18-4.66,11.04-9.93,17.42-5.96,3.5,2.18,9.09,11.82,14.02,20.33,2.44,4.2,4.74,8.17,6.33,10.39,7.42,10.36,17.24,19,26.27,23.12,5.01,2.29,8.52,2.64,10.44,1.06,3.58-2.96,1.36-12.1-.42-19.45-.54-2.22-1.05-4.31-1.33-6-.49-2.92-.87-5.67-1.24-8.33-1.31-9.49-2.45-17.68-7.9-27.24-1.98-3.46-4.4-6.35-6.75-9.14-1.67-1.98-3.24-3.85-4.66-5.91-.5-.72-.66-1.22-.53-1.63.17-.53.79-.75,1.58-1.03.6-.21,1.28-.45,1.95-.88l.13.21-.13-.21c17.77-11.25,33.56-38.12,38.57-57.6,1.98-7.72,1.31-12.9-1.99-15.39-5.8-4.38-18.43.24-27.48,5.52-9.93,5.8-16.79,13.66-23.41,21.26-4.52,5.19-9.2,10.56-14.8,15.17-3.98,3.28-7.03,4.59-9.58,4.12-3.3-.61-5.29-4.14-7.59-8.22-.89-1.58-1.81-3.21-2.87-4.8-.63-.95-1.89-2.53-3.21-4.2-2.09-2.63-4.25-5.35-4.64-6.41-.35-.95.15-3.22.72-5.84.52-2.39,1.12-5.09,1.01-6.77-.37-5.63-4.2-8.69-7.91-11.64-1.61-1.28-3.28-2.61-4.64-4.13-1.92-2.15-3.09-3.87-4.13-5.39-2.1-3.07-3.61-5.29-9.7-8.51-8.6-4.55-20.43-10.18-29.42-14.01-18.58-7.91-44.53-12.97-62.67,7.85-1.28,1.47-2.9,4.09-4.47,6.62-1.71,2.77-3.33,5.38-4.38,6.3-1.01.88-4.2,1.96-7.28,3-2.2.74-4.27,1.44-5.44,2.03-2.1,1.05-4.65,3.01-7.12,4.91-2.38,1.83-4.64,3.56-6.18,4.22-.86.36-1.73.46-2.56.54-.95.1-1.94.21-2.94.72-3.37,1.72-6.38,8.2-8.18,12.07l-.4.85c-5.45,11.62-7.38,22.06-9.17,33.52-.22,1.43-.34,3.68-.47,6.05-.22,4.13-.45,8.39-1.26,9.97-.37.73-1.29,1.41-2.25,2.13-1.03.76-2.08,1.55-2.67,2.49-1.57,2.52-1.25,4.94-.7,6.52.97,2.82,3.4,5.24,6.34,6.31.8.29,1.9.47,2.97.63,1.28.2,2.5.39,3.15.78.4.24,1.28,1.55,2.7,3.67.95,1.42,1.93,2.9,2.47,3.5,11.61,13.06,28.26,24.45,45.66,31.25l.16.06v2.01c.01,6.06.02,11.79,1.64,17.84,1.69,6.31,4.68,10.41,7.81,10.7,2.59.23,5.16-2.15,7.41-6.89,2.62-5.51,3.25-10.33,3.45-16.78v-.34s.33.11.33.11c3.56,1.27,7.77,2.15,12.86,2.69,2.77.29,6.9.65,9.45.71,1.19.03,3.23-.16,5.38-.35,2.14-.19,4.32-.39,5.84-.39Z"/><path class="cls-2" d="M177.59,415.67l26.11-41.44h21.72v34.23h7.05v16.08h-7.05v9.7h-24.7v-9.7h-23.13v-8.87ZM201.71,408.46v-8.95l-.17-.08-5.64,9.03h5.8Z"/><path class="cls-2" d="M237.27,404.23c0-10.2,1.24-17.07,4.97-22.05,4.72-6.38,13.01-8.87,22.13-8.87s17.41,2.49,22.13,8.87c3.73,4.97,4.97,11.85,4.97,22.05s-1.24,17.07-4.97,22.05c-4.72,6.38-13.01,8.87-22.13,8.87s-17.41-2.49-22.13-8.87c-3.73-4.97-4.97-11.85-4.97-22.05ZM264.37,418.57c.99,0,1.66-.66,1.99-2.49.33-2.15.41-6.63.41-11.85s-.08-9.78-.41-11.85c-.33-1.82-.99-2.49-1.99-2.49s-1.66.66-1.99,2.49c-.33,2.16-.41,6.63-.41,11.85s.08,9.78.41,11.85c.33,1.82.99,2.49,1.99,2.49Z"/><path class="cls-2" d="M295.37,415.67l26.11-41.44h21.72v34.23h7.05v16.08h-7.05v9.7h-24.7v-9.7h-23.13v-8.87ZM319.49,408.46v-8.95l-.17-.08-5.64,9.03h5.8Z"/><path class="cls-2" d="M35.49,444.46h6.83l1.55,7.22h.04l1.31-7.22h4.32l1.29,7.22h.04l1.57-7.22h6.19l-4.58,15.56h-5.65l-1.33-6.06h-.04l-1.31,6.06h-5.67l-4.56-15.56Z"/><path class="cls-2" d="M59.79,444.46h11.2v5.2h-4.79v.84h3.87v3.7h-3.87v.88h5.09v4.94h-11.5v-15.56Z"/><path class="cls-2" d="M84.44,444.46h6.13l5.93,15.56h-6.92l-.54-2.04h-3.57l-.6,2.04h-6.36l5.93-15.56ZM88.01,454.07l-.69-3.16h-.04l-.69,3.16h1.42Z"/><path class="cls-2" d="M97.57,444.46h6.38c3.2,0,7.57.8,7.57,4.94,0,1.68-.8,2.88-1.96,3.7l3.55,6.92h-6.73l-2.32-5.12h-.09v5.12h-6.41v-15.56ZM104.45,451.34c1.01,0,1.46-.54,1.46-1.2s-.47-1.18-1.46-1.18h-.47v2.39h.47Z"/><path class="cls-2" d="M113.77,444.46h11.2v5.2h-4.79v.84h3.87v3.7h-3.87v.88h5.09v4.94h-11.5v-15.56Z"/><path class="cls-2" d="M133.35,453.7c2.08,1.35,4.19,1.85,5.12,1.85.64,0,.8-.26.8-.52,0-.3-.19-.43-.47-.49-.75-.19-2.92-.43-4.51-1.83-.82-.73-1.38-1.74-1.38-3.25,0-3.12,2.41-5.24,6.34-5.24,1.89,0,4.13.49,5.55,1.23v5.09c-2.02-1.01-3.91-1.38-4.71-1.38-.62,0-.8.24-.8.47,0,.32.24.45.49.54.64.19,2.79.45,4.32,1.66,1.05.86,1.57,1.96,1.57,3.35,0,2.99-2.41,5.07-6.49,5.07-1.96,0-4.3-.47-5.82-1.27v-5.29Z"/><path class="cls-2" d="M150.44,449.75h-4.34v-5.29h15.09v5.29h-4.34v10.27h-6.41v-10.27Z"/><path class="cls-2" d="M162.86,444.46h6.4v15.56h-6.4v-15.56Z"/><path class="cls-2" d="M171.15,444.46h6.41v10.04h4.81v5.52h-11.22v-15.56Z"/><path class="cls-2" d="M184.04,444.46h6.4v10.04h4.81v5.52h-11.22v-15.56Z"/><path class="cls-2" d="M203.39,444.46h6.41v10.04h4.81v5.52h-11.22v-15.56Z"/><path class="cls-2" d="M224.3,444.22c4.88,0,8.68,3.5,8.68,8.02s-3.8,8.02-8.68,8.02-8.68-3.5-8.68-8.02,3.8-8.02,8.68-8.02ZM224.3,454.76c1.33,0,2.41-1.07,2.41-2.41s-1.08-2.41-2.41-2.41-2.41,1.07-2.41,2.41,1.07,2.41,2.41,2.41Z"/><path class="cls-2" d="M242.86,444.22c4.88,0,8.68,3.5,8.68,8.02s-3.8,8.02-8.68,8.02-8.68-3.5-8.68-8.02,3.8-8.02,8.68-8.02ZM242.86,454.76c1.33,0,2.41-1.07,2.41-2.41s-1.08-2.41-2.41-2.41-2.41,1.07-2.41,2.41,1.07,2.41,2.41,2.41Z"/><path class="cls-2" d="M253.09,444.46h6.41v6.49l.04.02,2.64-6.51h7.01l-3.68,7.22,3.98,8.34h-7.2l-2.75-7.33-.04.02v7.31h-6.41v-15.56Z"/><path class="cls-2" d="M270.65,444.46h6.41v15.56h-6.41v-15.56Z"/><path class="cls-2" d="M278.94,444.46h5.82l4.58,6.64.04-.02v-6.62h5.76v15.56h-5.82l-4.58-6.64-.04.02v6.62h-5.76v-15.56Z"/><path class="cls-2" d="M296.65,452.37c0-4.69,3.85-8.15,9.29-8.15,2.06,0,3.95.49,5.18,1.12v5.33c-1.25-.54-3.18-1.05-4.62-1.05-2.28,0-3.46,1.29-3.46,2.97,0,1.83,1.44,2.92,3.01,2.92.3,0,.52-.04.64-.09v-.8h-1.55v-3.48h6.36v7.69c-1.14.71-3.16,1.42-5.72,1.42-5.61,0-9.13-3.42-9.13-7.89Z"/><path class="cls-2" d="M319.75,444.46h11.52v5.2h-5.12v.88h4.08v3.91h-4.08v5.57h-6.41v-15.56Z"/><path class="cls-2" d="M340.86,444.22c4.88,0,8.68,3.5,8.68,8.02s-3.8,8.02-8.68,8.02-8.68-3.5-8.68-8.02,3.8-8.02,8.68-8.02ZM340.86,454.76c1.33,0,2.41-1.07,2.41-2.41s-1.07-2.41-2.41-2.41-2.41,1.07-2.41,2.41,1.08,2.41,2.41,2.41Z"/><path class="cls-2" d="M351.08,444.46h6.38c3.2,0,7.57.8,7.57,4.94,0,1.68-.8,2.88-1.96,3.7l3.55,6.92h-6.73l-2.32-5.12h-.09v5.12h-6.41v-15.56ZM357.96,451.34c1.01,0,1.46-.54,1.46-1.2s-.47-1.18-1.46-1.18h-.47v2.39h.47Z"/><path class="cls-2" d="M376.44,449.75h-4.34v-5.29h15.09v5.29h-4.34v10.27h-6.41v-10.27Z"/><path class="cls-2" d="M388.86,444.46h6.41v4.81h3.22v-4.81h6.41v15.56h-6.41v-5.67h-3.22v5.67h-6.41v-15.56Z"/><path class="cls-2" d="M406.79,444.46h6.41v15.56h-6.41v-15.56Z"/><path class="cls-2" d="M415.12,453.7c2.09,1.35,4.19,1.85,5.12,1.85.64,0,.8-.26.8-.52,0-.3-.19-.43-.47-.49-.75-.19-2.92-.43-4.51-1.83-.82-.73-1.38-1.74-1.38-3.25,0-3.12,2.41-5.24,6.34-5.24,1.89,0,4.13.49,5.55,1.23v5.09c-2.02-1.01-3.91-1.38-4.71-1.38-.62,0-.8.24-.8.47,0,.32.24.45.49.54.64.19,2.79.45,4.32,1.66,1.05.86,1.57,1.96,1.57,3.35,0,2.99-2.41,5.07-6.49,5.07-1.96,0-4.3-.47-5.82-1.27v-5.29Z"/><path class="cls-2" d="M435.24,444.46h5.89c3.74,0,7.93,1.07,7.93,5.52,0,4-3.35,5.61-7.2,5.61h-.21v4.43h-6.41v-15.56ZM441.82,451.64c1.1,0,1.61-.58,1.61-1.31s-.54-1.31-1.61-1.31h-.17v2.62h.17Z"/><path class="cls-2" d="M453.4,444.46h6.13l5.93,15.56h-6.92l-.54-2.04h-3.57l-.6,2.04h-6.36l5.93-15.56ZM456.97,454.07l-.69-3.16h-.04l-.69,3.16h1.42Z"/><path class="cls-2" d="M464.68,452.37c0-4.69,3.85-8.15,9.29-8.15,2.06,0,3.96.49,5.18,1.12v5.33c-1.25-.54-3.18-1.05-4.62-1.05-2.28,0-3.46,1.29-3.46,2.97,0,1.83,1.44,2.92,3.01,2.92.3,0,.52-.04.64-.09v-.8h-1.55v-3.48h6.36v7.69c-1.14.71-3.16,1.42-5.72,1.42-5.61,0-9.13-3.42-9.13-7.89Z"/><path class="cls-2" d="M481.33,444.46h11.2v5.2h-4.79v.84h3.87v3.7h-3.87v.88h5.09v4.94h-11.5v-15.56Z"/><path class="cls-2" d="M167.48,211.69l-49.71-36.25-31.61-2.35c-24.49-1.01-43.73-7.03-57.19-17.91-11.11-8.98-15.44-18.89-17.77-24.22-.51-1.18-.96-2.19-1.25-2.65-2.59-4.06-6.29-26.8,4.42-47.47,5.82-11.23,14.92-20.34,27.06-27.07,14.6-8.1,33.67-12.76,56.66-13.83,37.69-1.76,66.8,7.66,86.53,27.99,10.85,11.18,18.56,25.34,22.91,42.08,4.29,16.5,3.86,29.93,3.47,34.94-1.89,24.45-47.16,30.6-60.56,31.88l17.03,34.84ZM106.83,44.63c-2.79,0-5.62.07-8.51.2-39.71,1.85-67.12,14.87-79.28,37.64-10.56,19.77-6.39,40.86-4.97,43.23.5.78.96,1.84,1.61,3.32,4.42,10.11,16.15,36.98,70.72,39.21h.08s33.04,2.46,33.04,2.46l34.92,25.46-11.56-23.64,3.65-.22c.15,0,14.95-.95,29.75-5.04,13.1-3.62,28.92-10.49,29.85-22.64.35-4.5,2.59-44.79-25.02-73.25-17.22-17.75-42.18-26.72-74.29-26.72Z"/><path class="cls-2" d="M64.02,99.51l1.95,34.55-13.14,2.67-9.11-17.61.95,18.87-11.4,1.25-3.04-36.02,12.6-2,10.77,17.27-1.49-17.27,11.91-1.72Z"/><path class="cls-2" d="M90.04,96.44c.07,1.6.15,3.18.24,4.74.09,1.56.15,3.15.19,4.75l-10.68,1.74.1,3.22,7.55-.83.31,7.91-7.57,1.09.15,3.73,6.28-.69,4.46-.49c.1,1.87.2,3.73.29,5.57.09,1.84.2,3.69.31,5.54l-21.78,2.91-3.2-36.62,23.36-2.57Z"/><path class="cls-2" d="M130.01,91.64l1.76,37.44-11.5,1.78-2.05-19.62-3.48,16.38-4.46.49-5.56-13.69,1.75,16.42-11.66,1.64-3.34-35.06,12.96-1.94,7.01,16.2,4.94-18.54,13.63-1.5Z"/><path class="cls-2" d="M164.94,107.08c.17,1.54.15,3.04-.04,4.5-.2,1.47-.56,2.86-1.09,4.18-.53,1.32-1.21,2.56-2.05,3.7-.84,1.14-1.81,2.15-2.92,3.03-1.11.87-2.34,1.6-3.7,2.16-1.36.57-2.82.94-4.39,1.11s-2.99.13-4.41-.11c-1.42-.24-2.77-.64-4.04-1.21-1.28-.57-2.45-1.29-3.53-2.18-1.08-.88-2.03-1.89-2.84-3.02-.82-1.13-1.49-2.37-2.02-3.71-.53-1.34-.88-2.77-1.05-4.27s-.14-2.93.06-4.38c.2-1.45.56-2.84,1.09-4.16.53-1.32,1.21-2.56,2.04-3.71.83-1.15,1.79-2.17,2.88-3.06,1.09-.89,2.3-1.62,3.62-2.19,1.32-.57,2.74-.94,4.26-1.11,2.45-.27,4.72-.13,6.83.4,2.1.54,3.94,1.43,5.53,2.69,1.58,1.25,2.88,2.84,3.88,4.75,1.01,1.91,1.64,4.1,1.91,6.57ZM153.76,108.97c-.08-.73-.26-1.42-.55-2.08-.29-.66-.66-1.23-1.13-1.72-.46-.49-1.01-.86-1.65-1.13-.64-.26-1.34-.35-2.12-.27s-1.49.31-2.08.66c-.59.36-1.09.81-1.48,1.35-.39.55-.67,1.17-.83,1.86-.16.69-.2,1.41-.12,2.15s.26,1.41.54,2.09.66,1.3,1.12,1.82c.47.53,1.02.94,1.66,1.23.64.29,1.35.39,2.15.3s1.49-.32,2.09-.7c.6-.38,1.09-.86,1.47-1.44.38-.58.65-1.23.81-1.95.16-.72.2-1.45.12-2.19Z"/><path class="cls-2" d="M176.95,85.76l.85,26.88-9.37,1.03-3.89-26.54,12.41-1.36ZM179.07,120.39c.08.74.01,1.45-.2,2.12-.22.67-.54,1.28-.97,1.81-.43.53-.95.98-1.56,1.33-.61.35-1.28.56-2.01.64s-1.45.02-2.12-.19c-.67-.21-1.28-.53-1.81-.96-.53-.43-.98-.95-1.33-1.56-.35-.61-.56-1.29-.65-2.03s-.02-1.43.19-2.12.52-1.3.95-1.84c.43-.53.95-.98,1.56-1.34.61-.36,1.29-.58,2.03-.66s1.43-.01,2.1.21c.67.22,1.28.54,1.81.97.53.43.98.96,1.34,1.58.36.63.58,1.3.66,2.03Z"/><path class="cls-3" d="M171.9,412.2l26.11-41.44h21.72v34.23h7.05v16.08h-7.05v9.7h-24.7v-9.7h-23.13v-8.87ZM196.02,404.99v-8.95l-.17-.08-5.64,9.03h5.8Z"/><path class="cls-2" d="M220.46,431.5h-26.17v-9.7h-23.13v-9.81l26.44-41.96h22.85v34.23h7.05v17.55h-7.05v9.7ZM195.76,430.03h23.23v-9.7h7.05v-14.62h-7.05v-34.23h-20.58l-25.78,40.92v7.93h23.13v9.7ZM196.76,405.72h-7.86l6.69-10.72,1.17.58v10.14ZM191.54,404.25h3.75v-6.01l-3.75,6.01Z"/><path class="cls-3" d="M231.58,400.76c0-10.2,1.24-17.07,4.97-22.05,4.72-6.38,13.01-8.87,22.13-8.87s17.41,2.49,22.13,8.87c3.73,4.97,4.97,11.85,4.97,22.05s-1.24,17.07-4.97,22.05c-4.72,6.38-13.01,8.87-22.13,8.87s-17.41-2.49-22.13-8.87c-3.73-4.97-4.97-11.85-4.97-22.05ZM258.69,415.1c.99,0,1.66-.66,1.99-2.49.33-2.15.41-6.63.41-11.85s-.08-9.78-.41-11.85c-.33-1.82-.99-2.49-1.99-2.49s-1.66.66-1.99,2.49c-.33,2.16-.41,6.63-.41,11.85s.08,9.78.41,11.85c.33,1.82.99,2.49,1.99,2.49Z"/><path class="cls-2" d="M258.69,432.41c-10.42,0-18.28-3.17-22.72-9.17-3.63-4.85-5.12-11.36-5.12-22.48s1.48-17.64,5.12-22.49c4.44-5.99,12.29-9.16,22.72-9.16s18.28,3.17,22.72,9.17c3.63,4.85,5.12,11.36,5.12,22.48s-1.48,17.64-5.12,22.49c-4.44,5.99-12.29,9.16-22.72,9.16ZM258.69,370.58c-6.93,0-16.3,1.49-21.54,8.57-3.43,4.58-4.83,10.84-4.83,21.61s1.4,17.04,4.83,21.61c5.25,7.09,14.61,8.58,21.55,8.58s16.3-1.49,21.54-8.57c3.43-4.58,4.83-10.84,4.83-21.61s-1.4-17.04-4.83-21.61c-5.25-7.09-14.61-8.58-21.54-8.58ZM258.69,415.83c-2.15,0-2.57-2.32-2.71-3.09-.3-1.85-.43-5.54-.43-11.98s.13-10.06.42-11.96c.14-.78.56-3.11,2.71-3.11s2.57,2.32,2.71,3.09c.3,1.85.43,5.54.43,11.98s-.13,10.06-.42,11.96c-.14.78-.57,3.11-2.71,3.11ZM258.69,387.15c-.32,0-.93,0-1.27,1.88-.36,2.32-.4,7.48-.4,11.72s.05,9.49.41,11.74c.34,1.87.94,1.87,1.27,1.87s.93,0,1.27-1.88c.36-2.32.4-7.48.4-11.72s-.05-9.49-.4-11.74c-.34-1.87-.94-1.87-1.27-1.87Z"/><path class="cls-3" d="M289.69,412.2l26.11-41.44h21.72v34.23h7.05v16.08h-7.05v9.7h-24.7v-9.7h-23.13v-8.87ZM313.81,404.99v-8.95l-.17-.08-5.64,9.03h5.8Z"/><path class="cls-2" d="M338.25,431.5h-26.17v-9.7h-23.13v-9.81l.11-.18,26.32-41.79h22.85v34.23h7.05v17.55h-7.05v9.7ZM313.55,430.03h23.24v-9.7h7.05v-14.62h-7.05v-34.23h-20.58l-25.78,40.92v7.92h23.13v9.7ZM314.54,405.72h-7.86l6.69-10.72,1.17.58v10.14ZM309.33,404.25h3.75v-6.01l-3.75,6.01Z"/><path class="cls-3" d="M29.8,440.99h6.83l1.55,7.22h.04l1.31-7.22h4.32l1.29,7.22h.04l1.57-7.22h6.19l-4.58,15.56h-5.65l-1.33-6.06h-.04l-1.31,6.06h-5.67l-4.56-15.56Z"/><path class="cls-2" d="M48.92,457.29h-6.79l-.76-3.45-.75,3.45h-6.81l-4.99-17.03h8.41l.92,4.29.78-4.29h5.55l.77,4.29.93-4.29h7.76l-5.01,17.03ZM43.31,455.82h4.52l4.15-14.1h-4.62l-1.57,7.22h-1.2l-.15-.6-1.18-6.62h-3.1l-1.31,7.22h-1.2l-.17-.58-1.42-6.64h-5.26l4.13,14.1h4.53l1.31-6.06h1.18l.17.58,1.21,5.49Z"/><path class="cls-3" d="M54.11,440.99h11.2v5.2h-4.79v.84h3.87v3.7h-3.87v.88h5.09v4.94h-11.5v-15.56Z"/><path class="cls-2" d="M66.34,457.29h-12.96v-17.03h12.66v6.67h-.92v3.95h1.22v6.41ZM54.84,455.82h10.03v-3.48h-5.09v-2.35h3.87v-2.23h-3.87v-2.3h4.79v-3.74h-9.73v14.1Z"/><path class="cls-3" d="M78.76,440.99h6.13l5.93,15.56h-6.92l-.54-2.04h-3.57l-.6,2.04h-6.36l5.93-15.56ZM82.32,450.6l-.69-3.16h-.04l-.69,3.16h1.42Z"/><path class="cls-2" d="M91.88,457.29h-8.55l-.54-2.04h-2.46l-.6,2.04h-7.97l6.49-17.03h7.13l6.49,17.03ZM84.46,455.82h5.29l-5.37-14.1h-5.12l-5.37,14.1h4.75l.6-2.04h4.68l.54,2.04ZM83.23,451.33h-3.24l1.01-4.63h1.18l.17.58.88,4.05Z"/><path class="cls-3" d="M91.89,440.99h6.38c3.2,0,7.57.8,7.57,4.94,0,1.68-.8,2.88-1.96,3.7l3.55,6.92h-6.73l-2.32-5.12h-.09v5.12h-6.41v-15.56ZM98.76,447.87c1.01,0,1.46-.54,1.46-1.2s-.47-1.18-1.46-1.18h-.47v2.39h.47Z"/><path class="cls-2" d="M108.62,457.29h-8.4l-1.2-2.65v2.65h-7.87v-17.03h7.12c5.35,0,8.3,2.02,8.3,5.68,0,1.55-.61,2.89-1.76,3.9l3.82,7.45ZM101.17,455.82h5.06l-3.29-6.42.52-.37c1.09-.77,1.65-1.81,1.65-3.1,0-3.48-3.72-4.21-6.83-4.21h-5.65v14.1h4.94v-5.12h1.29l2.32,5.12ZM98.76,448.6h-1.21v-3.85h1.21c1.52,0,2.19.96,2.19,1.91s-.68,1.94-2.19,1.94ZM99.02,446.23v.89c.47-.07.47-.33.47-.45,0-.1,0-.36-.47-.43Z"/><path class="cls-3" d="M108.09,440.99h11.2v5.2h-4.79v.84h3.87v3.7h-3.87v.88h5.09v4.94h-11.5v-15.56Z"/><path class="cls-2" d="M120.32,457.29h-12.96v-17.03h12.66v6.67h-.92v3.95h1.23v6.41ZM108.82,455.82h10.03v-3.48h-5.09v-2.35h3.87v-2.23h-3.87v-2.3h4.79v-3.74h-9.73v14.1Z"/><path class="cls-3" d="M127.67,450.23c2.08,1.35,4.19,1.85,5.12,1.85.64,0,.8-.26.8-.52,0-.3-.19-.43-.47-.49-.75-.19-2.92-.43-4.51-1.83-.82-.73-1.38-1.74-1.38-3.25,0-3.12,2.41-5.24,6.34-5.24,1.89,0,4.13.49,5.55,1.23v5.09c-2.02-1.01-3.91-1.38-4.71-1.38-.62,0-.8.24-.8.47,0,.32.24.45.49.54.64.19,2.79.45,4.32,1.66,1.05.86,1.57,1.96,1.57,3.35,0,2.99-2.41,5.07-6.49,5.07-1.96,0-4.3-.47-5.82-1.27v-5.29Z"/><path class="cls-2" d="M133.49,457.52c-2.17,0-4.59-.53-6.16-1.35l-.39-.21v-7.08l.75.49c-.8-.9-1.2-2.04-1.2-3.37,0-3.57,2.84-5.98,7.07-5.98,2,0,4.36.53,5.88,1.31l.4.2v6.73l-1.01-.51s.03.02.04.03c1.23,1,1.85,2.32,1.85,3.93,0,3.53-2.84,5.81-7.22,5.81ZM128.4,455.06c1.37.6,3.35,1,5.09,1,3.55,0,5.76-1.66,5.76-4.34,0-1.18-.41-2.06-1.3-2.79-1.08-.85-2.58-1.18-3.47-1.38-.25-.05-.45-.1-.59-.14-.84-.28-1.02-.83-1.02-1.24,0-.56.4-1.21,1.53-1.21.84,0,2.35.31,3.97.97v-3.49c-1.32-.57-3.22-.96-4.81-.96-3.46,0-5.61,1.73-5.61,4.51,0,1.15.36,2.01,1.13,2.7,1.18,1.04,2.76,1.36,3.7,1.55.2.04.37.08.5.11.92.21,1.02.91,1.02,1.2,0,.21-.07,1.25-1.53,1.25-.98,0-2.66-.41-4.38-1.31v3.55Z"/><path class="cls-3" d="M144.75,446.28h-4.34v-5.29h15.09v5.29h-4.34v10.27h-6.41v-10.27Z"/><path class="cls-2" d="M151.89,457.29h-7.87v-10.27h-4.34v-6.75h16.55v6.75h-4.34v10.27ZM145.48,455.82h4.94v-10.27h4.34v-3.82h-13.62v3.82h4.34v10.27Z"/><path class="cls-3" d="M157.17,440.99h6.41v15.56h-6.41v-15.56Z"/><path class="cls-2" d="M164.31,457.29h-7.87v-17.03h7.87v17.03ZM157.9,455.82h4.94v-14.1h-4.94v14.1Z"/><path class="cls-3" d="M165.47,440.99h6.4v10.04h4.81v5.52h-11.22v-15.56Z"/><path class="cls-2" d="M177.42,457.29h-12.68v-17.03h7.87v10.04h4.81v6.99ZM166.2,455.82h9.75v-4.06h-4.81v-10.04h-4.94v14.1Z"/><path class="cls-3" d="M178.36,440.99h6.41v10.04h4.81v5.52h-11.22v-15.56Z"/><path class="cls-2" d="M190.31,457.29h-12.68v-17.03h7.87v10.04h4.81v6.99ZM179.09,455.82h9.75v-4.06h-4.81v-10.04h-4.94v14.1Z"/><path class="cls-3" d="M197.7,440.99h6.4v10.04h4.81v5.52h-11.22v-15.56Z"/><path class="cls-2" d="M209.65,457.29h-12.68v-17.03h7.87v10.04h4.81v6.99ZM198.43,455.82h9.75v-4.06h-4.81v-10.04h-4.94v14.1Z"/><path class="cls-3" d="M218.61,440.76c4.88,0,8.68,3.5,8.68,8.02s-3.8,8.02-8.68,8.02-8.68-3.5-8.68-8.02,3.8-8.02,8.68-8.02ZM218.61,451.29c1.33,0,2.41-1.07,2.41-2.41s-1.07-2.41-2.41-2.41-2.41,1.07-2.41,2.41,1.08,2.41,2.41,2.41Z"/><path class="cls-2" d="M218.61,457.52c-5.28,0-9.42-3.84-9.42-8.75s4.14-8.75,9.42-8.75,9.42,3.84,9.42,8.75-4.14,8.75-9.42,8.75ZM218.61,441.49c-4.46,0-7.95,3.2-7.95,7.28s3.49,7.28,7.95,7.28,7.95-3.2,7.95-7.28-3.49-7.28-7.95-7.28ZM218.61,452.02c-1.73,0-3.14-1.41-3.14-3.14s1.41-3.14,3.14-3.14,3.14,1.41,3.14,3.14-1.41,3.14-3.14,3.14ZM218.61,447.21c-.92,0-1.68.75-1.68,1.67s.75,1.67,1.68,1.67,1.67-.75,1.67-1.67-.75-1.67-1.67-1.67Z"/><path class="cls-3" d="M237.18,440.76c4.88,0,8.68,3.5,8.68,8.02s-3.8,8.02-8.68,8.02-8.68-3.5-8.68-8.02,3.8-8.02,8.68-8.02ZM237.18,451.29c1.33,0,2.41-1.07,2.41-2.41s-1.07-2.41-2.41-2.41-2.41,1.07-2.41,2.41,1.08,2.41,2.41,2.41Z"/><path class="cls-2" d="M237.18,457.52c-5.28,0-9.42-3.84-9.42-8.75s4.14-8.75,9.42-8.75,9.42,3.84,9.42,8.75-4.14,8.75-9.42,8.75ZM237.18,441.49c-4.46,0-7.95,3.2-7.95,7.28s3.49,7.28,7.95,7.28,7.95-3.2,7.95-7.28-3.49-7.28-7.95-7.28ZM237.18,452.02c-1.73,0-3.14-1.41-3.14-3.14s1.41-3.14,3.14-3.14,3.14,1.41,3.14,3.14-1.41,3.14-3.14,3.14ZM237.18,447.21c-.92,0-1.68.75-1.68,1.67s.75,1.67,1.68,1.67,1.67-.75,1.67-1.67-.75-1.67-1.67-1.67Z"/><path class="cls-3" d="M247.41,440.99h6.41v6.49l.04.02,2.64-6.51h7.01l-3.68,7.22,3.98,8.34h-7.2l-2.75-7.33-.04.02v7.31h-6.41v-15.56Z"/><path class="cls-2" d="M264.97,457.29h-8.87l-1.55-4.14v4.14h-7.87v-17.03h7.87v3.6l1.46-3.6h8.7l-4.05,7.96,4.32,9.06ZM257.11,455.82h5.53l-3.63-7.62,3.3-6.48h-5.32l-2.71,6.67.26.57,2.57,6.85ZM248.14,455.82h4.94v-7.03l.86-.43-.81-.41-.04-.47v-5.76h-4.94v14.1Z"/><path class="cls-3" d="M264.96,440.99h6.41v15.56h-6.41v-15.56Z"/><path class="cls-2" d="M272.1,457.29h-7.87v-17.03h7.87v17.03ZM265.7,455.82h4.94v-14.1h-4.94v14.1Z"/><path class="cls-3" d="M273.26,440.99h5.82l4.58,6.64.04-.02v-6.62h5.76v15.56h-5.82l-4.58-6.64-.04.02v6.62h-5.76v-15.56Z"/><path class="cls-2" d="M290.2,457.29h-6.94l-3.5-5.08v5.08h-7.23v-17.03h6.94l3.5,5.08v-5.08h7.23v17.03ZM284.03,455.82h4.71v-14.1h-4.3v6.34l-.97.49-.4-.5-4.36-6.32h-4.71v14.1h4.3v-6.34l.97-.49.4.5,4.36,6.32Z"/><path class="cls-3" d="M290.97,448.9c0-4.69,3.85-8.15,9.28-8.15,2.06,0,3.96.49,5.18,1.12v5.33c-1.25-.54-3.18-1.05-4.62-1.05-2.28,0-3.46,1.29-3.46,2.97,0,1.83,1.44,2.92,3.01,2.92.3,0,.52-.04.64-.09v-.8h-1.55v-3.48h6.36v7.69c-1.14.71-3.16,1.42-5.72,1.42-5.61,0-9.13-3.42-9.13-7.89Z"/><path class="cls-2" d="M300.1,457.52c-5.81,0-9.87-3.54-9.87-8.62s4.21-8.88,10.02-8.88c1.98,0,4.04.45,5.51,1.2l.4.2v5.52h.39v8.83l-.35.22c-1.54.96-3.82,1.53-6.1,1.53ZM300.25,441.49c-4.96,0-8.55,3.12-8.55,7.41s3.38,7.16,8.4,7.16c2.51,0,4.21-.7,4.98-1.11v-6.54h-4.9v2.02h1.55v2.06l-.5.17c-.17.06-.46.12-.88.12-2.13,0-3.74-1.57-3.74-3.66,0-2.21,1.69-3.7,4.19-3.7,1.22,0,2.7.33,3.89.73v-3.81c-1.24-.54-2.87-.85-4.45-.85ZM298.72,447.55c-.42.38-.64.91-.64,1.57s.25,1.2.64,1.57v-3.14ZM300.06,446.94h1.64c-.61-.08-1.17-.08-1.64,0Z"/><path class="cls-3" d="M314.07,440.99h11.52v5.2h-5.12v.88h4.08v3.91h-4.08v5.57h-6.41v-15.56Z"/><path class="cls-2" d="M321.21,457.29h-7.87v-17.03h12.99v6.67h-1.03v4.79h-4.08v5.57ZM314.8,455.82h4.94v-5.57h4.08v-2.45h-4.08v-2.35h5.12v-3.74h-10.06v14.1Z"/><path class="cls-3" d="M335.17,440.76c4.88,0,8.68,3.5,8.68,8.02s-3.8,8.02-8.68,8.02-8.68-3.5-8.68-8.02,3.8-8.02,8.68-8.02ZM335.17,451.29c1.33,0,2.41-1.07,2.41-2.41s-1.08-2.41-2.41-2.41-2.41,1.07-2.41,2.41,1.07,2.41,2.41,2.41Z"/><path class="cls-2" d="M335.17,457.52c-5.28,0-9.42-3.84-9.42-8.75s4.14-8.75,9.42-8.75,9.42,3.84,9.42,8.75-4.14,8.75-9.42,8.75ZM335.17,441.49c-4.46,0-7.95,3.2-7.95,7.28s3.49,7.28,7.95,7.28,7.95-3.2,7.95-7.28-3.49-7.28-7.95-7.28ZM335.17,452.02c-1.73,0-3.14-1.41-3.14-3.14s1.41-3.14,3.14-3.14,3.14,1.41,3.14,3.14-1.41,3.14-3.14,3.14ZM335.17,447.21c-.92,0-1.67.75-1.67,1.67s.75,1.67,1.67,1.67,1.68-.75,1.68-1.67-.75-1.67-1.68-1.67Z"/><path class="cls-3" d="M345.4,440.99h6.38c3.2,0,7.57.8,7.57,4.94,0,1.68-.8,2.88-1.96,3.7l3.55,6.92h-6.73l-2.32-5.12h-.09v5.12h-6.41v-15.56ZM352.28,447.87c1.01,0,1.46-.54,1.46-1.2s-.47-1.18-1.46-1.18h-.47v2.39h.47Z"/><path class="cls-2" d="M362.14,457.29h-8.4l-1.2-2.65v2.65h-7.87v-17.03h7.12c5.35,0,8.3,2.02,8.3,5.68,0,1.55-.61,2.89-1.76,3.9l3.82,7.45ZM354.69,455.82h5.06l-3.29-6.42.52-.37c1.09-.77,1.65-1.81,1.65-3.1,0-3.48-3.72-4.21-6.83-4.21h-5.65v14.1h4.94v-5.12h1.29l2.32,5.12ZM352.28,448.6h-1.21v-3.85h1.21c1.52,0,2.19.96,2.19,1.91s-.68,1.94-2.19,1.94ZM352.54,446.23v.89c.47-.07.47-.33.47-.45,0-.11,0-.36-.47-.43Z"/><path class="cls-3" d="M370.76,446.28h-4.34v-5.29h15.09v5.29h-4.34v10.27h-6.41v-10.27Z"/><path class="cls-2" d="M377.9,457.29h-7.87v-10.27h-4.34v-6.75h16.55v6.75h-4.34v10.27ZM371.49,455.82h4.94v-10.27h4.34v-3.82h-13.62v3.82h4.34v10.27Z"/><path class="cls-3" d="M383.18,440.99h6.4v4.81h3.22v-4.81h6.4v15.56h-6.4v-5.67h-3.22v5.67h-6.4v-15.56Z"/><path class="cls-2" d="M399.95,457.29h-7.87v-5.67h-1.76v5.67h-7.87v-17.03h7.87v4.81h1.76v-4.81h7.87v17.03ZM393.54,455.82h4.94v-14.1h-4.94v4.81h-4.69v-4.81h-4.94v14.1h4.94v-5.67h4.69v5.67Z"/><path class="cls-3" d="M401.1,440.99h6.41v15.56h-6.41v-15.56Z"/><path class="cls-2" d="M408.24,457.29h-7.87v-17.03h7.87v17.03ZM401.84,455.82h4.94v-14.1h-4.94v14.1Z"/><path class="cls-3" d="M409.44,450.23c2.08,1.35,4.19,1.85,5.11,1.85.64,0,.8-.26.8-.52,0-.3-.19-.43-.47-.49-.75-.19-2.92-.43-4.51-1.83-.82-.73-1.38-1.74-1.38-3.25,0-3.12,2.41-5.24,6.34-5.24,1.89,0,4.13.49,5.55,1.23v5.09c-2.02-1.01-3.91-1.38-4.71-1.38-.62,0-.8.24-.8.47,0,.32.24.45.49.54.64.19,2.79.45,4.32,1.66,1.05.86,1.57,1.96,1.57,3.35,0,2.99-2.41,5.07-6.49,5.07-1.96,0-4.3-.47-5.82-1.27v-5.29Z"/><path class="cls-2" d="M415.27,457.52c-2.17,0-4.59-.53-6.16-1.35l-.39-.21v-7.08l.75.49c-.8-.9-1.2-2.04-1.2-3.37,0-3.57,2.84-5.98,7.07-5.98,2,0,4.36.53,5.88,1.31l.4.2v6.73l-1.01-.51s.03.02.04.03c1.23,1,1.85,2.32,1.85,3.93,0,3.53-2.84,5.81-7.22,5.81ZM410.17,455.06c1.37.6,3.35,1,5.09,1,3.55,0,5.76-1.66,5.76-4.34,0-1.18-.41-2.06-1.3-2.79-1.08-.85-2.58-1.18-3.47-1.38-.25-.05-.45-.1-.59-.14-.84-.28-1.02-.83-1.02-1.24,0-.56.4-1.21,1.53-1.21.84,0,2.35.31,3.97.97v-3.49c-1.32-.57-3.22-.96-4.81-.96-3.46,0-5.61,1.73-5.61,4.51,0,1.15.36,2.01,1.13,2.7,1.18,1.04,2.76,1.36,3.7,1.55.2.04.37.08.5.11.92.21,1.02.91,1.02,1.2,0,.21-.07,1.25-1.53,1.25-.98,0-2.66-.41-4.38-1.31v3.55Z"/><path class="cls-3" d="M429.55,440.99h5.89c3.74,0,7.93,1.07,7.93,5.52,0,4-3.35,5.61-7.2,5.61h-.22v4.43h-6.41v-15.56ZM436.13,448.17c1.1,0,1.61-.58,1.61-1.31s-.54-1.31-1.61-1.31h-.17v2.62h.17Z"/><path class="cls-2" d="M436.69,457.29h-7.87v-17.03h6.62c5.59,0,8.66,2.22,8.66,6.26,0,3.77-2.83,6.17-7.42,6.33v4.44ZM430.29,455.82h4.94v-4.43h.95c1.94,0,6.47-.48,6.47-4.88,0-3.96-3.91-4.79-7.2-4.79h-5.16v14.1ZM436.13,448.9h-.9v-4.09h.9c1.62,0,2.34,1.03,2.34,2.04s-.72,2.04-2.34,2.04ZM436.69,446.38v.97c.32-.14.32-.39.32-.49,0-.25-.13-.4-.32-.48Z"/><path class="cls-3" d="M447.71,440.99h6.13l5.93,15.56h-6.92l-.54-2.04h-3.57l-.6,2.04h-6.36l5.93-15.56ZM451.28,450.6l-.69-3.16h-.04l-.69,3.16h1.42Z"/><path class="cls-2" d="M460.84,457.29h-8.55l-.54-2.04h-2.45l-.6,2.04h-7.97l6.49-17.03h7.13l6.49,17.03ZM453.42,455.82h5.29l-5.37-14.1h-5.12l-5.37,14.1h4.75l.6-2.04h4.68l.54,2.04ZM452.19,451.33h-3.24l1.01-4.63h1.18l.17.58.88,4.05Z"/><path class="cls-3" d="M459,448.9c0-4.69,3.85-8.15,9.29-8.15,2.06,0,3.95.49,5.18,1.12v5.33c-1.25-.54-3.18-1.05-4.62-1.05-2.28,0-3.46,1.29-3.46,2.97,0,1.83,1.44,2.92,3.01,2.92.3,0,.52-.04.64-.09v-.8h-1.55v-3.48h6.36v7.69c-1.14.71-3.16,1.42-5.72,1.42-5.61,0-9.13-3.42-9.13-7.89Z"/><path class="cls-2" d="M468.13,457.52c-5.81,0-9.87-3.54-9.87-8.62s4.21-8.88,10.02-8.88c1.98,0,4.04.45,5.51,1.2l.4.2v5.52h.39v8.83l-.35.22c-1.54.96-3.82,1.53-6.1,1.53ZM468.28,441.49c-4.96,0-8.55,3.12-8.55,7.41s3.38,7.16,8.4,7.16c2.51,0,4.21-.7,4.98-1.11v-6.54h-4.9v2.02h1.55v2.06l-.5.17c-.17.06-.46.12-.88.12-2.13,0-3.74-1.57-3.74-3.66,0-2.21,1.69-3.7,4.19-3.7,1.22,0,2.7.33,3.89.73v-3.81c-1.24-.54-2.87-.85-4.45-.85ZM466.75,447.55c-.42.38-.64.91-.64,1.57s.25,1.2.64,1.57v-3.14ZM468.09,446.94h1.64c-.61-.08-1.17-.08-1.64,0Z"/><path class="cls-3" d="M475.65,440.99h11.2v5.2h-4.79v.84h3.87v3.7h-3.87v.88h5.09v4.94h-11.5v-15.56Z"/><path class="cls-2" d="M487.88,457.29h-12.96v-17.03h12.66v6.67h-.92v3.95h1.22v6.41ZM476.38,455.82h10.03v-3.48h-5.09v-2.35h3.87v-2.23h-3.87v-2.3h4.79v-3.74h-9.73v14.1Z"/><path class="cls-1" d="M218.99,346.24c-.53-2.8-.84-11-1.66-12.45-.21-.37-2.63-1.27-2.73-1.15-.76.91,1.81,16.44,2.53,18.85.4,1.33,3.15,9.07,5.61,6.95.15-.13-1.28-2.68-1.55-3.54-.82-2.6-1.7-5.99-2.21-8.66Z"/><path class="cls-1" d="M261.13,300.05c8.63-15.06,9.81-33.13,1.8-48.68-2.94-5.7-4.1-8.58-6.57-14.48-9.33-22.24-33.21-47.09-57.69-27.84-1.15.9-5.43,6.16-6.46,5.42-.38-.28-1.76-6.19-3.87-6.73-1.06-.27-5.39,2.89-5.56,3.76-.18.94,2,3.47,1.27,4.32-.14.17-2.7-1.58-3.39-1.75-4.99-1.23-11.55,7.42-12.9,11.6-.63,1.95,10.67-5.21,10.85-6.46.62,1.33-2.21,5.2-2.03,5.42.1.13,1.87.31,3.01,1.42,5.28,5.15,4.48,18.65,2.07,25.07-2.77,7.37-12.62,18.75-21.38,15.62l4.61-1.15,2.85-1.55c-1.89-.04-3.61-.93-5.1-2.04l-3.72-5.44c-.6,5.64-1.55,11.29-1.36,16.97,13.19-3.14,27.68.04,38.69,7.82-10.19-3.88-21.13-7.35-32.23-6.45-5.19.42-14.6,2.22-12.27,9.53,1.48,4.63,7.3,3.62,10.25,5.36,2.03,1.19,4.89,6.21,6.75,8.19,10.02,10.7,26.43,23.18,40.17,28.41,17.15,6.53,43.79-11.68,52.2-26.37ZM211.52,212.42c8.22-7.17,15.04,9.31,20.06,13.6-6.9-.19-8.78-4.88-12.55-8.83-4.49-4.7-8.74-1.66-9.18-2.03-.15-.13,1.21-2.33,1.67-2.73ZM209.15,226.34c1.06-.36,3.28-.22,3.42-.33.26-.21-4.54-6.42-1.7-6.09.43.05,4.42,5.26,5.76,6.45,2.35,2.07,5.97,3.83,8.15,6.11,6.16,6.44,8.82,16.19,6.49,24.81-.45,1.65-4.11,7.82-3.76,8.11.83.7,6.66-1.46,6.11,1.36-8.77-2.15-14.58,8.48-23.76,4.76.13.98,2.36,1.57,3.21,1.87,2.43.86,4.76,1.07,7.11,1.73.7.2,2.05.17,1.89,1.14-10.44,1.34-16.53-3.56-21.6-12-6.43-10.69-4.74-33.36,8.69-37.93ZM159.24,283.71c-.98.27-4.96,2.48-3.38-.66,2.04-4.05,10.92-4.13,14.75-3.86,12.76.89,25.77,6.49,35.16,15.08-14.35-6.11-30.45-15.04-46.53-10.56ZM179.3,291.9c-.39.35,2.33,1.84,1.02,2.71-2.01-3.03-5.5-3.63-7.81-6.1,4.04-.26,9.1,1.51,11.54,4.74-1.15.39-4.06-1.95-4.75-1.35ZM212.59,300.22c-3.89,4.39-12.53-.05-10.89-1.53.73-.66,11.05,4.14,9.36-4.26-.42-2.08-2.67-3.8-2.92-5.92,3.97,2.07,8.03,7.67,4.45,11.71Z"/><path class="cls-3" d="M208.7,268.26c12.06,5.04,20.84-7.75,20.19-18.83-.66-11.18-14.65-28.3-24.47-15.26,5.19-1.64,10.27,5.41,8.75,9.76-.59,1.68-6.17,1.83-5.35,3.48.67,1.35,5.36,2.89,5.31,4.61-.07,2.09-2.2,7-3.97,8.29-3.8,2.76-7.19-.62-7.45-.32-1.21,1.44,4.88,7.4,6.99,8.28Z"/><path class="cls-1" d="M224.12,336.03c-.66.75,2.13,11.93,4.06,12.9-.02-3.26,1.47-7.96.72-11.1-.15-.63-4.61-1.99-4.78-1.8Z"/><path class="cls-1" d="M219.36,334.67c-.85.93,2.38,18.35,3.21,20.9.17.53-.06,2.12,1.19,1.5.59-.29,2.56-3.96,2.77-4.74.78-2.9-2.22-7.98-3.29-11.02-.27-.77-1.64-9.08-3.88-6.64Z"/><path class="cls-1" d="M271.29,324.5c-.72-.59-2.54-1.12-3.04-.69-.63.55,5.3,8.24,5.83,9.44,5.75,7.12,11.95,13.89,19.35,19.35.91.67,9.09,6.26,9.44,5.83.77-.94-1.32-10.27-2.39-11.53-7.23-4.33-14.98-8.37-21.38-13.93-2.64-2.29-5.66-6.73-7.81-8.48Z"/><path class="cls-1" d="M271.09,331.49c-1.23-1.78-2.97-6.09-3.88-6.98-.69-.68-3.94-1.81-4.39-1.37-.63.6,6.84,13.95,7.86,15.56,5.89,9.22,14.88,17.59,25.17,21.69,2.74,1.09,6.24,3.09,7.03-1.25-12.8-5.63-23.87-16.25-31.79-27.64Z"/><path class="cls-3" d="M255.11,321.61c-1.38-5.57,3.2-12.41,11.12-10.39.92.24,1.76.59,2.52,1.03.04-.24.17-.47.42-.62,7.45-4.44,12.98-11.69,15.18-20.1,2.4-9.19.44-19.27-4.96-27.03-.16-.23-.3-.62-.15-.9,2.82-5.46,1.42-11.43-1.13-16.7-2.43-5.02-5.91-9.46-9.23-13.91-3.62-4.86-7.31-9.66-11.07-14.42-6.57-8.31-13.34-16.46-20.3-24.44-11.8.46-23.83,2.59-35.84,6.39l-11.5,5.14c-.31.41,2.07,3.71,2.57,4.55.23.39-.01,1.35,1.15.87.73-.3,2.7-2.84,3.8-3.67,25.43-19.26,50.01,3.82,60.03,27.46,2.91,6.87,2.33,7.2,6.75,13.63,8.18,11.9,9.18,23.94,6.06,37.86-5.56,24.82-26.57,38.12-50.09,42.93-.81.17-1.62.33-1.74,1.3,5.12,1.27,10.17,2.93,15.31,4.24.03-.05.07-.09.12-.14,5.66-5.92,12.63-10.39,20.41-12.95.19-.06.39-.11.6-.13ZM274.39,288.18c2.42-7.47,3.48-13.09,1.93-20.99-.61-3.1-2.66-6.07-2.3-9.24,8.51,9.41,6.32,22.76,1.6,33.51-1.7,3.88-3.71,8.29-7.37,10.62l6.13-13.9Z"/><path class="cls-1" d="M256,323.78c-7.17,2.37-13.68,6.38-18.95,11.79,1.92.43,3.86.79,5.82,1.05,2.84.38,21.82,1.52,22.66.76.42-.38-3.86-8.27-4.02-9.73-2.66-.7-4.46-2.14-5.51-3.88Z"/><path class="cls-1" d="M269.1,321.65c5.99-1.02.08-8.66-6.62-8.06-5.75.52-7.26,8.25-2.38,10.89-2.31-7.55,5.42-2.22,9.01-2.83Z"/><path class="cls-3" d="M180.58,244.62c1.08-9.24-1.5-24.6-12.83-13.85,3.92-.25,8.18,5.35,6.46,8.84-.65,1.33-4.4,2.26-4.41,3.05-.02,1.24,4.95,2.53,4.48,5.11-.82,4.56-4.68,8.69-9.5,6.01l-3.83-4.32c2.62,21.47,17.87,10.12,19.63-4.83Z"/><path class="cls-1" d="M309,211.42c0,.68,8.96,6.14,9.92,7.77,1.69-.79,2.74-1.95,4.54-2.8,1.22-.58,4.37-1.08,4.54-1.24.84-.81-7.75-8.36-9.33-8.69-1.85-.39-9.67,3.82-9.67,4.96Z"/><path class="cls-1" d="M292.34,334.69c-5.81-4.89-13.08-7.54-19.01-12.24-.51-1.18-1.69.03-1.67.33.08,1.55,9.39,9.71,11.21,11.19,1.41,1.15,16.61,12.34,17.29,11.56,1.5-1.72-6.34-9.6-7.82-10.84Z"/><path class="cls-1" d="M285.24,197.84c0,.65,11.13,5.79,11.77,5.66.41-.08,5.48-3.85,6.97-4.56,1.29-.61,2.98-1.3,4.33-1.78.87-.31,2.61-.25,2.71-.34,1.05-.94-3.08-3.19-3.62-3.5-1.21-.71-9.51-4.54-10.19-4.49-1.71.14-11.99,8.21-11.98,9.01Z"/><path class="cls-1" d="M320.54,221.26c.05.07,1.11.14,1.68.67,1.78,1.68,3.3,3.44,4.92,5.26.26.3.61,2.06,1.55.87.62-.79,1.04-11.48,0-12.23-.84-.6-9.46,3.56-8.14,5.42Z"/><path class="cls-1" d="M298.13,204.96c.3.44,8.74,5.28,9.28,5.33.49.05,7.1-3.83,8.77-4.59.61-.28,1.22.42.98-1.08-.23-1.4-4.17-7.01-5.75-7.09-1.99-.1-13.89,6.52-13.27,7.43Z"/><path class="cls-1" d="M219.34,192.39c1.29-1.08,4.67-7.87,6.25-10.04,2.25-3.09,4.85-5.74,7.34-8.61-7.29,1.89-12.69,7.23-17.64,12.57-.43,1.21-6.17,7.81-5.44,8.47.36.33,8.74-1.76,9.49-2.39Z"/><path class="cls-1" d="M222.08,192.07c.48.42,7.86-.89,12.41-1.45-.54-1.16,1.96-1.89,2.85-.88.15.17.3.34.45.51,2.86-5.05,6.65-10.08,11.13-13.78.9-.74,5.89-3.43,5.75-3.75-.47-1.09-2.04-.98-3.02-1.06-3.04-.24-12.78-.06-15.3,1.06-.6.26-5.67,5.49-6.47,6.43-1.09,1.29-8.73,12.09-7.8,12.91Z"/><path class="cls-1" d="M242.19,186.72c-.42.62-2.35,2.81-1.78,3.31.34.3,7.6-.1,9.16,0,2.13.14,9.39,1.58,10.74,1.25.64-.16,7.16-6.52,8.68-7.65l8.09-5.14c-4.52-1.07-15.76-6.63-19.93-5.93-3.79.64-12.65,10.74-14.95,14.15Z"/><path class="cls-1" d="M262.82,192.06c3.62-.97,11.93,2.93,16.85,4.55.47-.02.97.12,1.32.39.79.21,1.43.31,1.88.26,1.61-.18,8.32-7.86,11.16-8.28l.7-1.66c-4.02-.54-13.26-7.69-16.59-7.48-3.28.21-12.99,9.28-15.32,12.22Z"/><path class="cls-1" d="M359.9,263.73c-1.07-1.31-4.01-4.11-5.78-5.04,4.1,14.06,3.84,29.23-.76,43.13,1.65-1.18,3.81-2.92,4.45-3.54,8.68-8.6,9.87-24.99,2.09-34.55Z"/><path class="cls-1" d="M372.47,301.41l-7.11-8.83c.43,2.54-5.2,6.92-5.37,7.9-.3,1.73,14.92,20.76,17.24,23.34,3.8,4.22,9.33,9.89,13.57,13.59,1.05.91,12.74,10.12,13.25,9.49.7-.85-4.17-18.8-3.74-21.72-10.13-6.87-19.32-15-27.84-23.76Z"/><path class="cls-1" d="M334.74,241.61c-2.08-2.93-4.26-5.68-6.39-8.13-3.65-4.18-7.48-8.02-11.47-11.53-2.85,4.52-3.49,10.03-2.95,15.36,1.25,12.28,8.95,22.68,11.21,34.71,2.15,11.47-2.14,26.81,7.47,35.78.12.11.21.23.28.34,2.39-1.91,4.8-3.7,6.99-4.95,2.2-20.24.11-40.8-6.18-60.17-.25-.76.32-1.25,1.02-1.41ZM333.61,272.21c-1.53,1.13-3.25.54-2.21-.68.09-.1,1.16-.11,1.66-.7,1.15-1.36,1.29-3.27.92-4.94-.34-1.51-2.38-2.5-1.57-3.88,3.08,2.08,4.49,7.76,1.2,10.19Z"/><path class="cls-1" d="M381.87,268.01c-2.46,1.38-11.36,6.61-12.81,8.24-1.87,2.1-.7,5.67-1.07,8.44-.21,1.6-1.81,5.45-1.73,6.2.22,2.01,15.78,17.6,18.42,20.04,3.1,2.86,6.92,6.17,10.22,8.79.65.52,4.63,3.92,5.07,3.41.42-.48-1.4-9.35-1.83-10.73-.4-1.28-2.92-7.06-3.55-7.83-.92-1.11-11.72-3.74-12.94-7.59,3.69,1.38,6.46,4.18,10.35,5.26.93.26,1.31,1.24,1.18-.49-2.94-3.66-5.32-8.47-8.47-11.9-1.01-1.1-7.42-5.72-7.14-6.1.16-.22,4.02-1.41,5.11-2.03,7.1-4.02,12.76-9.12,17.96-15.31.66-.78,7.24-8.78,6.81-9.14-1.2-1.01-22.68,9.12-25.58,10.74Z"/><path class="cls-3" d="M350.88,258.37c-1.59.11-3.38.17-4.88-1.12-1.21,1.71,1.78,5.52-.34,6.79-1.3-5.82-4.21-11.96-7.76-17.67,5.26,17.92,7.05,36.77,5.21,55.36.56-.17,1.09-.27,1.57-.3,1.43-.06,3.08.72,4.52,1.21.23-.1.49-.16.76-.17,4.98-14.17,5.31-29.74.92-44.11Z"/><path class="cls-1" d="M364.12,310.44c-1.04-1.46-4.54-8.05-4.94-8.32-.55-.39-4.72,2.13-5.06,2.66-.68,1.04-.09,1.03.35,1.72,1.71,2.69,3.99,5.11,5.73,7.86,7.27,11.46,13.17,24.35,23.47,33.57,3.19,2.86,17.94,13.6,21.78,10.9,1.34-.94-.16-9.41-.87-10.42-.23-.32-5.65-2.85-6.85-3.67-12.54-8.55-24.79-21.94-33.61-34.29Z"/><path class="cls-1" d="M401.55,215.71c-18.52,9.35-29.24,28.5-45.02,41.21.98.48,3.16,2.85,3.82,3,1.19.27,15.39-14.4,17.89-16.59,10.79-9.44,22.2-17.99,35.54-23.54,1.84-.76,10.28-2.87,10.59-3.33.59-.85-.47-3.62-1.26-4.4-3.99-3.86-17.1,1.4-21.55,3.65Z"/><path class="cls-1" d="M406.99,238.8c-14.77,7.02-27.27,18.66-40.29,28.33-.88.64,1.04,7.53,1.37,7.78.62.47,11.23-7.72,13.12-8.26,5.77-3.01,11.64-5.78,17.75-8.06,2.2-.82,8.25-1.84,9.67-2.89.85-.63,4.75-8.16,5.53-9.74.65-1.32,5.3-11.33,4.85-11.78-.46-.45-10.61,3.97-12,4.63Z"/><path class="cls-1" d="M404.96,225.91c-16.23,8.91-29.04,22.54-42.71,34.76-.42.84,2.4,5.28,3.09,5.8.86.64,14.8-11.81,16.67-13.25,7.43-5.75,15.7-11.91,24.3-15.76,2.68-1.2,12.13-3.91,13.34-4.99,1.21-1.08,5.3-14.02,4.77-14.58-1-1.05-17.19,6.78-19.47,8.03Z"/><path class="cls-1" d="M312.02,322.81c-7.59-5.93-13.41-13.96-16.79-22.97-3.23-8.63-3.71-17.45-2.72-26.54.57-5.24,1.31-10.51.92-15.8-.31-4.26-1.32-8.42-2.65-12.47-4.84-14.8-14.51-29.27-12.65-45.36-11.83-3.89-24.28-5.75-37.03-5.63,3.36,3.87,6.68,7.78,9.95,11.73,7.98,9.63,15.68,19.5,23.09,29.57,5.72,7.78,13.03,18.6,8.24,28.49,5.44,8.12,7.38,18.33,5.04,27.86-2.2,8.96-8.18,16.87-16.09,21.58-.23.14-.5.24-.77.3,2.42,2.16,4,5.29,5.56,8.11,2.88.31,16.46,9.54,17.46,9.45,1.43-.13,9.14-3.62,11.1-4.51,2.42-1.09,4.96-2.36,7.48-3.73-.06-.03-.11-.07-.16-.11Z"/><path class="cls-3" d="M323.2,291.88c-.58-7.31.22-14.67-1.58-21.86-1.62-6.47-4.59-12.49-7.02-18.67-3.84-9.76-6.43-22.16.1-31.28-10.3-8.62-21.63-15.07-33.63-19.39-.78,8.26,1.79,16.39,4.82,24.02,3.05,7.65,6.69,15.11,8.87,23.09,1.11,4.07,1.82,8.26,1.85,12.48.03,5.16-.79,10.27-1.27,15.4-.82,8.79.2,17.38,3.65,25.54,3.3,7.81,8.53,14.73,15.21,19.95.18.14.3.29.38.43,2.65-1.51,5.22-3.11,7.54-4.7,2.21-1.51,5.42-4.33,8.83-7.15-.18-.06-.34-.15-.48-.28-4.89-4.56-6.74-11.08-7.26-17.57ZM302.15,250.08c-1.35,1.17-4.59,2.85-5.38.4,8.83.27,5.77-13.93.33-16.3-1.81-.79-.27,2.78-.29,3.7-.03,1.56-1.99,4.66-2.75,3.76-.33-.39,2.04-5.71-.76-9.77-.69-1-2-.72-1.96-1.76,1.85-.93,3.92,2.7,4.41,2.7.4,0,2.51-2.6,2.75-3.34,1.05-3.29-.23-7.32-2.51-9.79-1.28-1.39-2.61-1.24-3.3-2.47,4.94-.74,8.5,6.28,8.11,10.43-.25,2.64-2.66,4.55-2.66,4.84,0,.26,3.07,2.92,3.67,3.78,2.58,3.69,4.12,10.54.33,13.82ZM310.36,292.57c-.26-2.05,2.21-1.82,3.4-3.23,1.83-2.16,2.44-5.77,1.87-8.5-.29-1.4-2.74-4.38-2.56-4.56.74-.74,2.95,1.82,3.3,2.46,3.28,5.88-.05,11.92-6.01,13.83Z"/><path class="cls-1" d="M322.58,320.42c-.63.85.61,1.51,1.13,1.91,1.2.94,11.94,6.69,12.45,6.22.16-.14-1.6-3.27-2.02-3.74-.65-.71-8.08-5.3-8.8-5.47-.22-.05-2.66.97-2.75,1.08Z"/><path class="cls-1" d="M332.61,335.85c-2.29-.84-4.68-1.57-6.86-2.67-2.64-1.33-9.01-6.63-10.63-7.08-.78-.22-3.96.93-4.09,1.1-.63.82,13.72,12.3,15.45,12.76,1.93.51,6.89-1.12,7.63-2.93.54-1.33-.85-.94-1.5-1.18Z"/><path class="cls-1" d="M335.08,329.29c-3.72-.34-12.69-7.39-15.38-6.72-.54.13-3.22,2.02-3.22,2.25-.05,1.59,17.27,11.68,18.98,10.51.51-.35,1.49-5.58-.38-6.04Z"/><path class="cls-1" d="M306.96,329.24c-.96,1.21,13.76,10.84,16.28,9.84l-12.91-10.22c-.58-.55-3.26.25-3.37.38Z"/><path d="M396.81,214.36c-16.79,9.8-24.51,25.13-38.24,36.45-12.14,10.02-13.86-.12-19.69-8.85-1.62-2.42-7.2-8.86-7.83-10.56-.65-1.75,1.97-9.07,1.75-12.54-.53-8.21-8.16-10.93-12.61-15.92-5.84-6.55-4.78-9.12-13.89-13.95-8.57-4.53-20.51-10.22-29.44-14.02-21.7-9.24-46.19-11.32-62.95,7.91-2.69,3.08-6.86,11.18-8.83,12.9-1.67,1.46-9.82,3.58-12.66,4.99-4.18,2.08-10.21,7.82-13.29,9.12-1.8.76-3.58.28-5.52,1.27-3.71,1.89-6.92,9.27-8.69,13.04-5.31,11.33-7.27,21.33-9.19,33.59-.61,3.87-.46,13.5-1.71,15.95-.72,1.41-3.74,2.72-4.91,4.6-3.21,5.15.58,11.31,5.76,13.19,1.78.65,4.93.72,6.07,1.4.68.41,3.91,5.78,5.11,7.12,12.09,13.6,28.85,24.71,45.75,31.32.02,6.86-.15,13.06,1.65,19.74,2.83,10.56,9.78,16.25,15.68,3.85,2.7-5.69,3.28-10.63,3.47-16.88,4.1,1.47,8.6,2.25,12.92,2.7,2.64.28,6.88.65,9.47.71,2.97.07,11.13-1.17,12.82-.59.97.33,4.96,6.64,6.21,8.04,4.57,5.12,21.09,17.52,27.82,16.29,8.98-1.65,2.03-22.23-1.37-27.12-.6-.86-3.68-3.51-3.68-3.78,0-.42,6.05-3.21,6.98-2.97.49.13,6.4,5.28,8.01,6.31,7.21,4.62,19.07,9.82,25.36,1.03,6.75-9.43-.34-18.45-9.8-21.34,6.54-4.13,14.12-15.72,22.63-10.41,5.23,3.26,15.59,24.11,20.27,30.66,6.46,9.02,16.14,18.54,26.37,23.2,20.11,9.17,10.72-14.68,9.03-24.65-2.27-13.41-2.18-23.38-9.17-35.64-3.36-5.89-7.97-10.06-11.42-15.06-1.59-2.31.73-1.8,2.93-3.2,17.69-11.2,33.51-37.64,38.67-57.75,6.45-25.1-16.5-17.92-29.83-10.14ZM328.68,215.84c1.04.74.62,11.44,0,12.23-.94,1.19-1.28-.57-1.55-.87-1.61-1.83-3.14-3.58-4.92-5.26-.56-.53-1.63-.6-1.68-.67-1.32-1.86,7.3-6.02,8.14-5.42ZM318.68,206.46c1.58.33,10.16,7.89,9.33,8.69-.17.16-3.32.66-4.54,1.24-1.8.85-2.85,2.01-4.54,2.8-.96-1.63-9.92-7.09-9.92-7.77,0-1.14,7.83-5.35,9.67-4.96ZM317.15,204.63c.24,1.5-.37.8-.98,1.08-1.67.75-8.27,4.63-8.77,4.59-.53-.05-8.97-4.89-9.28-5.33-.62-.9,11.28-7.52,13.27-7.43,1.58.08,5.53,5.69,5.75,7.09ZM307.41,193.32c.54.32,4.67,2.56,3.62,3.5-.1.09-1.84.03-2.71.34-1.35.48-3.04,1.17-4.33,1.78-1.49.71-6.56,4.48-6.97,4.56-.64.13-11.77-5.01-11.77-5.66,0-.8,10.27-8.87,11.98-9.01.67-.06,8.97,3.78,10.19,4.49ZM294.73,187.33l-.7,1.66c-2.84.42-9.55,8.1-11.16,8.28-.44.05-1.09-.06-1.88-.26-.35-.28-.85-.42-1.32-.39-4.93-1.61-13.23-5.52-16.85-4.55,2.34-2.94,12.04-12,15.32-12.22,3.33-.22,12.57,6.94,16.59,7.48ZM277.07,178.5l-8.09,5.14c-1.51,1.13-8.03,7.49-8.68,7.65-1.34.33-8.6-1.1-10.74-1.25-1.56-.11-8.81.29-9.16,0-.57-.5,1.36-2.69,1.78-3.31,2.3-3.41,11.16-13.52,14.95-14.15,4.18-.7,15.41,4.86,19.93,5.93ZM236.34,172.73c2.53-1.12,12.26-1.3,15.3-1.06.97.08,2.54-.03,3.02,1.06.14.31-4.86,3-5.75,3.75-4.48,3.7-8.27,8.73-11.13,13.78-.15-.17-.3-.34-.45-.51-.89-1.01-3.39-.28-2.85.88-4.54.57-11.93,1.87-12.41,1.45-.93-.82,6.7-11.61,7.8-12.91.8-.94,5.87-6.17,6.47-6.43ZM215.3,186.31c4.95-5.34,10.35-10.68,17.64-12.57-2.5,2.86-5.09,5.51-7.34,8.61-1.58,2.18-4.97,8.97-6.25,10.04-.75.63-9.12,2.72-9.49,2.39-.73-.66,5.01-7.26,5.44-8.47ZM164.78,253.77c4.82,2.68,8.68-1.45,9.5-6.01.47-2.58-4.51-3.87-4.48-5.11.02-.79,3.76-1.73,4.41-3.05,1.71-3.49-2.54-9.08-6.46-8.84,11.33-10.74,13.91,4.62,12.83,13.85-1.76,14.96-17.01,26.3-19.63,4.83l3.83,4.32ZM208.93,326.42c-13.74-5.23-30.16-17.71-40.17-28.41-1.86-1.99-4.72-7-6.75-8.19-2.96-1.74-8.78-.73-10.25-5.36-2.33-7.31,7.08-9.11,12.27-9.53,11.1-.9,22.04,2.57,32.23,6.45-11-7.77-25.49-10.96-38.69-7.82-.2-5.68.76-11.34,1.36-16.97l3.72,5.44c1.49,1.1,3.2,1.99,5.1,2.04l-2.85,1.55-4.61,1.15c8.76,3.13,18.61-8.25,21.38-15.62,2.41-6.42,3.21-19.92-2.07-25.07-1.14-1.11-2.91-1.29-3.01-1.42-.18-.23,2.65-4.09,2.03-5.42-.18,1.24-11.48,8.41-10.85,6.46,1.34-4.18,7.9-12.83,12.9-11.6.69.17,3.25,1.92,3.39,1.75.73-.85-1.45-3.38-1.27-4.32.17-.87,4.5-4.03,5.56-3.76,2.11.53,3.49,6.45,3.87,6.73,1.02.74,5.31-4.51,6.46-5.42,24.48-19.26,48.36,5.59,57.69,27.84,2.47,5.9,3.64,8.78,6.57,14.48,8.01,15.55,6.83,33.62-1.8,48.68-8.41,14.69-35.05,32.9-52.2,26.37ZM222.75,358.43c-2.46,2.12-5.21-5.62-5.61-6.95-.73-2.41-3.3-17.94-2.53-18.85.1-.11,2.52.78,2.73,1.15.81,1.45,1.12,9.66,1.66,12.45.51,2.67,1.39,6.06,2.21,8.66.27.86,1.7,3.41,1.55,3.54ZM226.54,352.33c-.21.79-2.18,4.45-2.77,4.74-1.25.62-1.01-.97-1.19-1.5-.83-2.55-4.07-19.97-3.21-20.9,2.24-2.44,3.61,5.87,3.88,6.64,1.08,3.04,4.07,8.12,3.29,11.02ZM228.18,348.93c-1.94-.97-4.73-12.15-4.06-12.9.17-.19,4.63,1.17,4.78,1.8.75,3.14-.74,7.84-.72,11.1ZM234.1,334.69s-.08.09-.12.14c-5.13-1.32-10.19-2.98-15.31-4.24.13-.98.93-1.14,1.74-1.3,23.53-4.82,44.54-18.12,50.09-42.93,3.12-13.92,2.12-25.96-6.06-37.86-4.42-6.43-3.83-6.76-6.75-13.63-10.02-23.63-34.59-46.71-60.03-27.46-1.1.83-3.07,3.37-3.8,3.67-1.16.48-.92-.48-1.15-.87-.5-.84-2.89-4.14-2.57-4.55l11.5-5.14c12.01-3.8,24.04-5.93,35.84-6.39,6.96,7.98,13.73,16.13,20.3,24.44,3.76,4.75,7.45,9.56,11.07,14.42,3.32,4.45,6.8,8.89,9.23,13.91,2.55,5.27,3.95,11.25,1.13,16.7-.14.28,0,.67.15.9,5.41,7.76,7.36,17.84,4.96,27.03-2.2,8.41-7.73,15.66-15.18,20.1-.25.15-.38.38-.42.62-.76-.44-1.6-.8-2.52-1.03-7.92-2.02-12.5,4.82-11.12,10.39-.21.02-.42.07-.6.13-7.78,2.56-14.75,7.04-20.41,12.95ZM260.09,324.48c-4.88-2.65-3.37-10.38,2.38-10.89,6.7-.6,12.62,7.04,6.62,8.06-3.58.61-11.32-4.72-9.01,2.83ZM265.53,337.38c-.84.76-19.82-.38-22.66-.76-1.96-.26-3.89-.62-5.82-1.05,5.27-5.41,11.78-9.42,18.95-11.79,1.05,1.74,2.85,3.18,5.51,3.88.16,1.46,4.44,9.35,4.02,9.73ZM295.85,360.37c-10.29-4.09-19.28-12.46-25.17-21.69-1.02-1.6-8.49-14.96-7.86-15.56.45-.43,3.7.69,4.39,1.37.91.89,2.65,5.21,3.88,6.98,7.91,11.39,18.98,22.01,31.79,27.64-.78,4.34-4.28,2.34-7.03,1.25ZM300.49,346.91c1.07,1.26,3.16,10.59,2.39,11.53-.35.43-8.53-5.16-9.44-5.83-7.4-5.46-13.6-12.23-19.35-19.35-.52-1.2-6.46-8.9-5.83-9.44.5-.43,2.32.1,3.04.69,2.15,1.75,5.17,6.19,7.81,8.48,6.4,5.56,14.15,9.6,21.38,13.93ZM300.16,345.53c-.68.78-15.88-10.41-17.29-11.56-1.82-1.48-11.13-9.63-11.21-11.19-.02-.3,1.16-1.52,1.67-.33,5.93,4.7,13.2,7.35,19.01,12.24,1.48,1.25,9.32,9.13,7.82,10.84ZM293.59,331.15c-1,.09-14.59-9.14-17.46-9.45-1.56-2.82-3.14-5.95-5.56-8.11.27-.05.54-.16.77-.3,7.91-4.71,13.88-12.62,16.09-21.58,2.34-9.53.4-19.74-5.04-27.86,4.79-9.89-2.52-20.72-8.24-28.49-7.41-10.08-15.11-19.94-23.09-29.57-3.27-3.95-6.59-7.86-9.95-11.73,12.75-.12,25.2,1.74,37.03,5.63-1.87,16.08,7.81,30.56,12.65,45.36,1.32,4.05,2.34,8.21,2.65,12.47.39,5.29-.35,10.56-.92,15.8-.98,9.09-.51,17.91,2.72,26.54,3.38,9.02,9.2,17.04,16.79,22.97.05.04.11.07.16.11-2.52,1.37-5.06,2.63-7.48,3.73-1.96.89-9.67,4.38-11.1,4.51ZM306.96,329.24c.11-.13,2.78-.93,3.37-.38l12.91,10.22c-2.52,1-17.24-8.63-16.28-9.84ZM334.11,337.04c-.74,1.81-5.7,3.45-7.63,2.93-1.73-.46-16.08-11.94-15.45-12.76.13-.17,3.32-1.32,4.09-1.1,1.62.45,7.98,5.75,10.63,7.08,2.18,1.1,4.57,1.82,6.86,2.67.65.24,2.04-.15,1.5,1.18ZM335.45,335.33c-1.71,1.17-19.03-8.92-18.98-10.51,0-.24,2.68-2.12,3.22-2.25,2.69-.67,11.65,6.38,15.38,6.72,1.87.46.89,5.69.38,6.04ZM334.13,324.81c.42.47,2.18,3.6,2.02,3.74-.51.47-11.25-5.28-12.45-6.22-.52-.41-1.76-1.07-1.13-1.91.09-.12,2.53-1.14,2.75-1.08.72.17,8.15,4.76,8.8,5.47ZM322.11,316.89c-2.32,1.59-4.9,3.19-7.54,4.7-.08-.14-.2-.29-.38-.43-6.68-5.22-11.91-12.14-15.21-19.95-3.45-8.17-4.47-16.76-3.65-25.54.48-5.13,1.3-10.24,1.27-15.4-.03-4.22-.73-8.41-1.85-12.48-2.18-7.97-5.82-15.43-8.87-23.09-3.04-7.63-5.6-15.76-4.82-24.02,12.01,4.33,23.33,10.78,33.63,19.39-6.53,9.12-3.94,21.52-.1,31.28,2.44,6.18,5.4,12.2,7.02,18.67,1.8,7.19,1,14.55,1.58,21.86.52,6.49,2.37,13.01,7.26,17.57.14.13.31.23.48.28-3.42,2.82-6.62,5.64-8.83,7.15ZM339.9,303.2c-2.19,1.25-4.6,3.04-6.99,4.95-.07-.11-.16-.22-.28-.34-9.61-8.97-5.32-24.31-7.47-35.78-2.26-12.03-9.96-22.43-11.21-34.71-.54-5.33.1-10.83,2.95-15.36,3.99,3.51,7.82,7.35,11.47,11.53,2.13,2.45,4.31,5.2,6.39,8.13-.7.16-1.27.66-1.02,1.41,6.29,19.37,8.38,39.93,6.18,60.17ZM349.97,302.48c-.27.01-.53.07-.76.17-1.44-.49-3.09-1.27-4.52-1.21-.49.02-1.02.13-1.57.3,1.83-18.59.04-37.44-5.21-55.36,3.55,5.71,6.46,11.85,7.76,17.67,2.12-1.27-.87-5.08.34-6.79,1.49,1.29,3.28,1.23,4.88,1.12,4.4,14.37,4.06,29.94-.92,44.11ZM354.12,258.68c1.77.93,4.71,3.73,5.78,5.04,7.78,9.56,6.59,25.94-2.09,34.55-.63.63-2.79,2.37-4.45,3.54,4.6-13.9,4.86-29.07.76-43.13ZM404.59,348.4c.71,1.01,2.22,9.47.87,10.42-3.85,2.71-18.59-8.04-21.78-10.9-10.3-9.22-16.21-22.11-23.47-33.57-1.74-2.74-4.02-5.17-5.73-7.86-.44-.7-1.03-.68-.35-1.72.34-.53,4.51-3.05,5.06-2.66.4.28,3.89,6.87,4.94,8.32,8.82,12.35,21.08,25.74,33.61,34.29,1.21.82,6.63,3.36,6.85,3.67ZM404.05,346.89c-.51.63-12.21-8.58-13.25-9.49-4.24-3.7-9.78-9.37-13.57-13.59-2.32-2.58-17.54-21.62-17.24-23.34.17-.98,5.8-5.36,5.37-7.9l7.11,8.83c8.52,8.77,17.71,16.89,27.84,23.76-.43,2.92,4.43,20.87,3.74,21.72ZM400.65,266.41c-5.2,6.19-10.86,11.29-17.96,15.31-1.09.62-4.94,1.81-5.11,2.03-.28.38,6.13,5,7.14,6.1,3.15,3.43,5.53,8.24,8.47,11.9.14,1.73-.24.75-1.18.49-3.89-1.08-6.65-3.89-10.35-5.26,1.22,3.85,12.02,6.48,12.94,7.59.63.77,3.15,6.55,3.55,7.83.43,1.37,2.25,10.24,1.83,10.73-.44.51-4.42-2.89-5.07-3.41-3.3-2.63-7.11-5.93-10.22-8.79-2.65-2.44-18.21-18.03-18.42-20.04-.08-.75,1.52-4.6,1.73-6.2.37-2.77-.8-6.34,1.07-8.44,1.45-1.63,10.35-6.87,12.81-8.24,2.9-1.62,24.38-11.75,25.58-10.74.44.37-6.15,8.36-6.81,9.14ZM414.15,245.96c-.78,1.59-4.68,9.12-5.53,9.74-1.43,1.05-7.48,2.07-9.67,2.89-6.11,2.28-11.98,5.05-17.75,8.06-1.88.55-12.5,8.73-13.12,8.26-.33-.25-2.25-7.14-1.37-7.78,13.02-9.67,25.52-21.3,40.29-28.33,1.39-.66,11.54-5.08,12-4.63.45.45-4.2,10.47-4.85,11.78ZM419.66,232.46c-1.21,1.08-10.66,3.79-13.34,4.99-8.6,3.85-16.87,10.01-24.3,15.76-1.87,1.45-15.82,13.9-16.67,13.25-.68-.51-3.51-4.96-3.09-5.8,13.66-12.22,26.48-25.85,42.71-34.76,2.28-1.25,18.47-9.08,19.47-8.03.53.56-3.55,13.5-4.77,14.58ZM424.37,216.46c-.32.46-8.76,2.56-10.59,3.33-13.34,5.55-24.75,14.1-35.54,23.54-2.5,2.19-16.69,16.87-17.89,16.59-.66-.15-2.84-2.52-3.82-3,15.78-12.71,26.5-31.85,45.02-41.21,4.46-2.25,17.56-7.51,21.55-3.65.8.77,1.86,3.55,1.26,4.4Z"/><path class="cls-2" d="M300.82,365.55c-7.51,0-22.95-11.93-26.99-16.45-.48-.54-1.32-1.73-2.29-3.11-1.31-1.86-3.29-4.68-3.82-4.86-.95-.33-4.33-.02-7.31.25-2.17.2-4.22.38-5.44.35-2.56-.06-6.72-.42-9.49-.71-4.98-.52-9.13-1.37-12.66-2.6-.21,6.35-.87,11.15-3.48,16.64-2.97,6.25-5.93,7.35-7.9,7.17-3.33-.3-6.49-4.54-8.24-11.06-1.64-6.11-1.64-11.87-1.65-17.97v-1.67c-17.42-6.84-34.07-18.25-45.69-31.32-.56-.63-1.55-2.12-2.51-3.55-.99-1.48-2.22-3.32-2.54-3.52-.57-.34-1.74-.52-2.98-.72-1.09-.17-2.21-.35-3.06-.66-3.07-1.12-5.61-3.65-6.63-6.61-.83-2.42-.57-4.82.75-6.94.63-1.01,1.78-1.87,2.79-2.62.92-.68,1.79-1.33,2.11-1.96.76-1.49,1-5.89,1.21-9.78.13-2.39.25-4.64.48-6.1,1.8-11.5,3.73-21.97,9.21-33.65l.4-.85c1.83-3.93,4.88-10.51,8.4-12.3,1.09-.56,2.12-.66,3.12-.77.84-.09,1.62-.17,2.42-.51,1.49-.63,3.72-2.34,6.08-4.15,2.49-1.91,5.06-3.89,7.2-4.96,1.2-.6,3.29-1.3,5.5-2.05,2.89-.98,6.17-2.09,7.11-2.91,1-.87,2.6-3.45,4.29-6.19,1.58-2.55,3.21-5.19,4.52-6.69,7.81-8.97,17.84-13.92,29.79-14.72,10.1-.67,21.35,1.59,33.44,6.74,9,3.84,20.84,9.47,29.46,14.03,6.19,3.28,7.74,5.53,9.87,8.66,1.03,1.5,2.19,3.21,4.09,5.34,1.33,1.49,2.98,2.8,4.58,4.08,3.79,3.02,7.72,6.15,8.1,11.99.11,1.75-.46,4.37-1.02,6.91-.51,2.34-1.04,4.75-.74,5.56.37.99,2.6,3.8,4.57,6.28,1.33,1.68,2.59,3.26,3.24,4.23,1.07,1.61,2,3.25,2.89,4.83,2.24,3.98,4.18,7.41,7.25,7.98,2.37.44,5.37-.87,9.18-4.01,5.56-4.59,10.23-9.94,14.74-15.12,6.65-7.63,13.53-15.52,23.53-21.36,9.19-5.36,22.04-10.01,28.02-5.49,3.48,2.63,4.21,7.98,2.17,15.9-5.03,19.58-20.91,46.58-38.78,57.89-.72.46-1.46.72-2.05.93-.66.23-1.18.42-1.28.72-.08.24.08.64.46,1.2,1.4,2.03,2.97,3.9,4.63,5.87,2.36,2.81,4.8,5.71,6.8,9.21,5.5,9.64,6.64,17.88,7.96,27.41.37,2.65.75,5.4,1.24,8.31.28,1.67.79,3.75,1.32,5.96,1.81,7.48,4.07,16.79.26,19.94-2.1,1.73-5.68,1.41-10.95-.99-9.11-4.15-19-12.86-26.46-23.28-1.6-2.24-3.91-6.22-6.35-10.43-4.66-8.04-10.46-18.04-13.85-20.16-6.07-3.78-11.79,1.37-16.84,5.91-1.77,1.6-3.46,3.11-5.1,4.22,5.62,1.86,10.02,5.75,11.55,10.24,1.26,3.72.53,7.63-2.11,11.32-6.62,9.25-18.94,3.36-25.69-.97-.82-.53-2.69-2.07-4.5-3.55-1.49-1.23-3.19-2.62-3.45-2.72-.73-.19-5.86,2.09-6.61,2.75.21.26.88.89,1.43,1.41.9.86,1.84,1.75,2.16,2.21,2.73,3.92,7.72,17.85,5.08,24.26-.75,1.82-2.05,2.91-3.86,3.24-.33.06-.68.09-1.05.09ZM266.21,340.5c.74,0,1.32.05,1.67.17.63.22,2.02,2.14,4.06,5.04.92,1.31,1.79,2.55,2.26,3.07,4.87,5.45,21.08,17.41,27.6,16.21,1.64-.3,2.81-1.29,3.5-2.95,2.58-6.26-2.34-19.93-5.03-23.79-.29-.42-1.25-1.33-2.1-2.14-1.43-1.36-1.63-1.57-1.63-1.78,0-.16.12-.27.25-.38.95-.74,6.07-3.08,7.03-2.83.27.07,1.26.87,3.63,2.82,1.71,1.41,3.65,3.01,4.45,3.52,6.61,4.24,18.64,10.02,25.03,1.09,2.55-3.56,3.25-7.32,2.05-10.88-1.52-4.48-6.01-8.34-11.72-10.09l-.51-.16.45-.28c1.74-1.1,3.55-2.73,5.47-4.45,5.18-4.66,11.04-9.94,17.42-5.96,3.5,2.18,9.09,11.82,14.02,20.33,2.44,4.2,4.74,8.17,6.33,10.39,7.42,10.36,17.24,19,26.27,23.12,5.01,2.29,8.52,2.64,10.44,1.06,3.58-2.96,1.36-12.1-.42-19.45-.54-2.22-1.05-4.31-1.33-6-.49-2.92-.87-5.67-1.24-8.33-1.31-9.49-2.45-17.68-7.9-27.24-1.98-3.46-4.4-6.35-6.75-9.14-1.67-1.98-3.24-3.85-4.66-5.91-.5-.72-.66-1.22-.53-1.63.17-.53.79-.75,1.58-1.03.6-.21,1.28-.45,1.95-.88,17.77-11.25,33.56-38.12,38.57-57.6,1.98-7.72,1.31-12.9-1.99-15.39-5.8-4.38-18.43.24-27.48,5.52l-.12-.21.12.21c-9.93,5.8-16.79,13.66-23.41,21.26-4.52,5.19-9.2,10.56-14.8,15.17-3.98,3.28-7.03,4.59-9.58,4.12-3.3-.61-5.29-4.14-7.59-8.22-.89-1.58-1.81-3.21-2.87-4.8-.63-.95-1.89-2.53-3.21-4.19-2.09-2.63-4.25-5.35-4.64-6.41-.35-.95.15-3.22.72-5.84.52-2.39,1.12-5.09,1.01-6.77-.37-5.63-4.2-8.69-7.91-11.64-1.61-1.28-3.28-2.61-4.64-4.13-1.92-2.15-3.09-3.87-4.13-5.39-2.1-3.07-3.61-5.29-9.7-8.51-8.6-4.55-20.43-10.18-29.42-14.01-18.58-7.91-44.53-12.97-62.67,7.85-1.28,1.47-2.9,4.09-4.47,6.62-1.71,2.77-3.33,5.38-4.38,6.3-1.01.88-4.2,1.96-7.28,3-2.19.74-4.27,1.44-5.44,2.03-2.1,1.05-4.65,3.01-7.12,4.91-2.38,1.83-4.64,3.56-6.18,4.22-.86.36-1.73.46-2.56.54-.95.1-1.94.21-2.94.72-3.37,1.72-6.38,8.2-8.18,12.07l-.4.85c-5.45,11.62-7.38,22.06-9.17,33.52-.22,1.43-.34,3.68-.47,6.05-.22,4.13-.45,8.4-1.26,9.97-.37.73-1.29,1.41-2.25,2.13-1.03.76-2.09,1.55-2.67,2.49-1.57,2.52-1.25,4.94-.7,6.52.97,2.83,3.4,5.24,6.34,6.31.8.29,1.9.47,2.97.63,1.28.2,2.5.39,3.15.78.4.24,1.28,1.55,2.69,3.66.95,1.42,1.93,2.9,2.47,3.5,11.61,13.06,28.26,24.45,45.66,31.25l.16.06v2.01c.01,6.06.02,11.79,1.64,17.84,1.69,6.31,4.68,10.41,7.81,10.7,2.59.23,5.16-2.15,7.41-6.89,2.62-5.51,3.25-10.33,3.45-16.78v-.34s.33.11.33.11c3.56,1.27,7.77,2.15,12.86,2.69,2.77.29,6.9.65,9.45.71,1.2.03,3.23-.16,5.39-.35,2.14-.19,4.32-.39,5.84-.39ZM300.36,362.04c-1.17,0-2.52-.57-3.75-1.08-.29-.12-.58-.24-.86-.35-9.69-3.86-18.91-11.8-25.28-21.78-.54-.85-2.7-4.66-4.56-8.17-3.81-7.18-3.47-7.5-3.26-7.69.63-.6,4.08.74,4.73,1.38.52.51,1.24,1.97,2.01,3.52.66,1.32,1.33,2.68,1.9,3.5,8.79,12.65,20.04,22.44,31.68,27.55l.18.08-.03.19c-.24,1.32-.73,2.16-1.5,2.58-.38.21-.8.29-1.25.29ZM295.94,360.15c.28.11.57.23.87.36,1.61.67,3.43,1.44,4.58.81.6-.32,1-1,1.22-2.05-11.66-5.17-22.92-14.98-31.71-27.64-.58-.84-1.27-2.22-1.93-3.56-.72-1.45-1.46-2.94-1.92-3.39-.69-.67-3.51-1.56-4.02-1.39,0,1.29,6.45,13.05,7.86,15.27,6.32,9.9,15.45,17.77,25.05,21.59ZM403.83,359.49c-5.57,0-17.73-9.07-20.32-11.39-7.74-6.92-13.06-16-18.2-24.78-1.72-2.93-3.49-5.96-5.32-8.84-.87-1.37-1.9-2.69-2.89-3.96-.98-1.25-1.98-2.55-2.84-3.89-.1-.16-.22-.28-.33-.4-.38-.4-.58-.73-.02-1.59.33-.51,3.63-2.55,4.86-2.79.25-.05.42-.03.55.06.23.16.86,1.26,2.38,3.94,1.04,1.84,2.12,3.75,2.62,4.44,10.05,14.07,22.28,26.55,33.55,34.23.6.41,2.31,1.27,3.82,2.04,2.32,1.17,2.97,1.52,3.1,1.7h0c.63.89,1.81,7,1.36,9.61-.1.59-.28.96-.54,1.15-.46.32-1.06.47-1.77.47ZM358.97,302.3c-.71,0-4.3,2.08-4.64,2.61-.39.6-.31.69-.03.99.11.12.25.27.38.47.84,1.32,1.84,2.61,2.81,3.85,1,1.28,2.03,2.61,2.91,4,1.83,2.89,3.61,5.92,5.33,8.85,5.13,8.75,10.43,17.79,18.1,24.66,2.98,2.67,14.9,11.27,19.98,11.27.61,0,1.12-.12,1.5-.39.09-.06.24-.25.34-.83.42-2.42-.71-8.42-1.27-9.23-.19-.17-1.64-.91-2.93-1.56-1.6-.81-3.25-1.64-3.87-2.07-11.32-7.71-23.59-20.23-33.68-34.35-.51-.72-1.6-2.64-2.64-4.49-.91-1.6-2.03-3.6-2.24-3.79-.02,0-.04,0-.06,0ZM221.87,359.04c-.14,0-.28-.02-.43-.06-2.43-.71-4.51-7.36-4.53-7.42-.6-1.99-3.39-18.01-2.49-19.08.09-.11.23-.1.28-.09.39.04,2.59.82,2.85,1.29.52.93.83,4.28,1.12,7.52.18,2.02.36,3.93.56,5.01.48,2.53,1.35,5.92,2.2,8.63.12.38.49,1.14.82,1.82.78,1.58.86,1.8.65,1.98h0c-.33.28-.68.43-1.04.43ZM214.76,332.88c-.43,1.54,1.79,15.78,2.62,18.53.41,1.36,2.33,6.55,4.2,7.1.33.09.63.03.92-.19-.09-.26-.42-.95-.68-1.47-.35-.72-.72-1.47-.85-1.88-.86-2.72-1.73-6.13-2.22-8.68-.21-1.1-.39-3.02-.57-5.05-.28-3.04-.59-6.48-1.06-7.32-.18-.25-1.86-.91-2.37-1.02ZM302.83,358.71c-.36,0-1.33-.45-4.6-2.57-2.24-1.45-4.51-3.02-4.94-3.34-6.38-4.71-12.37-10.69-19.4-19.4l-.03-.06c-.18-.41-1.1-1.73-2.07-3.13-3.46-4.96-4.15-6.2-3.69-6.6.65-.57,2.65.11,3.35.68,1.08.88,2.36,2.4,3.71,4.02,1.37,1.64,2.79,3.33,4.11,4.47,5.08,4.41,11.08,7.9,16.88,11.28,1.5.87,2.99,1.74,4.46,2.62l.06.05c1.08,1.28,3.27,10.77,2.39,11.84-.05.06-.1.12-.23.12ZM274.29,333.12c7,8.66,12.94,14.61,19.29,19.29,1.14.84,8.07,5.53,9.15,5.79.47-1.15-1.38-9.8-2.4-11.11-1.46-.87-2.94-1.73-4.42-2.6-5.82-3.39-11.84-6.89-16.96-11.33-1.35-1.17-2.78-2.88-4.16-4.53-1.34-1.59-2.6-3.1-3.64-3.95-.67-.55-2.28-.97-2.69-.72,0,.64,2.33,3.97,3.73,5.98,1.05,1.51,1.89,2.7,2.11,3.18ZM223.27,357.46c-.13,0-.24-.03-.35-.09-.41-.23-.47-.81-.51-1.27-.02-.18-.04-.35-.07-.45-.58-1.79-4.19-20.02-3.16-21.14.4-.44.82-.6,1.25-.49,1.3.34,2.13,3.27,2.84,6.39.09.4.16.72.2.83.28.8.7,1.75,1.15,2.76,1.29,2.9,2.74,6.19,2.15,8.41h0c-.2.73-2.17,4.54-2.9,4.9-.23.11-.42.17-.6.17ZM220.17,334.47c-.13,0-.35.06-.63.37-.65.97,2.24,17.52,3.27,20.66.05.15.07.34.09.55.03.34.08.79.27.9.09.05.27.02.49-.09.45-.22,2.42-3.74,2.64-4.59h0c.55-2.05-.93-5.39-2.12-8.08-.45-1.02-.88-1.98-1.16-2.79-.05-.14-.12-.43-.22-.88-.35-1.56-1.3-5.71-2.49-6.02-.03,0-.07-.02-.13-.02ZM228.43,349.33l-.36-.18c-1.58-.79-3.39-7.1-4.01-10.3-.5-2.57-.23-2.87-.13-2.98.1-.11.22-.17,1.06.04.04.01,3.94,1.04,4.14,1.86.47,1.95.09,4.45-.27,6.87-.23,1.56-.45,3.03-.44,4.29v.4ZM224.27,336.26c-.13.53.27,3.18,1.27,6.55.83,2.79,1.71,4.84,2.4,5.62.04-1.17.24-2.48.44-3.86.35-2.37.72-4.82.28-6.68-.22-.43-3.67-1.56-4.39-1.63ZM403.98,347.17c-1.4,0-12.85-9.15-13.34-9.58-4.34-3.79-9.95-9.56-13.59-13.61-1.95-2.17-17.63-21.59-17.3-23.55.07-.39.62-.99,1.69-2.11,1.57-1.65,3.94-4.15,3.68-5.71l-.15-.92,7.7,9.56c9.33,9.6,18.42,17.36,27.79,23.71l.13.09-.02.15c-.22,1.49,1.02,7.21,2.12,12.25,1.4,6.46,1.94,9.13,1.57,9.59h0s-.11.11-.24.12c0,0-.02,0-.02,0ZM365.59,293.25c-.29,1.7-2.29,3.81-3.8,5.4-.75.78-1.52,1.6-1.56,1.86-.26,1.48,14.11,19.73,17.18,23.14,3.63,4.03,9.23,9.79,13.55,13.57,1.5,1.31,11.5,9.06,12.91,9.44.12-.82-.83-5.21-1.68-9.1-1.12-5.17-2.28-10.52-2.14-12.27-9.35-6.36-18.44-14.12-27.76-23.71l-6.7-8.32ZM300.07,345.82c-.53,0-2.17-.77-8.43-5.15-4.13-2.89-8.23-5.94-8.93-6.52-.11-.09-11.2-9.47-11.3-11.36-.02-.34.54-.95,1.08-1.07.21-.05.72-.09,1.04.57,2.81,2.22,5.97,4.01,9.04,5.74,3.38,1.92,6.88,3.9,9.93,6.46,1.16.97,7.89,7.6,8.09,10.32.03.36-.05.65-.25.87h0c-.05.06-.11.13-.27.13ZM272.71,322.19s-.03,0-.04,0c-.35.03-.74.48-.77.61.07,1.29,8.47,8.83,11.12,10.99,2.07,1.68,15.59,11.48,16.99,11.55.08-.11.11-.27.09-.47-.18-2.37-6.46-8.76-7.92-9.99-3.01-2.54-6.49-4.51-9.86-6.41-3.1-1.75-6.3-3.56-9.14-5.82l-.05-.04-.02-.06c-.14-.32-.3-.36-.39-.36ZM327.34,340.31c-.35,0-.66-.03-.93-.1-1.63-.43-15.03-11.02-15.62-12.76-.06-.19-.01-.31.04-.38.21-.27,3.51-1.43,4.35-1.19.89.25,3.04,1.82,5.32,3.48,2.02,1.47,4.11,3,5.35,3.62,1.61.81,3.37,1.43,5.08,2.03.59.21,1.18.41,1.76.63.14.05.36.07.56.09.42.04.9.08,1.11.43.15.24.13.56-.04.99-.67,1.64-4.62,3.18-6.99,3.18ZM311.28,327.34c.63,1.46,13.47,11.91,15.27,12.39,1.88.5,6.65-1.11,7.34-2.79l.23.09-.23-.09c.11-.26.13-.45.07-.55-.09-.14-.43-.17-.74-.2-.24-.02-.49-.04-.69-.12-.58-.21-1.17-.42-1.76-.63-1.72-.6-3.49-1.22-5.13-2.05-1.28-.64-3.38-2.18-5.42-3.66-2.14-1.56-4.36-3.18-5.16-3.4-.61-.17-3.23.73-3.78,1ZM322.79,339.4c-3.37,0-14.24-7.21-15.84-9.36-.11-.15-.46-.62-.19-.95h0c.17-.21,1.61-.59,2.5-.65.61-.04,1.01.04,1.23.25l13.23,10.47-.39.16c-.15.06-.33.09-.53.09ZM307.16,329.41c.03.12.25.66,2.12,2.15,3.73,2.96,10.93,7.21,13.35,7.36l-12.46-9.86c-.41-.39-2.57.14-3.01.35ZM262,337.87c-6.01,0-17.34-.77-19.16-1.01-1.82-.24-3.73-.59-5.84-1.06l-.43-.1.31-.31c5.22-5.36,11.81-9.46,19.05-11.86l.19-.06.1.17c1.1,1.83,2.95,3.13,5.36,3.77l.16.04.02.17c.07.67,1.16,2.97,2.11,4.99,1.87,3.97,2.13,4.67,1.83,4.94-.25.22-1.67.31-3.69.31ZM237.54,335.43c1.93.42,3.69.73,5.36.95,3.04.4,20.88,1.43,22.41.84-.06-.51-1.07-2.65-1.89-4.39-1-2.11-1.94-4.11-2.13-4.98-2.39-.66-4.25-1.97-5.4-3.78-6.95,2.33-13.29,6.25-18.36,11.36ZM335.05,335.66c-1.72,0-6.04-2.22-8.67-3.66-2.84-1.56-10.2-5.89-10.15-7.18.02-.51,3.08-2.4,3.41-2.48,1.51-.38,4.65,1.4,7.97,3.29,2.84,1.61,5.78,3.28,7.49,3.43.46.11,1.01.48,1.22,1.66.3,1.66-.2,4.46-.73,4.82h0c-.13.09-.31.13-.54.13ZM316.72,324.88c.25.9,6.54,5.1,12.7,8.17,3.8,1.9,5.54,2.31,5.89,2.09.29-.28.9-2.96.47-4.6-.15-.58-.41-.91-.76-1-1.78-.16-4.76-1.85-7.65-3.49-3.09-1.75-6.28-3.56-7.61-3.24-.46.11-2.71,1.7-3.03,2.07ZM234.09,335.11l-.16-.04c-2.42-.62-4.86-1.33-7.22-2.01-2.65-.77-5.38-1.56-8.09-2.23l-.21-.05.03-.22c.15-1.15,1.1-1.34,1.93-1.51,15.79-3.23,43.27-13.08,49.91-42.75,3.38-15.08,1.52-26.7-6.02-37.67-3.25-4.72-3.8-6.16-5.02-9.31-.43-1.12-.97-2.52-1.75-4.36-5.71-13.46-17.36-29.33-32.96-33.5-9.12-2.43-18.1-.37-26.69,6.14-.49.37-1.18,1.11-1.84,1.82-.84.91-1.57,1.7-2.02,1.88-.42.17-.72.2-.96.07-.29-.16-.36-.48-.41-.74-.02-.12-.05-.24-.09-.3-.12-.2-.34-.53-.6-.92-1.81-2.71-2.23-3.54-1.96-3.9l.04-.05,11.56-5.17c12.02-3.8,24.1-5.95,35.94-6.41h.12s.08.08.08.08c6.99,8.02,13.82,16.24,20.31,24.45,3.75,4.74,7.47,9.59,11.07,14.42l.99,1.32c2.98,3.98,6.06,8.09,8.27,12.64,3.21,6.64,3.58,12.17,1.13,16.92-.09.17,0,.46.14.65,5.52,7.92,7.38,18.1,5,27.23-2.19,8.38-7.76,15.76-15.29,20.25-.17.1-.27.25-.3.45l-.05.36-.31-.18c-.77-.45-1.6-.79-2.46-1-3.35-.85-6.38-.15-8.52,1.98-2.1,2.08-3,5.27-2.3,8.11l.07.27-.28.03c-.19.02-.38.06-.55.12-7.62,2.51-14.65,6.97-20.31,12.89-.04.04-.07.08-.1.11l-.1.13ZM218.97,330.41c2.64.66,5.3,1.43,7.88,2.18,2.31.67,4.69,1.36,7.05,1.97,0-.01.02-.02.03-.03h0c5.72-5.98,12.81-10.48,20.51-13.02.12-.04.25-.07.38-.1-.63-2.94.33-6.18,2.49-8.31,2.27-2.26,5.47-3,8.99-2.11.8.2,1.58.51,2.32.91.09-.19.24-.35.44-.47,7.42-4.42,12.91-11.7,15.07-19.95,2.35-8.99.51-19.02-4.93-26.83-.22-.32-.36-.79-.17-1.15,2.38-4.6,2.01-9.99-1.14-16.48-2.18-4.51-5.25-8.6-8.22-12.56l-.99-1.32c-3.6-4.83-7.32-9.67-11.07-14.41-6.46-8.17-13.26-16.36-20.22-24.34-11.76.47-23.76,2.61-35.66,6.37l-11.35,5.08c.09.52,1.38,2.46,1.95,3.31.27.4.5.74.62.94.08.14.11.3.15.46.03.17.07.36.16.4.04.02.18.06.54-.09.34-.14,1.14-1,1.85-1.76.68-.73,1.38-1.48,1.9-1.88,8.72-6.6,17.84-8.7,27.11-6.22,15.77,4.21,27.53,20.21,33.29,33.78.79,1.85,1.33,3.25,1.76,4.38,1.2,3.11,1.75,4.53,4.96,9.21,7.63,11.09,9.51,22.83,6.1,38.05-6.7,29.93-34.38,39.86-50.28,43.12-.81.17-1.34.3-1.51.88ZM293.59,331.39c-.49,0-2.1-.95-6.13-3.39-4.33-2.62-9.72-5.89-11.35-6.07h-.13s-.5-.92-.5-.92c-1.43-2.61-2.91-5.32-5.07-7.25l-.36-.33.48-.09c.24-.05.48-.14.7-.27,7.97-4.75,13.79-12.56,15.97-21.43,2.31-9.39.48-19.48-5.01-27.67l-.08-.12.06-.13c4.98-10.3-3.61-21.97-8.22-28.24-7.37-10.02-15.13-19.96-23.08-29.56-3.2-3.86-6.54-7.8-9.95-11.73l-.35-.4h.53c12.87-.13,25.34,1.77,37.11,5.64l.19.06-.02.2c-1.32,11.37,3.22,22.07,7.61,32.42,1.78,4.2,3.62,8.54,5.03,12.83,1.51,4.62,2.38,8.72,2.66,12.53.34,4.62-.19,9.28-.69,13.79-.08.69-.15,1.37-.23,2.06-1.1,10.16-.24,18.56,2.71,26.43,3.4,9.06,9.18,16.97,16.71,22.87.04.03.09.06.13.09l.38.22-.39.21c-2.57,1.39-5.09,2.65-7.5,3.73l-.16.07c-6.45,2.91-10.06,4.37-11.03,4.46l-.02-.24.02.24s-.02,0-.03,0ZM276.29,321.47c1.86.32,6.94,3.4,11.42,6.12,2.67,1.62,5.44,3.3,5.87,3.32.91-.09,4.56-1.57,10.86-4.41l.16-.07c2.29-1.03,4.68-2.22,7.12-3.53-7.54-5.94-13.32-13.88-16.72-22.97-2.98-7.94-3.85-16.41-2.74-26.65.07-.69.15-1.37.23-2.06.5-4.49,1.03-9.13.69-13.7-.28-3.77-1.14-7.83-2.64-12.41-1.4-4.27-3.23-8.6-5.01-12.79-4.39-10.35-8.93-21.05-7.67-32.47-11.5-3.76-23.67-5.62-36.23-5.56,3.29,3.79,6.52,7.6,9.61,11.33,7.96,9.61,15.73,19.56,23.1,29.58,4.66,6.33,13.31,18.09,8.33,28.62,5.51,8.28,7.33,18.46,5,27.94-2.21,9-8.12,16.92-16.2,21.73-.13.08-.27.15-.42.2,2.05,1.96,3.47,4.56,4.86,7.09l.38.69ZM336.08,328.82c-.43,0-1.7-.41-6.01-2.63-2.98-1.54-5.91-3.18-6.52-3.66-.07-.06-.16-.12-.26-.19-.44-.31-1.04-.74-1.13-1.3-.04-.26.03-.52.21-.76.14-.18,2.69-1.25,3-1.18.79.19,8.3,4.86,8.92,5.55h0s2.49,3.65,2.01,4.08c-.04.04-.09.08-.24.08ZM322.75,320.59c-.09.13-.12.25-.1.37.06.36.56.72.93.98.1.07.2.14.28.2,1.35,1.06,10.33,5.75,11.99,6.16-.32-.76-1.55-2.94-1.9-3.33h0c-.58-.63-7.95-5.23-8.68-5.4-.23.02-2.22.83-2.52,1.02ZM216.87,328.04c-2.9,0-5.59-.46-8.03-1.39-14.53-5.53-31.06-18.64-40.26-28.47-.72-.77-1.57-1.96-2.47-3.22-1.41-1.97-3.01-4.21-4.22-4.93-.97-.57-2.26-.84-3.63-1.12-2.68-.55-5.71-1.18-6.73-4.38-.63-1.99-.46-3.74.51-5.19,2.28-3.4,8.48-4.38,11.97-4.66,10.42-.85,20.73,2.15,30.39,5.73-10.96-7.06-24.55-9.53-36.77-6.62l-.29.07v-.3c-.16-4.37.37-8.78.89-13.04.16-1.32.32-2.64.46-3.97l.07-.66,4.07,5.95c1.74,1.29,3.35,1.93,4.92,1.97l.91.02-3.71,2.01-3.75.93c8.49,2.12,17.73-9.06,20.23-15.73,2.56-6.82,3.05-19.88-2.02-24.81-.79-.77-1.92-1.07-2.52-1.23-.32-.08-.43-.11-.51-.21-.16-.2-.03-.43.52-1.42.52-.93,1.42-2.51,1.53-3.49-1.65,1.77-7.78,5.56-9.76,6.23-.56.19-.89.19-1.07,0-.09-.09-.17-.25-.08-.52,1.29-4.01,7.94-13.06,13.19-11.76.38.09,1.13.54,1.93,1.01.44.26,1.02.6,1.28.71.16-.43-.32-1.35-.71-2.11-.41-.81-.77-1.51-.68-1.99.13-.68,1.97-2.11,3.22-2.91.88-.56,2.05-1.19,2.64-1.04,1.65.42,2.81,3.65,3.5,5.59.19.54.39,1.1.47,1.2.53.38,3.3-2.52,4.48-3.77.74-.77,1.32-1.39,1.66-1.66,7.97-6.27,16.38-8.32,24.98-6.09,15.58,4.04,27.57,20.85,33.09,34.02l.51,1.22c2.15,5.13,3.33,7.95,6.05,13.24,7.77,15.08,7.1,33.37-1.8,48.91-4.32,7.55-13.1,15.69-22.91,21.23-7.75,4.38-15.15,6.63-21.56,6.63ZM209.02,326.19c16.7,6.35,43.35-11.34,51.9-26.26,8.82-15.4,9.49-33.51,1.79-48.44-2.73-5.3-3.92-8.13-6.07-13.27l-.51-1.22c-5.48-13.07-17.35-29.75-32.76-33.74-8.45-2.19-16.71-.17-24.55,6-.32.25-.92.88-1.61,1.61-2.48,2.61-4.3,4.42-5.14,3.81-.16-.12-.28-.43-.63-1.41-.62-1.72-1.76-4.92-3.16-5.28-.23-.06-.97.16-2.26.98-1.61,1.02-2.94,2.23-3.01,2.59-.06.32.31,1.04.63,1.68.54,1.06,1.1,2.15.58,2.76-.2.23-.46.09-1.84-.72-.66-.39-1.49-.88-1.8-.95-4.78-1.17-11.31,7.42-12.6,11.44,0,0,0,.01,0,.02.17,0,.84-.09,3.06-1.32,3.6-2.01,7.23-4.71,7.33-5.26l.13-.78.33.71c.44.94-.46,2.66-1.49,4.5-.18.32-.38.67-.47.87.05.01.11.03.16.04.6.16,1.85.49,2.74,1.35,5.6,5.45,4.36,19.39,2.13,25.33-2.71,7.23-12.56,19.02-21.69,15.76l-.76-.27,5.37-1.33,2.11-1.15c-1.42-.21-2.87-.87-4.41-2.02l-.06-.06-3.35-4.89c-.12,1.1-.26,2.21-.39,3.32-.5,4.15-1.02,8.44-.91,12.67,12.93-2.99,27.33-.03,38.59,7.92l1.58,1.11-1.8-.69c-10.17-3.87-21.1-7.33-32.13-6.43-3.4.28-9.44,1.22-11.61,4.45-.89,1.32-1.04,2.92-.45,4.77.93,2.93,3.7,3.5,6.37,4.05,1.41.29,2.74.57,3.78,1.18,1.3.77,2.86,2.95,4.37,5.06.89,1.25,1.74,2.43,2.43,3.17,9.17,9.79,25.62,22.84,40.08,28.35h0ZM167.97,225.83h0ZM260.5,324.98l-.53-.29c-2.33-1.26-3.48-3.81-2.92-6.5.56-2.7,2.68-4.61,5.4-4.85,4.86-.44,9.02,3.19,9.35,5.75.19,1.46-.78,2.48-2.66,2.8-1.2.21-2.82-.22-4.37-.63-1.85-.49-3.77-.99-4.49-.24-.5.51-.48,1.65.05,3.39l.18.57ZM263.23,313.8c-.24,0-.49.01-.73.03-2.5.22-4.45,1.98-4.96,4.46-.47,2.26.37,4.41,2.15,5.65-.41-1.6-.33-2.67.23-3.26.93-.96,2.89-.45,4.97.1,1.51.4,3.07.81,4.17.62,1.63-.28,2.41-1.06,2.26-2.25-.29-2.26-3.95-5.36-8.09-5.36ZM399.85,323.42c-.54,0-1.73-.74-4.72-3.21-.17-.14-.3-.24-.37-.31-3.11-2.48-6.94-5.77-10.23-8.8-2.43-2.24-18.27-18.02-18.5-20.19-.04-.41.27-1.37.78-2.91.4-1.21.85-2.57.96-3.34.12-.91.07-1.94.02-2.93-.1-2.05-.2-4.17,1.1-5.64,1.57-1.77,11.17-7.34,12.87-8.29,1.72-.96,24.4-11.94,25.86-10.71.23.2.46.38-2.96,4.75-1.71,2.19-3.55,4.42-3.82,4.73-5.63,6.7-11.35,11.58-18.03,15.37-.61.35-2,.84-3.22,1.28-.66.24-1.39.5-1.7.64.43.52,2.35,2.03,3.79,3.16,1.43,1.13,2.79,2.19,3.22,2.67,1.78,1.94,3.33,4.33,4.83,6.65,1.16,1.8,2.37,3.67,3.66,5.27l.05.06v.08c.06.73.05,1.08-.18,1.22-.21.13-.42,0-.65-.15-.17-.11-.39-.25-.64-.32-2.16-.6-4-1.74-5.77-2.84-1.28-.79-2.61-1.61-4.04-2.22,1.29,2.27,6.05,4.13,9.27,5.39,2.01.79,3.07,1.21,3.39,1.6.67.81,3.18,6.6,3.59,7.91.23.74,2.37,10.28,1.78,10.96-.07.08-.17.14-.31.14ZM407.09,257.42c-2.51,0-21.47,8.78-25.1,10.8-2.4,1.34-11.33,6.59-12.75,8.19-1.17,1.32-1.08,3.34-.98,5.29.05,1.02.1,2.07-.03,3.02-.11.82-.55,2.15-.98,3.43-.37,1.12-.79,2.38-.76,2.71.19,1.79,14.93,16.74,18.35,19.88,3.28,3.03,7.1,6.31,10.21,8.78.08.06.21.17.38.31,3.16,2.6,4.1,3.08,4.36,3.1.19-.86-1.41-8.94-1.89-10.46-.42-1.34-2.92-7.04-3.5-7.74-.26-.31-1.68-.87-3.19-1.46-3.77-1.47-8.92-3.49-9.79-6.22l-.15-.48.47.18c1.69.63,3.21,1.57,4.68,2.48,1.75,1.08,3.55,2.2,5.65,2.78.32.09.58.25.77.38.04.02.08.05.11.07,0-.1,0-.29-.02-.61-1.29-1.61-2.48-3.46-3.64-5.25-1.49-2.3-3.02-4.68-4.78-6.58-.41-.44-1.74-1.5-3.16-2.61-3.95-3.11-4.25-3.45-3.99-3.79.1-.14.39-.26,2.04-.85,1.15-.41,2.57-.92,3.15-1.25,6.62-3.75,12.31-8.6,17.89-15.26l.19.16-.19-.16c1.76-2.1,6.32-7.77,6.74-8.83-.03,0-.07,0-.11,0ZM314.47,321.93l-.12-.22c-.06-.12-.17-.24-.31-.35-6.66-5.21-11.94-12.14-15.28-20.05-3.29-7.8-4.53-16.43-3.67-25.66.14-1.48.31-2.99.47-4.44.4-3.58.82-7.27.8-10.93-.03-3.93-.63-7.99-1.84-12.42-1.55-5.67-3.88-11.18-6.14-16.5-.91-2.14-1.85-4.36-2.72-6.56-2.84-7.14-5.64-15.59-4.84-24.13l.03-.31.3.11c12.2,4.4,23.54,10.93,33.71,19.43l.17.15-.13.18c-5.26,7.35-5.29,17.8-.07,31.04.68,1.73,1.42,3.49,2.13,5.18,1.83,4.35,3.73,8.85,4.9,13.53,1.18,4.72,1.25,9.59,1.32,14.3.03,2.49.07,5.07.27,7.6.62,7.78,2.97,13.48,7.18,17.41.11.1.24.18.39.23l.42.14-.34.28c-.93.77-1.85,1.54-2.73,2.28-2.31,1.94-4.5,3.78-6.12,4.88h0c-2.29,1.57-4.83,3.15-7.56,4.71l-.22.12ZM281.27,201.02c-.7,8.33,2.05,16.59,4.84,23.59.87,2.19,1.81,4.41,2.72,6.55,2.26,5.34,4.6,10.86,6.16,16.57,1.22,4.47,1.83,8.57,1.85,12.54.02,3.68-.39,7.4-.8,10.99-.16,1.45-.33,2.96-.47,4.43-.85,9.15.37,17.7,3.63,25.43,3.31,7.83,8.54,14.69,15.13,19.85.12.09.22.19.3.3,2.64-1.51,5.1-3.05,7.33-4.58,1.6-1.09,3.77-2.92,6.08-4.85.79-.66,1.61-1.35,2.44-2.04-.07-.05-.14-.1-.2-.16-4.31-4.02-6.71-9.82-7.33-17.73-.2-2.54-.24-5.13-.27-7.63-.06-4.68-.13-9.52-1.3-14.19-1.16-4.64-3.05-9.12-4.88-13.45-.71-1.7-1.45-3.45-2.14-5.19-5.24-13.3-5.24-23.83,0-31.32-9.99-8.32-21.12-14.75-33.09-19.1ZM332.84,308.51l-.14-.24c-.06-.1-.14-.19-.23-.28-6.64-6.2-6.72-15.36-6.8-24.21-.04-4.16-.07-8.09-.75-11.71-1.03-5.49-3.24-10.74-5.38-15.81-2.54-6.02-5.16-12.24-5.84-18.93-.63-6.15.38-11.37,2.98-15.51l.15-.24.22.19c4.02,3.54,7.89,7.43,11.49,11.55,2.25,2.58,4.4,5.32,6.4,8.15l.21.3-.36.08c-.38.08-.67.27-.81.5-.1.17-.11.37-.04.59,6.25,19.24,8.39,40.08,6.19,60.27v.12s-.12.06-.12.06c-1.91,1.09-4.12,2.65-6.96,4.92l-.22.17ZM316.94,222.33c-2.43,4.01-3.36,9.04-2.76,14.96.67,6.61,3.28,12.8,5.8,18.79,2.15,5.1,4.37,10.37,5.41,15.91.69,3.66.72,7.61.76,11.79.08,8.75.16,17.8,6.64,23.86.06.05.11.11.16.17,2.71-2.16,4.85-3.67,6.72-4.74,2.17-20.09.03-40.81-6.18-59.95-.11-.35-.09-.7.08-.99.16-.27.43-.49.78-.63-1.94-2.72-4.02-5.35-6.18-7.84-3.52-4.04-7.3-7.84-11.23-11.32ZM349.22,302.91l-.09-.03c-.32-.11-.65-.23-.98-.36-1.17-.44-2.38-.89-3.44-.84-.45.02-.94.11-1.51.29l-.35.1.04-.36c1.84-18.64.09-37.24-5.2-55.27l-.51-1.73.95,1.53c3.87,6.24,6.46,12.08,7.71,17.37.66-.67.35-1.87.02-3.14-.32-1.23-.65-2.51-.04-3.37l.16-.22.2.18c1.37,1.18,3.01,1.17,4.7,1.06h.19s.06.17.06.17c4.39,14.35,4.07,30.07-.92,44.26l-.05.16h-.16c-.24.02-.47.07-.67.16l-.09.04ZM344.86,301.19c1.11,0,2.3.44,3.45.87.3.11.6.22.89.32.18-.07.38-.12.59-.14,4.88-13.99,5.2-29.47.92-43.62-1.64.1-3.23.07-4.63-1-.29.69-.02,1.73.24,2.73.39,1.53.8,3.1-.52,3.9l-.29.17-.07-.33c-1.1-4.9-3.38-10.28-6.78-16.04,4.88,17.43,6.48,35.36,4.75,53.34.47-.12.89-.19,1.28-.21.06,0,.12,0,.18,0ZM352.9,302.44l.23-.71c4.56-13.78,4.82-29.04.76-42.99l-.16-.55.51.27c1.84.96,4.84,3.85,5.86,5.1,7.73,9.49,6.72,26.12-2.11,34.87-.62.62-2.76,2.35-4.48,3.57l-.61.43ZM354.53,259.2c3.85,13.63,3.6,28.49-.7,41.97,1.54-1.13,3.28-2.55,3.81-3.08,8.67-8.59,9.66-24.9,2.07-34.22-.91-1.11-3.4-3.54-5.19-4.68ZM368.13,275.17c-.09,0-.15-.02-.21-.06-.4-.3-1.71-5.22-1.7-7.12,0-.56.11-.9.33-1.06,3.51-2.61,7.05-5.42,10.48-8.13,9.36-7.41,19.04-15.08,29.84-20.22.11-.05,11.57-5.29,12.28-4.58.69.69-4.74,11.95-4.8,12.06h0c-.55,1.12-4.66,9.14-5.61,9.83-.91.67-3.46,1.29-5.94,1.89-1.52.37-2.95.72-3.8,1.03-5.53,2.06-11.16,4.62-17.72,8.04-.91.27-3.95,2.38-6.64,4.24-4.56,3.16-5.98,4.06-6.53,4.06ZM418.78,234.39c-1.29.11-9.79,3.74-11.68,4.64-10.75,5.11-20.41,12.76-29.75,20.16-3.43,2.72-6.98,5.53-10.5,8.14,0,0-.07.05-.1.29-.24,1.59,1.12,6.37,1.46,7.06.66-.15,3.71-2.26,6.18-3.97,2.98-2.07,5.79-4.02,6.74-4.29,6.53-3.41,12.18-5.98,17.73-8.05.87-.32,2.32-.68,3.85-1.05,2.31-.56,4.93-1.2,5.76-1.81.75-.55,4.44-7.59,5.46-9.65h0c.98-1.98,4.71-10.19,4.85-11.46ZM365.39,266.72c-.08,0-.14-.02-.19-.06-.66-.49-3.69-5.05-3.16-6.1l.06-.07c2.97-2.66,5.96-5.43,8.85-8.12,10.42-9.68,21.19-19.69,33.91-26.68.18-.1,18.47-9.34,19.76-7.98.09.09.12.24.11.48-.08,1.92-3.65,13.34-4.89,14.45l-.16-.18.16.18c-.76.68-4.39,1.89-7.9,3.07-2.28.76-4.44,1.49-5.5,1.96-8.57,3.84-16.68,9.88-24.25,15.73-.47.36-1.74,1.45-3.34,2.83-9.17,7.88-12.49,10.48-13.44,10.48ZM362.46,260.81c-.22.74,2.26,4.81,3,5.43,1.07-.09,9.15-7.03,13.05-10.38,1.61-1.38,2.88-2.47,3.36-2.84,7.59-5.87,15.73-11.93,24.35-15.79,1.08-.49,3.25-1.21,5.55-1.98,3.3-1.11,7.05-2.36,7.73-2.97,1.2-1.07,4.91-13.16,4.73-14.24-1.23-.59-16.02,6.37-19.15,8.09-12.67,6.96-23.41,16.95-33.81,26.61-2.88,2.67-5.85,5.44-8.81,8.09ZM168.42,261.58c-2.33,0-6.43-1.58-7.71-12.1l-.09-.78,4.32,4.87c1.7.94,3.41,1.05,4.95.32,2.02-.96,3.66-3.38,4.16-6.18.25-1.39-1.38-2.44-2.69-3.28-1.01-.65-1.81-1.16-1.8-1.79,0-.52.81-.91,1.91-1.45.99-.48,2.22-1.08,2.53-1.71.7-1.42.38-3.37-.85-5.21-1.38-2.07-3.54-3.39-5.38-3.27l-.67.04.49-.46c3.54-3.35,6.52-4.46,8.86-3.29,4.41,2.21,5.03,11.81,4.38,17.35-1.04,8.85-6.94,16.92-12.39,16.93h-.01ZM161.3,250.22c1,7.03,3.51,10.88,7.12,10.88h.01c5.22-.01,10.89-7.88,11.91-16.5.8-6.77-.38-14.98-4.11-16.85-2.04-1.02-4.69-.09-7.86,2.79,1.86.15,3.84,1.46,5.19,3.48,1.33,1.99,1.65,4.12.88,5.7-.38.78-1.64,1.39-2.75,1.93-.61.3-1.63.8-1.64,1.02,0,.35.8.87,1.57,1.37,1.43.92,3.22,2.06,2.91,3.78-.54,2.99-2.24,5.49-4.43,6.53-1.69.8-3.57.68-5.43-.36l-.06-.05-3.3-3.72ZM360.36,260.16s-.04,0-.06,0c-.38-.09-.99-.62-1.95-1.48-.69-.62-1.48-1.32-1.93-1.54l-.35-.17.3-.24c6.22-5.01,11.76-11.13,17.11-17.06,8.22-9.1,16.71-18.5,27.95-24.18,4.36-2.2,17.72-7.59,21.84-3.6.84.81,2,3.71,1.3,4.71h0c-.2.28-1.44.67-5.6,1.85-2.11.6-4.29,1.22-5.1,1.56-14.57,6.06-26.61,15.74-35.47,23.5-.76.66-2.66,2.55-4.87,4.73-8.13,8.04-12.23,11.93-13.17,11.93ZM356.96,256.89c.49.33,1.11.88,1.72,1.43.65.58,1.45,1.3,1.73,1.37.91-.05,8.34-7.4,12.78-11.79,2.3-2.27,4.12-4.07,4.89-4.75,8.89-7.78,20.97-17.49,35.6-23.58.84-.35,2.93-.95,5.15-1.58,2.24-.64,5.02-1.43,5.34-1.68.48-.74-.5-3.35-1.24-4.07-3.91-3.79-17,1.53-21.28,3.69-11.16,5.64-19.62,15.01-27.81,24.07-5.29,5.85-10.75,11.9-16.89,16.89ZM328.09,228.71s-.05,0-.08,0c-.46-.06-.72-.62-.9-1.03-.06-.13-.13-.28-.16-.32l-.37-.42c-1.49-1.69-2.9-3.28-4.53-4.83-.36-.34-.98-.47-1.31-.54-.23-.05-.33-.07-.4-.17-.27-.38-.37-1.04.65-2.06,1.88-1.87,7-4.29,7.83-3.71h0c.17.12.38.4.54,1.49.43,2.98.11,10.33-.48,11.08-.27.34-.52.5-.79.5ZM320.7,221.06s.08.02.13.03c.38.08,1.09.23,1.55.66,1.65,1.56,3.06,3.16,4.56,4.86l.37.42c.09.1.16.25.24.45.11.25.32.72.51.75.05,0,.18-.01.42-.32.42-.54.83-7.66.38-10.74-.14-.94-.31-1.11-.33-1.13-.59-.3-5.77,1.97-7.44,3.9-.41.47-.54.85-.4,1.12ZM318.83,219.5l-.11-.19c-.5-.84-3.46-2.91-5.84-4.58-3.29-2.3-4.11-2.93-4.11-3.31,0-.19.09-.51.87-1.14,2.04-1.66,7.5-4.39,9.1-4.06h0c1.48.31,9.04,6.82,9.55,8.57.08.29,0,.45-.1.54-.11.1-.32.16-1.38.39-1.06.23-2.5.55-3.22.89-.89.42-1.6.93-2.29,1.41-.68.49-1.39.99-2.25,1.39l-.2.09ZM318.4,206.68c-1.61,0-6.47,2.36-8.46,3.98-.68.55-.69.76-.69.76.14.28,2.14,1.68,3.9,2.91,2.51,1.75,5.09,3.56,5.86,4.54.73-.36,1.34-.8,1.99-1.25.71-.5,1.44-1.02,2.36-1.46.77-.36,2.25-.69,3.33-.93.45-.1.96-.21,1.13-.27-.02-1.05-7.68-7.95-9.19-8.27h0c-.07-.01-.14-.02-.23-.02ZM307.4,210.54s-.01,0-.02,0c-.63-.06-9.11-4.93-9.45-5.43-.07-.1-.12-.26.02-.5.89-1.6,11.61-7.4,13.47-7.31,1.75.09,5.75,5.83,5.98,7.3.1.62.07.93-.1,1.12-.16.18-.39.17-.59.17-.15,0-.3-.01-.43.05-.7.31-2.26,1.18-3.91,2.09-3.44,1.9-4.61,2.52-4.95,2.52ZM298.36,204.86c.67.59,8.47,5.07,9.08,5.2.31-.04,2.84-1.44,4.69-2.46,1.66-.92,3.23-1.78,3.95-2.11.24-.11.48-.1.66-.09.07,0,.18,0,.21,0,0,0,.07-.11-.02-.72-.23-1.4-4.15-6.82-5.52-6.89-.02,0-.04,0-.05,0-2.2,0-12.56,6.08-12.98,7.07ZM297.02,203.75c-.98,0-10.41-4.4-11.75-5.5-.14-.11-.27-.24-.27-.41,0-1.08,10.6-9.13,12.21-9.26.78-.06,9.26,3.89,10.33,4.52l.14.08c2.49,1.42,3.68,2.43,3.76,3.19.03.24-.06.46-.25.63-.1.09-.22.1-.79.13-.59.03-1.48.08-2,.26-1.41.5-3.1,1.2-4.31,1.77-.81.39-2.79,1.76-4.37,2.86-1.8,1.25-2.44,1.69-2.66,1.73-.01,0-.02,0-.04,0ZM285.5,197.82c.79.81,10.52,5.44,11.48,5.45.17-.06,1.38-.9,2.45-1.65,1.68-1.17,3.59-2.49,4.44-2.9,1.24-.59,2.91-1.28,4.35-1.79.59-.21,1.52-.26,2.14-.29.2-.01.43-.02.52-.04.05-.05.06-.11.05-.18-.03-.32-.54-1.12-3.52-2.82l-.14-.08c-1.4-.81-9.37-4.45-10.05-4.46-1.63.14-11.12,7.61-11.73,8.74ZM285.47,197.77h0ZM282.63,197.53c-.42,0-.99-.09-1.71-.28l-.09-.05c-.29-.23-.72-.36-1.15-.34h-.04s-.04-.01-.04-.01c-1.22-.4-2.64-.94-4.14-1.5-4.42-1.67-9.92-3.75-12.57-3.04l-.72.19.46-.58c2.22-2.79,12.05-12.08,15.5-12.31,1.81-.12,5.13,1.76,8.63,3.75,3.02,1.71,6.14,3.48,8.01,3.73l.32.04-.88,2.08-.14.02c-1.53.23-4.44,2.84-6.77,4.94-2.25,2.02-3.66,3.26-4.4,3.34-.08,0-.16.01-.26.01ZM281.1,196.78c.79.21,1.36.29,1.74.25.62-.07,2.4-1.67,4.13-3.22,2.44-2.19,5.2-4.67,6.89-5.03l.53-1.26c-1.98-.4-4.97-2.09-7.87-3.74-3.29-1.86-6.68-3.8-8.36-3.68-3.02.2-11.84,8.3-14.72,11.61,2.93-.32,7.83,1.53,12.19,3.18,1.48.56,2.88,1.09,4.08,1.48.51-.02,1.02.14,1.39.41ZM210.08,195.04c-.2,0-.33-.02-.39-.07-.52-.48.35-1.83,3.23-5.66,1.02-1.36,1.99-2.64,2.15-3.07l.05-.08c4.96-5.36,10.42-10.74,17.76-12.64l.76-.2-.52.59c-.7.81-1.42,1.6-2.13,2.39-1.77,1.96-3.59,3.99-5.2,6.2-.65.9-1.61,2.58-2.62,4.36-1.42,2.49-2.89,5.07-3.67,5.73-.63.53-7.63,2.46-9.42,2.46ZM210.03,194.58c1.08.07,8.53-1.85,9.15-2.37.72-.6,2.23-3.25,3.56-5.59,1.02-1.79,1.99-3.49,2.65-4.41,1.62-2.23,3.46-4.27,5.24-6.24.53-.59,1.06-1.17,1.58-1.77-6.81,2.03-11.98,7.15-16.7,12.25-.2.5-.98,1.53-2.2,3.15-1.24,1.65-3.29,4.37-3.28,4.98ZM209.96,194.57h0ZM222.66,192.39c-.41,0-.64-.05-.74-.14-1.3-1.14,7.67-13.13,7.77-13.25.72-.85,5.87-6.2,6.56-6.5l.1.22-.1-.22c2.68-1.18,12.59-1.31,15.42-1.08.14.01.29.02.45.03.97.05,2.31.11,2.78,1.18.14.32-.09.53-3.24,2.41-1.09.65-2.22,1.32-2.58,1.62-5.13,4.24-8.85,9.8-11.07,13.71l-.17.3-.68-.77c-.47-.53-1.56-.49-2.16-.1-.32.21-.41.45-.29.71l.14.3-.33.04c-1.42.18-3.13.43-4.78.67-4,.59-6.08.86-7.07.86ZM236.44,172.95h0c-.53.24-5.51,5.34-6.38,6.37-1.52,1.8-8.24,11.63-7.81,12.58.41.17,4.29-.4,7.41-.85,1.55-.23,3.15-.46,4.51-.63-.05-.38.14-.75.55-1.02.79-.52,2.15-.55,2.79.18l.23.26c2.26-3.93,5.95-9.37,11.02-13.55.39-.32,1.48-.97,2.64-1.66,1.13-.68,2.66-1.58,2.99-1.9-.39-.69-1.45-.74-2.3-.78-.16,0-.32-.02-.46-.03-3.16-.25-12.75-.03-15.19,1.04ZM259.71,191.58c-1.31,0-3.82-.39-6.27-.76-1.6-.25-3.11-.48-3.89-.53-.62-.04-2.19,0-3.85.04-4.26.11-5.23.09-5.45-.11-.58-.51.27-1.71,1.34-3.11.17-.22.31-.4.39-.52,2.15-3.19,11.17-13.6,15.11-14.26,2.79-.47,8.46,1.71,13.46,3.64,2.57.99,5.01,1.92,6.57,2.3l.56.13-8.58,5.45c-.64.48-2.32,2.03-3.94,3.52-2.98,2.76-4.43,4.06-4.81,4.16-.16.04-.38.06-.65.06ZM248.76,189.78c.35,0,.63,0,.82.02.8.05,2.32.29,3.93.54,2.64.41,5.93.92,6.73.72.36-.13,2.81-2.39,4.6-4.04,1.71-1.58,3.32-3.06,3.99-3.57l7.63-4.85c-1.58-.44-3.77-1.28-6.08-2.17-4.7-1.81-10.55-4.06-13.21-3.61-3.61.61-12.26,10.29-14.79,14.05-.09.13-.23.32-.41.55-1.4,1.81-1.54,2.33-1.41,2.44.3.11,3.08.04,5.12-.01,1.16-.03,2.28-.06,3.07-.06Z"/><path d="M275.62,291.45c4.71-10.75,6.9-24.1-1.6-33.51-.36,3.17,1.69,6.14,2.3,9.24,1.55,7.9.48,13.52-1.93,20.99l-6.13,13.9c3.66-2.33,5.66-6.74,7.37-10.62Z"/><path class="cls-2" d="M267.71,302.71l6.46-14.63c2.42-7.49,3.45-13.04,1.92-20.85-.22-1.14-.66-2.3-1.08-3.42-.72-1.9-1.46-3.86-1.22-5.9l.06-.54.36.4c9.64,10.66,5.17,25.74,1.65,33.77h0c-1.53,3.5-3.63,8.29-7.46,10.73l-.68.43ZM274.22,258.54c-.04,1.71.58,3.36,1.23,5.1.43,1.14.87,2.31,1.1,3.49,1.55,7.91.52,13.53-1.94,21.12l-5.79,13.12c3.25-2.46,5.08-6.63,6.57-10.02h0c3.43-7.82,7.77-22.38-1.18-32.81Z"/><path d="M298.15,232.47c0-.28,2.41-2.2,2.66-4.84.39-4.15-3.17-11.18-8.11-10.43.69,1.23,2.01,1.08,3.3,2.47,2.28,2.47,3.56,6.5,2.51,9.79-.24.74-2.35,3.35-2.75,3.34-.49,0-2.56-3.63-4.41-2.7-.04,1.05,1.27.77,1.96,1.76,2.8,4.06.43,9.39.76,9.77.76.9,2.73-2.19,2.75-3.76.02-.92-1.52-4.49.29-3.7,5.44,2.37,8.5,16.57-.33,16.3.79,2.45,4.03.77,5.38-.4,3.79-3.28,2.26-10.13-.33-13.82-.6-.85-3.67-3.51-3.67-3.78Z"/><path class="cls-2" d="M298.47,251.98c-.22,0-.43-.03-.63-.08-.63-.18-1.07-.63-1.3-1.35l-.11-.33h.35c3.49.14,4.69-2.05,5.11-3.89.96-4.26-1.6-10.5-4.88-11.93-.21-.09-.38-.12-.44-.06-.26.22.07,1.53.24,2.23.14.55.26,1.03.25,1.32-.02,1.38-1.4,3.76-2.38,4.11-.31.11-.6.04-.8-.2-.16-.19-.09-.52.08-1.33.38-1.79,1.18-5.5-.86-8.46-.27-.39-.65-.56-1.02-.72-.48-.21-1.01-.45-.98-1.19v-.14s.13-.06.13-.06c1.47-.74,2.98.97,3.89,2,.23.26.51.58.64.66.45-.24,2.3-2.49,2.51-3.16.97-3.01-.04-6.94-2.45-9.55-.59-.63-1.17-.92-1.73-1.2-.62-.31-1.21-.6-1.6-1.31l-.17-.31.35-.05c1.69-.25,3.36.35,4.84,1.74,2.26,2.14,3.83,6.08,3.55,8.96-.19,2.04-1.63,3.67-2.32,4.45-.11.13-.24.27-.3.36.2.25.89.91,1.46,1.46.89.85,1.81,1.73,2.13,2.18,2.63,3.76,4.19,10.77.29,14.15-.87.76-2.49,1.72-3.84,1.72ZM297.13,250.72c.19.37.46.6.84.71,1.17.32,3.05-.7,4.02-1.54,3.69-3.2,2.16-9.89-.37-13.5-.29-.41-1.24-1.32-2.07-2.11-1.45-1.38-1.65-1.6-1.65-1.81h0c0-.16.13-.3.46-.68.71-.8,2.03-2.29,2.2-4.18.26-2.75-1.24-6.51-3.4-8.56-.88-.83-2.28-1.77-4.03-1.65.3.36.7.55,1.17.79.57.29,1.22.61,1.87,1.31,2.52,2.73,3.58,6.86,2.56,10.03-.21.64-2.37,3.51-2.98,3.51h0c-.25,0-.47-.24-1-.84-.83-.94-2.07-2.33-3.16-1.94.04.28.26.39.69.58.39.17.87.39,1.22.89,2.16,3.13,1.33,6.99.94,8.84-.08.38-.17.8-.16.94.04.04.11.07.24.02.81-.29,2.04-2.48,2.06-3.66,0-.23-.11-.7-.24-1.19-.29-1.13-.58-2.3-.08-2.72.22-.19.54-.19.95-.01,3.53,1.54,6.18,7.95,5.16,12.48-.61,2.73-2.46,4.24-5.23,4.29Z"/><path d="M313.07,276.28c-.19.18,2.27,3.16,2.56,4.56.57,2.73-.04,6.34-1.87,8.5-1.19,1.41-3.66,1.18-3.4,3.23,5.96-1.91,9.29-7.95,6.01-13.83-.36-.64-2.57-3.2-3.3-2.46Z"/><path class="cls-2" d="M310.15,292.89l-.04-.29c-.18-1.44.84-1.9,1.82-2.36.6-.27,1.21-.56,1.64-1.06,1.87-2.2,2.33-5.84,1.81-8.29-.16-.78-1.09-2.15-1.76-3.15-.77-1.14-.95-1.41-.73-1.63h0c.11-.11.31-.24.64-.19,1.11.16,2.79,2.24,3.05,2.71,1.47,2.64,1.72,5.51.69,8.09-1.12,2.83-3.62,5.05-6.85,6.09l-.28.09ZM313.35,276.4c.12.22.42.67.69,1.07.73,1.09,1.65,2.45,1.83,3.32.64,3.04-.15,6.62-1.92,8.71-.5.58-1.19.91-1.81,1.19-.96.44-1.54.75-1.56,1.55,2.95-1.03,5.21-3.09,6.24-5.7.97-2.45.73-5.17-.67-7.68-.3-.53-1.87-2.35-2.69-2.46-.05,0-.09,0-.12,0Z"/><path d="M332.42,262.02c-.81,1.38,1.24,2.37,1.57,3.88.37,1.67.22,3.58-.92,4.94-.49.59-1.57.59-1.66.7-1.04,1.21.68,1.8,2.21.68,3.29-2.44,1.89-8.11-1.2-10.19Z"/><path class="cls-2" d="M331.99,273.06c-.41,0-.75-.12-.95-.34-.12-.13-.46-.61.18-1.35.08-.09.2-.12.43-.16.35-.07.93-.18,1.22-.53.97-1.14,1.28-2.87.87-4.73-.12-.56-.51-1.05-.89-1.53-.6-.77-1.22-1.56-.65-2.53l.13-.23.22.15c1.85,1.25,3.14,3.73,3.19,6.17.04,1.87-.66,3.44-1.99,4.42-.61.46-1.25.65-1.77.65ZM331.56,271.73c-.13.16-.34.47-.16.66.27.29,1.18.28,2.07-.38,1.19-.88,1.83-2.31,1.79-4.02-.05-2.15-1.16-4.41-2.74-5.61-.17.54.18,1.03.73,1.73.41.52.84,1.07.98,1.73.45,2.01.09,3.89-.98,5.15-.4.48-1.09.61-1.5.7-.08.02-.14.03-.19.04Z"/><path d="M222.07,276.27c.16-.98-1.2-.95-1.89-1.14-2.35-.66-4.68-.86-7.11-1.73-.85-.3-3.08-.89-3.21-1.87,9.18,3.72,14.98-6.91,23.76-4.76.56-2.82-5.27-.66-6.11-1.36-.34-.29,3.32-6.46,3.76-8.11,2.34-8.62-.33-18.37-6.49-24.81-2.18-2.28-5.8-4.04-8.15-6.11-1.35-1.18-5.33-6.4-5.76-6.45-2.84-.33,1.95,5.88,1.7,6.09-.13.11-2.35-.04-3.42.33-13.42,4.57-15.11,27.23-8.69,37.93,5.08,8.44,11.17,13.33,21.6,12ZM201.71,259.98c.25-.3,3.65,3.08,7.45.32,1.77-1.28,3.9-6.2,3.97-8.29.06-1.72-4.64-3.26-5.31-4.61-.83-1.65,4.76-1.81,5.35-3.48,1.52-4.35-3.55-11.4-8.75-9.76,9.82-13.04,23.81,4.08,24.47,15.26.65,11.09-8.13,23.87-20.19,18.83-2.11-.88-8.2-6.85-6.99-8.28Z"/><path class="cls-2" d="M218.72,276.73c-7.7,0-13.35-3.83-18.47-12.34-4.16-6.91-4.87-18.22-1.7-26.88,2.14-5.85,5.78-9.79,10.52-11.4.72-.24,1.91-.27,2.7-.28.16,0,.34,0,.48-.01-.12-.23-.35-.61-.56-.95-1.26-2.07-2.35-3.99-1.82-4.82.19-.29.54-.41,1.04-.36.27.03.71.5,2.78,2.98,1.16,1.39,2.47,2.96,3.12,3.53,1.02.9,2.26,1.72,3.57,2.59,1.65,1.1,3.35,2.23,4.6,3.53,6.31,6.6,8.88,16.42,6.54,25.04-.22.81-1.16,2.63-2.07,4.38-.71,1.37-1.59,3.06-1.7,3.53.31.12,1.22.01,1.96-.08,1.5-.17,3.19-.37,3.89.38.28.3.37.72.27,1.25l-.05.25-.25-.06c-4.04-.99-7.38.76-10.91,2.61-3.71,1.94-7.54,3.95-12.19,2.4.57.46,1.67.82,2.28,1.02.16.05.29.1.41.14,1.41.5,2.81.78,4.16,1.05.96.19,1.95.39,2.93.67.14.04.31.07.49.1.7.12,1.75.31,1.58,1.32l-.03.18-.18.02c-1.17.15-2.29.23-3.38.23ZM210.68,220.15c-.19,0-.34.05-.4.15-.41.64,1.1,3.12,1.83,4.3.73,1.19.86,1.41.62,1.6-.11.09-.26.09-.94.11-.76.02-1.9.04-2.55.26-5.81,1.97-8.76,7.13-10.22,11.11-3.07,8.4-2.36,19.78,1.66,26.46,5.68,9.44,12.02,13.01,21.16,11.91-.04-.32-.42-.45-1.19-.58-.19-.03-.38-.07-.53-.11-.96-.27-1.95-.47-2.9-.66-1.37-.28-2.79-.56-4.23-1.07-.11-.04-.25-.08-.4-.13-1.13-.37-2.84-.93-2.97-1.93l-.06-.42.39.16c4.76,1.93,8.5-.04,12.47-2.12,3.38-1.77,6.88-3.61,10.98-2.71.01-.24-.05-.43-.18-.57-.53-.57-2.16-.38-3.47-.23-1.3.15-2.05.22-2.41-.08-.29-.24-.09-.74,1.65-4.08.86-1.65,1.83-3.51,2.03-4.28,2.29-8.46-.23-18.1-6.43-24.58-1.21-1.26-2.89-2.38-4.51-3.46-1.27-.84-2.58-1.72-3.62-2.63-.67-.59-1.94-2.11-3.17-3.58-1-1.2-2.25-2.69-2.5-2.82-.04,0-.08,0-.12,0ZM214.03,269.64c-1.64,0-3.45-.33-5.43-1.16-1.94-.81-6.71-5.37-7.25-7.61-.11-.45-.05-.8.16-1.06h0c.19-.22.44-.08.95.21,1.21.68,3.74,2.11,6.54.08,1.68-1.22,3.8-6.01,3.87-8.1.03-.85-1.5-1.77-2.84-2.58-1.09-.66-2.12-1.28-2.44-1.91-.13-.26-.14-.51-.05-.74.27-.65,1.35-1.01,2.6-1.42,1.19-.39,2.55-.84,2.78-1.51.77-2.19-.19-5.27-2.33-7.47-1.84-1.9-4.07-2.62-6.11-1.97l-.73.23.46-.61c3.9-5.17,8.11-5.23,10.97-4.37,7.33,2.21,13.51,12.44,13.94,19.76.41,6.93-2.84,14.27-7.88,17.85-1.72,1.22-4.15,2.37-7.22,2.37ZM201.84,260.23c-.05.13-.05.3,0,.52.49,2.03,5.19,6.53,6.96,7.27,5.47,2.29,9.64.63,12.17-1.17,4.92-3.49,8.08-10.65,7.68-17.43-.42-7.16-6.45-17.17-13.59-19.32-3.69-1.11-7.14.14-10.01,3.64,2.02-.36,4.13.45,5.91,2.27,2.26,2.33,3.27,5.61,2.44,7.97-.31.9-1.72,1.36-3.09,1.81-.99.33-2.12.7-2.3,1.15-.03.06-.05.17.03.33.25.51,1.27,1.12,2.25,1.71,1.53.92,3.12,1.88,3.08,3.01-.07,2.23-2.27,7.17-4.07,8.48-3.05,2.21-5.86.63-7.07-.05-.14-.08-.3-.17-.4-.22Z"/><path d="M219.03,217.18c3.77,3.95,5.65,8.65,12.55,8.83-5.01-4.29-11.84-20.77-20.06-13.6-.47.41-1.82,2.61-1.67,2.73.44.37,4.69-2.67,9.18,2.03Z"/><path class="cls-2" d="M232.26,226.28l-.69-.02c-5.47-.15-7.87-3.1-10.41-6.22-.72-.89-1.47-1.81-2.31-2.69-3.38-3.54-6.57-2.57-8.1-2.1-.57.17-.86.26-1.06.09l-.09-.07v-.15c-.01-.45,1.34-2.52,1.76-2.89,1.6-1.39,3.26-2,4.96-1.81,4.12.47,7.73,5.48,10.92,9.9,1.61,2.23,3.14,4.34,4.49,5.5l.52.45ZM213.45,214.29c1.65,0,3.69.56,5.76,2.73h0c.85.89,1.6,1.82,2.33,2.71,2.46,3.03,4.61,5.66,9.38,6.01-1.26-1.24-2.63-3.13-4.07-5.13-3.13-4.34-6.68-9.26-10.58-9.7-1.57-.18-3.08.37-4.59,1.69-.35.3-1.24,1.71-1.52,2.31.13-.03.29-.08.45-.13.63-.19,1.63-.49,2.84-.49Z"/><path d="M208.15,288.51c.25,2.12,2.5,3.83,2.92,5.92,1.7,8.4-8.62,3.6-9.36,4.26-1.65,1.48,7,5.92,10.89,1.53,3.58-4.04-.48-9.63-4.45-11.71Z"/><path class="cls-2" d="M207.98,302.34c-.98,0-1.83-.16-2.37-.29-2.18-.53-4.08-1.72-4.33-2.7-.08-.32.01-.62.26-.84.26-.23.81-.13,2.12.16,2.05.45,5.15,1.12,6.57-.28.76-.75.96-2.07.59-3.91-.19-.95-.78-1.81-1.4-2.73-.68-1-1.39-2.04-1.52-3.21l-.05-.46.41.21c2.41,1.26,5.27,4.07,5.85,7.27.33,1.79-.13,3.45-1.34,4.81-1.38,1.56-3.24,1.97-4.79,1.97ZM201.98,298.86c-.06,0-.1,0-.13.02-.1.09-.13.2-.09.35.18.71,1.81,1.82,3.97,2.35,1.32.32,4.61.82,6.68-1.52,1.12-1.26,1.53-2.74,1.22-4.4-.52-2.84-2.95-5.37-5.15-6.68.23.86.77,1.66,1.34,2.5.62.91,1.26,1.86,1.47,2.9.41,2.01.16,3.48-.72,4.35-1.61,1.58-4.86.88-7.02.41-.61-.13-1.28-.28-1.58-.28Z"/><path d="M172.5,288.5c2.31,2.47,5.81,3.07,7.81,6.1,1.3-.87-1.41-2.36-1.02-2.71.69-.6,3.61,1.74,4.75,1.35-2.45-3.23-7.5-5-11.54-4.74Z"/><path class="cls-2" d="M180.25,294.94l-.13-.21c-1.1-1.66-2.7-2.59-4.25-3.5-1.23-.72-2.51-1.46-3.54-2.57l-.35-.38.51-.03c3.83-.25,9.1,1.33,11.75,4.84l.2.27-.32.11c-.67.23-1.72-.28-2.74-.77-.65-.31-1.52-.73-1.85-.67.08.11.26.3.4.44.46.47,1.03,1.05.97,1.64-.03.27-.18.5-.46.69l-.2.14ZM173.07,288.72c.9.85,1.95,1.45,3.04,2.09,1.52.89,3.1,1.81,4.25,3.42.06-.08.06-.14.07-.17.04-.36-.47-.87-.83-1.24-.36-.36-.59-.6-.58-.86,0-.1.05-.19.12-.26.47-.41,1.39.04,2.47.55.68.33,1.44.69,1.96.76-2.5-2.96-6.97-4.37-10.49-4.31Z"/><path d="M170.61,279.19c-3.84-.27-12.72-.19-14.75,3.86-1.58,3.14,2.4.93,3.38.66,16.08-4.48,32.18,4.45,46.53,10.56-9.39-8.59-22.4-14.19-35.16-15.08Z"/><path class="cls-2" d="M206.98,295.06l-1.31-.56c-1.9-.81-3.78-1.65-5.78-2.53-12.53-5.57-26.72-11.88-40.59-8.02-.17.05-.45.16-.77.3-1.4.58-2.6,1.01-3.1.48-.3-.33-.24-.89.21-1.78,2.33-4.63,12.89-4.14,14.99-3.99h0c12.71.88,25.91,6.55,35.31,15.15l1.05.96ZM168.26,282.27c11.03,0,21.94,4.85,31.83,9.25,1.51.67,2.95,1.31,4.38,1.93-9.23-7.96-21.78-13.18-33.88-14.02-5.64-.39-12.82.35-14.52,3.73-.46.92-.33,1.17-.28,1.23.3.33,1.82-.3,2.55-.6.34-.14.63-.26.83-.31,3.02-.84,6.06-1.21,9.09-1.21Z"/></svg>