<?xml version="1.0" encoding="UTF-8"?><svg id="Layer_1" xmlns="http://www.w3.org/2000/svg" viewBox="0 0 500 500"><defs><style>.cls-1{fill:#322b29;}.cls-2{fill:#fefefe;}.cls-3{fill:#231f20;}.cls-4{fill:#33bba6;}.cls-5{fill:#b5b6b6;}</style></defs><path class="cls-3" d="M198.63,429.63c.19.05.39.1.58.15l9.05.24c-2.96-.56-5.62-.92-7.55-.87-.72.02-1.42.2-2.08.48Z"/><path class="cls-3" d="M285.95,432.11l-77.7-2.09c6.67,1.25,14.94,3.46,20.24,4.04,11.87,1.3,25.52,2.04,37.42,1.4,5.49-.3,12.92-2,19.37-3.03.22-.12.44-.22.67-.32Z"/><path class="cls-3" d="M425.09,296.46c-6.17,9.45,3.89,13.92,5.37,15.3,3.01-6.47,5.1-13.04,6.27-20.48-1.36.97-7.58-1.03-11.64,5.19Z"/><path class="cls-3" d="M208.51,316.97c-4.11-4.93-8.53-8.97-13.27-12.34.4.68.78,1.3,1.15,1.79,1.93,2.57,7.46,7.28,12.11,10.54Z"/><path class="cls-3" d="M179.74,296.18c-2.25-.93-4.56-1.8-6.92-2.59,0,.02-.01.04-.01.05,1.85,1.03,3.67,2.09,5.46,3.2.4-.19.78-.37,1.14-.52.12-.05.22-.09.34-.14Z"/><path class="cls-3" d="M248.85,187.23c-1.38.36-2.75.73-4.13,1.08-.1.23-.19.46-.29.68,1.52-.63,2.98-1.22,4.42-1.77Z"/><path class="cls-3" d="M305.68,288.06c.42-.21.84-.41,1.26-.62.26-.46.63-1,1.08-1.59-.84.66-1.61,1.4-2.34,2.2Z"/><path class="cls-3" d="M191.08,186.09h-8.98s-.08.01-.11.02c3.31.09,6.63.12,9.94.2-.28-.09-.57-.17-.85-.22Z"/><path class="cls-3" d="M251.63,186.25c-.92.29-1.85.63-2.78.98.9-.24,1.81-.48,2.71-.71.02-.09.04-.18.07-.27Z"/><path class="cls-3" d="M301.07,185.79c-.12-.28-.24-.6-.37-.95h-6.88c.09.4.19.81.27,1.21,2.33.11,4.66.06,6.98-.26Z"/><path class="cls-3" d="M259.72,319.08c1.02-.45,2.03-.93,3.02-1.43.05-.33.16-.64.31-.93-1.11.79-2.22,1.58-3.33,2.36Z"/><path class="cls-3" d="M301.8,293.06c1.05-1.52,1.98-3.03,3.19-4.24.22-.27.46-.51.69-.76-2.22,1.13-4.38,2.34-6.52,3.58.61.27,1.52.77,2.64,1.42Z"/><path class="cls-3" d="M269.22,312.24c-.57.42-1.14.83-1.71,1.25.75-.33,1.35-.58,1.55-.8.06-.07.11-.23.17-.46Z"/><path class="cls-3" d="M424.74,132.58l-16.63-35.37c-9.79-8.92-19.4-15.95-32.57-18.79-67.77-14.6-128.32,14.86-167.12,69.03-8.29,11.57-12.51,25.82-13.28,39.96,5.53,1,8.71.31,15.03,2.51-1.91-9.54,10.01-43.65,19.48-45.13,2.99-.47,5.63.11,5.58,3.79.4,0,.86-.07,1.25,0,8.47,1.49,2.15,14.22-5.01,8.77-5.05,3.01-13.87,28.34-15.03,35.08,1.85,1.42,5.59,8.23,7,8.56.52.12,9.09-.82,10.54-1.04.93-50.31,64.55-95.84,111.84-78.64,3.46,1.26,5.75,3.43,8.43,4.73,9.18,4.43,19.12,7.72,22.54,18.79-3.64-2.62-6.45-6.02-10.01-8.77-7.19-.9-15.39-4.92-22.55-1.25,5.34,3.52,10.61,7.96,15.03,12.53,37.61,38.83,16.62,118.82-12.53,157.85,16.24,6.34,31.5,15.75,43.22,28.79,36.91-53.63,56.59-138.79,34.79-201.39ZM281.34,117.57c-2.13,0-3.85-1.73-3.85-3.85s1.73-3.85,3.85-3.85,3.85,1.73,3.85,3.85-1.73,3.85-3.85,3.85ZM340.74,107.37c-2.51,0-4.54-2.03-4.54-4.54s2.03-4.54,4.54-4.54,4.54,2.03,4.54,4.54-2.03,4.54-4.54,4.54ZM351.63,92.09c-1.64,2.44-23.38,1-28.05,1.38-8.59.7-17.44,4.68-25.7,4.99,3.88,9.24-3.29,13.71-8.77,5.01-.53.71-13.11,5.1-16.31,6.86-3.46,1.91-18.08,11.77-20.02,11.93,1.03,8.28-7.87,9.61-7.52,0,.22-5.91,6.27-11.41,10.68-15.01,17.51-14.3,50.74-26.14,73.26-26.34,1.25-.01,2.52-.06,3.76,0,4.29.21,23.69,3.73,18.68,11.16ZM362.39,109.73c-3.46,0-6.26-2.8-6.26-6.26s2.8-6.26,6.26-6.26,6.26,2.8,6.26,6.26-2.8,6.26-6.26,6.26ZM373.34,110.05c-2.11,0-3.81-1.71-3.81-3.81s1.71-3.81,3.81-3.81,3.81,1.71,3.81,3.81-1.71,3.81-3.81,3.81ZM403.72,109.75c5.59,1.66-.85,11.06-4.37,7.5-.88-.89-.47-8.93,4.37-7.5ZM370.31,313.67c-2.2,0-3.98-1.78-3.98-3.98s1.78-3.98,3.98-3.98,3.98,1.78,3.98,3.98-1.78,3.98-3.98,3.98ZM373.68,300.16c-3.13-1.59-1.24-5.93-1.9-7.51-.14-.33-3.26-.52-4.21-2.83-2.8-6.82,4.17-11.15,9.22-5.94.78-3.17,7.79-24.71,8.69-25.75,3.02-3.48,9.56-1.69,9.89,2.91.14,1.98-.98,2.45-1.04,2.8-.73,4.46-1.4,4.38-2.51,7.52-3.66,10.35-8.42,22.82-18.15,28.81ZM397.01,305.77c-5.79,6.67-15.01,1.79-10.2-8.11,2.93-6.04,13.44-6.25,10.02,6.26-.02.09,1.28.57.17,1.85ZM396.85,224.4c-5.66,6.39-16.12-7.74-7.94-10.51,5.96-2.02,12.29,5.61,7.94,10.51ZM391.83,131.04c-.06-9.23,10.14-11,12.53-1.25.07.28,1.16.84,1.26,1.95.79,9.4-13.7,12.51-13.79-.7ZM402.74,190.99c-4.28-1.03-2.9-3.77-2.14-6.08,2.66-8.05,11.08-7.05,7.52,2.51-.88,2.35-1.29,4.56-5.38,3.57ZM412.5,238.58c-2.5,0-4.53-2.03-4.53-4.53s2.03-4.53,4.53-4.53,4.53,2.03,4.53,4.53-2.03,4.53-4.53,4.53ZM413.98,154.74c0-3.34,2.71-6.05,6.05-6.05s6.05,2.71,6.05,6.05-2.71,6.05-6.05,6.05-6.05-2.71-6.05-6.05ZM426.27,213.57c-2.01,0-3.63-1.63-3.63-3.63s1.63-3.63,3.63-3.63,3.63,1.63,3.63,3.63-1.63,3.63-3.63,3.63Z"/><path class="cls-3" d="M422.55,329.01c2.21-4.26,6.97-12.83,8.09-16.96.25-.91-12.27-5.31-5.55-15.59,4.1-6.28,10.41-4.17,11.69-5.22,1.09-.9,6.36-23.93,7.06-27.4,11.17-55.25,8.63-126.23-35.72-166.63l16.63,35.37c21.8,62.6,2.12,147.76-34.79,201.39-11.72-13.04-26.99-22.45-43.22-28.79-.17.23-3.84-.75-2.51,3.76,24.09,14.2,51.84,26.5,50.12,60.13,11.07-11.31,20.86-25.91,28.2-40.06ZM430.41,270.25c2.83,0,5.12,2.29,5.12,5.12s-2.29,5.12-5.12,5.12-5.12-2.29-5.12-5.12,2.29-5.12,5.12-5.12Z"/><path class="cls-3" d="M296.62,292.65c8.07,5.45,15.84,11.48,24.21,16.5,19.97,11.99,38.03,16.65,55.97,32.36,4.08,8.74,3.35,18.71-5.38,24.06-16.92,10.37-26.13-3.87-38.58-12.04-21.07-13.84-42.93-26.65-63.78-40.83.25-.27.3-2.06,1.21-3.12,4.02-4.69,6.91-7.39,8.75-13.85,6.21-.04,11.7-1.95,17.6-3.08ZM300.21,307.67c0-2.36-1.92-4.28-4.28-4.28s-4.28,1.92-4.28,4.28,1.92,4.28,4.28,4.28,4.28-1.92,4.28-4.28ZM310.4,318.96c5.53,13.04,12.94-1.64,6.76-3.66-4.28-1.4-4.7,2.06-6.76,3.66-.62-1.46-.63-3.4-1.36-4.89-9.83-1.92-6.81,11.27,1.36,4.89ZM326.69,326.47c-4.98,5.02-1.97,9.07,4.29,7.58,1.48-.35.44-1.85.72-2.57,2.31-6.1.48-10.56-5.01-5.01ZM365.45,342.66c0-2.67-2.16-4.83-4.83-4.83s-4.83,2.16-4.83,4.83,2.16,4.83,4.83,4.83,4.83-2.16,4.83-4.83ZM336.84,343.18c0-1.71-1.38-3.09-3.09-3.09s-3.09,1.38-3.09,3.09,1.38,3.09,3.09,3.09,3.09-1.38,3.09-3.09ZM351.13,350.28c-2.08.46-4.71,5.32-1.26,6.25,5.65,1.52,5.4-7.17,1.26-6.25Z"/><path class="cls-3" d="M192.64,300.17c-8.52,8.98-60.42,33.24-61.24,43.41-.15,1.84,1.25,3,2.99,2.99,1.1,0,15.19-10.76,18.16-12.57-4.68,19.4,21.03,8.1,3.76-1.25,3.35-2.01,24.3-13.77,25.06-15.03,5.88,4.91,9.87,2.78,8.77-5.01.47-.05,7.47-4.71,6.26-6.26,2.82,3.75,13.3,12.05,17.54,13.78-20.73,18.19-50.97,26.02-72.01,42.62-4.6,3.63-7.72,9.01-13.12,11.94-8.9,4.83-14.75,2.95-23.87.56.03-.41-.08-.87,0-1.25.91-4.45,6.98-15.51,9.74-19.7,16.51-25.06,49.8-39.39,73.54-56.71l-1.85-2.52c6.24.46,4.14,1.76,6.26,5.01ZM182.71,333.35c0-1.79-1.45-3.24-3.24-3.24s-3.24,1.45-3.24,3.24,1.45,3.24,3.24,3.24,3.24-1.45,3.24-3.24ZM128.74,360.3c1.79,2.3,1.34,7.05,7.6,4.47,4.96-8.48-3.19-7.54-3.84-8.23-.35-.36-1.53-9.44-6.35-3.23-3.48,4.49,1.09,5.06,2.59,6.99Z"/><path class="cls-3" d="M354.25,126.03c-16.99-3.53-34.61,3.15-50.42,9.08-26.87,10.08-40.69,18.37-55.28,43.69-2.18,3.78-2.9,8.59-5.22,12.32-1.41,2.27-7.05,8.48-9.35,8.82.93-50.31,64.55-95.84,111.84-78.64,3.46,1.26,5.75,3.43,8.43,4.73Z"/><path class="cls-3" d="M375.54,78.42c-67.77-14.6-128.32,14.86-167.12,69.03-8.29,11.57-12.51,25.82-13.28,39.96-1.36-.24-3.13-1.44-4.86-1.39-2.4-2.71,4.15-24.81,6.55-28.86,3.35-5.65,8.78-7.84,11.91-11.9,10.68-13.85,11.09-23.86,27.14-38,37.12-32.69,92.61-47.03,139.65-28.85Z"/><path class="cls-3" d="M346.73,305.18c-.17.23-3.84-.75-2.51,3.76-.41-.24-1.75.19-2.5,0,3.69-7.92,8.96-15.85,12.75-24.2,18.06-39.87,28.83-98.24,4.79-137.4,37.61,38.83,16.62,118.82-12.53,157.85Z"/><path class="cls-3" d="M186.37,295.15l1.85,2.52c-23.74,17.32-57.03,31.65-73.54,56.71-2.76,4.19-8.83,15.25-9.74,19.7-2.16-2.71-.27-8.35.6-11.3,3.7-12.47,12.91-22.96,22.54-31.33,9.27-8.05,40.89-30.68,51.31-35.14,2.74-1.17,3.99-1.38,6.98-1.16Z"/><path class="cls-3" d="M196.39,306.43c1.21,1.55-5.79,6.21-6.26,6.26-.74.08-3-2.33-6.27-.68-2.92,1.48-1.9,4.69-2.5,5.69-.76,1.26-21.7,13.02-25.06,15.03-.75.45-2.51.49-3.76,1.25-2.96,1.81-17.05,12.56-18.16,12.57-1.74.01-3.14-1.15-2.99-2.99.81-10.17,52.72-34.43,61.24-43.41,1.31,2.01,2.62,4.75,3.76,6.26Z"/><path class="cls-3" d="M287.85,169.87c-5.17-1.46-6.27,1.15-8.58,2.89-5.96,2.74-10.24,6.92-12.72,13.4-5.18.17-8.77.79-13.77,1.92-1.39.31-1.79,1.5-1.28-1.3,1.3-7.14,20.66-32.78,28-30.58,2.26.68,7.01,10.99,8.34,13.67Z"/><path class="cls-3" d="M235.23,148.58c-8.14-.12-8.53,4.51-2.51,8.77-.31.19-.94-.18-1.25,0-5.05,3.01-13.87,28.34-15.03,35.08-1.83-1.41-4.15-1.77-6.26-2.51-1.91-9.54,10.01-43.65,19.48-45.13,2.99-.47,5.63.11,5.58,3.79Z"/><path class="cls-3" d="M296.62,292.65c.2-.04.72-1.25,1.85-1.23,1.6.02,18.32,11.25,21.93,13.16,21.37,11.35,38.95,16.17,57.11,33.08,2.35,2.18,4.8,5.67,5.55,8.86-2.3-2.75-4.49-3.45-6.26-5.01-17.94-15.71-35.99-20.37-55.97-32.36-8.37-5.02-16.15-11.05-24.21-16.5Z"/><path class="cls-3" d="M300.38,350.28c-1.89,1.33-5.68,4.23-7.52,5.01-20.09,8.51-44.03,10.42-65.15,7.52,23.42.44,46.83-4.48,67.24-16.05,2.41-.14,3.8,2.61,5.42,3.53Z"/><path class="cls-3" d="M287.85,169.87c2.58,5.23,5.17,10.47,6.26,16.28-9.16.23-18.4-.29-27.56,0,2.48-6.47,6.76-10.66,12.72-13.4-2.52,1.26-3.54,4.33-2.28,6.85s4.33,3.54,6.85,2.28,3.54-4.33,2.28-6.85-4.33-3.54-6.85-2.28c2.3-1.74,3.41-4.35,8.58-2.89Z"/><path class="cls-3" d="M366.77,136.05c-7.19-.9-15.39-4.92-22.55-1.25l-15.03-5c15.89-3.37,24.63-3.77,37.58,6.25Z"/><path class="cls-3" d="M329.19,80.93c-5.44,9.44,7.87,8.44,3.76,0,4.29.21,23.69,3.73,18.68,11.16-1.64,2.44-23.38,1-28.05,1.38-8.59.7-17.44,4.68-25.7,4.99-1.13.04-3.07-2.35-6.27-.68-2.87,1.49-2.05,5.09-2.5,5.69-.53.71-13.11,5.1-16.31,6.86-3.46,1.91-18.08,11.77-20.02,11.93-1.8.15-5.11-2.47-7.52,0,.22-5.91,6.27-11.41,10.68-15.01,17.51-14.3,50.74-26.14,73.26-26.34Z"/><path class="cls-3" d="M376.8,283.88c.78-3.17,7.79-24.71,8.69-25.75,3.02-3.48,9.56-1.69,9.89,2.91.14,1.98-.98,2.45-1.04,2.8-10.3-9.49-15.65,8.15-2.51,7.52-3.66,10.35-8.42,22.82-18.15,28.81-3.13-1.59-1.24-5.93-1.9-7.51,6.63-1.63,4.06-4.9,5.01-8.77Z"/><circle class="cls-3" cx="362.39" cy="103.47" r="6.26"/><path class="cls-3" d="M388.91,213.89c5.96-2.02,12.29,5.61,7.94,10.51-5.66,6.39-16.12-7.74-7.94-10.51Z"/><path class="cls-3" d="M391.83,131.04c-.06-9.23,10.14-11,12.53-1.25-.94,6.81-9.57,6.89-12.53,1.25Z"/><circle class="cls-3" cx="420.03" cy="154.74" r="6.05"/><path class="cls-3" d="M396.84,303.92c-6.03,3.35-10.06.48-10.02-6.26,2.93-6.04,13.44-6.25,10.02,6.26Z"/><path class="cls-3" d="M394.34,263.83c-.73,4.46-1.4,4.38-2.51,7.52-13.14.64-7.8-17,2.51-7.52Z"/><path class="cls-3" d="M376.8,283.88c-.96,3.87,1.62,7.14-5.01,8.77-.14-.33-3.26-.52-4.21-2.83-2.8-6.82,4.17-11.15,9.22-5.94Z"/><path class="cls-3" d="M297.87,98.47c3.88,9.24-3.29,13.71-8.77,5.01.45-.61-.37-4.2,2.5-5.69,3.2-1.66,5.13.73,6.27.68Z"/><path class="cls-3" d="M391.83,131.04c2.96,5.64,11.59,5.55,12.53-1.25.07.28,1.16.84,1.26,1.95.79,9.4-13.7,12.51-13.79-.7Z"/><circle class="cls-3" cx="340.74" cy="102.84" r="4.54"/><circle class="cls-3" cx="412.5" cy="234.05" r="4.53"/><path class="cls-3" d="M235.23,148.58c.4,0,.86-.07,1.25,0,3.42,6.61.07,6.45-3.76,8.77-6.02-4.26-5.63-8.89,2.51-8.77Z"/><path class="cls-3" d="M408.12,187.41c-3.25.1-6.07.94-7.52-2.51,2.66-8.05,11.08-7.05,7.52,2.51Z"/><circle class="cls-3" cx="370.31" cy="309.68" r="3.98"/><path class="cls-3" d="M252.77,122.27c1.03,8.28-7.87,9.61-7.52,0,2.4-2.47,5.71.15,7.52,0Z"/><path class="cls-3" d="M396.84,303.92c-.02.09,1.28.57.17,1.85-5.79,6.67-15.01,1.79-10.2-8.11-.04,6.74,3.99,9.61,10.02,6.26Z"/><circle class="cls-3" cx="281.34" cy="113.71" r="3.85"/><circle class="cls-3" cx="373.34" cy="106.23" r="3.81"/><path class="cls-3" d="M399.35,117.25c-.88-.89-.47-8.93,4.37-7.5,5.59,1.66-.85,11.06-4.37,7.5Z"/><circle class="cls-3" cx="426.27" cy="209.94" r="3.63"/><path class="cls-3" d="M332.95,80.93c4.12,8.44-9.2,9.44-3.76,0,1.25-.01,2.52-.06,3.76,0Z"/><path class="cls-3" d="M400.6,184.91c1.45,3.44,4.26,2.61,7.52,2.51-.88,2.35-1.29,4.56-5.38,3.57s-2.9-3.77-2.14-6.08Z"/><path class="cls-3" d="M236.48,148.58c8.47,1.49,2.15,14.22-5.01,8.77.31-.18.95.19,1.25,0,3.83-2.32,7.18-2.16,3.76-8.77Z"/><path class="cls-3" d="M203.91,391.62c-3.17,2.73-5.5,4.63-10.02,3.76-12.05-10.61,10.72-19.2,10.02-3.76Z"/><path class="cls-3" d="M276.57,369.07c2.73,1.12,4.08,3.31,3.76,6.26-11.87,11.27-15.29-.84-10.68-5.04,2.49-2.27,5.27-.63,6.92-1.22Z"/><path class="cls-3" d="M264.05,392.87c-2.85,3.8-4.99,6.95-10.02,3.76-6.19-8.4,6.19-14.7,10.02-3.76Z"/><path class="cls-3" d="M280.33,375.33c.32-2.96-1.03-5.15-3.76-6.26.72-.26,3.76-7.03,8.22-2.58,2.35,5.08-1.81,6.33-4.46,8.84Z"/><path class="cls-3" d="M217.86,370.5c1.76-2.76,9.39-.28,6.77,4.83-3.24,6.33-9.67-.29-6.77-4.83Z"/><path class="cls-3" d="M176.18,392.7c-1.76,2.76-9.39.28-6.77-4.83,3.24-6.33,9.67.29,6.77,4.83Z"/><path class="cls-3" d="M319.17,379.09c.51,4.14-.34,6.85-5.01,6.26-1.89-1.94-3.89-2.46-1.96-6.34,2.35-2.56,4.64-.53,6.97.07Z"/><path class="cls-3" d="M314.16,385.36c4.67.58,5.52-2.12,5.01-6.26.2.05,1.93-1.77,3.17,1.25,1.63,3.93-3.05,10.28-8.19,5.02Z"/><path class="cls-3" d="M264.05,392.87c2.66,7.6-5.05,10.51-10.02,3.76,5.03,3.2,7.17.05,10.02-3.76Z"/><path class="cls-3" d="M203.91,391.62c-.29,6.52-5.28,7.93-10.02,3.76,4.53.87,6.85-1.03,10.02-3.76Z"/><path class="cls-3" d="M409.96,88.48c-35.96-30.89-96.07-31.08-137.99-12.78-12.44,5.43-23.18,13.42-34.85,20.17-42.36-23.35-93.33-33.8-136.32-5.93-24.76,16.05-40.61,41.53-47.46,69.93-7.05,29.21-5.51,60.17.44,89.43,2.98,14.65,7.43,28.97,12.83,42.9,3.48,8.96,6.62,18.29,11.25,26.73,5.43,9.91,10.63,21.76,17.99,30.6,1.96,2.36,4.4,4.8,5.13,7.89.58,2.47-1.88,6.89-2.16,9.9-.2,2.09-.22,4.33-.04,6.6-3.9-.48-8.58,1.76-7.42,5.98,4.02,14.65,17.11,18.61,30.33,20.82,1.13.19,2.28.38,3.32.88,1.27.61,2.28,1.63,3.29,2.6,10.55,10.08,24.15,16.12,37.84,20.65,15.26,5.04,30.23,5.41,45.9,7.77,13.22,2,26.6,2.82,39.53,3.03,10.4.17,20.48-.96,30.76-2.52,3.58-.54,7.17-1.09,10.75-1.63,16.23-2.46,33.82-8.15,48.76-14.94,8.66-3.93,17.02-8.54,24.96-13.77,15.78-10.39,29.94-23.24,41.71-38.02.11-.14.22-.27.33-.41,7.74-9.79,14.43-20.4,19.9-31.63,6.13-12.58,11.14-26.61,15.19-39.97,19.91-65.69,22.23-156-33.96-204.28ZM78.05,301.38c-28.65-67.44-40.91-179.1,41.95-213.54,25.59-10.64,58.83-9.32,83.92,1.86,3.74.9,25.71,9.32,26.31,11.93-4.17,6.47-10.46,11.35-14.83,17.73-4.27,6.23-6.45,13.05-10.24,19.21-6.41,10.43-9.07,3.52-17.79.88-25.41-7.69-47.14,3.78-57.2,27.49-18.73,44.16-1.61,101.47,26.13,138.23-18.15,11.3-37.58,23.63-50.11,41.37-.24.34.2,1.77,0,2.5h-1.87c-.52-.18-.42-1.07-.63-1.25-7.67-6.81-21.22-35.98-25.64-46.4ZM161.39,382.92h0c1.86-1.2,3.76-2.33,5.7-3.4-1.94,1.07-3.85,2.2-5.7,3.4ZM176.18,392.7c-1.76,2.76-9.39.28-6.77-4.83,3.24-6.33,9.67.29,6.77,4.83ZM269.66,370.29c2.49-2.27,5.27-.63,6.92-1.22.72-.26,3.76-7.03,8.22-2.58,2.35,5.08-1.81,6.33-4.46,8.84-11.87,11.27-15.29-.84-10.68-5.04ZM254.02,396.63c-6.19-8.4,6.19-14.7,10.02-3.76,2.66,7.6-5.05,10.51-10.02,3.76ZM224.63,375.33c-3.24,6.33-9.67-.29-6.77-4.83,1.76-2.76,9.39-.28,6.77,4.83ZM222.01,411.67c-3.58-.22-7.15-.53-10.7-.95-5.33-.62-10.64-1.47-15.89-2.55,5.25,1.08,10.55,1.92,15.89,2.55,3.56.42,7.13.73,10.7.95ZM203.91,391.62c-.29,6.52-5.28,7.93-10.02,3.76-12.05-10.61,10.72-19.2,10.02-3.76ZM198.79,363.33c-2.99,1.9-6.1,3.6-9.28,5.2,3.18-1.61,6.29-3.31,9.28-5.2.66-.42,1.38-.82,2.09-1.25-.71.43-1.43.84-2.09,1.25ZM308.52,409.49c-1.56,0-2.83-1.27-2.83-2.83s1.27-2.83,2.83-2.83,2.83,1.27,2.83,2.83-1.27,2.83-2.83,2.83ZM314.16,385.36c-1.89-1.94-3.89-2.46-1.96-6.34,2.35-2.56,4.64-.53,6.97.07.2.05,1.21-1.35,3.17,1.25,34.97,46.14-3.05,10.28-8.19,5.02ZM367.22,393.55c2.39-1.63,4.74-3.31,7.07-5.07-4.14-1.32-8.56-.2-12.85-.92-5.89-.99-50.49-31.32-61.06-37.29-1.89,1.33-5.68,4.23-7.52,5.01-20.09,8.51-44.03,10.42-65.15,7.52-7.09-.97-15.33-3.03-22.55-6.26,0,.23-.03.44-.07.65.03-.21.06-.43.07-.65-3.87-1.73-2.56-5.12-9.67-2.79-10.21,3.34-32.1,16.09-41.59,22.32-4.86,3.19-9.59,6.55-13.97,10.35,4.39-3.8,9.12-7.16,13.97-10.35,9.49-6.23,31.39-18.98,41.59-22.32,7.1-2.32,5.8,1.06,9.67,2.79,7.22,3.24,15.46,5.29,22.55,6.26,23.42.44,46.83-4.48,67.24-16.05,2.41-.14,3.8,2.61,5.42,3.53,10.57,5.97,55.17,36.3,61.06,37.29,4.29.72,8.71-.4,12.85.92-2.32,1.76-4.68,3.44-7.07,5.07ZM205.17,348.39c5.32-2.78,10.56-6.09,15.42-9.62,2.38-1.73,7.68-6.52,11.84-10.06.7-.6,1.36-1.15,1.98-1.66,1.47-.81,2.93-1.62,4.4-2.44,7.19.5,14.83,4.25,21.13,6.61,9.32,3.5,18.63,7.01,27.95,10.51-.15,1.97-15.57,7.62-17.32,8.17-20.17,6.36-46.44,9.33-65.4-1.52ZM443.83,263.85c-.7,3.47-5.96,26.5-7.06,27.4-.01.01-.03.02-.05.03-1.17,7.45-3.25,14.02-6.27,20.48.13.12.2.22.18.29-1.12,4.13-5.88,12.7-8.09,16.96-7.35,14.15-17.13,28.75-28.2,40.06,1.72-33.64-26.03-45.94-50.12-60.13-.41-.24-1.76.19-2.5,0,3.69-7.92,8.96-15.85,12.75-24.2,18.06-39.87,28.83-98.24,4.79-137.4-4.42-4.57-9.69-9.01-15.03-12.53l-15.03-5c15.89-3.37,24.63-3.77,37.58,6.25,3.56,2.75,6.37,6.15,10.01,8.77-3.42-11.07-13.35-14.36-22.54-18.79-16.99-3.53-34.61,3.15-50.42,9.08-26.87,10.08-40.69,18.37-55.28,43.69-1.66,2.89-2.49,6.36-3.82,9.51,1.37-.35,2.75-.72,4.13-1.08.93-.35,1.86-.69,2.78-.98,2.08-7.79,20.7-32.19,27.87-30.04,2.26.68,7.01,10.99,8.34,13.67,2.39,4.83,4.76,9.67,5.97,14.96h6.88c-2.82-7.55-9.3-30.45-15.33-33.13,20.44-11.29,47.18-22.48,65.76-1.89,24.01,26.61,14.03,84.74,3.14,115.92-2.36,6.75-13.54,33.45-18.13,37.06-1.38,1.09-1.55,1.04-3.2.63-7.13-1.77-18.34-12.63-26.3-14.55-.2-.28-.06-.79.3-1.43-.42.21-.84.41-1.26.62-.23.25-.48.49-.69.76-1.21,1.21-2.14,2.72-3.19,4.24,5.48,3.19,15.85,10.06,18.6,11.52,21.37,11.35,38.95,16.17,57.11,33.08,2.35,2.18,4.8,5.67,5.55,8.86,2.41,2.88,4.07,5.95,5.07,9.06-.99-3.1-2.66-6.18-5.07-9.06-2.3-2.75-4.49-3.45-6.26-5.01,4.08,8.74,3.35,18.71-5.38,24.06-16.92,10.37-26.13-3.87-38.58-12.04-21.07-13.84-42.93-26.65-63.78-40.83-.68.74-5.85,1.85-6.31,4.96-.99.5-2,.97-3.02,1.43-.45.32-.91.63-1.37.94-1.05-.38-2.1-.77-3.16-1.14-1.75-.62-3.55-1.18-5.37-1.68,1.25-3.63-4.43-7.33-9.11-5.36-2.81,1.18-5.62,2.36-8.43,3.54-5.02.57-9.83,2.33-14.05,5.83-1.98-.39-3.64-.73-4.3-1-20.73,18.19-50.97,26.02-72.01,42.62-4.6,3.63-7.72,9.01-13.12,11.94-8.9,4.83-14.75,2.95-23.87.56-.04.52-.04,1.04,0,1.56-.03-.52-.03-1.04,0-1.56.03-.41-.08-.87,0-1.25-2.16-2.71-.27-8.35.6-11.3,3.7-12.47,12.91-22.96,22.54-31.33,8.96-7.78,38.77-29.16,50.17-34.62-1.79-1.1-3.61-2.17-5.46-3.2-.1.53-.44,1.12-.99,1.62-2.31,2.09-9.56,6.12-12.34,3.65-3.55-3.14-11.98-19.53-14.25-24.61-6.21-13.84-10.29-28.64-13.29-43.49-2.98-6.78-3.28-14.2-1.96-21.71-2.4-36.53,19.81-80.28,62.13-59.31l-5.36,13.54-4.24,22.69c-.12.02-.26.04-.39.06h8.98c-.26-.04-.53-.07-.79-.06-2.4-2.71,4.15-24.81,6.55-28.86,3.35-5.65,8.78-7.84,11.91-11.9,10.68-13.85,11.09-23.86,27.14-38,37.12-32.69,92.61-47.03,139.65-28.85,13.18,2.84,22.79,9.88,32.57,18.79,44.35,40.4,46.88,111.39,35.72,166.63Z"/><circle class="cls-3" cx="308.52" cy="406.66" r="2.83"/><circle class="cls-3" cx="430.41" cy="275.37" r="5.12"/><circle class="cls-3" cx="360.62" cy="342.66" r="4.83"/><path class="cls-3" d="M310.4,318.96c2.06-1.61,2.48-5.06,6.76-3.66,6.18,2.02-1.23,16.7-6.76,3.66Z"/><circle class="cls-3" cx="295.93" cy="307.67" r="4.28"/><path class="cls-3" d="M310.4,318.96c-8.18,6.39-11.19-6.81-1.36-4.89.73,1.49.74,3.43,1.36,4.89Z"/><path class="cls-3" d="M331.7,331.49c-3.76.47-5.49-1.18-5.01-5.01,5.5-5.55,7.32-1.08,5.01,5.01Z"/><circle class="cls-3" cx="333.76" cy="343.18" r="3.09"/><path class="cls-3" d="M331.7,331.49c-.27.72.76,2.22-.72,2.57-6.27,1.49-9.27-2.56-4.29-7.58-.47,3.83,1.25,5.48,5.01,5.01Z"/><path class="cls-3" d="M351.13,350.28c4.14-.92,4.4,7.77-1.26,6.25-3.45-.93-.82-5.78,1.26-6.25Z"/><path class="cls-3" d="M156.3,332.74c17.27,9.36-8.44,20.65-3.76,1.25,1.25-.76,3.01-.8,3.76-1.25Z"/><path class="cls-3" d="M190.13,312.69c1.1,7.79-2.89,9.92-8.77,5.01.6-1-.42-4.21,2.5-5.69,3.27-1.65,5.53.76,6.27.68Z"/><path class="cls-3" d="M128.74,360.3l3.76-3.76c.66.69,8.8-.25,3.84,8.23-6.26,2.58-5.81-2.17-7.6-4.47Z"/><path class="cls-3" d="M128.74,360.3c-1.5-1.93-6.07-2.5-2.59-6.99,4.82-6.21,6,2.86,6.35,3.23l-3.76,3.76Z"/><circle class="cls-3" cx="179.48" cy="333.35" r="3.24"/><circle class="cls-3" cx="281.56" cy="177.33" r="5.11"/><path class="cls-3" d="M203.91,89.7c-29.02-7-52.4-5.29-78.93,7.52,2.47.09,4.06,1.59,5.01,3.76,1-1.71,13.37-3.71,16.02-2.97,5.88,1.65,3.6,4.63,4.03,9.23,1.89-.41,5.05-2.83,6.96-.07,2.84,4.09-1.34,10.25-5.8,7.06-1.85-1.33-.98-4.99-1.16-6.98-6.93,1.5-14.95,5.88-21.31,9.38-2.09,1.15-6.63,2.63-6.25,5.66,3.68,2.07,3.04,4.14,3.76,7.52.19.87,1.2,1.86,1.24,3.23.24,7.61-13.51,10.09-15.02-.73-4.58,2.18-15.7,14.53-17.33,2.84-1.03-7.4,20.29-28.49,27.35-29.15-.84-2.55-1.82-5.16,0-7.52-76.07,39.72-66.04,135.74-38.52,204.52,5.32,13.29,13.35,25.31,18.55,37.83,1.02,2.46,1.69,4.18,1.18,6.96.21.18.1,1.07.63,1.24h1.87c.2-.72-.24-2.15,0-2.49-2.83-1.2-.42-3.7.45-5.19,7.15-12.22,23.4-26.19,35.88-32.41,1.1-1.48-9.12-15.82-10.67-18.75-16.18-30.68-24.63-64.76-21.95-99.66,3.97-51.67,49.47-77.59,95.26-51.95,3.78-6.16,5.97-12.97,10.24-19.21,4.36-6.37,10.65-11.25,14.83-17.73-.61-2.61-22.57-11.02-26.31-11.93ZM122.47,289.14c1.57,0,2.85,1.28,2.85,2.85s-1.28,2.85-2.85,2.85-2.85-1.28-2.85-2.85,1.28-2.85,2.85-2.85ZM124.36,304.78c2.64,0,4.78,2.14,4.78,4.78s-2.14,4.78-4.78,4.78-4.78-2.14-4.78-4.78,2.14-4.78,4.78-4.78ZM79.88,174.89c-.01-.36-1.91-2.03-1.34-4.22.33-1.26,2.52-.67,2.59-.79.22-.37.17-6.21.82-8.58,1.65-6,3.71-18.31,12.16-17.41,11.78,1.25,2.47,15.09.77,20.32-1.9,5.87-3.67,11.8-4.64,17.91-.93,5.88-1.01,24.09-2.99,27.08-.74,1.12-1.39,2.37-2.95,1.99-4.14-.88-5.55-14.33-5.73-18.09-.31-6.54,1.46-12.64,1.3-18.22ZM100.15,187.08c0,2.38-1.93,4.31-4.31,4.31s-4.31-1.93-4.31-4.31,1.93-4.31,4.31-4.31,4.31,1.93,4.31,4.31ZM81.66,222.49l4.49-4.49,4.49,4.49-4.49,4.49-4.49-4.49ZM86.04,240.65c0-1.79,1.45-3.24,3.24-3.24s3.24,1.45,3.24,3.24-1.45,3.24-3.24,3.24-3.24-1.45-3.24-3.24ZM91.16,285.13c-6.24-6.92.32-16.56,8.77-10.02,8.37,6.48-2.39,17.09-8.77,10.02ZM111.07,315.07c-.14.22-4.03,1.81-4.92.84-5.97-11.85,8.68-6.9,4.92-.84ZM111.4,244.89c0,2.44-1.98,4.42-4.42,4.42s-4.42-1.98-4.42-4.42,1.98-4.42,4.42-4.42,4.42,1.98,4.42,4.42ZM172.59,114.75c-7.91-10.87,7.53-21.94,12.53-8.77,3.82,10.08-6.83,16.59-12.53,8.77ZM204.82,106.81c-3.06,0-5.55-2.48-5.55-5.55s2.48-5.55,5.55-5.55,5.55,2.48,5.55,5.55-2.48,5.55-5.55,5.55Z"/><path class="cls-3" d="M109.91,190.5c-2.68,34.9,5.77,68.98,21.95,99.66,1.55,2.93,11.77,17.28,10.67,18.75-12.48,6.22-28.73,20.19-35.88,32.41-.87,1.49-3.29,3.99-.45,5.19,12.53-17.74,31.96-30.07,50.11-41.37-27.74-36.76-44.86-94.07-26.13-138.23,10.06-23.71,31.79-35.18,57.2-27.49,8.72,2.64,11.38,9.55,17.79-.88-45.78-25.65-91.29.28-95.26,51.95Z"/><path class="cls-3" d="M119.99,87.84c-82.86,34.44-70.6,146.1-41.95,213.54,4.42,10.41,17.97,39.59,25.64,46.4.5-2.77-.16-4.5-1.18-6.96-5.2-12.52-13.23-24.54-18.55-37.83-27.52-68.78-37.54-164.8,38.52-204.52.85-.45,1.64-.83,2.51-1.25,26.52-12.8,49.91-14.52,78.93-7.52-25.08-11.17-58.33-12.49-83.92-1.86Z"/><path class="cls-3" d="M150.04,107.23c-6.93,1.5-14.95,5.88-21.31,9.38-2.09,1.15-6.63,2.63-6.25,5.66-7.28-4.1-9.99,2.26-10.02,8.77,0,.41-.06.86,0,1.25-4.58,2.18-15.7,14.53-17.33,2.84-1.03-7.4,20.29-28.49,27.35-29.15,2.31-.22,4.14,3.01,6.86-1.34.79-1.27.39-3.21.66-3.68,1-1.71,13.37-3.71,16.02-2.97,5.88,1.65,3.6,4.63,4.03,9.23Z"/><path class="cls-3" d="M79.88,174.89c4.4.12,5.8-5.91,1.25-5.01.22-.37.17-6.21.82-8.58,1.65-6,3.71-18.31,12.16-17.41,11.78,1.25,2.47,15.09.77,20.32-1.9,5.87-3.67,11.8-4.64,17.91s-1.01,24.09-2.99,27.08c-.74,1.11-1.39,2.37-2.95,1.99-4.14-.88-5.55-14.33-5.73-18.09-.31-6.54,1.46-12.64,1.3-18.22Z"/><path class="cls-3" d="M185.12,105.98c-.34,7.09-5.39,12.31-12.53,8.77-7.91-10.87,7.53-21.94,12.53-8.77Z"/><path class="cls-3" d="M122.48,122.27c3.68,2.07,3.04,4.14,3.76,7.52-4.3,6.05-8.55,6.66-13.78,1.25.03-6.51,2.74-12.87,10.02-8.77Z"/><path class="cls-3" d="M99.93,275.11c.9,7.24-1.05,11.07-8.77,10.02-6.24-6.92.32-16.56,8.77-10.02Z"/><circle class="cls-3" cx="204.82" cy="101.27" r="5.55"/><path class="cls-3" d="M112.46,132.29c-.06-.4,0-.85,0-1.25,5.23,5.4,9.48,4.8,13.78-1.25.19.87,1.2,1.86,1.24,3.23.24,7.61-13.51,10.09-15.02-.73Z"/><circle class="cls-3" cx="124.36" cy="309.56" r="4.78"/><path class="cls-3" d="M124.99,97.21c2.47.09,4.06,1.59,5.01,3.76-.27.46.13,2.41-.66,3.68-2.72,4.35-4.55,1.12-6.86,1.34-.84-2.55-1.82-5.16,0-7.52.85-.45,1.64-.83,2.51-1.25Z"/><path class="cls-3" d="M150.04,107.23c1.89-.41,5.05-2.83,6.96-.07,2.84,4.09-1.34,10.25-5.8,7.06-1.85-1.33-.98-4.99-1.16-6.98Z"/><circle class="cls-3" cx="106.98" cy="244.89" r="4.42"/><circle class="cls-3" cx="95.83" cy="187.08" r="4.31"/><path class="cls-3" d="M91.16,285.13c7.72,1.05,9.67-2.78,8.77-10.02,8.37,6.48-2.39,17.09-8.77,10.02Z"/><path class="cls-3" d="M172.59,114.75c7.14,3.54,12.19-1.68,12.53-8.77,3.82,10.08-6.83,16.59-12.53,8.77Z"/><path class="cls-3" d="M111.07,315.07c-.14.22-4.03,1.81-4.92.84-5.97-11.85,8.68-6.9,4.92-.84Z"/><rect class="cls-3" x="82.98" y="219.32" width="6.35" height="6.35" transform="translate(-132.09 126.08) rotate(-45)"/><circle class="cls-3" cx="89.28" cy="240.65" r="3.24"/><circle class="cls-3" cx="122.47" cy="291.99" r="2.85"/><path class="cls-3" d="M81.14,169.87c4.55-.89,3.15,5.13-1.25,5.01-.01-.36-1.91-2.03-1.34-4.22.33-1.26,2.52-.67,2.59-.79Z"/><path class="cls-2" d="M187.29,424.82c.19.05.39.1.58.15l9.05.24c-2.96-.56-5.62-.92-7.55-.87-.72.02-1.42.2-2.08.48Z"/><path class="cls-2" d="M274.62,427.3l-77.7-2.09c6.67,1.25,14.94,3.46,20.24,4.04,11.87,1.3,25.52,2.04,37.42,1.4,5.49-.3,12.92-2,19.37-3.03.22-.12.44-.22.67-.32Z"/><path class="cls-1" d="M172.96,420.48c.46.22.93.44,1.4.67,3.28,1.39,6.77,2.22,10.25,3.03l-11.64-3.7Z"/><path class="cls-4" d="M413.75,291.65c-6.17,9.45,3.89,13.92,5.37,15.3,3.01-6.47,5.1-13.04,6.27-20.48-1.36.97-7.58-1.03-11.64,5.19Z"/><path class="cls-3" d="M398.63,83.67c-35.96-30.89-96.07-31.08-137.99-12.78-12.44,5.43-23.18,13.42-34.85,20.17-42.36-23.35-93.33-33.8-136.32-5.93-24.76,16.05-40.61,41.53-47.46,69.93-7.05,29.21-5.51,60.17.44,89.43,2.98,14.65,7.43,28.97,12.83,42.9,3.48,8.96,6.62,18.29,11.25,26.73,5.43,9.91,10.63,21.76,17.99,30.6,1.96,2.36,4.4,4.8,5.13,7.89.58,2.47-1.88,6.89-2.16,9.9-1.03,10.99,2.73,25.93,15.6,27.97,4.85.77,12.36-1.51,14.7-.96,2.27.53,4.93,3.49,6.72,4.86,3.76,2.91,7.49,5.87,11.3,8.71,29.44,21.94,68.71,27.16,104.44,27.74,10.4.17,20.48-.96,30.76-2.52,3.58-.54,7.17-1.09,10.75-1.63,16.23-2.46,33.82-8.15,48.76-14.94,8.66-3.93,17.02-8.54,24.96-13.77,15.78-10.39,29.94-23.24,41.71-38.02.11-.14.22-.27.33-.41,7.74-9.79,14.43-20.4,19.9-31.63,6.13-12.58,11.14-26.61,15.19-39.97,19.91-65.69,22.23-156-33.96-204.28ZM66.71,296.57c-28.65-67.44-40.91-179.1,41.95-213.54,25.59-10.64,58.83-9.32,83.92,1.86,3.74.9,25.71,9.32,26.31,11.93-4.17,6.47-10.46,11.35-14.83,17.73-4.27,6.23-6.45,13.05-10.24,19.21-6.41,10.43-9.07,3.52-17.79.88-25.41-7.69-47.14,3.78-57.2,27.49-18.73,44.16-1.61,101.47,26.13,138.23-18.15,11.3-37.58,23.63-50.11,41.37-.24.34.2,1.77,0,2.5h-1.87c-.52-.18-.42-1.07-.63-1.25-7.67-6.81-21.22-35.98-25.64-46.4ZM237.7,238.98c9.02,6.12,18.59,4.85,28.79,5.01,4.16.07,8.36-.06,12.52,0l-3.77,13.77c-2.08,1.83-9.44-4.29-11.26-5.01-11.1-4.4-17.37-3.6-28.21-5.01-5.04-.66,2.7-5.38,1.92-8.78ZM307.83,246.49c-4.35-1.04-3.81,2.13-6.2,4.42-5.35,5.14-12.06,10.88-20.12,8.72,2.42-3.81,3.8-14.01,5.7-16.85,1.21-1.82,7.62-3.9,9.98-6.3,5.55-5.65,6.2-16.24,6.9-23.79l29.27,2.65c2.84.95,1.35,7.49,7.68,7.48,7.32-.02,7.13-11.04,3.71-15.1-4.51-5.36-31.39-9.58-32.99-11.49-.8-.96.12-8.3-2.22-9.97-3.49-2.49-17.05-2.51-19.03-3.85-1.63-1.1-9.36-32.35-16.47-35.51,20.44-11.29,47.18-22.48,65.76-1.89,24.01,26.61,14.03,84.74,3.14,115.92-2.36,6.75-13.54,33.45-18.13,37.06-1.38,1.09-1.55,1.04-3.2.63-7.13-1.77-18.34-12.63-26.3-14.55-1.09-1.49,7.31-9.16,8.81-11.84,4.63-8.32,3.85-16.56,3.71-25.73ZM258.96,235.89l-11.25-.67c-1.06-.9,2.52-4.98,3.28-6.1,8.66-12.79,19.15-24.48,27.93-37.2,3.59-3.81,8.19-.28,12.63-.52l-32.59,44.5ZM276.51,165.07c2.58,5.23,5.17,10.47,6.26,16.28-9.16.23-18.4-.29-27.56,0-5.18.17-8.76.79-13.77,1.92-1.39.31-1.79,1.5-1.28-1.3,1.3-7.14,20.66-32.78,28-30.58,2.26.68,7.02,10.99,8.34,13.67ZM263.37,191.39l8.77-2.49c-6.24,11.21-14.58,22.33-22.67,32.44-4.16,5.19-10.02,14.99-11.23,2.65l25.13-32.59ZM247.7,289.1l-3.75,3.74c2.07-.07,4.19.15,6.26.01,1.01-.07,2.86-2.73,6.28-.65,8.21,4.99-4.53,14.34-8.78,16.94-16.16,9.87-34.73,7.62-50.11-2.51-3.86-2.55-6.02-1.49-5.02-8.77l11.28,1.25c3.53-.17,7.12.15,10.67,0,1.52-.06,4.65.95,4.36-1.24-8.49-1.06-19.21-1.11-27.31-3.39-2.09-.59-4.49-1.3-4-4.13,5.42-.63,11.87-1.82,16.95-3.72,3.69-1.38,11.97-7.23,13.96-7.33,2.39-.13,22.4,13,29.22,9.8ZM276.51,336.72c1.16,1.73-15.45,7.81-17.27,8.39-20.17,6.36-46.44,9.33-65.4-1.52,5.32-2.78,10.56-6.09,15.42-9.62,3.76-2.73,14.82-13.11,17.16-14.16,4.11-1.84,13.31-.89,18.17-3.92l31.92,20.83ZM231.82,238.77c-.94,3.08-6.7,11.94-9.53,13.11-3.03,1.25-4.38-.27-6.31.04-2.66.43-4.66,4.33-9.27.47-.89-.75-4.14-6.45-3.93-7.58.49-2.6,6.6-5.33,8.31-7.97,1.91-2.95,5.87-13.84,2.15-16.63-.55,6.97-3.88,12.8-8.13,18.17-1.26,1.58-4.09,1.93-4.82,3.97-1.62,4.5,2.83,6.64-7.15,5.48-11.27-1.32,6.54-9.09,10-13.92,4.66-6.51,5.3-20.92,12.91-22.27,10.13-1.8,11.03,8.95,13.47,16.09,1.61,4.7,4.51,3.82,2.29,11.05ZM163.74,235.89c-2.37,1.48-8.16-.47-10.65-1.91l30.72-41.96c4.1-1.7,8.5-.41,12.52.63l-32.59,43.24ZM161.25,287.86c.54.59.17,1.73-.78,2.59-2.31,2.09-9.56,6.12-12.34,3.65-3.55-3.14-11.98-19.53-14.25-24.61-6.67-14.87-10.9-30.83-13.96-46.79,10.25,1.98,6.13-5.46,7.68-7.35.2-.24,5.89-1.66,6.09-1.42-.18,13.02,3.06,23.68,16.33,28.15,5.23,1.76,15.02,2.93,20.69,3.23,2.53.13,5.54-1.64,7.27-1.18,2.3.62,4.28,6.74,3.17,8.48-.42.66-12.6,6.03-14.18,6.48-10.52,2.97-15.82.02-23.31-6.91-2.4-2.22-1.79-5.51-6.19-4.43-2.48,18.75,4.74,34.91,23.79,40.11ZM148.7,228.31c-4.19,5.47-6.05-2.6-4.06-6.53l23.52-30.38c2.44-2.3,6.24-1.06,9.37-1.26l-28.84,38.17ZM175.39,158.53l-4.24,22.69c-9.37,1.53-35.89,1.46-43,6.49-4.03,2.85-2.68,10.16,1.78,12.42-4.24.59-7.88,2.56-11.26,5.03-2.81-36.69,19.42-81.31,62.08-60.17l-5.36,13.54ZM110.18,385.32c-8.24,1.16-17.21-6.41-16.58-14.79.03-.41-.08-.87,0-1.25-2.16-2.71-.27-8.35.6-11.3,3.7-12.47,12.91-22.96,22.54-31.33,9.27-8.05,40.89-30.68,51.31-35.14,2.74-1.17,3.99-1.38,6.98-1.16,6.24.46,4.14,1.76,6.26,5.01,1.31,2.01,2.62,4.75,3.76,6.26,2.82,3.75,13.3,12.05,17.54,13.78,2.17.89,15.06,2.52,15.01,4.38-20.48,19.62-47.94,29.03-71.77,43.46-8.97,5.44-26.68,20.8-35.65,22.07ZM172.8,412.23c-17.66-5.66-34.69-13.99-47.84-27.29,5.35-5.22,11.38-9.59,17.61-13.68,9.49-6.23,31.39-18.98,41.59-22.32,7.1-2.32,5.8,1.06,9.67,2.79,7.22,3.24,15.46,5.29,22.55,6.26,23.42.44,46.83-4.48,67.24-16.05,2.41-.14,3.8,2.61,5.42,3.53,10.57,5.97,55.17,36.3,61.06,37.29,4.29.72,8.71-.4,12.85.92-54.34,41.1-125.81,49.19-190.15,28.55ZM351.61,377.48c-7.86-1.64-21.03-13.8-28.84-18.75-23.66-15.02-48.28-28.54-71.29-44.61-1-4.1,5.49-5.41,6.25-6.24.25-.27.3-2.06,1.21-3.12,4.02-4.69,6.91-7.39,8.75-13.85,6.21-.04,11.7-1.95,17.6-3.08.2-.04.72-1.25,1.85-1.23,1.6.02,18.32,11.25,21.93,13.16,21.37,11.35,38.95,16.17,57.11,33.08,2.35,2.18,4.8,5.67,5.55,8.86,14.08,16.83,2.85,40.56-20.12,35.77ZM432.5,259.04c-.7,3.47-5.96,26.5-7.06,27.4-.01.01-.03.02-.05.03-1.17,7.45-3.25,14.02-6.27,20.48.13.12.2.22.18.29-1.12,4.13-5.88,12.7-8.09,16.96-7.35,14.15-17.13,28.75-28.2,40.06,1.72-33.64-26.03-45.94-50.12-60.13-.41-.24-1.75.19-2.5,0,3.69-7.92,8.96-15.85,12.75-24.2,18.06-39.87,28.83-98.24,4.79-137.4-4.42-4.57-9.69-9.01-15.03-12.53l-15.03-5c15.89-3.37,24.63-3.77,37.58,6.25,3.56,2.75,6.37,6.15,10.01,8.77-3.42-11.07-13.35-14.36-22.54-18.79-16.99-3.53-34.61,3.15-50.42,9.08-26.87,10.08-40.69,18.37-55.28,43.69-2.18,3.78-2.9,8.59-5.22,12.32-1.41,2.27-7.05,8.48-9.35,8.82-1.45.22-10.03,1.16-10.54,1.04-1.4-.33-5.14-7.14-7-8.56-1.83-1.41-4.15-1.77-6.26-2.51-6.33-2.2-9.5-1.51-15.03-2.51-1.36-.24-3.13-1.44-4.86-1.39-2.4-2.71,4.15-24.81,6.55-28.86,3.35-5.65,8.78-7.84,11.91-11.9,10.68-13.85,11.09-23.86,27.14-38,37.12-32.69,92.61-47.03,139.65-28.85,13.18,2.84,22.79,9.88,32.57,18.79,44.35,40.4,46.88,111.39,35.72,166.63Z"/><path class="cls-4" d="M413.41,127.77l-16.63-35.37c-9.79-8.92-19.4-15.95-32.57-18.79-67.77-14.6-128.32,14.86-167.12,69.03-8.29,11.57-12.51,25.82-13.28,39.96,5.53,1,8.71.31,15.03,2.51-1.91-9.54,10.01-43.65,19.48-45.13,2.99-.47,5.63.11,5.58,3.79.4,0,.86-.07,1.25,0,8.47,1.49,2.15,14.22-5.01,8.77-5.05,3.01-13.87,28.34-15.03,35.08,1.85,1.42,5.59,8.23,7,8.56.52.12,9.09-.82,10.54-1.04.93-50.31,64.55-95.84,111.84-78.64,3.46,1.26,5.75,3.43,8.43,4.73,9.18,4.43,19.12,7.72,22.54,18.79-3.64-2.62-6.45-6.02-10.01-8.77-7.19-.9-15.39-4.92-22.55-1.25,5.34,3.52,10.61,7.96,15.03,12.53,37.61,38.83,16.62,118.82-12.53,157.85,16.24,6.34,31.5,15.75,43.22,28.79,36.91-53.63,56.59-138.79,34.79-201.39ZM270,112.76c-2.13,0-3.85-1.73-3.85-3.85s1.73-3.85,3.85-3.85,3.85,1.73,3.85,3.85-1.73,3.85-3.85,3.85ZM329.41,102.57c-2.51,0-4.54-2.03-4.54-4.54s2.03-4.54,4.54-4.54,4.54,2.03,4.54,4.54-2.03,4.54-4.54,4.54ZM340.29,87.28c-1.64,2.44-23.38,1-28.05,1.38-8.59.7-17.44,4.68-25.7,4.99,3.88,9.24-3.29,13.71-8.77,5.01-.53.71-13.11,5.1-16.31,6.86-3.46,1.91-18.08,11.77-20.02,11.93,1.03,8.28-7.87,9.61-7.52,0,.22-5.91,6.27-11.41,10.68-15.01,17.51-14.3,50.74-26.14,73.26-26.34,1.25-.01,2.52-.06,3.76,0,4.29.21,23.69,3.73,18.68,11.16ZM351.05,104.92c-3.46,0-6.26-2.8-6.26-6.26s2.8-6.26,6.26-6.26,6.26,2.8,6.26,6.26-2.8,6.26-6.26,6.26ZM362.01,105.24c-2.11,0-3.81-1.71-3.81-3.81s1.71-3.81,3.81-3.81,3.81,1.71,3.81,3.81-1.71,3.81-3.81,3.81ZM392.38,104.95c5.59,1.66-.85,11.06-4.37,7.5-.88-.89-.47-8.93,4.37-7.5ZM358.97,308.86c-2.2,0-3.98-1.78-3.98-3.98s1.78-3.98,3.98-3.98,3.98,1.78,3.98,3.98-1.78,3.98-3.98,3.98ZM362.35,295.35c-3.13-1.59-1.24-5.93-1.9-7.51-.14-.33-3.26-.52-4.21-2.83-2.8-6.82,4.17-11.15,9.22-5.94.78-3.17,7.79-24.71,8.69-25.75,3.02-3.48,9.56-1.69,9.89,2.91.14,1.98-.98,2.45-1.04,2.8-.73,4.46-1.4,4.38-2.51,7.52-3.66,10.35-8.42,22.82-18.15,28.81ZM385.68,300.97c-5.79,6.67-15.01,1.79-10.2-8.11,2.93-6.04,13.44-6.25,10.02,6.26-.02.09,1.28.57.17,1.85ZM385.52,219.59c-5.66,6.39-16.12-7.74-7.94-10.51,5.96-2.02,12.29,5.61,7.94,10.51ZM380.5,126.23c-.06-9.23,10.14-11,12.53-1.25.07.28,1.16.84,1.26,1.95.79,9.4-13.7,12.51-13.79-.7ZM391.4,186.18c-4.28-1.03-2.9-3.77-2.14-6.08,2.66-8.05,11.08-7.05,7.52,2.51-.88,2.35-1.29,4.56-5.38,3.57ZM401.17,233.77c-2.5,0-4.53-2.03-4.53-4.53s2.03-4.53,4.53-4.53,4.53,2.03,4.53,4.53-2.03,4.53-4.53,4.53ZM402.64,149.93c0-3.34,2.71-6.05,6.05-6.05s6.05,2.71,6.05,6.05-2.71,6.05-6.05,6.05-6.05-2.71-6.05-6.05ZM414.94,208.77c-2.01,0-3.63-1.63-3.63-3.63s1.63-3.63,3.63-3.63,3.63,1.63,3.63,3.63-1.63,3.63-3.63,3.63Z"/><path class="cls-4" d="M281.53,350.48l43.89,24.38c1,.61,1.74,2.37,1.2,3.15-.7,1.01-18.91,10.25-21.7,11.52-51.91,23.58-115.35,24.28-166.19-2.1,13.22-14.22,32.79-18.81,48.73-28.92,2.63-1.67,6.23-3.16,6.37-6.78,7.22,3.24,15.46,5.29,22.55,6.26,21.12,2.9,45.06.99,65.15-7.52ZM265.24,364.26c-1.65.59-4.42-1.05-6.92,1.22-4.61,4.2-1.19,16.31,10.68,5.04,2.65-2.51,6.81-3.76,4.46-8.84-4.46-4.46-7.5,2.32-8.22,2.58ZM206.52,365.69c-2.9,4.55,3.53,11.16,6.77,4.83,2.62-5.12-5.01-7.59-6.77-4.83ZM302.82,380.55c5.14,5.26,9.81-1.09,8.19-5.02-1.25-3.01-2.98-1.19-3.17-1.25-2.33-.61-4.62-2.63-6.97-.07-1.93,3.88.06,4.4,1.96,6.34ZM182.55,390.57c4.74,4.17,9.73,2.76,10.02-3.76.7-15.44-22.07-6.85-10.02,3.76ZM164.85,387.89c2.9-4.55-3.53-11.16-6.77-4.83-2.62,5.12,5.01,7.59,6.77,4.83ZM242.69,391.82c4.98,6.75,12.68,3.85,10.02-3.76-3.83-10.94-16.22-4.64-10.02,3.76Z"/><path class="cls-4" d="M350.1,382.76c-5.89-.99-50.49-31.32-61.06-37.29-1.89,1.33-5.68,4.23-7.52,5.01l43.89,24.38c1,.61,1.74,2.37,1.2,3.15-.7,1.01-18.91,10.25-21.7,11.52-51.91,23.58-115.35,24.28-166.19-2.1,13.22-14.22,32.79-18.81,48.73-28.92,2.63-1.67,6.23-3.16,6.37-6.78-3.87-1.73-2.56-5.12-9.67-2.79-10.21,3.34-32.1,16.09-41.59,22.32-6.23,4.09-12.26,8.46-17.61,13.68,13.16,13.3,30.19,21.63,47.84,27.29,64.34,20.64,135.81,12.55,190.15-28.55-4.14-1.32-8.56-.2-12.85-.92ZM236.33,421.95c-2.63,0-4.76-2.13-4.76-4.76s2.13-4.76,4.76-4.76,4.76,2.13,4.76,4.76-2.13,4.76-4.76,4.76ZM297.19,404.68c-1.56,0-2.83-1.27-2.83-2.83s1.27-2.83,2.83-2.83,2.83,1.27,2.83,2.83-1.27,2.83-2.83,2.83Z"/><path class="cls-4" d="M411.22,324.2c2.21-4.26,6.97-12.83,8.09-16.96.25-.91-12.27-5.31-5.55-15.59,4.1-6.28,10.41-4.17,11.69-5.22,1.09-.9,6.36-23.93,7.06-27.4,11.17-55.25,8.63-126.23-35.72-166.63l16.63,35.37c21.8,62.6,2.12,147.76-34.79,201.39-11.72-13.04-26.99-22.45-43.22-28.79-.17.23-3.84-.75-2.51,3.76,24.09,14.2,51.84,26.5,50.12,60.13,11.07-11.31,20.86-25.91,28.2-40.06ZM419.07,265.44c2.83,0,5.12,2.29,5.12,5.12s-2.29,5.12-5.12,5.12-5.12-2.29-5.12-5.12,2.29-5.12,5.12-5.12Z"/><path class="cls-4" d="M285.28,287.84c8.07,5.45,15.84,11.48,24.21,16.5,19.97,11.99,38.03,16.65,55.97,32.36,4.08,8.74,3.35,18.71-5.38,24.06-16.92,10.37-26.13-3.87-38.58-12.04-21.07-13.84-42.93-26.65-63.78-40.83.25-.27.3-2.06,1.21-3.12,4.02-4.69,6.91-7.39,8.75-13.85,6.21-.04,11.7-1.95,17.6-3.08ZM288.88,302.86c0-2.36-1.92-4.28-4.28-4.28s-4.28,1.92-4.28,4.28,1.92,4.28,4.28,4.28,4.28-1.92,4.28-4.28ZM299.06,314.15c5.53,13.04,12.94-1.64,6.76-3.66-4.28-1.4-4.7,2.06-6.76,3.66-.62-1.46-.63-3.4-1.36-4.89-9.83-1.92-6.81,11.27,1.36,4.89ZM315.35,321.67c-4.98,5.02-1.97,9.07,4.29,7.58,1.48-.35.44-1.85.72-2.57,2.31-6.1.48-10.56-5.01-5.01ZM354.11,337.85c0-2.67-2.16-4.83-4.83-4.83s-4.83,2.16-4.83,4.83,2.16,4.83,4.83,4.83,4.83-2.16,4.83-4.83ZM325.51,338.38c0-1.71-1.38-3.09-3.09-3.09s-3.09,1.38-3.09,3.09,1.38,3.09,3.09,3.09,3.09-1.38,3.09-3.09ZM339.8,345.48c-2.08.46-4.71,5.32-1.26,6.25,5.65,1.52,5.4-7.17,1.26-6.25Z"/><path class="cls-4" d="M181.3,295.36c-8.52,8.98-60.42,33.24-61.24,43.41-.15,1.84,1.25,3,2.99,2.99,1.1,0,15.19-10.76,18.16-12.57-4.68,19.4,21.03,8.1,3.76-1.25,3.35-2.01,24.3-13.77,25.06-15.03,5.88,4.91,9.87,2.78,8.77-5.01.47-.05,7.47-4.71,6.26-6.26,2.82,3.75,13.3,12.05,17.54,13.78-20.73,18.19-50.97,26.02-72.01,42.62-4.6,3.63-7.72,9.01-13.12,11.94-8.9,4.83-14.75,2.95-23.87.56.03-.41-.08-.87,0-1.25.91-4.45,6.98-15.51,9.74-19.7,16.51-25.06,49.8-39.39,73.54-56.71l-1.85-2.52c6.24.46,4.14,1.76,6.26,5.01ZM171.38,328.55c0-1.79-1.45-3.24-3.24-3.24s-3.24,1.45-3.24,3.24,1.45,3.24,3.24,3.24,3.24-1.45,3.24-3.24ZM117.41,355.49c1.79,2.3,1.34,7.05,7.6,4.47,4.96-8.48-3.19-7.54-3.84-8.23-.35-.36-1.53-9.44-6.35-3.23-3.48,4.49,1.09,5.06,2.59,6.99Z"/><path class="cls-4" d="M93.61,370.53c9.12,2.38,14.96,4.27,23.87-.56,5.4-2.93,8.52-8.31,13.12-11.94,21.04-16.6,51.28-24.44,72.01-42.62,2.17.89,15.06,2.52,15.01,4.38-20.48,19.62-47.94,29.03-71.77,43.46-8.97,5.44-26.68,20.8-35.65,22.07-8.24,1.16-17.21-6.41-16.58-14.79Z"/><path class="cls-4" d="M342.91,121.22c-16.99-3.53-34.61,3.15-50.42,9.08-26.87,10.08-40.69,18.37-55.28,43.69-2.18,3.78-2.9,8.59-5.22,12.32-1.41,2.27-7.05,8.48-9.35,8.82.93-50.31,64.55-95.84,111.84-78.64,3.46,1.26,5.75,3.43,8.43,4.73Z"/><path class="cls-4" d="M257.72,307.89c20.85,14.19,42.7,26.99,63.78,40.83,12.45,8.17,21.66,22.42,38.58,12.04,8.73-5.35,9.46-15.32,5.38-24.06,1.78,1.56,3.96,2.26,6.26,5.01,14.08,16.83,2.85,40.56-20.12,35.77-7.86-1.64-21.03-13.8-28.84-18.75-23.66-15.02-48.28-28.54-71.29-44.61-1-4.1,5.49-5.41,6.25-6.24Z"/><path class="cls-2" d="M203.85,299.12c3.53-.17,7.12.15,10.67,0,1.52-.06,4.65.95,4.36-1.24-8.49-1.06-19.21-1.11-27.31-3.39-2.09-.59-4.49-1.3-4-4.13,5.42-.63,11.87-1.82,16.95-3.72,3.69-1.38,11.97-7.23,13.96-7.33,2.39-.13,22.4,13,29.22,9.8l-3.75,3.74c2.07-.07,4.19.15,6.26.01,2.66,5.74-.5,10.9-2.51,16.29-16.16,9.87-34.73,7.62-50.11-2.51v-7.52c2.07-.08,4.18.11,6.26,0Z"/><path class="cls-4" d="M364.21,73.61c-67.77-14.6-128.32,14.86-167.12,69.03-8.29,11.57-12.51,25.82-13.28,39.96-1.36-.24-3.13-1.44-4.86-1.39-2.4-2.71,4.15-24.81,6.55-28.86,3.35-5.65,8.78-7.84,11.91-11.9,10.68-13.85,11.09-23.86,27.14-38,37.12-32.69,92.61-47.03,139.65-28.85Z"/><path class="cls-4" d="M206.71,252.39c-.89-.75-4.14-6.45-3.93-7.58.49-2.6,6.6-5.33,8.31-7.97,1.91-2.95,5.87-13.84,2.15-16.63-.55,6.97-3.88,12.8-8.13,18.17-1.26,1.58-4.09,1.93-4.82,3.97-1.62,4.5,2.83,6.64-7.15,5.48-11.27-1.32,6.54-9.09,10-13.92,4.66-6.51,5.3-20.92,12.91-22.27,10.13-1.8,11.03,8.95,13.47,16.09,1.61,4.7,4.51,3.82,2.29,11.05-.94,3.08-6.7,11.94-9.53,13.11-3.03,1.25-4.38-.27-6.31.04-2.66.43-4.66,4.33-9.27.47ZM211.37,240.24c-.88.89-.47,8.93,4.37,7.5,5.59-1.66-.85-11.06-4.37-7.5Z"/><path class="cls-4" d="M335.4,300.37c-.17.23-3.84-.75-2.51,3.76-.41-.24-1.75.19-2.5,0,3.69-7.92,8.96-15.85,12.75-24.2,18.06-39.87,28.83-98.24,4.79-137.4,37.61,38.83,16.62,118.82-12.53,157.85Z"/><path class="cls-4" d="M175.04,290.35l1.85,2.52c-23.74,17.32-57.03,31.65-73.54,56.71-2.76,4.19-8.83,15.25-9.74,19.7-2.16-2.71-.27-8.35.6-11.3,3.7-12.47,12.91-22.96,22.54-31.33,9.27-8.05,40.89-30.68,51.31-35.14,2.74-1.17,3.99-1.38,6.98-1.16Z"/><path class="cls-4" d="M185.06,301.62c1.21,1.55-5.79,6.21-6.26,6.26-.74.08-3-2.33-6.27-.68-2.92,1.48-1.9,4.69-2.5,5.69-.76,1.26-21.7,13.02-25.06,15.03-.75.45-2.51.49-3.76,1.25-2.96,1.81-17.05,12.56-18.16,12.57-1.74.01-3.14-1.15-2.99-2.99.81-10.17,52.72-34.43,61.24-43.41,1.31,2.01,2.62,4.75,3.76,6.26Z"/><path class="cls-4" d="M276.51,165.07c-5.17-1.46-6.27,1.15-8.58,2.89-5.96,2.74-10.24,6.92-12.72,13.4-5.18.17-8.77.79-13.77,1.92-1.39.31-1.79,1.5-1.28-1.3,1.3-7.14,20.66-32.78,28-30.58,2.26.68,7.01,10.99,8.34,13.67Z"/><path class="cls-4" d="M223.9,143.77c-8.14-.12-8.53,4.51-2.51,8.77-.31.19-.94-.18-1.25,0-5.05,3.01-13.87,28.34-15.03,35.08-1.83-1.41-4.15-1.77-6.26-2.51-1.91-9.54,10.01-43.65,19.48-45.13,2.99-.47,5.63.11,5.58,3.79Z"/><path class="cls-4" d="M285.28,287.84c.2-.04.72-1.25,1.85-1.23,1.6.02,18.32,11.25,21.93,13.16,21.37,11.35,38.95,16.17,57.11,33.08,2.35,2.18,4.8,5.67,5.55,8.86-2.3-2.75-4.49-3.45-6.26-5.01-17.94-15.71-35.99-20.37-55.97-32.36-8.37-5.02-16.15-11.05-24.21-16.5Z"/><path class="cls-4" d="M291.55,191.39l-32.59,44.5-11.25-.67c-1.06-.9,2.52-4.98,3.28-6.1,8.66-12.79,19.15-24.48,27.93-37.2,3.59-3.81,8.19-.28,12.63-.52Z"/><path class="cls-4" d="M196.33,192.64l-32.59,43.24c-2.37,1.48-8.16-.47-10.65-1.91l30.72-41.96c4.1-1.7,8.5-.41,12.52.63Z"/><path class="cls-4" d="M177.54,190.14l-28.84,38.17c-4.19,5.47-6.05-2.6-4.06-6.53l23.52-30.38c2.44-2.3,6.24-1.06,9.37-1.26Z"/><path class="cls-4" d="M272.14,188.9c-6.24,11.21-14.58,22.33-22.67,32.44-4.16,5.19-10.02,14.99-11.23,2.65l25.13-32.59,8.77-2.49Z"/><path class="cls-4" d="M289.04,345.47c-1.89,1.33-5.68,4.23-7.52,5.01-20.09,8.51-44.03,10.42-65.15,7.52,23.42.44,46.83-4.48,67.24-16.05,2.41-.14,3.8,2.61,5.42,3.53Z"/><path class="cls-4" d="M276.51,165.07c2.58,5.23,5.17,10.47,6.26,16.28-9.16.23-18.4-.29-27.56,0,2.48-6.47,6.76-10.66,12.72-13.4-2.52,1.26-3.54,4.33-2.28,6.85s4.33,3.54,6.85,2.28,3.54-4.33,2.28-6.85-4.33-3.54-6.85-2.28c2.3-1.74,3.41-4.35,8.58-2.89Z"/><path class="cls-4" d="M266.49,243.99l-2.51,8.77c-11.1-4.4-17.37-3.6-28.21-5.01-5.04-.66,2.7-5.38,1.92-8.78,9.02,6.12,18.59,4.85,28.79,5.01Z"/><path class="cls-4" d="M266.49,243.99c4.16.07,8.36-.06,12.52,0l-3.77,13.77c-2.08,1.83-9.44-4.29-11.26-5.01l2.51-8.77Z"/><path class="cls-4" d="M355.44,131.24c-7.19-.9-15.39-4.92-22.55-1.25l-15.03-5c15.89-3.37,24.63-3.77,37.58,6.25Z"/><path class="cls-5" d="M247.7,309.14c2.01-5.38,5.17-10.54,2.51-16.29,1.01-.07,2.86-2.73,6.28-.65,8.21,4.99-4.53,14.34-8.78,16.94Z"/><path class="cls-5" d="M203.85,299.12c-2.08.1-4.19-.08-6.27,0v7.52c-3.86-2.55-6.01-1.49-5.01-8.77l11.28,1.25Z"/><path class="cls-4" d="M317.86,76.12c-5.44,9.44,7.87,8.44,3.76,0,4.29.21,23.69,3.73,18.68,11.16-1.64,2.44-23.38,1-28.05,1.38-8.59.7-17.44,4.68-25.7,4.99-1.13.04-3.07-2.35-6.27-.68-2.87,1.49-2.05,5.09-2.5,5.69-.53.71-13.11,5.1-16.31,6.86-3.46,1.91-18.08,11.77-20.02,11.93-1.8.15-5.11-2.47-7.52,0,.22-5.91,6.27-11.41,10.68-15.01,17.51-14.3,50.74-26.14,73.26-26.34Z"/><path class="cls-4" d="M365.46,279.07c.78-3.17,7.79-24.71,8.69-25.75,3.02-3.48,9.56-1.69,9.89,2.91.14,1.98-.98,2.45-1.04,2.8-10.3-9.49-15.65,8.15-2.51,7.52-3.66,10.35-8.42,22.82-18.15,28.81-3.13-1.59-1.24-5.93-1.9-7.51,6.63-1.63,4.06-4.9,5.01-8.77Z"/><circle class="cls-5" cx="351.05" cy="98.66" r="6.26"/><path class="cls-4" d="M377.58,209.08c5.96-2.02,12.29,5.61,7.94,10.51-5.66,6.39-16.12-7.74-7.94-10.51Z"/><path class="cls-5" d="M380.5,126.23c-.06-9.23,10.14-11,12.53-1.25-.94,6.81-9.57,6.89-12.53,1.25Z"/><circle class="cls-4" cx="408.69" cy="149.93" r="6.05"/><path class="cls-5" d="M385.51,299.12c-6.03,3.35-10.06.48-10.02-6.26,2.93-6.04,13.44-6.25,10.02,6.26Z"/><path class="cls-4" d="M383,259.03c-.73,4.46-1.4,4.38-2.51,7.52-13.14.64-7.8-17,2.51-7.52Z"/><path class="cls-4" d="M365.46,279.07c-.96,3.87,1.62,7.14-5.01,8.77-.14-.33-3.26-.52-4.21-2.83-2.8-6.82,4.17-11.15,9.22-5.94Z"/><path class="cls-5" d="M286.54,93.66c3.88,9.24-3.29,13.71-8.77,5.01.45-.61-.37-4.2,2.5-5.69,3.2-1.66,5.13.73,6.27.68Z"/><path class="cls-4" d="M380.5,126.23c2.96,5.64,11.59,5.55,12.53-1.25.07.28,1.16.84,1.26,1.95.79,9.4-13.7,12.51-13.79-.7Z"/><circle class="cls-4" cx="329.41" cy="98.03" r="4.54"/><circle class="cls-5" cx="401.17" cy="229.24" r="4.53"/><path class="cls-5" d="M223.9,143.77c.4,0,.86-.07,1.25,0,3.42,6.61.07,6.45-3.76,8.77-6.02-4.26-5.63-8.89,2.51-8.77Z"/><path class="cls-5" d="M396.78,182.61c-3.25.1-6.07.94-7.52-2.51,2.66-8.05,11.08-7.05,7.52,2.51Z"/><circle class="cls-4" cx="358.97" cy="304.88" r="3.98"/><path class="cls-4" d="M241.44,117.46c1.03,8.28-7.87,9.61-7.52,0,2.4-2.47,5.71.15,7.52,0Z"/><path class="cls-4" d="M385.51,299.12c-.02.09,1.28.57.17,1.85-5.79,6.67-15.01,1.79-10.2-8.11-.04,6.74,3.99,9.61,10.02,6.26Z"/><circle class="cls-5" cx="270" cy="108.91" r="3.85"/><circle class="cls-4" cx="362.01" cy="101.43" r="3.81"/><path class="cls-4" d="M388.02,112.45c-.88-.89-.47-8.93,4.37-7.5,5.59,1.66-.85,11.06-4.37,7.5Z"/><circle class="cls-4" cx="414.94" cy="205.13" r="3.63"/><path class="cls-4" d="M321.61,76.12c4.12,8.44-9.2,9.44-3.76,0,1.25-.01,2.52-.06,3.76,0Z"/><path class="cls-4" d="M389.27,180.1c1.45,3.44,4.26,2.61,7.52,2.51-.88,2.35-1.29,4.56-5.38,3.57s-2.9-3.77-2.14-6.08Z"/><path class="cls-4" d="M225.15,143.77c8.47,1.49,2.15,14.22-5.01,8.77.31-.18.95.19,1.25,0,3.83-2.32,7.18-2.16,3.76-8.77Z"/><path class="cls-5" d="M192.58,386.81c-3.17,2.73-5.5,4.63-10.02,3.76-12.05-10.61,10.72-19.2,10.02-3.76Z"/><path class="cls-4" d="M265.24,364.26c2.73,1.12,4.08,3.31,3.76,6.26-11.87,11.27-15.29-.84-10.68-5.04,2.49-2.27,5.27-.63,6.92-1.22Z"/><path class="cls-5" d="M252.71,388.07c-2.85,3.8-4.99,6.95-10.02,3.76-6.19-8.4,6.19-14.7,10.02-3.76Z"/><path class="cls-4" d="M269,370.53c.32-2.96-1.03-5.15-3.76-6.26.72-.26,3.76-7.03,8.22-2.58,2.35,5.08-1.81,6.33-4.46,8.84Z"/><path class="cls-4" d="M206.52,365.69c1.76-2.76,9.39-.28,6.77,4.83-3.24,6.33-9.67-.29-6.77-4.83Z"/><path class="cls-4" d="M164.85,387.89c-1.76,2.76-9.39.28-6.77-4.83,3.24-6.33,9.67.29,6.77,4.83Z"/><path class="cls-5" d="M307.83,374.28c.51,4.14-.34,6.85-5.01,6.26-1.89-1.94-3.89-2.46-1.96-6.34,2.35-2.56,4.64-.53,6.97.07Z"/><path class="cls-4" d="M302.82,380.55c4.67.58,5.52-2.12,5.01-6.26.2.05,1.93-1.77,3.17,1.25,1.63,3.93-3.05,10.28-8.19,5.02Z"/><path class="cls-4" d="M252.71,388.07c2.66,7.6-5.05,10.51-10.02,3.76,5.03,3.2,7.17.05,10.02-3.76Z"/><path class="cls-4" d="M192.58,386.81c-.29,6.52-5.28,7.93-10.02,3.76,4.53.87,6.85-1.03,10.02-3.76Z"/><circle class="cls-5" cx="236.33" cy="417.19" r="4.76"/><circle class="cls-5" cx="297.19" cy="401.85" r="2.83"/><circle class="cls-5" cx="419.07" cy="270.56" r="5.12"/><circle class="cls-4" cx="349.28" cy="337.85" r="4.83"/><path class="cls-4" d="M299.06,314.15c2.06-1.61,2.48-5.06,6.76-3.66,6.18,2.02-1.23,16.7-6.76,3.66Z"/><circle class="cls-4" cx="284.6" cy="302.86" r="4.28"/><path class="cls-4" d="M299.06,314.15c-8.18,6.39-11.19-6.81-1.36-4.89.73,1.49.74,3.43,1.36,4.89Z"/><path class="cls-5" d="M320.36,326.68c-3.76.47-5.49-1.18-5.01-5.01,5.5-5.55,7.32-1.08,5.01,5.01Z"/><circle class="cls-4" cx="322.42" cy="338.38" r="3.09"/><path class="cls-4" d="M320.36,326.68c-.27.72.76,2.22-.72,2.57-6.27,1.49-9.27-2.56-4.29-7.58-.47,3.83,1.25,5.48,5.01,5.01Z"/><path class="cls-4" d="M339.8,345.48c4.14-.92,4.4,7.77-1.26,6.25-3.45-.93-.82-5.78,1.26-6.25Z"/><path class="cls-4" d="M144.97,327.93c17.27,9.36-8.44,20.65-3.76,1.25,1.25-.76,3.01-.8,3.76-1.25Z"/><path class="cls-4" d="M178.8,307.89c1.1,7.79-2.89,9.92-8.77,5.01.6-1-.42-4.21,2.5-5.69,3.27-1.65,5.53.76,6.27.68Z"/><path class="cls-4" d="M117.41,355.49l3.76-3.76c.66.69,8.8-.25,3.84,8.23-6.26,2.58-5.81-2.17-7.6-4.47Z"/><path class="cls-4" d="M117.41,355.49c-1.5-1.93-6.07-2.5-2.59-6.99,4.82-6.21,6,2.86,6.35,3.23l-3.76,3.76Z"/><circle class="cls-4" cx="168.14" cy="328.55" r="3.24"/><path class="cls-5" d="M211.37,240.24c3.52-3.55,9.95,5.84,4.37,7.5-4.83,1.43-5.25-6.61-4.37-7.5Z"/><circle class="cls-5" cx="270.22" cy="172.52" r="5.11"/><path class="cls-4" d="M192.58,84.89c-29.02-7-52.4-5.29-78.93,7.52,2.47.09,4.06,1.59,5.01,3.76,1-1.71,13.37-3.71,16.02-2.97,5.88,1.65,3.6,4.63,4.03,9.23,1.89-.41,5.05-2.83,6.96-.07,2.84,4.09-1.34,10.25-5.8,7.06-1.85-1.33-.98-4.99-1.16-6.98-6.93,1.5-14.95,5.88-21.31,9.38-2.09,1.15-6.63,2.63-6.25,5.66,3.68,2.07,3.04,4.14,3.76,7.52.19.87,1.2,1.86,1.24,3.23.24,7.61-13.51,10.09-15.02-.73-4.58,2.18-15.7,14.53-17.33,2.84-1.03-7.4,20.29-28.49,27.35-29.15-.84-2.55-1.82-5.16,0-7.52-76.07,39.72-66.04,135.74-38.52,204.52,5.32,13.29,13.35,25.31,18.55,37.83,1.02,2.46,1.69,4.18,1.18,6.96.21.18.1,1.07.63,1.24h1.87c.2-.72-.24-2.15,0-2.49-2.83-1.2-.42-3.7.45-5.19,7.15-12.22,23.4-26.19,35.88-32.41,1.1-1.48-9.12-15.82-10.67-18.75-16.18-30.68-24.63-64.76-21.95-99.66,3.97-51.67,49.47-77.59,95.26-51.95,3.78-6.16,5.97-12.97,10.24-19.21,4.36-6.37,10.65-11.25,14.83-17.73-.61-2.61-22.57-11.02-26.31-11.93ZM111.14,284.33c1.57,0,2.85,1.28,2.85,2.85s-1.28,2.85-2.85,2.85-2.85-1.28-2.85-2.85,1.28-2.85,2.85-2.85ZM113.02,299.97c2.64,0,4.78,2.14,4.78,4.78s-2.14,4.78-4.78,4.78-4.78-2.14-4.78-4.78,2.14-4.78,4.78-4.78ZM68.55,170.08c-.01-.36-1.91-2.03-1.34-4.22.33-1.26,2.52-.67,2.59-.79.22-.37.17-6.21.82-8.58,1.65-6,3.71-18.31,12.16-17.41,11.78,1.25,2.47,15.09.77,20.32-1.9,5.87-3.67,11.8-4.64,17.91-.93,5.88-1.01,24.09-2.99,27.08-.74,1.12-1.39,2.37-2.95,1.99-4.14-.88-5.55-14.33-5.73-18.09-.31-6.54,1.46-12.64,1.3-18.22ZM88.81,182.27c0,2.38-1.93,4.31-4.31,4.31s-4.31-1.93-4.31-4.31,1.93-4.31,4.31-4.31,4.31,1.93,4.31,4.31ZM70.33,217.68l4.49-4.49,4.49,4.49-4.49,4.49-4.49-4.49ZM74.71,235.84c0-1.79,1.45-3.24,3.24-3.24s3.24,1.45,3.24,3.24-1.45,3.24-3.24,3.24-3.24-1.45-3.24-3.24ZM79.83,280.32c-6.24-6.92.32-16.56,8.77-10.02,8.37,6.48-2.39,17.09-8.77,10.02ZM99.74,310.26c-.14.22-4.03,1.81-4.92.84-5.97-11.85,8.68-6.9,4.92-.84ZM100.07,240.09c0,2.44-1.98,4.42-4.42,4.42s-4.42-1.98-4.42-4.42,1.98-4.42,4.42-4.42,4.42,1.98,4.42,4.42ZM161.26,109.94c-7.91-10.87,7.53-21.94,12.53-8.77,3.82,10.08-6.83,16.59-12.53,8.77ZM193.49,102.01c-3.06,0-5.55-2.48-5.55-5.55s2.48-5.55,5.55-5.55,5.55,2.48,5.55,5.55-2.48,5.55-5.55,5.55Z"/><path class="cls-4" d="M193.83,133.75c-6.41,10.43-9.07,3.52-17.79.88-25.41-7.69-47.14,3.78-57.2,27.49-18.73,44.16-1.61,101.47,26.13,138.23-18.15,11.3-37.58,23.63-50.11,41.37-2.83-1.2-.42-3.7.45-5.19,7.15-12.22,23.4-26.19,35.88-32.41,1.1-1.48-9.12-15.82-10.67-18.75-16.18-30.68-24.63-64.76-21.95-99.66,3.97-51.67,49.47-77.59,95.26-51.95Z"/><path class="cls-4" d="M108.66,83.03c-82.86,34.44-70.6,146.1-41.95,213.54,4.42,10.41,17.97,39.59,25.64,46.4.5-2.77-.16-4.5-1.18-6.96-5.2-12.52-13.23-24.54-18.55-37.83-27.52-68.78-37.54-164.8,38.52-204.52.85-.45,1.64-.83,2.51-1.25,26.52-12.8,49.91-14.52,78.93-7.52-25.08-11.17-58.33-12.49-83.92-1.86Z"/><path class="cls-4" d="M138.71,102.43c-6.93,1.5-14.95,5.88-21.31,9.38-2.09,1.15-6.63,2.63-6.25,5.66-7.28-4.1-9.99,2.26-10.02,8.77,0,.41-.06.86,0,1.25-4.58,2.18-15.7,14.53-17.33,2.84-1.03-7.4,20.29-28.49,27.35-29.15,2.31-.22,4.14,3.01,6.86-1.34.79-1.27.39-3.21.66-3.68,1-1.71,13.37-3.71,16.02-2.97,5.88,1.65,3.6,4.63,4.03,9.23Z"/><path class="cls-4" d="M68.55,170.08c4.4.12,5.8-5.91,1.25-5.01.22-.37.17-6.21.82-8.58,1.65-6,3.71-18.31,12.16-17.41,11.78,1.25,2.47,15.09.77,20.32-1.9,5.87-3.67,11.8-4.64,17.91-.93,5.88-1.01,24.09-2.99,27.08-.74,1.11-1.39,2.37-2.95,1.99-4.14-.88-5.55-14.33-5.73-18.09-.31-6.54,1.46-12.64,1.3-18.22Z"/><path class="cls-5" d="M173.78,101.18c-.34,7.09-5.39,12.31-12.53,8.77-7.91-10.87,7.53-21.94,12.53-8.77Z"/><path class="cls-5" d="M111.14,117.46c3.68,2.07,3.04,4.14,3.76,7.52-4.3,6.05-8.55,6.66-13.78,1.25.03-6.51,2.74-12.87,10.02-8.77Z"/><path class="cls-5" d="M88.59,270.3c.9,7.24-1.05,11.07-8.77,10.02-6.24-6.92.32-16.56,8.77-10.02Z"/><circle class="cls-4" cx="193.49" cy="96.46" r="5.55"/><path class="cls-4" d="M101.12,127.48c-.06-.4,0-.85,0-1.25,5.23,5.4,9.48,4.8,13.78-1.25.19.87,1.2,1.86,1.24,3.23.24,7.61-13.51,10.09-15.02-.73Z"/><circle class="cls-4" cx="113.02" cy="304.75" r="4.78"/><path class="cls-4" d="M113.65,92.41c2.47.09,4.06,1.59,5.01,3.76-.27.46.13,2.41-.66,3.68-2.72,4.35-4.55,1.12-6.86,1.34-.84-2.55-1.82-5.16,0-7.52.85-.45,1.64-.83,2.51-1.25Z"/><path class="cls-4" d="M138.71,102.43c1.89-.41,5.05-2.83,6.96-.07,2.84,4.09-1.34,10.25-5.8,7.06-1.85-1.33-.98-4.99-1.16-6.98Z"/><circle class="cls-4" cx="95.65" cy="240.09" r="4.42"/><circle class="cls-5" cx="84.5" cy="182.27" r="4.31"/><path class="cls-4" d="M79.83,280.32c7.72,1.05,9.67-2.78,8.77-10.02,8.37,6.48-2.39,17.09-8.77,10.02Z"/><path class="cls-4" d="M161.26,109.94c7.14,3.54,12.19-1.68,12.53-8.77,3.82,10.08-6.83,16.59-12.53,8.77Z"/><path class="cls-5" d="M99.74,310.26c-.14.22-4.03,1.81-4.92.84-5.97-11.85,8.68-6.9,4.92-.84Z"/><rect class="cls-4" x="71.64" y="214.51" width="6.35" height="6.35" transform="translate(-132.01 116.66) rotate(-45)"/><circle class="cls-4" cx="77.94" cy="235.84" r="3.24"/><circle class="cls-4" cx="111.14" cy="287.18" r="2.85"/><path class="cls-4" d="M69.8,165.07c4.55-.89,3.15,5.13-1.25,5.01-.01-.36-1.91-2.03-1.34-4.22.33-1.26,2.52-.67,2.59-.79Z"/></svg>