<?xml version="1.0" encoding="UTF-8"?><svg id="Layer_1" xmlns="http://www.w3.org/2000/svg" viewBox="0 0 500 500"><defs><style>.cls-1{fill:#322b29;}.cls-2{fill:#fefefe;}.cls-3{fill:#231f20;}.cls-4{fill:#33bba6;}.cls-5{fill:#b5b6b6;}</style></defs><path class="cls-3" d="M198.63,429.63c.19.05.39.1.58.15l9.05.24c-2.96-.56-5.62-.92-7.55-.87-.72.02-1.42.2-2.08.48Z"/><path class="cls-3" d="M285.95,432.11l-77.7-2.09c6.67,1.25,14.94,3.46,20.24,4.04,11.87,1.3,25.52,2.04,37.42,1.4,5.49-.3,12.92-2,19.37-3.03.22-.12.44-.22.67-.32Z"/><path class="cls-3" d="M425.09,296.46c-6.17,9.45,3.89,13.92,5.37,15.3,3.01-6.47,5.1-13.04,6.27-20.48-1.36.97-7.58-1.03-11.64,5.19Z"/><path class="cls-3" d="M208.51,316.97c-4.11-4.93-8.53-8.97-13.27-12.34.4.68.78,1.3,1.15,1.79,1.93,2.57,7.46,7.28,12.11,10.54Z"/><path class="cls-3" d="M179.74,296.18c-2.25-.93-4.56-1.8-6.92-2.59,0,.02-.01.04-.01.05,1.85,1.03,3.67,2.09,5.46,3.2.4-.19.78-.37,1.14-.52.12-.05.22-.09.34-.14Z"/><path class="cls-3" d="M248.85,187.23c-1.38.36-2.75.73-4.13,1.08-.1.23-.19.46-.29.68,1.52-.63,2.98-1.22,4.42-1.77Z"/><path class="cls-3" d="M305.68,288.06c.42-.21.84-.41,1.26-.62.26-.46.63-1,1.08-1.59-.84.66-1.61,1.4-2.34,2.2Z"/><path class="cls-3" d="M191.08,186.09h-8.98s-.08.01-.11.02c3.31.09,6.63.12,9.94.2-.28-.09-.57-.17-.85-.22Z"/><path class="cls-3" d="M251.63,186.25c-.92.29-1.85.63-2.78.98.9-.24,1.81-.48,2.71-.71.02-.09.04-.18.07-.27Z"/><path class="cls-3" d="M301.07,185.79c-.12-.28-.24-.6-.37-.95h-6.88c.09.4.19.81.27,1.21,2.33.11,4.66.06,6.98-.26Z"/><path class="cls-3" d="M259.72,319.08c1.02-.45,2.03-.93,3.02-1.43.05-.33.16-.64.31-.93-1.11.79-2.22,1.58-3.33,2.36Z"/><path class="cls-3" d="M301.8,293.06c1.05-1.52,1.98-3.03,3.19-4.24.22-.27.46-.51.69-.76-2.22,1.13-4.38,2.34-6.52,3.58.61.27,1.52.77,2.64,1.42Z"/><path class="cls-3" d="M269.22,312.24c-.57.42-1.14.83-1.71,1.25.75-.33,1.35-.58,1.55-.8.06-.07.11-.23.17-.46Z"/><path class="cls-3" d="M424.74,132.58l-16.63-35.37c-9.79-8.92-19.4-15.95-32.57-18.79-67.77-14.6-128.32,14.86-167.12,69.03-8.29,11.57-12.51,25.82-13.28,39.96,5.53,1,8.71.31,15.03,2.51-1.91-9.54,10.01-43.65,19.48-45.13,2.99-.47,5.63.11,5.58,3.79.4,0,.86-.07,1.25,0,8.47,1.49,2.15,14.22-5.01,8.77-5.05,3.01-13.87,28.34-15.03,35.08,1.85,1.42,5.59,8.23,7,8.56.52.12,9.09-.82,10.54-1.04.93-50.31,64.55-95.84,111.84-78.64,3.46,1.26,5.75,3.43,8.43,4.73,9.18,4.43,19.12,7.72,22.54,18.79-3.64-2.62-6.45-6.02-10.01-8.77-7.19-.9-15.39-4.92-22.55-1.25,5.34,3.52,10.61,7.96,15.03,12.53,37.61,38.83,16.62,118.82-12.53,157.85,16.24,6.34,31.5,15.75,43.22,28.79,36.91-53.63,56.59-138.79,34.79-201.39ZM281.34,117.57c-2.13,0-3.85-1.73-3.85-3.85s1.73-3.85,3.85-3.85,3.85,1.73,3.85,3.85-1.73,3.85-3.85,3.85ZM340.74,107.37c-2.51,0-4.54-2.03-4.54-4.54s2.03-4.54,4.54-4.54,4.54,2.03,4.54,4.54-2.03,4.54-4.54,4.54ZM351.63,92.09c-1.64,2.44-23.38,1-28.05,1.38-8.59.7-17.44,4.68-25.7,4.99,3.88,9.24-3.29,13.71-8.77,5.01-.53.71-13.11,5.1-16.31,6.86-3.46,1.91-18.08,11.77-20.02,11.93,1.03,8.28-7.87,9.61-7.52,0,.22-5.91,6.27-11.41,10.68-15.01,17.51-14.3,50.74-26.14,73.26-26.34,1.25-.01,2.52-.06,3.76,0,4.29.21,23.69,3.73,18.68,11.16ZM362.39,109.73c-3.46,0-6.26-2.8-6.26-6.26s2.8-6.26,6.26-6.26,6.26,2.8,6.26,6.26-2.8,6.26-6.26,6.26ZM373.34,110.05c-2.11,0-3.81-1.71-3.81-3.81s1.71-3.81,3.81-3.81,3.81,1.71,3.81,3.81-1.71,3.81-3.81,3.81ZM403.72,109.75c5.59,1.66-.85,11.06-4.37,7.5-.88-.89-.47-8.93,4.37-7.5ZM370.31,313.67c-2.2,0-3.98-1.78-3.98-3.98s1.78-3.98,3.98-3.98,3.98,1.78,3.98,3.98-1.78,3.98-3.98,3.98ZM373.68,300.16c-3.13-1.59-1.24-5.93-1.9-7.51-.14-.33-3.26-.52-4.21-2.83-2.8-6.82,4.17-11.15,9.22-5.94.78-3.17,7.79-24.71,8.69-25.75,3.02-3.48,9.56-1.69,9.89,2.91.14,1.98-.98,2.45-1.04,2.8-.73,4.46-1.4,4.38-2.51,7.52-3.66,10.35-8.42,22.82-18.15,28.81ZM397.01,305.77c-5.79,6.67-15.01,1.79-10.2-8.11,2.93-6.04,13.44-6.25,10.02,6.26-.02.09,1.28.57.17,1.85ZM396.85,224.4c-5.66,6.39-16.12-7.74-7.94-10.51,5.96-2.02,12.29,5.61,7.94,10.51ZM391.83,131.04c-.06-9.23,10.14-11,12.53-1.25.07.28,1.16.84,1.26,1.95.79,9.4-13.7,12.51-13.79-.7ZM402.74,190.99c-4.28-1.03-2.9-3.77-2.14-6.08,2.66-8.05,11.08-7.05,7.52,2.51-.88,2.35-1.29,4.56-5.38,3.57ZM412.5,238.58c-2.5,0-4.53-2.03-4.53-4.53s2.03-4.53,4.53-4.53,4.53,2.03,4.53,4.53-2.03,4.53-4.53,4.53ZM413.98,154.74c0-3.34,2.71-6.05,6.05-6.05s6.05,2.71,6.05,6.05-2.71,6.05-6.05,6.05-6.05-2.71-6.05-6.05ZM426.27,213.57c-2.01,0-3.63-1.63-3.63-3.63s1.63-3.63,3.63-3.63,3.63,1.63,3.63,3.63-1.63,3.63-3.63,3.63Z"/><path class="cls-3" d="M422.55,329.01c2.21-4.26,6.97-12.83,8.09-16.96.25-.91-12.27-5.31-5.55-15.59,4.1-6.28,10.41-4.17,11.69-5.22,1.09-.9,6.36-23.93,7.06-27.4,11.17-55.25,8.63-126.23-35.72-166.63l16.63,35.37c21.8,62.6,2.12,147.76-34.79,201.39-11.72-13.04-26.99-22.45-43.22-28.79-.17.23-3.84-.75-2.51,3.76,24.09,14.2,51.84,26.5,50.12,60.13,11.07-11.31,20.86-25.91,28.2-40.06ZM430.41,270.25c2.83,0,5.12,2.29,5.12,5.12s-2.29,5.12-5.12,5.12-5.12-2.29-5.12-5.12,2.29-5.12,5.12-5.12Z"/><path class="cls-3" d="M296.62,292.65c8.07,5.45,15.84,11.48,24.21,16.5,19.97,11.99,38.03,16.65,55.97,32.36,4.08,8.74,3.35,18.71-5.38,24.06-16.92,10.37-26.13-3.87-38.58-12.04-21.07-13.84-42.93-26.65-63.78-40.83.25-.27.3-2.06,1.21-3.12,4.02-4.69,6.91-7.39,8.75-13.85,6.21-.04,11.7-1.95,17.6-3.08ZM300.21,307.67c0-2.36-1.92-4.28-4.28-4.28s-4.28,1.92-4.28,4.28,1.92,4.28,4.28,4.28,4.28-1.92,4.28-4.28ZM310.4,318.96c5.53,13.04,12.94-1.64,6.76-3.66-4.28-1.4-4.7,2.06-6.76,3.66-.62-1.46-.63-3.4-1.36-4.89-9.83-1.92-6.81,11.27,1.36,4.89ZM326.69,326.47c-4.98,5.02-1.97,9.07,4.29,7.58,1.48-.35.44-1.85.72-2.57,2.31-6.1.48-10.56-5.01-5.01ZM365.45,342.66c0-2.67-2.16-4.83-4.83-4.83s-4.83,2.16-4.83,4.83,2.16,4.83,4.83,4.83,4.83-2.16,4.83-4.83ZM336.84,343.18c0-1.71-1.38-3.09-3.09-3.09s-3.09,1.38-3.09,3.09,1.38,3.09,3.09,3.09,3.09-1.38,3.09-3.09ZM351.13,350.28c-2.08.46-4.71,5.32-1.26,6.25,5.65,1.52,5.4-7.17,1.26-6.25Z"/><path class="cls-3" d="M192.64,300.17c-8.52,8.98-60.42,33.24-61.24,43.41-.15,1.84,1.25,3,2.99,2.99,1.1,0,15.19-10.76,18.16-12.57-4.68,19.4,21.03,8.1,3.76-1.25,3.35-2.01,24.3-13.77,25.06-15.03,5.88,4.91,9.87,2.78,8.77-5.01.47-.05,7.47-4.71,6.26-6.26,2.82,3.75,13.3,12.05,17.54,13.78-20.73,18.19-50.97,26.02-72.01,42.62-4.6,3.63-7.72,9.01-13.12,11.94-8.9,4.83-14.75,2.95-23.87.56.03-.41-.08-.87,0-1.25.91-4.45,6.98-15.51,9.74-19.7,16.51-25.06,49.8-39.39,73.54-56.71l-1.85-2.52c6.24.46,4.14,1.76,6.26,5.01ZM182.71,333.35c0-1.79-1.45-3.24-3.24-3.24s-3.24,1.45-3.24,3.24,1.45,3.24,3.24,3.24,3.24-1.45,3.24-3.24ZM128.74,360.3c1.79,2.3,1.34,7.05,7.6,4.47,4.96-8.48-3.19-7.54-3.84-8.23-.35-.36-1.53-9.44-6.35-3.23-3.48,4.49,1.09,5.06,2.59,6.99Z"/><path class="cls-3" d="M354.25,126.03c-16.99-3.53-34.61,3.15-50.42,9.08-26.87,10.08-40.69,18.37-55.28,43.69-2.18,3.78-2.9,8.59-5.22,12.32-1.41,2.27-7.05,8.48-9.35,8.82.93-50.31,64.55-95.84,111.84-78.64,3.46,1.26,5.75,3.43,8.43,4.73Z"/><path class="cls-3" d="M375.54,78.42c-67.77-14.6-128.32,14.86-167.12,69.03-8.29,11.57-12.51,25.82-13.28,39.96-1.36-.24-3.13-1.44-4.86-1.39-2.4-2.71,4.15-24.81,6.55-28.86,3.35-5.65,8.78-7.84,11.91-11.9,10.68-13.85,11.09-23.86,27.14-38,37.12-32.69,92.61-47.03,139.65-28.85Z"/><path class="cls-3" d="M346.73,305.18c-.17.23-3.84-.75-2.51,3.76-.41-.24-1.75.19-2.5,0,3.69-7.92,8.96-15.85,12.75-24.2,18.06-39.87,28.83-98.24,4.79-137.4,37.61,38.83,16.62,118.82-12.53,157.85Z"/><path class="cls-3" d="M186.37,295.15l1.85,2.52c-23.74,17.32-57.03,31.65-73.54,56.71-2.76,4.19-8.83,15.25-9.74,19.7-2.16-2.71-.27-8.35.6-11.3,3.7-12.47,12.91-22.96,22.54-31.33,9.27-8.05,40.89-30.68,51.31-35.14,2.74-1.17,3.99-1.38,6.98-1.16Z"/><path class="cls-3" d="M196.39,306.43c1.21,1.55-5.79,6.21-6.26,6.26-.74.08-3-2.33-6.27-.68-2.92,1.48-1.9,4.69-2.5,5.69-.76,1.26-21.7,13.02-25.06,15.03-.75.45-2.51.49-3.76,1.25-2.96,1.81-17.05,12.56-18.16,12.57-1.74.01-3.14-1.15-2.99-2.99.81-10.17,52.72-34.43,61.24-43.41,1.31,2.01,2.62,4.75,3.76,6.26Z"/><path class="cls-3" d="M287.85,169.87c-5.17-1.46-6.27,1.15-8.58,2.89-5.96,2.74-10.24,6.92-12.72,13.4-5.18.17-8.77.79-13.77,1.92-1.39.31-1.79,1.5-1.28-1.3,1.3-7.14,20.66-32.78,28-30.58,2.26.68,7.01,10.99,8.34,13.67Z"/><path class="cls-3" d="M235.23,148.58c-8.14-.12-8.53,4.51-2.51,8.77-.31.19-.94-.18-1.25,0-5.05,3.01-13.87,28.34-15.03,35.08-1.83-1.41-4.15-1.77-6.26-2.51-1.91-9.54,10.01-43.65,19.48-45.13,2.99-.47,5.63.11,5.58,3.79Z"/><path class="cls-3" d="M296.62,292.65c.2-.04.72-1.25,1.85-1.23,1.6.02,18.32,11.25,21.93,13.16,21.37,11.35,38.95,16.17,57.11,33.08,2.35,2.18,4.8,5.67,5.55,8.86-2.3-2.75-4.49-3.45-6.26-5.01-17.94-15.71-35.99-20.37-55.97-32.36-8.37-5.02-16.15-11.05-24.21-16.5Z"/><path class="cls-3" d="M300.38,350.28c-1.89,1.33-5.68,4.23-7.52,5.01-20.09,8.51-44.03,10.42-65.15,7.52,23.42.44,46.83-4.48,67.24-16.05,2.41-.14,3.8,2.61,5.42,3.53Z"/><path class="cls-3" d="M287.85,169.87c2.58,5.23,5.17,10.47,6.26,16.28-9.16.23-18.4-.29-27.56,0,2.48-6.47,6.76-10.66,12.72-13.4-2.52,1.26-3.54,4.33-2.28,6.85s4.33,3.54,6.85,2.28,3.54-4.33,2.28-6.85-4.33-3.54-6.85-2.28c2.3-1.74,3.41-4.35,8.58-2.89Z"/><path class="cls-3" d="M366.77,136.05c-7.19-.9-15.39-4.92-22.55-1.25l-15.03-5c15.89-3.37,24.63-3.77,37.58,6.25Z"/><path class="cls-3" d="M329.19,80.93c-5.44,9.44,7.87,8.44,3.76,0,4.29.21,23.69,3.73,18.68,11.16-1.64,2.44-23.38,1-28.05,1.38-8.59.7-17.44,4.68-25.7,4.99-1.13.04-3.07-2.35-6.27-.68-2.87,1.49-2.05,5.09-2.5,5.69-.53.71-13.11,5.1-16.31,6.86-3.46,1.91-18.08,11.77-20.02,11.93-1.8.15-5.11-2.47-7.52,0,.22-5.91,6.27-11.41,10.68-15.01,17.51-14.3,50.74-26.14,73.26-26.34Z"/><path class="cls-3" d="M376.8,283.88c.78-3.17,7.79-24.71,8.69-25.75,3.02-3.48,9.56-1.69,9.89,2.91.14,1.98-.98,2.45-1.04,2.8-10.3-9.49-15.65,8.15-2.51,7.52-3.66,10.35-8.42,22.82-18.15,28.81-3.13-1.59-1.24-5.93-1.9-7.51,6.63-1.63,4.06-4.9,5.01-8.77Z"/><circle class="cls-3" cx="362.39" cy="103.47" r="6.26"/><path class="cls-3" d="M388.91,213.89c5.96-2.02,12.29,5.61,7.94,10.51-5.66,6.39-16.12-7.74-7.94-10.51Z"/><path class="cls-3" d="M391.83,131.04c-.06-9.23,10.14-11,12.53-1.25-.94,6.81-9.57,6.89-12.53,1.25Z"/><circle class="cls-3" cx="420.03" cy="154.74" r="6.05"/><path class="cls-3" d="M396.84,303.92c-6.03,3.35-10.06.48-10.02-6.26,2.93-6.04,13.44-6.25,10.02,6.26Z"/><path class="cls-3" d="M394.34,263.83c-.73,4.46-1.4,4.38-2.51,7.52-13.14.64-7.8-17,2.51-7.52Z"/><path class="cls-3" d="M376.8,283.88c-.96,3.87,1.62,7.14-5.01,8.77-.14-.33-3.26-.52-4.21-2.83-2.8-6.82,4.17-11.15,9.22-5.94Z"/><path class="cls-3" d="M297.87,98.47c3.88,9.24-3.29,13.71-8.77,5.01.45-.61-.37-4.2,2.5-5.69,3.2-1.66,5.13.73,6.27.68Z"/><path class="cls-3" d="M391.83,131.04c2.96,5.64,11.59,5.55,12.53-1.25.07.28,1.16.84,1.26,1.95.79,9.4-13.7,12.51-13.79-.7Z"/><circle class="cls-3" cx="340.74" cy="102.84" r="4.54"/><circle class="cls-3" cx="412.5" cy="234.05" r="4.53"/><path class="cls-3" d="M235.23,148.58c.4,0,.86-.07,1.25,0,3.42,6.61.07,6.45-3.76,8.77-6.02-4.26-5.63-8.89,2.51-8.77Z"/><path class="cls-3" d="M408.12,187.41c-3.25.1-6.07.94-7.52-2.51,2.66-8.05,11.08-7.05,7.52,2.51Z"/><circle class="cls-3" cx="370.31" cy="309.68" r="3.98"/><path class="cls-3" d="M252.77,122.27c1.03,8.28-7.87,9.61-7.52,0,2.4-2.47,5.71.15,7.52,0Z"/><path class="cls-3" d="M396.84,303.92c-.02.09,1.28.57.17,1.85-5.79,6.67-15.01,1.79-10.2-8.11-.04,6.74,3.99,9.61,10.02,6.26Z"/><circle class="cls-3" cx="281.34" cy="113.71" r="3.85"/><circle class="cls-3" cx="373.34" cy="106.23" r="3.81"/><path class="cls-3" d="M399.35,117.25c-.88-.89-.47-8.93,4.37-7.5,5.59,1.66-.85,11.06-4.37,7.5Z"/><circle class="cls-3" cx="426.27" cy="209.94" r="3.63"/><path class="cls-3" d="M332.95,80.93c4.12,8.44-9.2,9.44-3.76,0,1.25-.01,2.52-.06,3.76,0Z"/><path class="cls-3" d="M400.6,184.91c1.45,3.44,4.26,2.61,7.52,2.51-.88,2.35-1.29,4.56-5.38,3.57s-2.9-3.77-2.14-6.08Z"/><path class="cls-3" d="M236.48,148.58c8.47,1.49,2.15,14.22-5.01,8.77.31-.18.95.19,1.25,0,3.83-2.32,7.18-2.16,3.76-8.77Z"/><path class="cls-3" d="M203.91,391.62c-3.17,2.73-5.5,4.63-10.02,3.76-12.05-10.61,10.72-19.2,10.02-3.76Z"/><path class="cls-3" d="M276.57,369.07c2.73,1.12,4.08,3.31,3.76,6.26-11.87,11.27-15.29-.84-10.68-5.04,2.49-2.27,5.27-.63,6.92-1.22Z"/><path class="cls-3" d="M264.05,392.87c-2.85,3.8-4.99,6.95-10.02,3.76-6.19-8.4,6.19-14.7,10.02-3.76Z"/><path class="cls-3" d="M280.33,375.33c.32-2.96-1.03-5.15-3.76-6.26.72-.26,3.76-7.03,8.22-2.58,2.35,5.08-1.81,6.33-4.46,8.84Z"/><path class="cls-3" d="M217.86,370.5c1.76-2.76,9.39-.28,6.77,4.83-3.24,6.33-9.67-.29-6.77-4.83Z"/><path class="cls-3" d="M176.18,392.7c-1.76,2.76-9.39.28-6.77-4.83,3.24-6.33,9.67.29,6.77,4.83Z"/><path class="cls-3" d="M319.17,379.09c.51,4.14-.34,6.85-5.01,6.26-1.89-1.94-3.89-2.46-1.96-6.34,2.35-2.56,4.64-.53,6.97.07Z"/><path class="cls-3" d="M314.16,385.36c4.67.58,5.52-2.12,5.01-6.26.2.05,1.93-1.77,3.17,1.25,1.63,3.93-3.05,10.28-8.19,5.02Z"/><path class="cls-3" d="M264.05,392.87c2.66,7.6-5.05,10.51-10.02,3.76,5.03,3.2,7.17.05,10.02-3.76Z"/><path class="cls-3" d="M203.91,391.62c-.29,6.52-5.28,7.93-10.02,3.76,4.53.87,6.85-1.03,10.02-3.76Z"/><path class="cls-3" d="M409.96,88.48c-35.96-30.89-96.07-31.08-137.99-12.78-12.44,5.43-23.18,13.42-34.85,20.17-42.36-23.35-93.33-33.8-136.32-5.93-24.76,16.05-40.61,41.53-47.46,69.93-7.05,29.21-5.51,60.17.44,89.43,2.98,14.65,7.43,28.97,12.83,42.9,3.48,8.96,6.62,18.29,11.25,26.73,5.43,9.91,10.63,21.76,17.99,30.6,1.96,2.36,4.4,4.8,5.13,7.89.58,2.47-1.88,6.89-2.16,9.9-.2,2.09-.22,4.33-.04,6.6-3.9-.48-8.58,1.76-7.42,5.98,4.02,14.65,17.11,18.61,30.33,20.82,1.13.19,2.28.38,3.32.88,1.27.61,2.28,1.63,3.29,2.6,10.55,10.08,24.15,16.12,37.84,20.65,15.26,5.04,30.23,5.41,45.9,7.77,13.22,2,26.6,2.82,39.53,3.03,10.4.17,20.48-.96,30.76-2.52,3.58-.54,7.17-1.09,10.75-1.63,16.23-2.46,33.82-8.15,48.76-14.94,8.66-3.93,17.02-8.54,24.96-13.77,15.78-10.39,29.94-23.24,41.71-38.02.11-.14.22-.27.33-.41,7.74-9.79,14.43-20.4,19.9-31.63,6.13-12.58,11.14-26.61,15.19-39.97,19.91-65.69,22.23-156-33.96-204.28ZM78.05,301.38c-28.65-67.44-40.91-179.1,41.95-213.54,25.59-10.64,58.83-9.32,83.92,1.86,3.74.9,25.71,9.32,26.31,11.93-4.17,6.47-10.46,11.35-14.83,17.73-4.27,6.23-6.45,13.05-10.24,19.21-6.41,10.43-9.07,3.52-17.79.88-25.41-7.69-47.14,3.78-57.2,27.49-18.73,44.16-1.61,101.47,26.13,138.23-18.15,11.3-37.58,23.63-50.11,41.37-.24.34.2,1.77,0,2.5h-1.87c-.52-.18-.42-1.07-.63-1.25-7.67-6.81-21.22-35.98-25.64-46.4ZM161.39,382.92h0c1.86-1.2,3.76-2.33,5.7-3.4-1.94,1.07-3.85,2.2-5.7,3.4ZM176.18,392.7c-1.76,2.76-9.39.28-6.77-4.83,3.24-6.33,9.67.29,6.77,4.83ZM269.66,370.29c2.49-2.27,5.27-.63,6.92-1.22.72-.26,3.76-7.03,8.22-2.58,2.35,5.08-1.81,6.33-4.46,8.84-11.87,11.27-15.29-.84-10.68-5.04ZM254.02,396.63c-6.19-8.4,6.19-14.7,10.02-3.76,2.66,7.6-5.05,10.51-10.02,3.76ZM224.63,375.33c-3.24,6.33-9.67-.29-6.77-4.83,1.76-2.76,9.39-.28,6.77,4.83ZM222.01,411.67c-3.58-.22-7.15-.53-10.7-.95-5.33-.62-10.64-1.47-15.89-2.55,5.25,1.08,10.55,1.92,15.89,2.55,3.56.42,7.13.73,10.7.95ZM203.91,391.62c-.29,6.52-5.28,7.93-10.02,3.76-12.05-10.61,10.72-19.2,10.02-3.76ZM198.79,363.33c-2.99,1.9-6.1,3.6-9.28,5.2,3.18-1.61,6.29-3.31,9.28-5.2.66-.42,1.38-.82,2.09-1.25-.71.43-1.43.84-2.09,1.25ZM308.52,409.49c-1.56,0-2.83-1.27-2.83-2.83s1.27-2.83,2.83-2.83,2.83,1.27,2.83,2.83-1.27,2.83-2.83,2.83ZM314.16,385.36c-1.89-1.94-3.89-2.46-1.96-6.34,2.35-2.56,4.64-.53,6.97.07.2.05,1.21-1.35,3.17,1.25,34.97,46.14-3.05,10.28-8.19,5.02ZM367.22,393.55c2.39-1.63,4.74-3.31,7.07-5.07-4.14-1.32-8.56-.2-12.85-.92-5.89-.99-50.49-31.32-61.06-37.29-1.89,1.33-5.68,4.23-7.52,5.01-20.09,8.51-44.03,10.42-65.15,7.52-7.09-.97-15.33-3.03-22.55-6.26,0,.23-.03.44-.07.65.03-.21.06-.43.07-.65-3.87-1.73-2.56-5.12-9.67-2.79-10.21,3.34-32.1,16.09-41.59,22.32-4.86,3.19-9.59,6.55-13.97,10.35,4.39-3.8,9.12-7.16,13.97-10.35,9.49-6.23,31.39-18.98,41.59-22.32,7.1-2.32,5.8,1.06,9.67,2.79,7.22,3.24,15.46,5.29,22.55,6.26,23.42.44,46.83-4.48,67.24-16.05,2.41-.14,3.8,2.61,5.42,3.53,10.57,5.97,55.17,36.3,61.06,37.29,4.29.72,8.71-.4,12.85.92-2.32,1.76-4.68,3.44-7.07,5.07ZM205.17,348.39c5.32-2.78,10.56-6.09,15.42-9.62,2.38-1.73,7.68-6.52,11.84-10.06.7-.6,1.36-1.15,1.98-1.66,1.47-.81,2.93-1.62,4.4-2.44,7.19.5,14.83,4.25,21.13,6.61,9.32,3.5,18.63,7.01,27.95,10.51-.15,1.97-15.57,7.62-17.32,8.17-20.17,6.36-46.44,9.33-65.4-1.52ZM443.83,263.85c-.7,3.47-5.96,26.5-7.06,27.4-.01.01-.03.02-.05.03-1.17,7.45-3.25,14.02-6.27,20.48.13.12.2.22.18.29-1.12,4.13-5.88,12.7-8.09,16.96-7.35,14.15-17.13,28.75-28.2,40.06,1.72-33.64-26.03-45.94-50.12-60.13-.41-.24-1.76.19-2.5,0,3.69-7.92,8.96-15.85,12.75-24.2,18.06-39.87,28.83-98.24,4.79-137.4-4.42-4.57-9.69-9.01-15.03-12.53l-15.03-5c15.89-3.37,24.63-3.77,37.58,6.25,3.56,2.75,6.37,6.15,10.01,8.77-3.42-11.07-13.35-14.36-22.54-18.79-16.99-3.53-34.61,3.15-50.42,9.08-26.87,10.08-40.69,18.37-55.28,43.69-1.66,2.89-2.49,6.36-3.82,9.51,1.37-.35,2.75-.72,4.13-1.08.93-.35,1.86-.69,2.78-.98,2.08-7.79,20.7-32.19,27.87-30.04,2.26.68,7.01,10.99,8.34,13.67,2.39,4.83,4.76,9.67,5.97,14.96h6.88c-2.82-7.55-9.3-30.45-15.33-33.13,20.44-11.29,47.18-22.48,65.76-1.89,24.01,26.61,14.03,84.74,3.14,115.92-2.36,6.75-13.54,33.45-18.13,37.06-1.38,1.09-1.55,1.04-3.2.63-7.13-1.77-18.34-12.63-26.3-14.55-.2-.28-.06-.79.3-1.43-.42.21-.84.41-1.26.62-.23.25-.48.49-.69.76-1.21,1.21-2.14,2.72-3.19,4.24,5.48,3.19,15.85,10.06,18.6,11.52,21.37,11.35,38.95,16.17,57.11,33.08,2.35,2.18,4.8,5.67,5.55,8.86,2.41,2.88,4.07,5.95,5.07,9.06-.99-3.1-2.66-6.18-5.07-9.06-2.3-2.75-4.49-3.45-6.26-5.01,4.08,8.74,3.35,18.71-5.38,24.06-16.92,10.37-26.13-3.87-38.58-12.04-21.07-13.84-42.93-26.65-63.78-40.83-.68.74-5.85,1.85-6.31,4.96-.99.5-2,.97-3.02,1.43-.45.32-.91.63-1.37.94-1.05-.38-2.1-.77-3.16-1.14-1.75-.62-3.55-1.18-5.37-1.68,1.25-3.63-4.43-7.33-9.11-5.36-2.81,1.18-5.62,2.36-8.43,3.54-5.02.57-9.83,2.33-14.05,5.83-1.98-.39-3.64-.73-4.3-1-20.73,18.19-50.97,26.02-72.01,42.62-4.6,3.63-7.72,9.01-13.12,11.94-8.9,4.83-14.75,2.95-23.87.56-.04.52-.04,1.04,0,1.56-.03-.52-.03-1.04,0-1.56.03-.41-.08-.87,0-1.25-2.16-2.71-.27-8.35.6-11.3,3.7-12.47,12.91-22.96,22.54-31.33,8.96-7.78,38.77-29.16,50.17-34.62-1.79-1.1-3.61-2.17-5.46-3.2-.1.53-.44,1.12-.99,1.62-2.31,2.09-9.56,6.12-12.34,3.65-3.55-3.14-11.98-19.53-14.25-24.61-6.21-13.84-10.29-28.64-13.29-43.49-2.98-6.78-3.28-14.2-1.96-21.71-2.4-36.53,19.81-80.28,62.13-59.31l-5.36,13.54-4.24,22.69c-.12.02-.26.04-.39.06h8.98c-.26-.04-.53-.07-.79-.06-2.4-2.71,4.15-24.81,6.55-28.86,3.35-5.65,8.78-7.84,11.91-11.9,10.68-13.85,11.09-23.86,27.14-38,37.12-32.69,92.61-47.03,139.65-28.85,13.18,2.84,22.79,9.88,32.57,18.79,44.35,40.4,46.88,111.39,35.72,166.63Z"/><circle class="cls-3" cx="308.52" cy="406.66" r="2.83"/><circle class="cls-3" cx="430.41" cy="275.37" r="5.12"/><circle class="cls-3" cx="360.62" cy="342.66" r="4.83"/><path class="cls-3" d="M310.4,318.96c2.06-1.61,2.48-5.06,6.76-3.66,6.18,2.02-1.23,16.7-6.76,3.66Z"/><circle class="cls-3" cx="295.93" cy="307.67" r="4.28"/><path class="cls-3" d="M310.4,318.96c-8.18,6.39-11.19-6.81-1.36-4.89.73,1.49.74,3.43,1.36,4.89Z"/><path class="cls-3" d="M331.7,331.49c-3.76.47-5.49-1.18-5.01-5.01,5.5-5.55,7.32-1.08,5.01,5.01Z"/><circle class="cls-3" cx="333.76" cy="343.18" r="3.09"/><path class="cls-3" d="M331.7,331.49c-.27.72.76,2.22-.72,2.57-6.27,1.49-9.27-2.56-4.29-7.58-.47,3.83,1.25,5.48,5.01,5.01Z"/><path class="cls-3" d="M351.13,350.28c4.14-.92,4.4,7.77-1.26,6.25-3.45-.93-.82-5.78,1.26-6.25Z"/><path class="cls-3" d="M156.3,332.74c17.27,9.36-8.44,20.65-3.76,1.25,1.25-.76,3.01-.8,3.76-1.25Z"/><path class="cls-3" d="M190.13,312.69c1.1,7.79-2.89,9.92-8.77,5.01.6-1-.42-4.21,2.5-5.69,3.27-1.65,5.53.76,6.27.68Z"/><path class="cls-3" d="M128.74,360.3l3.76-3.76c.66.69,8.8-.25,3.84,8.23-6.26,2.58-5.81-2.17-7.6-4.47Z"/><path class="cls-3" d="M128.74,360.3c-1.5-1.93-6.07-2.5-2.59-6.99,4.82-6.21,6,2.86,6.35,3.23l-3.76,3.76Z"/><circle class="cls-3" cx="179.48" cy="333.35" r="3.24"/><circle class="cls-3" cx="281.56" cy="177.33" r="5.11"/><path class="cls-3" d="M203.91,89.7c-29.02-7-52.4-5.29-78.93,7.52,2.47.09,4.06,1.59,5.01,3.76,1-1.71,13.37-3.71,16.02-2.97,5.88,1.65,3.6,4.63,4.03,9.23,1.89-.41,5.05-2.83,6.96-.07,2.84,4.09-1.34,10.25-5.8,7.06-1.85-1.33-.98-4.99-1.16-6.98-6.93,1.5-14.95,5.88-21.31,9.38-2.09,1.15-6.63,2.63-6.25,5.66,3.68,2.07,3.04,4.14,3.76,7.52.19.87,1.2,1.86,1.24,3.23.24,7.61-13.51,10.09-15.02-.73-4.58,2.18-15.7,14.53-17.33,2.84-1.03-7.4,20.29-28.49,27.35-29.15-.84-2.55-1.82-5.16,0-7.52-76.07,39.72-66.04,135.74-38.52,204.52,5.32,13.29,13.35,25.31,18.55,37.83,1.02,2.46,1.69,4.18,1.18,6.96.21.18.1,1.07.63,1.24h1.87c.2-.72-.24-2.15,0-2.49-2.83-1.2-.42-3.7.45-5.19,7.15-12.22,23.4-26.19,35.88-32.41,1.1-1.48-9.12-15.82-10.67-18.75-16.18-30.68-24.63-64.76-21.95-99.66,3.97-51.67,49.47-77.59,95.26-51.95,3.78-6.16,5.97-12.97,10.24-19.21,4.36-6.37,10.65-11.25,14.83-17.73-.61-2.61-22.57-11.02-26.31-11.93ZM122.47,289.14c1.57,0,2.85,1.28,2.85,2.85s-1.28,2.85-2.85,2.85-2.85-1.28-2.85-2.85,1.28-2.85,2.85-2.85ZM124.36,304.78c2.64,0,4.78,2.14,4.78,4.78s-2.14,4.78-4.78,4.78-4.78-2.14-4.78-4.78,2.14-4.78,4.78-4.78ZM79.88,174.89c-.01-.36-1.91-2.03-1.34-4.22.33-1.26,2.52-.67,2.59-.79.22-.37.17-6.21.82-8.58,1.65-6,3.71-18.31,12.16-17.41,11.78,1.25,2.47,15.09.77,20.32-1.9,5.87-3.67,11.8-4.64,17.91-.93,5.88-1.01,24.09-2.99,27.08-.74,1.12-1.39,2.37-2.95,1.99-4.14-.88-5.55-14.33-5.73-18.09-.31-6.54,1.46-12.64,1.3-18.22ZM100.15,187.08c0,2.38-1.93,4.31-4.31,4.31s-4.31-1.93-4.31-4.31,1.93-4.31,4.31-4.31,4.31,1.93,4.31,4.31ZM81.66,222.49l4.49-4.49,4.49,4.49-4.49,4.49-4.49-4.49ZM86.04,240.65c0-1.79,1.45-3.24,3.24-3.24s3.24,1.45,3.24,3.24-1.45,3.24-3.24,3.24-3.24-1.45-3.24-3.24ZM91.16,285.13c-6.24-6.92.32-16.56,8.77-10.02,8.37,6.48-2.39,17.09-8.77,10.02ZM111.07,315.07c-.14.22-4.03,1.81-4.92.84-5.97-11.85,8.68-6.9,4.92-.84ZM111.4,244.89c0,2.44-1.98,4.42-4.42,4.42s-4.42-1.98-4.42-4.42,1.98-4.42,4.42-4.42,4.42,1.98,4.42,4.42ZM172.59,114.75c-7.91-10.87,7.53-21.94,12.53-8.77,3.82,10.08-6.83,16.59-12.53,8.77ZM204.82,106.81c-3.06,0-5.55-2.48-5.55-5.55s2.48-5.55,5.55-5.55,5.55,2.48,5.55,5.55-2.48,5.55-5.55,5.55Z"/><path class="cls-3" d="M109.91,190.5c-2.68,34.9,5.77,68.98,21.95,99.66,1.55,2.93,11.77,17.28,10.67,18.75-12.48,6.22-28.73,20.19-35.88,32.41-.87,1.49-3.29,3.99-.45,5.19,12.53-17.74,31.96-30.07,50.11-41.37-27.74-36.76-44.86-94.07-26.13-138.23,10.06-23.71,31.79-35.18,57.2-27.49,8.72,2.64,11.38,9.55,17.79-.88-45.78-25.65-91.29.28-95.26,51.95Z"/><path class="cls-3" d="M119.99,87.84c-82.86,34.44-70.6,146.1-41.95,213.54,4.42,10.41,17.97,39.59,25.64,46.4.5-2.77-.16-4.5-1.18-6.96-5.2-12.52-13.23-24.54-18.55-37.83-27.52-68.78-37.54-164.8,38.52-204.52.85-.45,1.64-.83,2.51-1.25,26.52-12.8,49.91-14.52,78.93-7.52-25.08-11.17-58.33-12.49-83.92-1.86Z"/><path class="cls-3" d="M150.04,107.23c-6.93,1.5-14.95,5.88-21.31,9.38-2.09,1.15-6.63,2.63-6.25,5.66-7.28-4.1-9.99,2.26-10.02,8.77,0,.41-.06.86,0,1.25-4.58,2.18-15.7,14.53-17.33,2.84-1.03-7.4,20.29-28.49,27.35-29.15,2.31-.22,4.14,3.01,6.86-1.34.79-1.27.39-3.21.66-3.68,1-1.71,13.37-3.71,16.02-2.97,5.88,1.65,3.6,4.63,4.03,9.23Z"/><path class="cls-3" d="M79.88,174.89c4.4.12,5.8-5.91,1.25-5.01.22-.37.17-6.21.82-8.58,1.65-6,3.71-18.31,12.16-17.41,11.78,1.25,2.47,15.09.77,20.32-1.9,5.87-3.67,11.8-4.64,17.91s-1.01,24.09-2.99,27.08c-.74,1.11-1.39,2.37-2.95,1.99-4.14-.88-5.55-14.33-5.73-18.09-.31-6.54,1.46-12.64,1.3-18.22Z"/><path class="cls-3" d="M185.12,105.98c-.34,7.09-5.39,12.31-12.53,8.77-7.91-10.87,7.53-21.94,12.53-8.77Z"/><path class="cls-3" d="M122.48,122.27c3.68,2.07,3.04,4.14,3.76,7.52-4.3,6.05-8.55,6.66-13.78,1.25.03-6.51,2.74-12.87,10.02-8.77Z"/><path class="cls-3" d="M99.93,275.11c.9,7.24-1.05,11.07-8.77,10.02-6.24-6.92.32-16.56,8.77-10.02Z"/><circle class="cls-3" cx="204.82" cy="101.27" r="5.55"/><path class="cls-3" d="M112.46,132.29c-.06-.4,0-.85,0-1.25,5.23,5.4,9.48,4.8,13.78-1.25.19.87,1.2,1.86,1.24,3.23.24,7.61-13.51,10.09-15.02-.73Z"/><circle class="cls-3" cx="124.36" cy="309.56" r="4.78"/><path class="cls-3" d="M124.99,97.21c2.47.09,4.06,1.59,5.01,3.76-.27.46.13,2.41-.66,3.68-2.72,4.35-4.55,1.12-6.86,1.34-.84-2.55-1.82-5.16,0-7.52.85-.45,1.64-.83,2.51-1.25Z"/><path class="cls-3" d="M150.04,107.23c1.89-.41,5.05-2.83,6.96-.07,2.84,4.09-1.34,10.25-5.8,7.06-1.85-1.33-.98-4.99-1.16-6.98Z"/><circle class="cls-3" cx="106.98" cy="244.89" r="4.42"/><circle class="cls-3" cx="95.83" cy="187.08" r="4.31"/><path class="cls-3" d="M91.16,285.13c7.72,1.05,9.67-2.78,8.77-10.02,8.37,6.48-2.39,17.09-8.77,10.02Z"/><path class="cls-3" d="M172.59,114.75c7.14,3.54,12.19-1.68,12.53-8.77,3.82,10.08-6.83,16.59-12.53,8.77Z"/><path class="cls-3" d="M111.07,315.07c-.14.22-4.03,1.81-4.92.84-5.97-11.85,8.68-6.9,4.92-.84Z"/><rect class="cls-3" x="82.98" y="219.32" width="6.35" height="6.35" transform="translate(-132.09 126.08) rotate(-45)"/><circle class="cls-3" cx="89.28" cy="240.65" r="3.24"/><circle class="cls-3" cx="122.47" cy="291.99" r="2.85"/><path class="cls-3" d="M81.14,169.87c4.55-.89,3.15,5.13-1.25,5.01-.01-.36-1.91-2.03-1.34-4.22.33-1.26,2.52-.67,2.59-.79Z"/><path class="cls-2" d="M187.29,424.82c.19.05.39.1.58.15l9.05.24c-2.96-.56-5.62-.92-7.55-.87-.72.02-1.42.2-2.08.48Z"/><path class="cls-2" d="M274.62,427.3l-77.7-2.09c6.67,1.25,14.94,3.46,20.24,4.04,11.87,1.3,25.52,2.04,37.42,1.4,5.49-.3,12.92-2,19.37-3.03.22-.12.44-.22.67-.32Z"/><path class="cls-1" d="M172.96,420.48c.46.22.93.44,1.4.67,3.28,1.39,6.77,2.22,10.25,3.03l-11.64-3.7Z"/><path class="cls-3" d="M398.63,83.67c-35.96-30.89-96.07-31.08-137.99-12.78-12.44,5.43-23.18,13.42-34.85,20.17-42.36-23.35-93.33-33.8-136.32-5.93-24.76,16.05-40.61,41.53-47.46,69.93-7.05,29.21-5.51,60.17.44,89.43,2.98,14.65,7.43,28.97,12.83,42.9,3.48,8.96,6.62,18.29,11.25,26.73,5.43,9.91,10.63,21.76,17.99,30.6,1.96,2.36,4.4,4.8,5.13,7.89.58,2.47-1.88,6.89-2.16,9.9-1.03,10.99,2.73,25.93,15.6,27.97,4.85.77,12.36-1.51,14.7-.96,2.27.53,4.93,3.49,6.72,4.86,3.76,2.91,7.49,5.87,11.3,8.71,29.44,21.94,68.71,27.16,104.44,27.74,10.4.17,20.48-.96,30.76-2.52,3.58-.54,7.17-1.09,10.75-1.63,16.23-2.46,33.82-8.15,48.76-14.94,8.66-3.93,17.02-8.54,24.96-13.77,15.78-10.39,29.94-23.24,41.71-38.02.11-.14.22-.27.33-.41,7.74-9.79,14.43-20.4,19.9-31.63,6.13-12.58,11.14-26.61,15.19-39.97,19.91-65.69,22.23-156-33.96-204.28ZM66.71,296.57c-28.65-67.44-40.91-179.1,41.95-213.54,25.59-10.64,58.83-9.32,83.92,1.86,3.74.9,25.71,9.32,26.31,11.93-4.17,6.47-10.46,11.35-14.83,17.73-4.27,6.23-6.45,13.05-10.24,19.21-6.41,10.43-9.07,3.52-17.79.88-25.41-7.69-47.14,3.78-57.2,27.49-18.73,44.16-1.61,101.47,26.13,138.23-18.15,11.3-37.58,23.63-50.11,41.37-.24.34.2,1.77,0,2.5h-1.87c-.52-.18-.42-1.07-.63-1.25-7.67-6.81-21.22-35.98-25.64-46.4ZM237.7,238.98c9.02,6.12,18.59,4.85,28.79,5.01,4.16.07,8.36-.06,12.52,0l-3.77,13.77c-2.08,1.83-9.44-4.29-11.26-5.01-11.1-4.4-17.37-3.6-28.21-5.01-5.04-.66,2.7-5.38,1.92-8.78ZM307.83,246.49c-4.35-1.04-3.81,2.13-6.2,4.42-5.35,5.14-12.06,10.88-20.12,8.72,2.42-3.81,3.8-14.01,5.7-16.85,1.21-1.82,7.62-3.9,9.98-6.3,5.55-5.65,6.2-16.24,6.9-23.79l29.27,2.65c2.84.95,1.35,7.49,7.68,7.48,7.32-.02,7.13-11.04,3.71-15.1-4.51-5.36-31.39-9.58-32.99-11.49-.8-.96.12-8.3-2.22-9.97-3.49-2.49-17.05-2.51-19.03-3.85-1.63-1.1-9.36-32.35-16.47-35.51,20.44-11.29,47.18-22.48,65.76-1.89,24.01,26.61,14.03,84.74,3.14,115.92-2.36,6.75-13.54,33.45-18.13,37.06-1.38,1.09-1.55,1.04-3.2.63-7.13-1.77-18.34-12.63-26.3-14.55-1.09-1.49,7.31-9.16,8.81-11.84,4.63-8.32,3.85-16.56,3.71-25.73ZM258.96,235.89l-11.25-.67c-1.06-.9,2.52-4.98,3.28-6.1,8.66-12.79,19.15-24.48,27.93-37.2,3.59-3.81,8.19-.28,12.63-.52l-32.59,44.5ZM276.51,165.07c2.58,5.23,5.17,10.47,6.26,16.28-9.16.23-18.4-.29-27.56,0-5.18.17-8.76.79-13.77,1.92-1.39.31-1.79,1.5-1.28-1.3,1.3-7.14,20.66-32.78,28-30.58,2.26.68,7.02,10.99,8.34,13.67ZM263.37,191.39l8.77-2.49c-6.24,11.21-14.58,22.33-22.67,32.44-4.16,5.19-10.02,14.99-11.23,2.65l25.13-32.59ZM247.7,289.1l-3.75,3.74c2.07-.07,4.19.15,6.26.01,1.01-.07,2.86-2.73,6.28-.65,8.21,4.99-4.53,14.34-8.78,16.94-16.16,9.87-34.73,7.62-50.11-2.51-3.86-2.55-6.02-1.49-5.02-8.77l11.28,1.25c3.53-.17,7.12.15,10.67,0,1.52-.06,4.65.95,4.36-1.24-8.49-1.06-19.21-1.11-27.31-3.39-2.09-.59-4.49-1.3-4-4.13,5.42-.63,11.87-1.82,16.95-3.72,3.69-1.38,11.97-7.23,13.96-7.33,2.39-.13,22.4,13,29.22,9.8ZM276.51,336.72c1.16,1.73-15.45,7.81-17.27,8.39-20.17,6.36-46.44,9.33-65.4-1.52,5.32-2.78,10.56-6.09,15.42-9.62,3.76-2.73,14.82-13.11,17.16-14.16,4.11-1.84,13.31-.89,18.17-3.92l31.92,20.83ZM231.82,238.77c-.94,3.08-6.7,11.94-9.53,13.11-3.03,1.25-4.38-.27-6.31.04-2.66.43-4.66,4.33-9.27.47-.89-.75-4.14-6.45-3.93-7.58.49-2.6,6.6-5.33,8.31-7.97,1.91-2.95,5.87-13.84,2.15-16.63-.55,6.97-3.88,12.8-8.13,18.17-1.26,1.58-4.09,1.93-4.82,3.97-1.62,4.5,2.83,6.64-7.15,5.48-11.27-1.32,6.54-9.09,10-13.92,4.66-6.51,5.3-20.92,12.91-22.27,10.13-1.8,11.03,8.95,13.47,16.09,1.61,4.7,4.51,3.82,2.29,11.05ZM163.74,235.89c-2.37,1.48-8.16-.47-10.65-1.91l30.72-41.96c4.1-1.7,8.5-.41,12.52.63l-32.59,43.24ZM161.25,287.86c.54.59.17,1.73-.78,2.59-2.31,2.09-9.56,6.12-12.34,3.65-3.55-3.14-11.98-19.53-14.25-24.61-6.67-14.87-10.9-30.83-13.96-46.79,10.25,1.98,6.13-5.46,7.68-7.35.2-.24,5.89-1.66,6.09-1.42-.18,13.02,3.06,23.68,16.33,28.15,5.23,1.76,15.02,2.93,20.69,3.23,2.53.13,5.54-1.64,7.27-1.18,2.3.62,4.28,6.74,3.17,8.48-.42.66-12.6,6.03-14.18,6.48-10.52,2.97-15.82.02-23.31-6.91-2.4-2.22-1.79-5.51-6.19-4.43-2.48,18.75,4.74,34.91,23.79,40.11ZM148.7,228.31c-4.19,5.47-6.05-2.6-4.06-6.53l23.52-30.38c2.44-2.3,6.24-1.06,9.37-1.26l-28.84,38.17ZM175.39,158.53l-4.24,22.69c-9.37,1.53-35.89,1.46-43,6.49-4.03,2.85-2.68,10.16,1.78,12.42-4.24.59-7.88,2.56-11.26,5.03-2.81-36.69,19.42-81.31,62.08-60.17l-5.36,13.54ZM110.18,385.32c-8.24,1.16-17.21-6.41-16.58-14.79.03-.41-.08-.87,0-1.25-2.16-2.71-.27-8.35.6-11.3,3.7-12.47,12.91-22.96,22.54-31.33,9.27-8.05,40.89-30.68,51.31-35.14,2.74-1.17,3.99-1.38,6.98-1.16,6.24.46,4.14,1.76,6.26,5.01,1.31,2.01,2.62,4.75,3.76,6.26,2.82,3.75,13.3,12.05,17.54,13.78,2.17.89,15.06,2.52,15.01,4.38-20.48,19.62-47.94,29.03-71.77,43.46-8.97,5.44-26.68,20.8-35.65,22.07ZM172.8,412.23c-17.66-5.66-34.69-13.99-47.84-27.29,5.35-5.22,11.38-9.59,17.61-13.68,9.49-6.23,31.39-18.98,41.59-22.32,7.1-2.32,5.8,1.06,9.67,2.79,7.22,3.24,15.46,5.29,22.55,6.26,23.42.44,46.83-4.48,67.24-16.05,2.41-.14,3.8,2.61,5.42,3.53,10.57,5.97,55.17,36.3,61.06,37.29,4.29.72,8.71-.4,12.85.92-54.34,41.1-125.81,49.19-190.15,28.55ZM351.61,377.48c-7.86-1.64-21.03-13.8-28.84-18.75-23.66-15.02-48.28-28.54-71.29-44.61-1-4.1,5.49-5.41,6.25-6.24.25-.27.3-2.06,1.21-3.12,4.02-4.69,6.91-7.39,8.75-13.85,6.21-.04,11.7-1.95,17.6-3.08.2-.04.72-1.25,1.85-1.23,1.6.02,18.32,11.25,21.93,13.16,21.37,11.35,38.95,16.17,57.11,33.08,2.35,2.18,4.8,5.67,5.55,8.86,14.08,16.83,2.85,40.56-20.12,35.77ZM432.5,259.04c-.7,3.47-5.96,26.5-7.06,27.4-.01.01-.03.02-.05.03-1.17,7.45-3.25,14.02-6.27,20.48.13.12.2.22.18.29-1.12,4.13-5.88,12.7-8.09,16.96-7.35,14.15-17.13,28.75-28.2,40.06,1.72-33.64-26.03-45.94-50.12-60.13-.41-.24-1.75.19-2.5,0,3.69-7.92,8.96-15.85,12.75-24.2,18.06-39.87,28.83-98.24,4.79-137.4-4.42-4.57-9.69-9.01-15.03-12.53l-15.03-5c15.89-3.37,24.63-3.77,37.58,6.25,3.56,2.75,6.37,6.15,10.01,8.77-3.42-11.07-13.35-14.36-22.54-18.79-16.99-3.53-34.61,3.15-50.42,9.08-26.87,10.08-40.69,18.37-55.28,43.69-2.18,3.78-2.9,8.59-5.22,12.32-1.41,2.27-7.05,8.48-9.35,8.82-1.45.22-10.03,1.16-10.54,1.04-1.4-.33-5.14-7.14-7-8.56-1.83-1.41-4.15-1.77-6.26-2.51-6.33-2.2-9.5-1.51-15.03-2.51-1.36-.24-3.13-1.44-4.86-1.39-2.4-2.71,4.15-24.81,6.55-28.86,3.35-5.65,8.78-7.84,11.91-11.9,10.68-13.85,11.09-23.86,27.14-38,37.12-32.69,92.61-47.03,139.65-28.85,13.18,2.84,22.79,9.88,32.57,18.79,44.35,40.4,46.88,111.39,35.72,166.63Z"/><path class="cls-2" d="M203.85,299.12c3.53-.17,7.12.15,10.67,0,1.52-.06,4.65.95,4.36-1.24-8.49-1.06-19.21-1.11-27.31-3.39-2.09-.59-4.49-1.3-4-4.13,5.42-.63,11.87-1.82,16.95-3.72,3.69-1.38,11.97-7.23,13.96-7.33,2.39-.13,22.4,13,29.22,9.8l-3.75,3.74c2.07-.07,4.19.15,6.26.01,2.66,5.74-.5,10.9-2.51,16.29-16.16,9.87-34.73,7.62-50.11-2.51v-7.52c2.07-.08,4.18.11,6.26,0Z"/><path class="cls-5" d="M247.7,309.14c2.01-5.38,5.17-10.54,2.51-16.29,1.01-.07,2.86-2.73,6.28-.65,8.21,4.99-4.53,14.34-8.78,16.94Z"/><path class="cls-5" d="M203.85,299.12c-2.08.1-4.19-.08-6.27,0v7.52c-3.86-2.55-6.01-1.49-5.01-8.77l11.28,1.25Z"/><circle class="cls-5" cx="351.05" cy="98.66" r="6.26"/><path class="cls-5" d="M380.5,126.23c-.06-9.23,10.14-11,12.53-1.25-.94,6.81-9.57,6.89-12.53,1.25Z"/><path class="cls-5" d="M385.51,299.12c-6.03,3.35-10.06.48-10.02-6.26,2.93-6.04,13.44-6.25,10.02,6.26Z"/><path class="cls-5" d="M286.54,93.66c3.88,9.24-3.29,13.71-8.77,5.01.45-.61-.37-4.2,2.5-5.69,3.2-1.66,5.13.73,6.27.68Z"/><circle class="cls-5" cx="401.17" cy="229.24" r="4.53"/><path class="cls-5" d="M223.9,143.77c.4,0,.86-.07,1.25,0,3.42,6.61.07,6.45-3.76,8.77-6.02-4.26-5.63-8.89,2.51-8.77Z"/><path class="cls-5" d="M396.78,182.61c-3.25.1-6.07.94-7.52-2.51,2.66-8.05,11.08-7.05,7.52,2.51Z"/><circle class="cls-5" cx="270" cy="108.91" r="3.85"/><path class="cls-5" d="M192.58,386.81c-3.17,2.73-5.5,4.63-10.02,3.76-12.05-10.61,10.72-19.2,10.02-3.76Z"/><path class="cls-5" d="M252.71,388.07c-2.85,3.8-4.99,6.95-10.02,3.76-6.19-8.4,6.19-14.7,10.02-3.76Z"/><path class="cls-5" d="M307.83,374.28c.51,4.14-.34,6.85-5.01,6.26-1.89-1.94-3.89-2.46-1.96-6.34,2.35-2.56,4.64-.53,6.97.07Z"/><circle class="cls-5" cx="236.33" cy="417.19" r="4.76"/><circle class="cls-5" cx="297.19" cy="401.85" r="2.83"/><circle class="cls-5" cx="419.07" cy="270.56" r="5.12"/><path class="cls-5" d="M320.36,326.68c-3.76.47-5.49-1.18-5.01-5.01,5.5-5.55,7.32-1.08,5.01,5.01Z"/><path class="cls-5" d="M211.37,240.24c3.52-3.55,9.95,5.84,4.37,7.5-4.83,1.43-5.25-6.61-4.37-7.5Z"/><circle class="cls-5" cx="270.22" cy="172.52" r="5.11"/><path class="cls-5" d="M173.78,101.18c-.34,7.09-5.39,12.31-12.53,8.77-7.91-10.87,7.53-21.94,12.53-8.77Z"/><path class="cls-5" d="M111.14,117.46c3.68,2.07,3.04,4.14,3.76,7.52-4.3,6.05-8.55,6.66-13.78,1.25.03-6.51,2.74-12.87,10.02-8.77Z"/><path class="cls-5" d="M88.59,270.3c.9,7.24-1.05,11.07-8.77,10.02-6.24-6.92.32-16.56,8.77-10.02Z"/><circle class="cls-5" cx="84.5" cy="182.27" r="4.31"/><path class="cls-5" d="M99.74,310.26c-.14.22-4.03,1.81-4.92.84-5.97-11.85,8.68-6.9,4.92-.84Z"/><path class="cls-4" d="M350.1,382.76c-5.89-.99-50.49-31.32-61.06-37.29h0c-1.62-.92-3.01-3.67-5.42-3.53-20.41,11.57-43.82,16.49-67.24,16.05-7.09-.97-15.33-3.03-22.55-6.26-3.87-1.73-2.56-5.12-9.67-2.79-10.21,3.34-32.1,16.09-41.59,22.32-6.23,4.09-12.26,8.46-17.61,13.68,13.16,13.3,30.19,21.63,47.84,27.29,64.34,20.64,135.81,12.55,190.15-28.55-4.14-1.32-8.56-.2-12.85-.92ZM302.82,380.55c-1.89-1.94-3.89-2.46-1.96-6.34,2.35-2.56,4.64-.53,6.97.07.51,4.14-.34,6.85-5.01,6.26ZM242.69,391.82c-6.19-8.4,6.19-14.7,10.02-3.76-2.85,3.8-4.99,6.95-10.02,3.76ZM192.58,386.81c-3.17,2.73-5.5,4.63-10.02,3.76-12.05-10.61,10.72-19.2,10.02-3.76ZM162.08,371.44c-8.54,4.19-16.74,8.89-23.35,16h0c6.61-7.11,14.81-11.81,23.35-16ZM150.48,392.94c-1.45-.61-2.88-1.25-4.31-1.9,1.43.65,2.87,1.29,4.31,1.9ZM236.33,421.95c-2.63,0-4.76-2.13-4.76-4.76s2.13-4.76,4.76-4.76,4.76,2.13,4.76,4.76-2.13,4.76-4.76,4.76ZM297.19,404.68c-1.56,0-2.83-1.27-2.83-2.83s1.27-2.83,2.83-2.83,2.83,1.27,2.83,2.83-1.27,2.83-2.83,2.83ZM326.8,377.28c0-.28-.08-.6-.2-.9-.24-.61-.68-1.21-1.18-1.51l-43.89-24.38h0l43.89,24.38c.5.31.93.9,1.18,1.51.12.31.19.62.2.9Z"/><path class="cls-4" d="M396.78,92.41c-9.79-8.92-19.4-15.95-32.57-18.79,0,0,0,0,0,0-47.04-18.18-102.53-3.84-139.65,28.85-16.06,14.14-16.47,24.16-27.14,38-3.13,4.06-8.55,6.25-11.91,11.9-2.4,4.05-8.96,26.16-6.55,28.86,1.73-.05,3.5,1.14,4.86,1.39h0c5.53,1,8.71.31,15.03,2.51-.24-1.19-.26-2.77-.1-4.62.2-2.31.69-5.05,1.41-7.99-.72,2.94-1.21,5.68-1.41,7.99-.16,1.85-.14,3.42.1,4.62,2.11.73,4.43,1.1,6.26,2.51h0c1.85,1.42,5.59,8.23,7,8.56.52.12,9.09-.82,10.54-1.04.38-20.44,11.1-40.09,26.87-55.06,1.21-1.15,2.46-2.28,3.73-3.37,3.18-2.74,6.52-5.29,10.01-7.63,2.79-1.87,5.66-3.61,8.59-5.2,8.81-4.77,18.22-8.18,27.71-9.88,3.95-.7,7.92-1.11,11.86-1.19.79-.02,1.58-.02,2.36,0-.79-.01-1.57,0-2.36,0-3.94.08-7.91.48-11.86,1.19-9.49,1.69-18.9,5.11-27.71,9.88-2.94,1.59-5.81,3.33-8.59,5.2-3.48,2.34-6.83,4.89-10.01,7.63-1.27,1.09-2.51,2.22-3.73,3.37-15.77,14.97-26.5,34.62-26.87,55.06,2.29-.34,7.93-6.55,9.35-8.82,2.32-3.72,3.04-8.53,5.22-12.32,14.59-25.33,28.41-33.61,55.28-43.69,15.81-5.93,33.43-12.62,50.42-9.08-.34-.16-.66-.34-.99-.52-.98-.56-1.93-1.21-2.93-1.85,1,.65,1.95,1.3,2.93,1.85.33.19.66.36.99.52,9.18,4.43,19.12,7.72,22.54,18.79-3.64-2.62-6.45-6.02-10.01-8.77-12.95-10.02-21.69-9.62-37.58-6.25l15.03,5c5.34,3.52,10.61,7.96,15.03,12.53h0c24.04,39.16,13.27,97.53-4.79,137.4-3.79,8.36-9.05,16.28-12.75,24.2.75.2,2.09-.24,2.5,0,24.09,14.2,51.84,26.5,50.12,60.13,11.07-11.31,20.86-25.91,28.2-40.06,2.21-4.26,6.97-12.83,8.09-16.96.02-.07-.05-.17-.18-.29,3.01-6.47,5.1-13.04,6.27-20.48.01-.01.04-.02.05-.03,1.09-.9,6.36-23.93,7.06-27.4,11.17-55.25,8.63-126.23-35.72-166.63ZM424.19,270.56c0,2.83-2.29,5.12-5.12,5.12s-5.12-2.29-5.12-5.12,2.29-5.12,5.12-5.12,5.12,2.29,5.12,5.12ZM412.37,202.56c-.66.66-1.06,1.57-1.06,2.57s.41,1.91,1.06,2.57c.66.66,1.57,1.06,2.57,1.06s1.91-.41,2.57-1.06c-.66.66-1.57,1.06-2.57,1.06s-1.91-.41-2.57-1.06c-.66-.66-1.06-1.57-1.06-2.57s.41-1.91,1.06-2.57ZM414.94,201.5h0c.25,0,.5.03.73.07-.24-.05-.48-.07-.73-.07ZM418.57,205.13c0-.75-.23-1.45-.62-2.03.39.58.62,1.28.62,2.03h0ZM414.62,148.72c.08.39.12.8.12,1.22,0-.42-.04-.83-.12-1.22-.12-.59-.33-1.15-.61-1.66.28.51.49,1.07.61,1.66ZM408.69,143.89c-1.67,0-3.18.68-4.28,1.77,1.09-1.09,2.61-1.77,4.28-1.77,1.88,0,3.56.86,4.67,2.2-1.11-1.34-2.79-2.2-4.67-2.2ZM405.7,229.24c0,2.5-2.03,4.53-4.53,4.53s-4.53-2.03-4.53-4.53,2.03-4.53,4.53-4.53,4.53,2.03,4.53,4.53ZM388.44,183.2c.01-.28.06-.58.12-.87-.07.3-.11.59-.12.87ZM386.12,300.15s0,0,0-.01c0,0,0,0,0,.01ZM385.84,299.4c.08.08.15.18.2.3-.05-.12-.12-.22-.2-.3ZM385.51,299.12c-6.03,3.35-10.06.48-10.02-6.26,2.93-6.04,13.44-6.25,10.02,6.26ZM383.95,257.46c.09-.33.13-.73.1-1.23.04.5,0,.9-.1,1.23-.13.49-.36.82-.55,1.06.2-.24.42-.57.55-1.06ZM380.86,252.01c-.49-.21-1.01-.36-1.53-.44.53.08,1.05.23,1.53.44.49.21.94.48,1.35.8-.41-.33-.86-.59-1.35-.8ZM376.93,251.66c.52-.12,1.06-.18,1.6-.16-.54-.02-1.07.04-1.6.16ZM381.58,263.96c-.14.31-.29.62-.45.98.16-.36.31-.68.45-.98ZM384.28,210.57c.28.24.54.49.78.76-.24-.27-.5-.52-.78-.76-.55-.47-1.17-.87-1.84-1.18.66.3,1.28.7,1.84,1.18ZM380.74,221.03c-.62-.18-1.23-.46-1.81-.83.58.37,1.19.66,1.81.83.41.12.83.19,1.24.2-.41-.01-.83-.08-1.24-.2ZM376.16,251.9c-.5.2-.97.47-1.4.83.43-.35.9-.63,1.4-.83ZM375.27,215.94c.19.42.42.84.68,1.24-.26-.4-.49-.82-.68-1.24ZM360.49,291.04c.02-.55.07-1.09.1-1.58,0-.16.02-.32.02-.47,0,.15,0,.31-.02.47-.03.49-.08,1.03-.1,1.58,0,.18-.01.37-.01.55,0-.19,0-.37.01-.55ZM359.78,300.97c-.26-.05-.53-.08-.8-.08h0c.27,0,.54.03.8.08ZM358.99,287.3c.22.08.43.15.62.2-.19-.06-.4-.12-.62-.2ZM359.78,308.78c-.26.05-.53.08-.8.08h0c.27,0,.54-.03.8-.08ZM360.59,288.51c-.02-.25-.06-.48-.14-.67-.04-.08-.26-.16-.58-.26.33.1.55.17.58.26.08.19.12.41.14.67ZM413.75,291.65s.03-.04.05-.06c-.02.02-.03.04-.05.06,0,0,0,.01,0,.02,0,0,0-.01,0-.02ZM413.2,292.56c-.06.1-.1.19-.15.29.05-.1.1-.19.15-.29ZM412.75,293.44c-.05.11-.1.22-.15.33.05-.11.09-.22.15-.33ZM412.39,294.29c-.04.11-.08.23-.12.34.04-.11.07-.22.12-.34ZM412.11,295.11c-.03.11-.06.22-.08.33.03-.11.05-.22.08-.33ZM411.92,295.91c-.02.11-.04.21-.05.31.02-.1.03-.21.05-.31ZM411.81,296.67c0,.1-.02.2-.02.29,0-.1.01-.2.02-.29ZM415.61,289.47c-.08.07-.16.13-.24.2.08-.08.16-.13.24-.2ZM414.78,290.31c-.08.09-.16.17-.24.26.08-.1.16-.17.24-.26ZM396.78,182.61h0c-3.25.1-6.07.94-7.52-2.51,2.66-8.05,11.08-7.05,7.52,2.51ZM389.67,134.6c.29-.11.56-.25.83-.4-.27.15-.55.29-.83.4ZM394.58,107.72c0-.14,0-.27-.02-.4.02.13.02.27.02.4ZM387.67,110.02c-.03.47-.02.9.01,1.28.05.56.17.98.34,1.15.22.22.45.39.69.52.24.13.49.21.74.25-.25-.04-.5-.12-.74-.25-.24-.13-.47-.3-.69-.52-.17-.17-.29-.59-.34-1.15-.04-.37-.04-.81-.01-1.28ZM393.02,124.98c-.94,6.81-9.57,6.89-12.53,1.25-.06-9.23,10.14-11,12.53-1.25ZM380.35,208.79c.54.06,1.08.2,1.59.39-.51-.19-1.04-.32-1.59-.39-.36-.04-.73-.06-1.1-.04.37-.02.74,0,1.1.04ZM374.8,214.67c-.17-.64-.26-1.27-.23-1.88-.03.61.05,1.24.23,1.88ZM372.82,256.54c.47-1.27.85-2.25,1.1-2.79.1-.22.18-.36.24-.43-.06.06-.14.21-.24.43-.25.54-.64,1.52-1.1,2.79-.19.51-.39,1.07-.6,1.66.21-.59.41-1.15.6-1.66ZM370.5,263.2c.36-1.08.72-2.13,1.06-3.12-.34.99-.7,2.04-1.06,3.12-.24.72-.49,1.46-.73,2.2.25-.74.49-1.47.73-2.2ZM367.02,273.86c-.2.62-.38,1.21-.55,1.75-.34,1.09-.61,2-.8,2.66-.09.33-.17.6-.22.8-.16-.16-.32-.32-.48-.46-.81-.72-1.65-1.22-2.49-1.51.84.29,1.68.79,2.49,1.51.16.14.32.3.48.46.05-.2.12-.47.22-.8.19-.66.46-1.58.8-2.66.17-.54.35-1.13.55-1.75.68-2.17,1.52-4.76,2.37-7.35-.86,2.59-1.69,5.18-2.37,7.35ZM368.18,201.97c.02-2.8-.05-5.58-.21-8.32.16,2.75.23,5.53.21,8.32ZM365.52,99.94c.19.46.3.96.3,1.48,0-.53-.11-1.03-.3-1.48-.29-.68-.77-1.27-1.38-1.68.61.41,1.09.99,1.38,1.68ZM237.69,109.09c.78-.96,1.64-1.88,2.52-2.75-.88.87-1.74,1.79-2.52,2.75ZM276.86,84.91c3.3-1.25,6.66-2.39,10.02-3.41,1.68-.51,3.36-.99,5.03-1.43-1.67.44-3.35.92-5.03,1.43-3.36,1.02-6.71,2.16-10.02,3.41ZM331.94,94.27c.61.41,1.1.99,1.45,1.64-.35-.66-.84-1.23-1.45-1.64ZM328.49,93.59c.3-.06.6-.09.91-.09h0c-.31,0-.62.03-.91.09ZM324.87,98.03h0c0-1.57.79-2.95,2-3.76-1.21.82-2,2.2-2,3.76ZM322.59,76.2c-.38-.04-.7-.07-.97-.08.27.01.59.04.97.08ZM324.58,76.46c-.5-.08-.97-.14-1.39-.2.42.05.89.12,1.39.2s1.04.17,1.6.28c-.56-.11-1.1-.2-1.6-.28ZM319.74,76.09c-.63,0-1.26.02-1.88.03-4.93.04-10.37.64-16.04,1.7-2.43.45-4.91.99-7.4,1.61,2.5-.62,4.97-1.16,7.4-1.61,5.67-1.06,11.11-1.66,16.04-1.7.62,0,1.25-.02,1.88-.03ZM317.69,70.38c.14-.01.29-.02.43-.03-.14.01-.29.02-.43.03ZM307.05,89.43c-.85.17-1.69.36-2.54.56.85-.2,1.69-.39,2.54-.56ZM316.42,88.61c.61,0,1.26.02,1.94.03-.68-.01-1.33-.02-1.94-.03-.61,0-1.18,0-1.7,0,.52,0,1.09,0,1.7,0ZM333.94,98.03c0-.41-.07-.8-.17-1.18.1.38.17.77.17,1.18h0ZM332.61,78.35c.62.2,1.23.42,1.83.65.89.34,1.74.72,2.52,1.13-.78-.41-1.63-.78-2.52-1.13-.59-.23-1.21-.44-1.83-.65ZM363.49,97.91c-.46-.19-.96-.3-1.48-.3.53,0,1.03.11,1.48.3ZM274.39,80.44c1.4-.55,2.8-1.08,4.21-1.59-1.41.51-2.81,1.04-4.21,1.59ZM269.78,82.34c-3.56,1.54-7.06,3.21-10.5,5.02,3.44-1.8,6.94-3.48,10.5-5.02ZM253.12,90.77c-1.33.78-2.66,1.56-3.97,2.38,1.31-.81,2.64-1.6,3.97-2.38ZM244.22,96.33c-3.25,2.18-6.44,4.48-9.56,6.91,3.12-2.42,6.3-4.72,9.56-6.91ZM231.92,105.41c-2.17,1.75-4.3,3.56-6.4,5.43,2.1-1.87,4.23-3.68,6.4-5.43ZM221.39,152.54c-6.02-4.26-5.63-8.89,2.51-8.77.4,0,.86-.07,1.25,0,3.42,6.61.07,6.45-3.76,8.77ZM214.68,141.95c.92-.82,1.84-1.41,2.74-1.74.3-.11.6-.19.89-.23.56-.09,1.11-.14,1.63-.14.35,0,.68.02,1,.07-.32-.05-.65-.07-1-.07-.52,0-1.07.05-1.63.14-.3.05-.59.12-.89.23-.9.32-1.82.92-2.74,1.74-1.84,1.64-3.7,4.17-5.46,7.23,1.76-3.05,3.62-5.59,5.46-7.23ZM221.85,140.14c.28.1.54.24.77.41-.23-.17-.49-.3-.77-.41ZM228.95,146.54c-.18-.49-.46-.95-.86-1.36.39.4.67.86.86,1.36ZM223.3,112.85c-1.45,1.33-2.87,2.69-4.28,4.08,1.41-1.39,2.84-2.75,4.28-4.08ZM197.09,142.65c-1.26,1.76-2.41,3.58-3.49,5.45,1.07-1.87,2.23-3.7,3.49-5.45,2.42-3.39,4.93-6.68,7.53-9.86,2.59-3.19,5.26-6.27,8.01-9.26-2.75,2.98-5.42,6.07-8.01,9.26-2.59,3.19-5.1,6.48-7.53,9.86ZM202.27,165.16c-.62,1.88-1.18,3.75-1.66,5.56.48-1.81,1.04-3.68,1.66-5.56.41-1.25.86-2.51,1.33-3.76-.47,1.25-.91,2.51-1.33,3.76ZM207.49,152.4c-1.13,2.24-2.2,4.65-3.18,7.13.98-2.48,2.05-4.89,3.18-7.13ZM209.04,174.35c.5-1.4,1.02-2.83,1.57-4.25-.55,1.42-1.07,2.85-1.57,4.25ZM211.33,168.28c.32-.81.65-1.61.98-2.4-.33.79-.66,1.59-.98,2.4ZM212.88,164.51c.39-.9.78-1.78,1.17-2.62-.39.84-.79,1.72-1.17,2.62ZM215.24,159.46c.39-.77.78-1.5,1.17-2.17-.38.68-.77,1.4-1.17,2.17ZM217.86,154.96c-.22.31-.44.65-.67,1.01.23-.36.45-.7.67-1.01ZM229.1,147.04c.08.34.11.7.11,1.06,0-.36-.03-.71-.11-1.06ZM233.92,117.46c.09-2.59,1.31-5.09,3.01-7.4-1.7,2.3-2.92,4.81-3.01,7.4-.05,1.42.1,2.59.39,3.54-.29-.95-.44-2.13-.39-3.54ZM234.44,121.39c.32.87.76,1.54,1.28,1.99-.51-.46-.96-1.12-1.28-1.99ZM270,112.76c-2.13,0-3.85-1.73-3.85-3.85s1.73-3.85,3.85-3.85,3.85,1.73,3.85,3.85-1.73,3.85-3.85,3.85ZM277.77,98.67c.45-.61-.37-4.2,2.5-5.69,3.2-1.66,5.13.73,6.27.68,3.88,9.24-3.29,13.71-8.77,5.01ZM351.05,104.92c-3.46,0-6.26-2.8-6.26-6.26s2.8-6.26,6.26-6.26,6.26,2.8,6.26,6.26-2.8,6.26-6.26,6.26ZM358.49,99.94c.19-.46.47-.87.82-1.21-.35.35-.62.76-.82,1.21s-.3.96-.3,1.48c0-.53.11-1.03.3-1.48ZM362.01,105.24c.53,0,1.03-.11,1.48-.3-.46.19-.96.3-1.48.3ZM364.14,104.59c.41-.27.76-.62,1.03-1.03-.27.41-.62.76-1.03,1.03ZM365.93,178.08c-.22-1.02-.45-2.03-.7-3.04.25,1.01.49,2.02.7,3.04ZM337.01,128.66c.93-.15,1.88-.2,2.83-.19-.95-.01-1.9.05-2.83.19ZM332.85,301.31c-.12.22-.2.49-.23.82.03-.34.11-.61.23-.82ZM411.78,297.41c0,.09,0,.18,0,.27,0-.09,0-.18,0-.27ZM413.74,302.53s-.05-.05-.07-.08c.02.03.04.05.07.08ZM413.35,302.02s-.04-.05-.05-.07c.02.02.04.05.05.07ZM412.97,301.46s-.02-.02-.02-.04c0,.01.02.02.02.04ZM412.12,299.65s-.02-.06-.03-.09c0,.03.02.06.03.09ZM411.95,299.02c-.01-.06-.02-.12-.04-.18.01.06.02.12.04.18ZM411.84,298.37c0-.08-.02-.15-.02-.23,0,.08.01.16.02.23ZM414.51,303.38s.04.04.06.06c-.02-.02-.04-.04-.06-.06ZM414.08,302.93s.04.05.07.07c-.02-.02-.04-.05-.07-.07ZM414.96,303.82s.03.02.04.03c-.01-.01-.03-.02-.04-.03ZM418.92,287.51s.02,0,.03,0c0,0-.02,0-.03,0ZM416.24,288.93c.07-.05.14-.09.21-.14-.07.05-.14.09-.21.14ZM417.12,288.34c.06-.03.11-.06.17-.09-.06.03-.11.06-.17.09ZM418.02,287.87s.07-.03.1-.04c-.03.02-.07.03-.1.04Z"/><path class="cls-4" d="M217.61,319.79c.05-1.87-12.84-3.5-15.01-4.38-4.24-1.73-14.72-10.03-17.54-13.78-1.14-1.51-2.45-4.26-3.76-6.26-2.13-3.25-.02-4.55-6.26-5.01-2.99-.22-4.24-.01-6.98,1.16-10.42,4.46-42.04,27.09-51.31,35.14-9.63,8.37-18.84,18.86-22.54,31.33-.87,2.94-2.76,8.59-.6,11.3-.08.38.03.84,0,1.25-.63,8.38,8.34,15.95,16.58,14.79,8.98-1.27,26.68-16.63,35.65-22.07,23.83-14.44,51.29-23.84,71.77-43.46Z"/><path class="cls-4" d="M202.79,244.81c-.21,1.14,3.03,6.83,3.93,7.58,4.6,3.86,6.61-.04,9.27-.47,1.93-.31,3.28,1.21,6.31-.04,2.84-1.17,8.59-10.03,9.53-13.11,2.22-7.24-.68-6.35-2.29-11.05-2.45-7.14-3.35-17.89-13.47-16.09-7.61,1.35-8.25,15.76-12.91,22.27-3.46,4.83-21.27,12.61-10,13.92,9.98,1.16,5.53-.97,7.15-5.48.74-2.05,3.57-2.39,4.82-3.97,4.25-5.36,7.58-11.2,8.13-18.17,3.72,2.79-.24,13.69-2.15,16.63-1.71,2.64-7.82,5.37-8.31,7.97ZM215.74,247.74c-4.83,1.43-5.25-6.61-4.37-7.5,3.52-3.55,9.95,5.84,4.37,7.5Z"/><path class="cls-4" d="M268.17,151.39c-7.34-2.2-26.7,23.44-28,30.58-.51,2.8-.11,1.61,1.28,1.3,5-1.13,8.59-1.75,13.77-1.92,9.15-.3,18.4.23,27.56,0-1.09-5.81-3.67-11.05-6.26-16.28-1.33-2.68-6.08-13-8.34-13.67ZM272.51,177.09c-2.52,1.26-5.59.24-6.85-2.28-1.26-2.52-.24-5.59,2.28-6.85,2.52-1.26,5.59-.24,6.85,2.28,1.26,2.52.24,5.59-2.28,6.85Z"/><path class="cls-4" d="M366.17,332.85c-18.16-16.91-35.75-21.73-57.11-33.08-3.61-1.92-20.33-13.14-21.93-13.16-1.13-.02-1.64,1.2-1.85,1.23-5.89,1.12-11.38,3.04-17.6,3.08-1.84,6.45-4.74,9.16-8.75,13.85-.91,1.06-.97,2.85-1.21,3.12-.76.83-7.26,2.13-6.25,6.24,23.01,16.06,47.63,29.59,71.29,44.61,7.81,4.96,20.99,17.12,28.84,18.75,22.98,4.79,34.2-18.94,20.12-35.77-.75-3.19-3.21-6.68-5.55-8.86ZM320.36,326.68c-3.76.47-5.49-1.18-5.01-5.01,5.5-5.55,7.32-1.08,5.01,5.01Z"/><path class="cls-4" d="M247.71,235.22l11.25.67,32.59-44.5c-4.44.24-9.04-3.29-12.63.52-8.78,12.73-19.27,24.41-27.93,37.2-.76,1.12-4.34,5.2-3.28,6.1Z"/><path class="cls-4" d="M183.81,192.02l-30.72,41.96c2.49,1.44,8.28,3.39,10.65,1.91l32.59-43.24c-4.02-1.04-8.41-2.32-12.52-.63Z"/><path class="cls-4" d="M168.17,191.4l-23.52,30.38c-1.99,3.93-.13,12,4.06,6.53l28.84-38.17c-3.14.2-6.93-1.04-9.37,1.26Z"/><path class="cls-4" d="M249.47,221.34c8.09-10.11,16.43-21.23,22.67-32.44l-8.77,2.49-25.13,32.59c1.21,12.35,7.08,2.54,11.23-2.65Z"/><path class="cls-4" d="M235.77,247.76c10.85,1.41,17.11.61,28.21,5.01,1.82.72,9.18,6.84,11.26,5.01l3.77-13.77c-4.16-.06-8.36.06-12.52,0-10.2-.16-19.77,1.11-28.79-5.01.78,3.39-6.96,8.12-1.92,8.78Z"/><path class="cls-4" d="M92.98,344.21h1.88c.2-.72-.24-2.15,0-2.49,12.53-17.74,31.96-30.07,50.11-41.37-27.74-36.76-44.86-94.07-26.13-138.23,10.06-23.71,31.79-35.18,57.2-27.49,8.72,2.64,11.38,9.55,17.79-.88-9.3-5.21-18.59-8.29-27.52-9.46-10.3-1.35-20.13-.16-28.96,3.25-1.18.45-2.33.95-3.47,1.48,1.14-.53,2.3-1.03,3.47-1.48,8.82-3.41,18.65-4.6,28.96-3.25,8.93,1.17,18.22,4.25,27.52,9.46,3.78-6.16,5.97-12.97,10.24-19.21,4.36-6.37,10.65-11.25,14.83-17.73-.61-2.61-22.57-11.02-26.31-11.93-25.08-11.17-58.33-12.49-83.92-1.86-82.86,34.44-70.6,146.1-41.95,213.54,4.42,10.41,17.97,39.59,25.64,46.4.21.18.1,1.07.63,1.24ZM108.25,304.75c0-.33.03-.65.1-.96-.06.31-.1.63-.1.96h0ZM113.02,299.97h0c-.33,0-.65.03-.96.1.31-.06.63-.1.96-.1ZM117.8,304.75c0-.33-.03-.65-.1-.96.06.31.1.63.1.96h0ZM112.8,284.88c-.47-.34-1.04-.55-1.67-.55-.79,0-1.5.32-2.01.83.52-.52,1.23-.83,2.01-.83.62,0,1.2.21,1.67.55ZM98.6,211.68c.42,5.36,1.09,10.69,1.99,15.98.54,3.17,1.17,6.32,1.89,9.46-.71-3.13-1.34-6.29-1.89-9.46-.91-5.28-1.57-10.61-1.99-15.98-.67-8.58-.69-17.26-.02-25.98.62-8.07,2.25-15.52,4.75-22.24-2.49,6.72-4.13,14.16-4.75,22.24-.67,8.73-.65,17.4.02,25.98ZM105.38,323.71c-1.04,1.07-2.04,2.15-3,3.24.96-1.09,1.96-2.17,3-3.24ZM101.86,327.56c-1.08,1.26-2.1,2.52-3.05,3.78.95-1.26,1.97-2.52,3.05-3.78ZM91.23,240.09h0c0-1.53.77-2.87,1.95-3.66.47-.32,1-.55,1.58-.66-.58.12-1.11.35-1.58.66-1.18.79-1.95,2.14-1.95,3.66ZM88.59,270.3c.9,7.24-1.05,11.07-8.77,10.02.4.44.81.81,1.24,1.12-.43-.31-.84-.68-1.24-1.12-6.24-6.92.32-16.56,8.77-10.02.64.49,1.15,1.02,1.58,1.55-.43-.53-.94-1.05-1.58-1.55ZM83.17,282.46c-.38-.1-.75-.24-1.12-.43.37.18.74.33,1.12.43ZM74.81,213.2l-4.49,4.49h0s4.49-4.49,4.49-4.49l4.49,4.49h0s-4.49-4.49-4.49-4.49ZM98.12,236.42c-.47-.32-1-.55-1.58-.66.58.12,1.11.35,1.58.66.78.53,1.36,1.3,1.68,2.2-.32-.9-.9-1.68-1.68-2.2ZM80.23,233.55c-.29-.29-.64-.53-1.03-.69.39.16.74.4,1.03.69.59.59.95,1.39.95,2.29,0,1.34-.81,2.49-1.98,2.98,1.16-.49,1.98-1.64,1.98-2.98,0-.89-.36-1.7-.95-2.29ZM67.22,185.87c.04-1.61.17-3.19.34-4.74-.17,1.55-.31,3.13-.34,4.74ZM68.55,170.08h0c.04,1.39-.04,2.82-.18,4.28.14-1.46.22-2.89.18-4.28ZM80.18,182.27c0-2.38,1.93-4.31,4.31-4.31s4.31,1.93,4.31,4.31-1.93,4.31-4.31,4.31-4.31-1.93-4.31-4.31ZM111.13,116.91c-.01.18,0,.36.02.55,3.68,2.07,3.04,4.14,3.76,7.52h0c-4.3,6.05-8.55,6.66-13.78,1.25.03-6.51,2.74-12.87,10.02-8.77-.02-.19-.03-.37-.02-.55ZM114.39,113.3c.36-.2.73-.38,1.08-.55-.36.17-.72.36-1.08.55ZM92.28,133.58c-.31.19-.62.37-.93.53-.44.24-.88.45-1.31.62.43-.17.87-.39,1.31-.62.31-.16.62-.34.93-.53ZM78.4,182.66c-.04.62-.09,1.27-.13,1.93.04-.66.08-1.31.13-1.93ZM77.58,195.15c-.08.98-.17,1.93-.27,2.83.1-.89.18-1.84.27-2.83ZM76.55,141.51c.32-.34.65-.65,1-.93-.35.28-.68.59-1,.93ZM75.25,143.22c.27-.41.55-.81.84-1.17-.3.37-.58.76-.84,1.17ZM74.16,145.2c.22-.46.46-.92.71-1.35-.25.43-.49.88-.71,1.35ZM72.97,148.11c-.26.75-.5,1.51-.72,2.26.22-.75.46-1.51.72-2.26.26-.75.55-1.49.86-2.2-.31.72-.6,1.46-.86,2.2ZM69.84,164.94c-.01.06-.02.11-.04.13-.03.04-.35-.01-.76-.03-.26-.01-.56,0-.84.04.28-.05.57-.05.84-.04.41.02.74.08.76.03.01-.02.03-.07.04-.13.02-.13.05-.35.07-.62-.02.28-.04.49-.07.62ZM69.96,163.42c0-.19.02-.39.03-.6-.01.21-.02.41-.03.6ZM67.41,165.46c.16-.18.39-.29.64-.35-.25.06-.48.16-.64.35ZM91.65,275.6s0-.04,0-.07c0,.02,0,.04,0,.07ZM116,112.49c.52-.25.99-.47,1.39-.69,2.78-1.53,5.89-3.23,9.08-4.78-3.19,1.55-6.29,3.25-9.08,4.78-.39.22-.87.44-1.39.69ZM125.39,93.88c.44-.08.88-.16,1.33-.23-.45.07-.89.15-1.33.23ZM128.06,93.45c.25-.03.49-.07.74-.1-.24.03-.49.06-.74.1ZM130.61,93.15c.4-.04.79-.06,1.16-.08.37-.02.72-.03,1.04-.03-.32,0-.67.01-1.04.03-.37.02-.76.05-1.16.08ZM133.73,93.06c.39.02.71.07.95.14.58.16,1.06.34,1.49.53-.43-.19-.91-.37-1.49-.53-.24-.07-.56-.11-.95-.14ZM138.79,97.92s0,0,0,0c0,0,0,0,0,0ZM138.62,96.15c-.08-.29-.21-.55-.37-.81.16.26.29.53.37.81.06.2.09.4.12.61-.03-.21-.07-.41-.12-.61ZM138.71,102.43h0c.12-.03.24-.06.37-.1.26-.08.53-.18.81-.3.43-.17.88-.37,1.35-.54-.47.17-.92.36-1.35.54-.28.11-.56.22-.81.3-.13.04-.25.07-.37.1.05.5.03,1.1,0,1.74.03-.64.05-1.25,0-1.74ZM142.18,101.2c.32-.08.63-.13.94-.15.71-.03,1.39.15,1.99.68-.6-.53-1.28-.71-1.99-.68-.31.01-.63.07-.94.15ZM137.73,94.69c-.25-.24-.58-.46-.96-.67.38.21.71.43.96.67ZM117.31,94.04c.37.39.69.84.96,1.34-.28-.5-.6-.95-.96-1.34-.37-.39-.78-.72-1.24-.98.46.26.87.59,1.24.98ZM74.71,235.84c0,1.12.57,2.1,1.43,2.68-.86-.58-1.43-1.57-1.43-2.68h0ZM99.74,310.26c-.14.22-4.03,1.81-4.92.84-5.97-11.85,8.68-6.9,4.92-.84ZM94.04,338.5c-.13.24-.25.48-.34.72.09-.24.21-.48.34-.72.4-.72.95-1.42,1.27-1.98.76-1.3,1.64-2.62,2.59-3.95-.95,1.33-1.83,2.65-2.59,3.95-.33.56-.87,1.26-1.27,1.98ZM109.99,319.22c1.22-1.12,2.46-2.22,3.73-3.29-1.27,1.06-2.51,2.17-3.73,3.29ZM125.71,133.72c-5.7,3.96-10.72,9.02-14.85,15.06-2.63,3.84-4.91,8.08-6.77,12.68,1.86-4.6,4.14-8.84,6.77-12.68,4.14-6.04,9.16-11.11,14.85-15.06,2.07-1.44,4.23-2.73,6.47-3.87-2.24,1.14-4.4,2.43-6.47,3.87ZM138.68,104.66c-.01.33-.03.67-.03,1,0-.34.01-.67.03-1ZM146.42,103.96c.15.55.2,1.12.17,1.67.03-.55-.02-1.12-.17-1.67ZM173.78,101.17s0,0,0,0c-.34,7.09-5.39,12.31-12.53,8.77,0,0,0,0,0,0-7.91-10.87,7.53-21.94,12.53-8.77ZM189.56,92.54c.25-.25.53-.48.82-.68-.3.2-.57.43-.82.68ZM199.03,96.46c0,.96-.24,1.86-.67,2.64.43-.79.67-1.69.67-2.64s-.24-1.86-.67-2.64c.43.79.67,1.69.67,2.64ZM197.41,92.54c-.25-.25-.53-.48-.82-.68.3.2.57.43.82.68ZM193.49,90.91c.96,0,1.86.24,2.64.67-.79-.43-1.69-.67-2.64-.67s-1.86.24-2.64.67c.79-.43,1.69-.67,2.64-.67ZM113.65,92.41c.31.01.6.04.89.1-.28-.05-.58-.09-.89-.1-.87.42-1.65.81-2.51,1.25.85-.45,1.64-.83,2.51-1.25Z"/></svg>