<?xml version="1.0" encoding="UTF-8"?><svg id="Layer_1" xmlns="http://www.w3.org/2000/svg" viewBox="0 0 500 500"><defs><style>.cls-1{fill:#322b29;}.cls-2{fill:#fefefe;}.cls-3,.cls-4{fill:#231f20;}.cls-5{fill:#33bba6;}.cls-6{letter-spacing:-.06em;}.cls-7{letter-spacing:-.07em;}.cls-4,.cls-8{font-family:AzoSansUber-Regular, 'Azo Sans Uber';font-size:70px;stroke:#231f20;stroke-miterlimit:10;stroke-width:2px;}.cls-8{fill:#fff;}.cls-9{letter-spacing:-.07em;}.cls-10{fill:#b5b6b6;}</style></defs><text class="cls-4" transform="translate(118.82 455.19)"><tspan x="0" y="0">SQ</tspan><tspan class="cls-6" x="105.14" y="0">U</tspan><tspan x="158.97" y="0">AD</tspan></text><text class="cls-4" transform="translate(27.61 96.35)"><tspan x="0" y="0">SN</tspan><tspan class="cls-9" x="103.6" y="0">A</tspan><tspan x="158.27" y="0">CK </tspan><tspan class="cls-7" x="285.81" y="0">D</tspan><tspan x="337.12" y="0">AD </tspan></text><path class="cls-2" d="M206.68,375.67c.14.03.27.07.4.1l6.29.17c-2.06-.39-3.91-.64-5.25-.61-.5.01-.98.14-1.45.34Z"/><path class="cls-2" d="M267.41,377.39l-54.04-1.45c4.64.87,10.39,2.41,14.08,2.81,8.25.9,17.75,1.42,26.02.97,3.81-.21,8.98-1.39,13.47-2.11.15-.08.31-.16.47-.22Z"/><path class="cls-1" d="M196.71,372.65c.32.15.65.31.97.46,2.28.97,4.71,1.54,7.13,2.11l-8.1-2.57Z"/><path class="cls-3" d="M361.54,141.75c-6.27-5.39-13.61-9.44-21.53-12.27-24.84-12.24-57.99-10.58-82.32.04-8.42,3.67-15.72,9.03-23.59,13.64-3.41-1.65-6.88-3.17-10.4-4.53-27.31-12.57-58.4-16.5-85.07.79-17.22,11.16-28.25,28.89-33.01,48.63-4.9,20.32-3.83,41.85.31,62.2,2.07,10.19,5.17,20.15,8.93,29.84,2.42,6.23,4.61,12.72,7.82,18.59,3.78,6.89,7.39,15.13,12.51,21.28,1.37,1.64,3.06,3.34,3.57,5.49.41,1.72-1.31,4.79-1.5,6.88-.49,5.19.57,11.65,4.1,15.7,3.77,7.27,11.7,9.53,19.69,10.87.79.13,1.59.27,2.31.61.88.42,1.58,1.14,2.29,1.81,7.34,7.01,16.79,11.21,26.32,14.36,10.61,3.51,21.02,3.76,31.92,5.41,9.19,1.39,18.5,1.96,27.49,2.11.25,0,.5,0,.75,0,3.16.06,6.27.03,9.23-.13,2.29-.12,5.06-.6,7.88-1.12,1.18-.16,2.35-.33,3.53-.51,2.49-.38,4.99-.76,7.48-1.14,11.29-1.71,23.52-5.67,33.91-10.39,6.02-2.74,11.83-5.94,17.36-9.58,10.98-7.22,20.82-16.16,29.01-26.44.08-.09.15-.19.23-.29,5.38-6.81,10.04-14.19,13.84-22,4.26-8.75,7.75-18.51,10.56-27.8,13.85-45.69,15.46-108.49-23.62-142.07ZM375.8,297.03s0,0,0,0h0s0,0,0,0ZM308.18,359.86c-4.03-2.7-11.49-9.81-13.27-11.63,3.57,3.66,6.82-.76,5.69-3.49,5.63,7.43,8.54,11.8,9.64,14.09-.68.36-1.38.69-2.06,1.04ZM141.52,337.91c.02-.29-.05-.6,0-.87-1.5-1.89-.19-5.81.42-7.86.5-1.7,1.16-3.34,1.93-4.94,1.17,1.36,2.36,2.81,2.77,4.55.41,1.72-1.31,4.79-1.5,6.88-.14,1.46-.15,3.01-.02,4.59-1.11-.14-2.3.05-3.27.5-.27-.92-.4-1.88-.33-2.86ZM337.6,134.75c.97.21,1.91.46,2.83.73,0,0,0,0,0,0-.92-.27-1.86-.52-2.83-.73,0,0,0,0,0,0-15.34-5.93-31.96-6.88-47.96-3.89-18.13,3.4-35.45,11.87-49.16,23.95-4.07,3.59-6.69,6.79-8.75,9.88,2.05-3.09,4.67-6.3,8.75-9.88,13.71-12.08,31.03-20.55,49.16-23.95,16-3,32.62-2.04,47.96,3.89ZM338.97,315.05c-.5-.46-.99-.89-1.49-1.33h0c.5.44.99.87,1.49,1.33,1.63,1.52,3.34,3.94,3.86,6.16,1.67,2,2.83,4.14,3.52,6.3-.69-2.16-1.85-4.3-3.52-6.3-.52-2.22-2.23-4.64-3.86-6.16ZM294.77,343.01c.2-.06.4-.08.61-.08-.2,0-.4.02-.61.08ZM293,345.76c0,.1.02.19.04.28-.02-.09-.03-.18-.04-.28ZM293.55,343.81c.31-.33.61-.56.92-.69-.3.14-.61.36-.92.69ZM298.39,343.87c-.1-.03-.2-.06-.3-.09-.4-.13-.81-.31-1.21-.47-.3-.12-.6-.23-.9-.29.3.07.6.18.9.29.4.16.81.34,1.21.47.1.03.2.06.3.09,0,0,0,0,0,0,0,0,0,0,0,0ZM298.61,343.76s-.09.05-.12.07c.03-.02.07-.04.12-.07ZM289.06,362.64c.05-.26.15-.49.3-.7-.14.21-.24.45-.3.7ZM289.89,361.41c.31-.21.69-.34,1.1-.34s.79.12,1.1.34c-.31-.21-.69-.34-1.1-.34s-.79.12-1.1.34ZM292.62,361.94c.14.21.24.45.3.7-.05-.26-.15-.49-.3-.7ZM260.06,353.45c-.67-1.9-1.7-3.06-2.82-3.62-.56-.28-1.13-.42-1.69-.43.56.01,1.14.15,1.69.43,1.11.57,2.15,1.72,2.82,3.62.35.99.44,1.87.34,2.61-.1.74-.39,1.34-.82,1.78.43-.44.72-1.04.82-1.78.1-.74,0-1.62-.34-2.61ZM183.46,341.76c-2.17,1.42-4.29,2.91-6.35,4.48,2.06-1.57,4.18-3.06,6.35-4.48,6.6-4.33,21.83-13.2,28.93-15.52.51-.17.95-.28,1.35-.37,0,0,0,0,0,0-.4.09-.84.2-1.35.37-7.1,2.32-22.33,11.19-28.93,15.52ZM192.63,344.16c-1.35.74-2.68,1.53-3.97,2.37h0c1.29-.84,2.61-1.62,3.97-2.37ZM225.21,302.92c-.93-.38-2.3-1.22-3.8-2.27,0,0,.02.01.02.02-.06-.07-.12-.14-.18-.21,3,.6,6.53,1.35,6.51,2.17-.26.25-.54.49-.81.74-.8-.17-1.43-.32-1.74-.44ZM181.56,136.41c3.8-.26,7.63-.24,11.44.04-3.81-.28-7.65-.3-11.44-.04ZM235.73,150.04c.35.25.59.48.72.67-.12-.19-.37-.42-.72-.67ZM234.79,332.54s0,0,0,0c-4.93-.68-10.66-2.11-15.68-4.36,0,.16-.02.31-.05.46.02-.15.04-.3.05-.46-.64-.29-1.07-.64-1.43-.99,0,0,0,0,0,0,.36.35.79.7,1.43.99,5.02,2.25,10.75,3.68,15.68,4.36,15.27.29,30.54-2.7,44.08-9.71-13.54,7.01-28.81,10-44.08,9.71ZM142.62,173.12c.25-1.37,1.16-3.12,2.48-5,.38-.54.78-1.09,1.22-1.64-.44.56-.84,1.11-1.22,1.64-1.32,1.89-2.23,3.64-2.48,5-.04.2-.06.38-.06.56,0-.18.03-.37.06-.56ZM161.04,152.05c.14.62.35,1.25.56,1.87-1.07.1-2.62.88-4.38,2.09-.5.35-1.02.73-1.55,1.14.53-.41,1.05-.79,1.55-1.14,1.76-1.21,3.31-1.99,4.38-2.09-.21-.62-.42-1.25-.56-1.87ZM160.89,150.62c-.02.4.03.81.1,1.21-.08-.41-.12-.81-.1-1.21ZM201.74,162.31c-.17.04-.35.07-.53.09.18-.02.35-.05.53-.09ZM204,161.07c-.22.21-.46.4-.71.57.25-.17.49-.36.71-.57ZM205.73,157c0-.21,0-.42-.01-.64.01.22.02.43.01.64ZM205.51,155.04c.02.09.04.18.06.27-.02-.09-.04-.18-.06-.27ZM202.37,150.31c.56.31,1.09.77,1.57,1.38-.48-.62-1.01-1.07-1.57-1.38ZM200.5,149.75c.47.02.93.13,1.39.32-.45-.19-.92-.29-1.39-.32ZM197,151.05c-.28.25-.55.53-.79.83-1.55,1.98-1.99,5.07.24,8.14.25.34.51.64.78.91-.27-.26-.53-.57-.78-.91-2.23-3.07-1.79-6.16-.24-8.14.24-.3.5-.58.79-.83.85-.74,1.89-1.21,2.96-1.29-1.07.08-2.11.55-2.96,1.29ZM211.38,172.96h0c-29.06-11.15-55.99,6.72-58.52,39.74-1.63,21.24,2.66,42.04,11.3,61.21.92,2.04,1.91,4.06,2.92,6.06-1.02-2-2-4.02-2.92-6.06-8.64-19.16-12.93-39.96-11.3-61.21,2.54-33.02,29.47-50.9,58.52-39.74ZM276.85,142.61c4.6-1.73,9.34-3.18,13.94-4.22,1.72-.39,3.43-.73,5.1-1.01,3.34-.55,6.54-.86,9.47-.89.87,0,1.75-.04,2.61,0-.86-.04-1.75,0-2.61,0-2.94.03-6.14.34-9.48.89-1.67.28-3.37.61-5.1,1.01-4.6,1.05-9.34,2.49-13.94,4.22-1.15.43-2.29.89-3.42,1.35,1.13-.47,2.27-.92,3.42-1.35ZM331.53,149.09c.39.39.71.86.93,1.38-.22-.52-.54-.99-.93-1.38ZM324.44,150.48c.22-.52.54-.99.93-1.38-.39.39-.71.86-.93,1.38ZM338.47,180.93c-2.53-1.82-4.49-4.18-6.96-6.1h0c-1.41-1.09-2.74-1.98-4.03-2.74,0,0,0,0,0,0,1.29.75,2.63,1.65,4.03,2.74,2.48,1.92,4.43,4.28,6.96,6.1,0,0,0,0,0,0ZM370.41,226.73c.1.49.35.94.69,1.28.34.34.78.59,1.28.69.16.03.33.05.51.05s.34-.02.51-.05c.49-.1.94-.35,1.28-.69-.34.34-.78.59-1.28.69-.16.03-.33.05-.51.05s-.34-.02-.51-.05c-.49-.1-.94-.35-1.28-.69-.34-.34-.59-.78-.69-1.28-.03-.16-.05-.33-.05-.51s.02-.34.05-.51c.1-.49.35-.94.69-1.28-.34.34-.59.78-.69,1.28-.03.16-.05.33-.05.51s.02.34.05.51ZM366.46,242.99c0,.87-.35,1.66-.92,2.23.57-.57.92-1.36.92-2.23s-.35-1.66-.92-2.23c.57.57.92,1.36.92,2.23ZM290.51,251.65c-3.03-.72-2.65,1.48-4.31,3.08-3.72,3.57-8.39,7.57-14,6.06,1.68-2.65,2.64-9.74,3.96-11.72.84-1.27,5.3-2.71,6.94-4.38,3.86-3.93,4.31-11.3,4.8-16.54l20.35,1.84c1.98.66.94,5.21,5.34,5.2,5.09-.01,4.96-7.68,2.58-10.51-3.13-3.73-21.83-6.66-22.94-7.99-.56-.67.08-5.77-1.55-6.93-1.12-.8-3.73-1.23-6.35-1.56-2.06-5.74-6.4-20.67-10.45-22.47,10.05-5.55,22.29-11.06,33.17-8.75,1.63,1.1,3.2,2.44,4.69,4.1,16.7,18.51,9.76,58.94,2.18,80.62-1.64,4.69-9.42,23.26-12.61,25.78-.3.23-.51.39-.7.48-4.02-2.65-8.43-5.98-11.93-6.83-.14-.2-.04-.55.21-.99.18-.32.44-.7.75-1.1-.58.46-1.12.98-1.63,1.53h0c-.16.18-.33.34-.48.53.15-.19.32-.35.48-.53-.25.13-.5.27-.75.4-2.28-1.46-4.51-2.71-6.46-3.18-.76-1.04,5.09-6.37,6.13-8.24,3.22-5.79,2.68-11.51,2.58-17.89ZM224.72,233.36c-.38,4.85-2.7,8.91-5.65,12.63-.87,1.1-2.84,1.34-3.35,2.76-1.13,3.13,1.97,4.62-4.97,3.81-7.84-.91,4.55-6.32,6.96-9.68,3.24-4.52,3.69-14.55,8.98-15.49,7.04-1.25,7.67,6.22,9.37,11.19,1.12,3.27,3.14,2.66,1.59,7.69-.66,2.14-4.66,8.3-6.63,9.12-2.11.87-3.05-.19-4.39.03-1.85.3-3.24,3.01-6.44.33-.62-.52-2.88-4.48-2.73-5.27.34-1.81,4.59-3.71,5.78-5.55,1.33-2.05,4.08-9.63,1.49-11.57ZM164.75,171.61c.12.24.23.49.28.77-.06-.28-.16-.53-.28-.77ZM163.85,168.23c-.15-.81-.4-1.5-1.09-2.16.7.66.95,1.35,1.09,2.16ZM161.6,165.25c.48.27.85.54,1.15.82-.29-.28-.67-.55-1.15-.82h0ZM154.63,172.22c.29,2.05,1.2,3.4,2.38,4.2-1.18-.79-2.1-2.15-2.38-4.2h0ZM159.58,295.51c0-.46.09-.9.26-1.29.5-1.19,1.68-2.03,3.06-2.03.92,0,1.75.37,2.35.97-.6-.6-1.43-.97-2.35-.97-1.38,0-2.56.84-3.06,2.03-.17.4-.26.83-.26,1.29h0ZM163.57,283.29c0-1.09-.89-1.98-1.98-1.98s-1.98.89-1.98,1.98c0,.43.14.83.38,1.16-.24-.33-.38-.72-.38-1.16,0-1.09.89-1.98,1.98-1.98s1.98.89,1.98,1.98h0ZM150.27,322.95h0c.14-.51-.16-1.5,0-1.74-.37-.16-.61-.35-.76-.56.14.21.39.4.76.56-.17.24.14,1.23,0,1.74ZM179.99,276.22c2.34,1.83,5.19,3.27,8.58,4.19.37.41.12,1.2-.54,1.8-.69.63-2.02,1.5-3.46,2.16-1.5-2.39-3.18-5.46-4.57-8.15ZM180.05,285.11h0c-9.18-14.43-15.96-32.1-17.96-49.78h0c1.99,17.68,8.77,35.35,17.96,49.78ZM162.72,210.68c.47-2.59,1.08-5.14,1.83-7.65-.75,2.51-1.36,5.06-1.83,7.65ZM166.78,219.4s-.04,0-.06.01c0-.01,0-.03,0-.04.02,0,.04.02.05.03ZM182.01,178.99c-.3.16-.6.33-.9.5.3-.17.59-.34.9-.5ZM161.58,220.78c0,.14,0,.29-.01.43h0c0-.14,0-.29.01-.43ZM162.1,214.73c-.24,1.9-.4,3.81-.5,5.74.1-1.93.27-3.84.5-5.74ZM182.73,289.12c.79,1.13,1.58,2.24,2.4,3.32h0c-.81-1.08-1.61-2.19-2.4-3.32,0,0,0,0,0,0ZM161.67,304.77c1.7-1.51,3.46-2.95,5.24-4.27-1.77,1.32-3.54,2.76-5.24,4.27ZM175.6,294.77c.01.13,0,.23-.05.29-1.63.81-3.35,1.81-5.1,2.96,1.75-1.15,3.47-2.15,5.1-2.96.05-.06.07-.16.05-.29ZM156.83,309.48c-1.01,1.08-1.96,2.17-2.84,3.26.88-1.09,1.83-2.18,2.84-3.26ZM149.41,320.44c-.06-.15-.07-.3-.06-.47.01-.16.05-.33.12-.49.09-.25.23-.5.38-.75-.15.25-.29.5-.38.75-.06.17-.1.33-.12.49-.01.16,0,.32.06.47ZM174.96,303.37c-.21.15-.41.3-.61.45.2-.15.4-.3.61-.45ZM173.78,304.24c-.21.16-.42.31-.63.47.21-.16.42-.31.63-.47ZM172.63,305.1c-.2.15-.39.3-.59.44.19-.15.39-.29.59-.44ZM171.51,305.94c-.18.14-.36.27-.53.41.18-.13.35-.27.53-.41ZM170.46,306.75c-.18.14-.35.27-.53.41.17-.14.35-.27.53-.41ZM169.46,307.52c-.18.14-.35.27-.52.41.17-.13.34-.27.52-.41ZM168.53,308.25c-.18.14-.34.27-.51.4.17-.13.33-.27.51-.4ZM185.23,296.07c-.17.12-.34.24-.52.36.17-.12.35-.24.52-.36ZM183.93,296.96c-.19.13-.37.26-.56.39.19-.13.37-.26.56-.39ZM182.63,297.87c-.2.14-.4.28-.59.41.2-.14.39-.28.59-.41ZM181.3,298.8c-.19.14-.39.27-.58.41.19-.14.39-.27.58-.41ZM179.99,299.73c-.19.14-.39.28-.58.41.19-.14.39-.28.58-.41ZM178.7,300.65c-.2.14-.39.28-.59.42.2-.14.39-.28.59-.42ZM177.43,301.57c-.2.14-.4.29-.59.43.2-.14.39-.29.59-.43ZM176.17,302.48c-.2.15-.4.29-.59.43.2-.14.39-.29.59-.43ZM200.39,286.66s0,0,0,0c-.01,0-.02.01-.03.02.01,0,.02-.01.03-.02h0ZM196.61,284.4s0,.03-.01.04c-.07.37-.31.78-.69,1.13-1.61,1.46-6.65,4.25-8.59,2.54-.31-.27-.67-.69-1.08-1.23,2.89-1.8,5.38-3.2,7.06-3.92,1.91-.82,2.77-.96,4.85-.81,4.34.32,2.88,1.22,4.36,3.49.03.04.06.09.08.13-.42.13-.87.3-1.41.53,0,0-.01,0-.02,0,0,0,.01,0,.02,0,.08-.04.16-.06.24-.1-1.57-.65-3.17-1.25-4.82-1.8ZM195.84,289.17s0,0,0,0c0,0,0,0,0,0ZM194.9,289.74c-.05.03-.11.06-.16.1.06-.03.11-.07.16-.1ZM193.88,290.37c-.1.06-.19.12-.29.18.1-.06.19-.12.29-.18ZM192.77,291.07c-.12.08-.24.15-.36.23.12-.08.24-.15.36-.23ZM191.56,291.85c-.12.08-.25.16-.37.24.12-.08.25-.16.37-.24ZM190.35,292.63c-.14.09-.28.18-.42.27.14-.09.28-.18.42-.27ZM189.11,293.45c-.15.1-.3.2-.45.3.15-.1.3-.2.45-.3ZM187.83,294.3c-.16.11-.32.21-.48.32.16-.11.32-.21.48-.32ZM186.55,295.17c-.17.12-.34.23-.51.35.17-.12.34-.23.51-.35ZM202.4,255.9c-.29.46-8.76,4.19-9.86,4.51-7.32,2.06-11,.01-16.21-4.81-1.67-1.54-1.24-3.83-4.31-3.08-.13.99-.21,1.97-.26,2.94-1.42-4.85-2.6-9.78-3.59-14.71-1.54-3.52-2.05-7.28-1.83-11.13,1.22-.33,2.97-.72,3.06-.61-.13,9.05,2.13,16.47,11.36,19.58,3.64,1.22,10.45,2.04,14.39,2.24,1.76.09,3.85-1.14,5.05-.82,1.6.43,2.97,4.68,2.21,5.9ZM179.84,239c-2.91,3.81-4.2-1.81-2.82-4.54l16.36-21.13c1.7-1.6,4.34-.74,6.52-.88l-20.06,26.55ZM198.4,190.47l-2.95,15.78c-5.71.93-20.6,1.01-27.51,3.37,3.7-17.66,15.4-32.72,34.04-28.22l-3.59,9.06ZM205.43,186.18c.66-1.12,1.45-2.03,2.27-2.84.76.32,1.52.67,2.3,1.06l-3.73,9.42-2.48,13.28c-.87-.28-1.91-.87-2.93-.84-1.67-1.88,2.89-17.26,4.56-20.07ZM208.4,207.69c.03-1.4.36-3.37.84-5.51-.48,2.14-.8,4.11-.84,5.51h0ZM210.06,198.85c-.19.7-.37,1.39-.54,2.08.17-.69.35-1.39.54-2.08ZM210.63,196.85c.13-.43.26-.86.39-1.27-.13.42-.26.84-.39,1.27ZM160.56,297.86s-.05-.06-.07-.09c.03.03.04.06.07.09ZM145.92,271.55c.18.14.35.28.51.43-.16-.15-.33-.29-.51-.43-4.22-3.27-7.77-.73-7.82,2.75.05-3.48,3.6-6.02,7.82-2.75ZM133.21,234.95l3.12-3.12h0l-3.12,3.12h0ZM140.07,210.32c0-.83.34-1.58.88-2.12s1.29-.88,2.12-.88,1.58.34,2.12.88c.21.21.38.46.52.72-.14-.26-.31-.51-.52-.72-.54-.54-1.29-.88-2.12-.88s-1.58.34-2.12.88-.88,1.29-.88,2.12h0ZM139.45,234.95l-1.56-1.56,1.56,1.56h0ZM147.63,273.59c.06.13.12.26.16.39-.05-.13-.1-.26-.16-.39ZM147.75,250.53c0-.42.09-.83.24-1.2.16-.37.38-.7.66-.98s.61-.5.98-.66.77-.24,1.2-.24h0c-.42,0-.83.09-1.2.24s-.7.38-.98.66c-.28.28-.5.61-.66.98-.16.37-.24.77-.24,1.2h0ZM149.73,295.28c.27-.25.63-.37,1.03-.39-.4.01-.76.13-1.03.39-.27.25-.45.63-.48,1.16.03-.53.21-.91.48-1.16ZM151.11,294.92c.62.07,1.3.37,1.85.82-.55-.45-1.22-.75-1.85-.82ZM153.32,296.08c.12.13.23.26.33.41-.1-.15-.21-.28-.33-.41ZM148.34,252.33c-.07-.1-.13-.21-.2-.32.06.11.12.22.2.32ZM153.89,250.53c0-.42-.09-.83-.24-1.2.16.37.24.77.24,1.2h0ZM152.02,247.7c.37.16.7.38.98.66-.28-.28-.61-.5-.98-.66ZM145.96,184.18s0-.01,0-.02c0,0,0,.01,0,.02ZM131.77,201.49c-.16-.22-.38-.54-.55-.92.17.38.39.7.55.92.12.17.2.29.2.35.05,1.94-.23,3.97-.49,6.08.27-2.11.55-4.15.49-6.08,0-.06-.09-.18-.2-.35ZM131.29,209.53c-.18,1.62-.3,3.28-.22,4.99.05.98.21,2.91.56,4.97-.34-2.06-.51-3.99-.56-4.97-.08-1.71.04-3.37.22-4.99ZM136.33,238.07h0l-1.56-1.56,1.56,1.56ZM137.63,245.51c-.81.34-1.37,1.14-1.37,2.07,0,.62.25,1.18.66,1.59-.41-.41-.66-.97-.66-1.59,0-.93.57-1.73,1.37-2.07ZM139.82,278.52c.14.15.28.3.42.43-.14-.13-.29-.27-.42-.43-.48-.53-.84-1.08-1.11-1.64.27.56.64,1.11,1.11,1.64ZM138.52,276.46c-.08-.21-.16-.42-.21-.63.06.21.13.42.21.63ZM138.24,275.6c-.1-.44-.15-.87-.15-1.29,0,.42.04.85.15,1.29ZM153.6,324.24c-.61,1-1.18,2.01-1.7,3.06.52-1.04,1.08-2.06,1.7-3.06ZM165.5,310.73c.2-.17.41-.35.64-.54-.23.19-.44.37-.64.55-1.67,1.45-3.32,2.99-4.9,4.63,1.58-1.63,3.23-3.18,4.9-4.63ZM167.66,308.94c-.17.14-.34.27-.5.41.16-.13.33-.27.5-.41ZM166.86,309.59c-.17.14-.33.27-.49.41.16-.13.32-.27.49-.41ZM190.3,244.27c-1.65,1.03-5.67-.32-7.41-1.33l21.37-29.18c2.85-1.18,5.91-.29,8.71.44l-22.66,30.07ZM314.08,295.07h0c.16-.34.33-.67.49-1.01-.16.34-.34.67-.49,1.01ZM315.61,292.02c.63-1.2,1.29-2.4,1.96-3.61-.68,1.21-1.33,2.41-1.96,3.61ZM319.42,285.1c.1-.18.2-.37.3-.55-.1.18-.2.37-.3.55ZM333.96,292.82c.76,0,1.46.31,1.96.81-.5-.5-1.19-.81-1.96-.81-1.34,0-2.45.95-2.71,2.21.26-1.26,1.37-2.21,2.71-2.21ZM335.02,285.97c0,.13,0,.26,0,.39,0-.13,0-.26,0-.39ZM335.08,284.87c-.01.23-.03.47-.05.72.02-.25.04-.49.05-.72,0-.11.01-.22.01-.33,0,.11,0,.22-.01.33ZM332,297.55c-.25-.25-.45-.55-.59-.88.14.33.34.63.59.88ZM334.52,298.31c-.18.04-.37.06-.56.06h0c.19,0,.38-.02.56-.06ZM321.89,280.45s.01-.03.02-.04c0,.01-.01.03-.02.04ZM322.81,265.03c-1.64,4.69-9.42,23.26-12.61,25.78-.96.76-1.08.72-2.22.44-.42-.1-.86-.27-1.32-.45,2.53-5.2,5.92-10.41,8.41-15.9,11.6-25.6,18.86-62.17,6.74-89.06,15.16,19.08,8.39,58.05,1,79.2ZM239.66,190.58c.14.01.28.01.42,0-.14,0-.28,0-.42,0ZM310.24,151.74c0-.65.2-1.26.54-1.76-.34.5-.54,1.11-.54,1.76h0ZM316.55,151.74h0c0-.65-.2-1.26-.54-1.76.34.5.54,1.11.54,1.76ZM265.06,191.38c.14-.12.28-.23.42-.34-.14.11-.28.22-.42.34ZM265.8,190.78c.14-.11.28-.2.41-.3-.14.1-.27.2-.41.3ZM253.78,204.91s.05-.08.07-.12c-.02.04-.05.08-.07.12ZM253.29,205.73s.03-.06.05-.09c-.02.03-.03.06-.05.09ZM263.17,193.09c-.14.13-.28.27-.42.41.14-.14.28-.27.42-.41ZM259.94,190.07c-1.1,1.11-2.17,2.3-3.23,3.57,1.05-1.27,2.13-2.46,3.23-3.57ZM254.73,196.18c-.71.96-1.42,1.97-2.13,3.02.71-1.05,1.41-2.06,2.13-3.02ZM251.86,200.33c-.47.73-.95,1.49-1.42,2.28.47-.78.95-1.54,1.42-2.28ZM249.28,204.57c-.26.44-.48.92-.69,1.39.21-.48.43-.95.69-1.39h0ZM248.39,206.44c-.06.15-.12.31-.18.46,0,0,0,0,0,0,.06-.16.12-.31.18-.46ZM262.37,193.87c-.13.14-.27.27-.4.41.13-.14.27-.28.4-.41ZM261.58,194.7c-.13.14-.26.28-.39.42.13-.14.26-.28.39-.42ZM260.79,195.56c-.12.14-.25.28-.37.42.12-.14.25-.28.37-.42ZM260.01,196.45c-.12.13-.23.27-.35.41.12-.14.23-.27.35-.41ZM259.23,197.37c-.11.13-.21.26-.32.39.11-.13.21-.26.32-.39ZM258.47,198.3c-.1.12-.19.24-.29.36.1-.12.19-.24.29-.36ZM257.72,199.25c-.09.11-.17.22-.25.33.08-.11.17-.22.25-.33ZM257,200.19c-.08.1-.15.21-.23.31.08-.1.15-.21.23-.31ZM256.3,201.14c-.06.09-.13.18-.19.27.06-.09.13-.18.19-.27ZM255.64,202.09c-.05.08-.11.15-.16.23.05-.08.1-.15.16-.23ZM255,203.01c-.04.06-.08.13-.13.19.04-.06.08-.13.13-.19ZM254.41,203.91c-.03.05-.07.1-.1.15.03-.05.07-.1.1-.15ZM263.53,192.74c.14-.13.28-.26.42-.39-.14.13-.28.26-.42.39ZM264.3,192.03c.14-.13.28-.25.42-.37-.14.12-.28.24-.42.37ZM271.04,156.83c-.48.2-.89.54-1.18.97.29-.43.7-.77,1.18-.97.32-.14.67-.21,1.04-.21-.37,0-.72.08-1.04.21ZM272.08,161.98c-.37,0-.72-.08-1.04-.21-.48-.2-.89-.54-1.18-.97.29.43.7.77,1.18.97.32.14.67.21,1.04.21ZM270.34,171.44c1-.6,2.01-1.18,3.03-1.73-1.02.55-2.03,1.13-3.03,1.73-1,.6-1.98,1.23-2.95,1.88.97-.65,1.95-1.28,2.95-1.88ZM254.17,184.72s0,0,0,0c.78-.86,1.59-1.7,2.41-2.53-.83.82-1.63,1.67-2.41,2.53ZM259.59,213.32l6.1-1.73c-4.34,7.79-10.14,15.53-15.77,22.56-2.89,3.61-6.97,10.43-7.81,1.84l17.48-22.67ZM276.61,198.36c-.7-1.43-2.8-5.94-4.45-8.21,0,0,0,0,0,0,1.65,2.27,3.75,6.78,4.45,8.21.1.2.2.41.3.61-.1-.2-.2-.41-.3-.61ZM306.71,170.21h0c5.53-1.12,9.83-1.64,13.96-.8,0,0,0,0,0,0-4.13-.83-8.43-.32-13.96.8ZM283.58,148.7c.51,1.2.74,2.29.76,3.23-.02-.93-.26-2.02-.76-3.23h0ZM248.72,169.7c.34.17.7.24,1.06.21-.36.03-.72-.04-1.06-.21-.51-.26-.96-.74-1.28-1.48.32.74.78,1.22,1.28,1.48ZM241.73,246.42c6.28,4.26,12.93,3.37,20.03,3.49,2.89.05,5.82-.04,8.71,0l-2.62,9.58c-1.44,1.28-6.57-2.98-7.83-3.48-7.72-3.06-12.08-2.5-19.62-3.48-3.5-.46,1.88-3.74,1.34-6.1ZM256.52,244.27l-7.83-.47c-.74-.63,1.75-3.46,2.28-4.24,6.02-8.9,13.32-17.02,19.43-25.88,2.49-2.65,5.7-.2,8.78-.36l-22.67,30.95ZM315.82,295.07c-.12-.39-.18-.72-.2-1.01.02.28.08.61.2,1.01h0ZM345.44,287.23c.26-.53.59-.99.98-1.38.78-.78,1.77-1.27,2.75-1.39-.97.12-1.97.61-2.75,1.39-.39.39-.73.85-.98,1.38-2.01,4.14-.5,7.01,1.91,7.64-2.4-.63-3.92-3.5-1.91-7.64ZM351.39,262.23c-.02.28-.09.51-.17.69.08-.18.15-.41.17-.69ZM350.88,263.43c.05-.05.1-.11.15-.19-.05.07-.1.13-.15.19ZM350.52,259.75c.25.26.45.57.6.9-.15-.34-.35-.64-.6-.9-.37-.4-.83-.71-1.34-.93.51.22.97.53,1.34.93ZM348.43,295.01c-.15,0-.3,0-.45-.02.15.01.3.02.45.02ZM352.84,292.31c.02-.16-.02-.28-.08-.39-.1-.15-.25-.25-.31-.3.07.05.21.14.31.3.06.1.11.23.08.39ZM352.42,236.28c.38-.43.64-.88.8-1.35-.16.47-.42.92-.8,1.35ZM354.48,210.67c.03-.2.08-.41.14-.62-.06.21-.11.41-.14.62-.01.1-.02.2-.03.3,0-.1.01-.2.03-.3ZM357.64,170.48c-.03-.13-.08-.24-.12-.37.04.13.08.24.12.37.01.05.07.11.15.19-.08-.08-.14-.14-.15-.19ZM358.54,172.43c0-.2,0-.4-.02-.6-.02-.19-.08-.36-.16-.51-.08-.15-.18-.27-.29-.38.1.11.2.24.29.38s.14.32.16.51c.02.2.02.4.02.6ZM356.79,168.3c-.27-.45-.57-.82-.89-1.14.32.32.63.68.89,1.14ZM355.03,208.81c-.07.2-.14.41-.21.61.07-.21.14-.41.21-.61ZM360.69,241.23c.34-.5.82-.9,1.39-1.14-.57.24-1.05.64-1.39,1.14ZM361.46,245.54c-.3-.22-.56-.48-.77-.78.21.31.47.57.77.78ZM360.85,207.45c-.01-.28-.05-.53-.11-.75.06.23.09.48.11.75ZM355.11,166.53c-1.02-.63-2.16-.76-3.19-.4,1.03-.36,2.17-.24,3.19.4ZM349.21,228.83c.74.15,1.45.48,2.06.94-.61-.45-1.31-.78-2.06-.94-.74-.15-1.53-.12-2.31.14.78-.26,1.56-.29,2.31-.14ZM348.66,258.64c-.36-.1-.73-.16-1.1-.17.37.01.74.07,1.1.17ZM339.01,275.78c-.26.87-.45,1.52-.54,1.87h0c.08-.34.28-1,.54-1.87.11-.35.22-.73.35-1.13-.13.41-.24.79-.35,1.13ZM335.04,156.54c-.95-.4-1.62-1.35-1.62-2.44s.67-2.04,1.62-2.44c-.95.4-1.62,1.35-1.62,2.44s.67,2.04,1.62,2.44ZM252.6,156.35c.41-.37.82-.72,1.22-1.06-.4.33-.81.69-1.22,1.06ZM250.17,158.77c.38-.43.79-.85,1.19-1.25-.41.4-.81.82-1.19,1.25ZM240.02,183.55c.28,0,.59-.04.86,0-.27-.04-.58,0-.86,0ZM233.61,182.28c.85-.76,1.7-1.24,2.53-1.37-.82.13-1.67.61-2.53,1.37ZM229.81,187.31c1.02-1.77,2.09-3.29,3.16-4.41-1.07,1.12-2.14,2.64-3.16,4.41ZM223.22,204.74c-.26,1.19-.46,2.32-.59,3.35.13-1.03.33-2.16.59-3.35,1.13-5.16,3.37-11.49,5.98-16.34-2.61,4.85-4.85,11.18-5.98,16.34ZM222.45,210.87c-.01-.54.01-1.13.07-1.78-.06.64-.08,1.24-.07,1.78ZM222.59,212.3c1.47.51,3.08.77,4.36,1.74.47.36,1.12,1.23,1.8,2.19-2.06.23-4.59.48-4.82.42-.8-.19-2.71-3.43-4.08-5.12.83.18,1.72.42,2.74.77ZM213.61,189.09c2.04-3.13,4.99-4.7,7.1-6.84-2.11,2.14-5.06,3.71-7.1,6.84ZM181.58,159.65s-.01-.01-.02-.02c0,0,0,.01.02.02h0ZM186.13,155.86c.1.39.14.78.12,1.16.02-.38-.01-.78-.12-1.16ZM180.77,154.79c.1,1.13-.27,3.02.29,4.19-.56-1.16-.18-3.06-.29-4.19h0c.9-.2,2.22-1.05,3.39-.95-1.17-.1-2.48.75-3.39.95ZM184.21,153.85c.3.03.59.13.87.33-.27-.2-.56-.29-.87-.33ZM177.97,148.37c-1.26-.35-5.72.19-8.62.95-1.31.35-2.3.74-2.52,1.11-.41-.94-1-1.71-1.8-2.16.8.45,1.39,1.21,1.8,2.16.22-.37,1.21-.76,2.52-1.11,2.89-.76,7.35-1.31,8.62-.95.7.2,1.22.42,1.63.67-.41-.25-.93-.48-1.63-.67ZM179.99,149.33s.07.05.1.08c-.03-.03-.07-.05-.1-.08ZM163.41,147.83c.34.02.66.08.96.17-.3-.09-.61-.15-.96-.17ZM151.59,160.7c-.54.52-1.08,1.06-1.61,1.6-.53.55-1.05,1.1-1.55,1.66.5-.56,1.02-1.11,1.55-1.66.53-.55,1.07-1.08,1.61-1.6.54-.52,1.09-1.03,1.64-1.51-.55.49-1.1.99-1.64,1.51ZM145.49,182.18c-.56-.99-1.67-1.69-3.61-1.9-1.84-.2-3.24.51-4.33,1.69-.66.71-1.2,1.6-1.67,2.56.46-.97,1.01-1.85,1.67-2.56,1.1-1.18,2.5-1.89,4.33-1.69,1.94.21,3.05.91,3.61,1.9ZM145.78,182.89c-.03-.1-.06-.19-.1-.29.04.09.07.19.1.29ZM134.71,187.61c.22-.7.46-1.4.73-2.08-.27.68-.52,1.38-.73,2.08ZM133.42,192.39c.29-1.04.59-2.36.98-3.74-.39,1.38-.69,2.7-.98,3.74ZM133.12,194.45c-.09,1.12-.13,2.32-.18,3.1-.03.44-.05.75-.09.81-.04.07-1.22-.24-1.66.28.45-.51,1.62-.21,1.66-.28.04-.06.07-.37.09-.81.04-.78.09-1.98.18-3.1.03-.32.06-.63.09-.92-.04.29-.07.6-.09.92ZM149.2,334.69c-.03.1-.05.21-.08.31.03-.1.05-.21.08-.31ZM148.72,337.61s0-.03,0-.04c0,.01,0,.03,0,.04ZM148.9,336.05c.01-.07.03-.14.04-.2-.01.07-.03.14-.04.2ZM214.8,294.07c-.85-.7-1.71-1.36-2.59-1.99.12.21.24.41.36.6-.68-1.08-1.43-2.56-2.17-3.7-.07-.1-.12-.2-.18-.3.03-.39.07-.81.14-1.3l7.85.87c2.46-.12,4.95.11,7.42,0,1.06-.05,3.24.66,3.03-.86-5.91-.73-13.36-.77-18.99-2.36-1.45-.41-3.12-.9-2.78-2.87,3.77-.44,8.25-1.27,11.79-2.59,2.57-.96,8.33-5.03,9.71-5.1,1.66-.09,15.58,9.04,20.32,6.81l-2.61,2.6c1.44-.05,2.92.1,4.35,0,.71-.05,1.99-1.9,4.37-.45,5.71,3.47-3.15,9.97-6.11,11.78-.92.56-1.86,1.05-2.81,1.5-.68-.02-1.38.09-2.05.37-1.47.62-2.94,1.24-4.41,1.86-8.34,1.82-17-.15-24.62-4.88ZM275.63,318.87c-2.72,1.72-10.04,4.39-11.03,4.7-4.09,1.29-8.55,2.37-13.13,3.08,7.74-1.83,15.22-4.66,22.2-8.62.78-.05,1.4.35,1.96.84ZM229.84,315.82c1.66-1.2,5.34-4.53,8.24-7,.49-.42.95-.8,1.38-1.15,1.02-.56,2.04-1.13,3.06-1.69,5,.35,10.32,2.95,14.7,4.6,3.8,1.43,7.59,2.86,11.39,4.28-1.37,1.58-10.75,5.01-11.88,5.37-11.37,3.58-25.54,5.62-37.52,2.24,3.67-1.92,7.28-4.21,10.64-6.64ZM215.91,356.68c-.17.06-.36.1-.54.13.19-.03.37-.07.54-.13ZM218.23,352.58c.09-2.01-.39-3.44-1.18-4.38-1.18-1.41-3.06-1.72-4.72-1.28-.74.2-1.44.54-2.01,1-.29.23-.55.49-.76.78-.43.58-.71,1.26-.74,2.01.03-.75.31-1.43.74-2.01.22-.29.47-.55.76-.78.58-.46,1.27-.81,2.01-1,1.66-.44,3.54-.13,4.72,1.28.79.94,1.27,2.37,1.18,4.38-.08,1.7-.61,2.9-1.43,3.59.81-.68,1.35-1.88,1.43-3.59ZM208.22,336.52c2.21-1.12,4.38-2.3,6.46-3.62-2.08,1.32-4.25,2.5-6.46,3.62ZM228.98,337.18c.59-.15,1.3-.1,1.97.13.33.12.65.27.93.48-.28-.2-.6-.36-.93-.48-.66-.23-1.38-.28-1.97-.13ZM227.43,339.75c-.02-.62.13-1.27.51-1.86-.38.59-.53,1.24-.51,1.86ZM232.28,338.11c.24.24.44.52.57.84-.13-.32-.33-.6-.57-.84ZM251.31,298.68c-.7-2.85,3.82-3.76,4.35-4.34.17-.19.21-1.43.84-2.17,2.79-3.26,4.81-5.14,6.09-9.63,4.32-.03,8.14-1.36,12.24-2.14.14-.03.5-.87,1.28-.86.54,0,3.59,1.87,6.85,3.93-.12.15-.2.27-.25.28-4.1.78-7.92,2.11-12.24,2.14-1.28,4.49-3.29,6.37-6.09,9.63-.52.61-.64,1.56-.76,1.98.01-.04.02-.07.03-.12-.4.29-.79.58-1.19.87-1.05.46-2.53,1.13-3.1,2.24-.77.55-1.54,1.1-2.32,1.64h0c-.11.08-.22.15-.33.23-1.81-1.21-3.62-2.43-5.41-3.67ZM263.55,297.67s.03-.05.05-.1c-.02.04-.03.07-.05.1ZM263.54,297.69s-.08.07-.14.11c.06-.04.11-.07.14-.11ZM263.33,297.84s-.1.05-.15.08c.06-.03.11-.06.15-.08ZM263.07,297.97c-.06.03-.12.06-.19.09.07-.03.13-.06.19-.09ZM262.75,298.12c-.09.04-.18.08-.28.12.1-.04.19-.08.28-.12ZM259.24,300.79c-.03.1-.06.2-.08.31.02-.11.04-.21.08-.31ZM259.15,301.13h0s-.07.03-.11.05c.04-.02.07-.03.11-.05ZM374.37,268.45c-1.28.54-2.17,1.81-2.17,3.28,0,.74.22,1.42.61,1.99.26.38.58.71.96.96-.38-.26-.71-.58-.96-.96-.38-.57-.61-1.25-.61-1.99,0-1.47.9-2.74,2.17-3.28ZM340.22,271.94c-.23.73-.46,1.43-.66,2.08.2-.65.43-1.35.66-2.08.16-.49.32-.99.48-1.5-.17.51-.33,1.01-.48,1.5ZM337.1,156.54c.95-.4,1.62-1.35,1.62-2.44s-.67-2.04-1.62-2.44c.95.4,1.62,1.35,1.62,2.44s-.67,2.04-1.62,2.44ZM247.51,155.35c2.59-2.01,5.26-3.9,7.99-5.67-2.73,1.77-5.4,3.66-7.99,5.67ZM259.77,147.04c1.6-.94,3.22-1.86,4.86-2.72-1.64.86-3.26,1.78-4.86,2.72ZM226.22,163.22c-2.97,4.34-4.49,9.07-7.12,13.36h0s0,0,0,0c2.63-4.28,4.15-9.02,7.12-13.36.76-1.11,1.6-2.15,2.48-3.16-.88,1.01-1.72,2.05-2.48,3.16ZM228.56,170.03c-.16.29-.32.58-.47.86.16-.29.32-.58.47-.86ZM227.69,171.6c-.3.56-.61,1.11-.93,1.68.31-.56.62-1.12.93-1.68ZM216.12,175.01c-.08-.04-.17-.07-.25-.11h0c.08.04.17.07.25.11ZM222.72,150.64c0-.68-.19-1.3-.5-1.86.31.55.5,1.18.5,1.86h0ZM218.87,146.79c-2.13,0-3.86,1.73-3.86,3.86h0c0-2.13,1.73-3.86,3.86-3.86,1.07,0,2.03.43,2.73,1.13-.7-.7-1.66-1.13-2.73-1.13ZM163.34,147.82c-.6.29-1.15.56-1.74.87-.47.62-.68,1.25-.71,1.91.04-.65.24-1.29.71-1.91.59-.31,1.14-.58,1.74-.87h0ZM149.4,341.25h0c-.03.36-.03.73,0,1.08-.02-.36-.02-.72,0-1.08ZM166,340.86c.47-.25.91-.54,1.34-.84.85-.6,1.62-1.29,2.36-2.02.73-.73,1.43-1.49,2.13-2.25-.7.76-1.39,1.52-2.13,2.25-.73.73-1.51,1.41-2.36,2.02-.43.3-.87.58-1.34.84-.77.42-1.52.77-2.23,1.05.72-.28,1.46-.63,2.23-1.05ZM194.24,349.97c-.23.44-.34.86-.37,1.24.03-.38.14-.8.37-1.24ZM195,353.43c.43.3.93.51,1.44.61-.51-.1-1.01-.31-1.44-.61-.28-.2-.53-.44-.73-.72.19.28.44.52.73.72ZM262.87,339.44c-.32.9-.37,1.9-.14,2.77-.22-.87-.18-1.87.14-2.77ZM270.3,335.09c.45-.45.98-.84,1.59-.98.3-.07.62-.08.96,0-.34-.08-.66-.07-.96,0-.61.14-1.14.54-1.59.98ZM268.77,336.9c-.05.02-.11.03-.16.04.06-.01.11-.03.16-.04,0,0,.02-.02.03-.02,0,0-.02.02-.03.02ZM266.9,336.9c.6.05,1.16.14,1.62.06-.46.08-1.02,0-1.62-.06ZM265.94,336.89c-.33.03-.66.09-.99.22-.22.09-.44.21-.66.36.22-.16.44-.28.66-.36.33-.13.67-.2.99-.22.22-.02.43-.02.64,0-.21,0-.43,0-.64,0ZM263.37,343.53c-.23-.28-.41-.61-.54-.96.13.36.31.68.54.96ZM265.87,344.48c-.18.02-.35.03-.51.02.16,0,.33,0,.51-.02ZM272.04,340.69c-.21.17-.42.35-.62.53.2-.19.41-.36.62-.53ZM273.76,339.33c-.36.33-.77.63-1.18.94.41-.31.82-.62,1.18-.94ZM274.49,335.1c-.39-.39-.76-.65-1.11-.82.36.17.73.43,1.11.82.31.66.45,1.23.48,1.73-.02-.5-.17-1.07-.48-1.73ZM274.71,338.14c-.1.2-.22.38-.36.56.14-.18.26-.36.36-.56ZM330.56,336.41c-.99.31-1.94.49-2.86.56.92-.07,1.87-.25,2.86-.56ZM228.95,169.33c.16-.29.33-.59.5-.88-.17.29-.33.59-.5.88ZM229.96,167.55c.31-.53.63-1.07.97-1.61-.34.54-.66,1.07-.97,1.61ZM235.35,149.78c-.14-.09-.29-.18-.45-.28h0c.16.09.31.19.45.28ZM224.19,144.68c-2.73-1.05-5.07-1.87-5.95-2.08-4.36-1.94-9.08-3.46-13.98-4.52,4.9,1.06,9.62,2.58,13.98,4.52.88.21,3.23,1.03,5.95,2.08,0,0,0,0,0,0ZM177.78,136.76c-6.27.73-12.35,2.23-17.91,4.54-5.62,2.34-10.6,5.19-15.01,8.47,4.41-3.28,9.39-6.13,15.01-8.47,5.56-2.31,11.64-3.81,17.91-4.54ZM137.5,156.14s.04-.03.05-.05c-.02.02-.04.03-.05.05ZM141.06,152.82c.18-.16.37-.31.55-.47-.18.16-.37.31-.55.47ZM321.42,346.56h0c1.87,1.1,3.46,1.97,4.63,2.53,0,0,0,0,0,0-1.17-.56-2.76-1.43-4.63-2.53ZM340.45,319.12s.04.03.07.04c.37.25.75.52,1.13.85-.39-.33-.77-.61-1.13-.85-.02-.02-.04-.03-.07-.04h0ZM372.58,294.56s.03.03.04.04c-.01-.01-.03-.03-.04-.04ZM372.93,294.88s-.02-.02-.03-.02c0,0,.02.02.03.02ZM380.15,282.79s0,0,0,0c-.47,3.02-1.17,5.84-2.08,8.55.91-2.72,1.61-5.53,2.08-8.55ZM373.88,164.4s0,0,0,0c10.88,17.71,15.06,39.5,15.11,61.07-.05-21.57-4.22-43.37-15.11-61.07ZM388.99,225.51c0,2.58-.05,5.15-.16,7.72.11-2.56.16-5.14.16-7.72ZM388.6,237.56c-.16,2.38-.36,4.75-.6,7.1.24-2.35.44-4.72.6-7.1ZM279.98,127.89c-5.04,1.33-9.88,2.99-14.41,4.97-8.65,3.78-16.12,9.34-24.24,14.03-.6-.33-1.21-.65-1.81-.97,11.93-8.76,25.9-15.03,40.46-18.03ZM122.81,286.47c-19.92-46.9-28.45-124.56,29.17-148.51,4.22-1.76,8.75-3.03,13.43-3.87-6.46,1.89-12.8,4.71-18.9,8.67-17.22,11.16-28.25,28.89-33.01,48.63-4.9,20.32-3.83,41.85.31,62.2,2.07,10.19,5.17,20.15,8.93,29.84,2.42,6.23,4.61,12.72,7.82,18.59,2.14,3.91,4.24,8.25,6.58,12.4-5.26-7.82-11.86-22.11-14.33-27.95ZM331.81,353.92c1.66-1.13,3.3-2.3,4.91-3.52-1.11-.35-2.26-.45-3.41-.47,0,0,0,0,0,0,1.16.02,2.3.12,3.41.47-1.61,1.22-3.26,2.39-4.91,3.52ZM350.68,336.9h0c7.7-7.87,14.51-18.02,19.61-27.86.24-.46.52-.99.83-1.57-.31.58-.59,1.11-.83,1.57-5.11,9.84-11.92,20-19.61,27.86ZM375.07,299.56c.38-.88.68-1.68.86-2.32,0,0,0,0,0,0,0,0,0,0,0,0-.17.64-.48,1.44-.86,2.32ZM375.89,297.14s0,0,.01.01c0,0,0,0-.01-.01Z"/><path class="cls-2" d="M218.19,288.25c2.46-.12,4.95.11,7.42,0,1.06-.05,3.24.66,3.03-.86-5.91-.73-13.36-.77-18.99-2.36-1.45-.41-3.12-.9-2.78-2.87,3.77-.44,8.25-1.27,11.79-2.59,2.57-.96,8.33-5.03,9.71-5.1,1.66-.09,15.58,9.04,20.32,6.81l-2.61,2.6c1.44-.05,2.92.1,4.35,0,1.85,4-.34,7.58-1.74,11.33-11.24,6.86-24.15,5.3-34.85-1.74v-5.23c1.44-.05,2.91.07,4.36,0Z"/><path class="cls-10" d="M248.69,295.22c1.4-3.74,3.59-7.33,1.74-11.33.71-.05,1.99-1.9,4.37-.45,5.71,3.47-3.15,9.97-6.11,11.78Z"/><path class="cls-10" d="M218.19,288.25c-1.45.07-2.92-.06-4.36,0v5.23c-2.68-1.77-4.18-1.04-3.48-6.1l7.85.87Z"/><circle class="cls-10" cx="320.57" cy="148.83" r="4.36"/><path class="cls-10" d="M341.05,168.01c-.04-6.42,7.05-7.65,8.71-.87-.65,4.73-6.65,4.79-8.71.87Z"/><path class="cls-10" d="M344.53,288.25c-4.2,2.33-7,.33-6.97-4.36,2.04-4.2,9.35-4.35,6.97,4.36Z"/><path class="cls-10" d="M275.7,145.35c2.7,6.42-2.29,9.53-6.1,3.49.31-.42-.26-2.92,1.74-3.96,2.23-1.16,3.57.51,4.36.48Z"/><circle class="cls-10" cx="355.42" cy="239.65" r="3.15"/><path class="cls-10" d="M232.13,180.2c.28,0,.6-.05.87,0,2.38,4.59.05,4.48-2.61,6.1-4.19-2.97-3.92-6.18,1.74-6.1Z"/><path class="cls-10" d="M352.37,207.21c-2.26.07-4.22.65-5.23-1.74,1.85-5.6,7.7-4.91,5.23,1.74Z"/><circle class="cls-10" cx="264.2" cy="155.96" r="2.68"/><path class="cls-10" d="M210.35,349.24c-2.2,1.9-3.82,3.22-6.97,2.61-8.38-7.38,7.45-13.35,6.97-2.61Z"/><path class="cls-10" d="M252.17,350.11c-1.98,2.65-3.47,4.84-6.97,2.61-4.31-5.84,4.31-10.22,6.97-2.61Z"/><path class="cls-10" d="M290.51,340.52c.35,2.88-.24,4.76-3.49,4.36-1.32-1.35-2.71-1.71-1.36-4.41,1.63-1.78,3.22-.37,4.85.05Z"/><circle class="cls-10" cx="240.78" cy="370.36" r="3.31"/><circle class="cls-10" cx="283.11" cy="359.69" r="1.97"/><circle class="cls-10" cx="367.88" cy="268.39" r="3.56"/><path class="cls-10" d="M299.22,307.41c-2.61.33-3.82-.82-3.49-3.49,3.82-3.86,5.09-.75,3.49,3.49Z"/><path class="cls-10" d="M223.43,247.3c2.45-2.47,6.92,4.06,3.04,5.22-3.36,1-3.65-4.6-3.04-5.22Z"/><circle class="cls-10" cx="264.35" cy="200.2" r="3.55"/><path class="cls-10" d="M197.28,150.58c-.24,4.93-3.75,8.56-8.71,6.1-5.5-7.56,5.24-15.26,8.71-6.1Z"/><path class="cls-10" d="M153.72,161.91c2.56,1.44,2.11,2.88,2.61,5.23-2.99,4.21-5.95,4.63-9.58.87.02-4.53,1.9-8.95,6.97-6.1Z"/><path class="cls-10" d="M138.03,268.21c.63,5.04-.73,7.7-6.1,6.97-4.34-4.81.23-11.52,6.1-6.97Z"/><circle class="cls-10" cx="135.18" cy="206.98" r="3"/><path class="cls-10" d="M145.78,295.99c-.1.16-2.8,1.26-3.42.58-4.15-8.24,6.04-4.8,3.42-.58Z"/><path class="cls-5" d="M319.91,346.42c-4.1-.69-35.11-21.78-42.47-25.93-1.13-.64-2.09-2.55-3.77-2.45-14.19,8.05-30.48,11.47-46.76,11.17-4.93-.68-10.66-2.11-15.68-4.36-.01.32-.06.61-.14.88.08-.27.13-.56.14-.88-2.69-1.2-1.78-3.56-6.72-1.94-7.1,2.32-22.33,11.19-28.93,15.52-4.33,2.84-8.53,5.88-12.25,9.51,9.15,9.25,20.99,15.04,33.27,18.98,44.75,14.35,94.45,8.73,132.25-19.86-2.88-.92-5.95-.14-8.94-.64ZM303.66,342.3c-.1-.42-.35-.88-.67-1.18.32.3.57.76.67,1.18ZM285.67,340.47c1.63-1.78,3.22-.37,4.85.05.35,2.88-.24,4.76-3.49,4.36-1.32-1.35-2.71-1.71-1.36-4.41ZM245.2,352.72c-4.31-5.84,4.31-10.22,6.97-2.61-1.98,2.65-3.47,4.84-6.97,2.61ZM210.35,349.24c-2.2,1.9-3.82,3.22-6.97,2.61-8.38-7.38,7.46-13.35,6.97-2.61ZM198.11,334.28c2.98-1.44,5.91-2.96,8.68-4.72.37-.24.77-.47,1.17-.71-.4.24-.8.47-1.17.71-2.77,1.76-5.7,3.28-8.68,4.72-1.49.72-2.99,1.42-4.49,2.13,1.5-.7,3-1.41,4.49-2.13ZM184.74,340.82c-1.16.64-2.3,1.32-3.42,2.03,1.12-.71,2.26-1.39,3.42-2.03ZM230.41,363.43c2.5.02,4.99-.04,7.49-.16-2.49.12-4.99.17-7.49.16ZM240.78,373.67c-1.83,0-3.31-1.48-3.31-3.31s1.48-3.31,3.31-3.31,3.31,1.48,3.31,3.31-1.48,3.31-3.31,3.31ZM283.11,361.66c-1.09,0-1.97-.88-1.97-1.97s.88-1.97,1.97-1.97,1.97.88,1.97,1.97-.88,1.97-1.97,1.97ZM280.32,354.5c1.6-.6,3.18-1.22,4.75-1.88-1.57.66-3.16,1.28-4.75,1.88ZM290.56,350.12c.32-.16.67-.33,1.04-.52-.37.18-.71.36-1.04.52ZM303.58,343.12c-.12.18-1,.71-2.29,1.42-.64.36-1.39.76-2.19,1.19-.6.32-1.23.65-1.88.99-.43.22-.86.45-1.3.68.44-.23.87-.45,1.3-.68.64-.34,1.28-.67,1.88-.99.8-.43,1.54-.83,2.19-1.19,1.29-.72,2.17-1.25,2.29-1.42.05-.07.08-.15.1-.23-.02.09-.05.16-.1.23Z"/><path class="cls-5" d="M352.37,144.48c-6.81-6.2-13.49-11.1-22.65-13.07-32.72-12.64-71.31-2.67-97.13,20.06-11.17,9.84-11.45,16.8-18.88,26.43-2.18,2.82-5.95,4.34-8.28,8.27-1.67,2.82-6.23,18.19-4.56,20.07,1.2-.04,2.43.79,3.38.96h0c3.84.69,6.05.21,10.46,1.74,1.47.51,3.08.77,4.36,1.74.05-.29.12-.64.21-1.02.14-.58.31-1.26.53-2.01-.21.75-.39,1.43-.53,2.01-.09.39-.16.73-.21,1.02,1.29.99,3.89,5.72,4.87,5.95.36.08,6.32-.57,7.33-.73.04-2.19.25-4.36.62-6.51.55-3.23,1.46-6.4,2.67-9.49,1.01-2.58,2.23-5.09,3.65-7.53.56-.98,1.16-1.94,1.78-2.89,1.87-2.85,3.99-5.57,6.33-8.14-2.33,2.57-4.46,5.29-6.33,8.14-.62.95-1.22,1.91-1.78,2.89-1.41,2.44-2.64,4.96-3.65,7.53-1.21,3.09-2.12,6.27-2.67,9.49-.37,2.15-.58,4.33-.62,6.51,1.6-.24,5.52-4.56,6.5-6.13,1.62-2.59,2.11-5.93,3.63-8.57,10.15-17.61,19.76-23.38,38.44-30.39,11-4.13,23.25-8.77,35.07-6.32,6.39,3.08,13.3,5.37,15.67,13.07-2.53-1.82-4.49-4.18-6.96-6.1-9.01-6.97-15.08-6.69-26.13-4.35l10.45,3.48c3.71,2.45,7.38,5.54,10.46,8.71,16.72,27.23,9.23,67.83-3.33,95.56-2.63,5.81-6.3,11.33-8.86,16.83.52.14,1.46-.16,1.74,0-.12-.39-.18-.72-.2-1.01.02.28.08.61.2,1.01,16.76,9.87,36.06,18.43,34.86,41.82,7.7-7.87,14.51-18.02,19.61-27.86,1.54-2.96,4.85-8.92,5.63-11.8.01-.05-.04-.12-.13-.2,2.1-4.5,3.55-9.07,4.36-14.25,0,0,.02-.01.03-.02.76-.63,4.42-16.64,4.91-19.05,7.77-38.42,6-87.79-24.84-115.89ZM371.44,268.39c0,1.97-1.59,3.56-3.56,3.56s-3.56-1.59-3.56-3.56,1.59-3.56,3.56-3.56,3.56,1.59,3.56,3.56ZM327.83,272.76c.46.08.93.24,1.39.49.46.26.92.6,1.36,1.06.02-.07.04-.15.06-.24.13-.46.35-1.22.64-2.17.12-.38.24-.79.38-1.22-.14.43-.26.84-.38,1.22-.29.94-.52,1.7-.64,2.17-.03.09-.05.17-.06.24-.44-.45-.9-.8-1.36-1.06-.46-.25-.93-.42-1.39-.49-1.15-.19-2.23.15-2.99.86.76-.72,1.84-1.05,2.99-.86ZM328.24,249.57c.52-1.9,1-3.81,1.43-5.73-.43,1.92-.91,3.84-1.43,5.73ZM328.85,292.25c0,.19-.02.38-.06.56.04-.18.06-.37.06-.56h0ZM323.87,275.28c-.06.22-.1.46-.12.7.02-.24.06-.48.12-.7ZM327.18,281.88c.02-.24.03-.47.03-.68,0,.21-.02.44-.03.68-.03.36-.06.75-.05,1.13,0-.39.03-.77.05-1.13ZM324.1,274.65c.18-.37.42-.7.7-.98-.28.28-.52.6-.7.98ZM323.31,292.25c0,.19.02.38.06.56-.04-.18-.06-.37-.06-.56h0ZM350.66,169.09c0-.2,0-.4-.02-.6-.02-.19-.08-.36-.16-.51.08.15.14.32.16.51.02.2.02.4.02.6ZM350.19,167.6c-.15-.16-.31-.29-.38-.38.08.09.23.22.38.38ZM356.78,186.13c.64,1.51,2.13,2.57,3.88,2.57s3.24-1.06,3.88-2.57c.21-.5.33-1.06.33-1.64,0,.58-.12,1.13-.33,1.64-.64,1.51-2.13,2.57-3.88,2.57s-3.24-1.06-3.88-2.57c-.21-.5-.33-1.06-.33-1.64,0,.58.12,1.13.33,1.64ZM367.53,222.88c0-1.4-1.13-2.53-2.53-2.53s-2.53,1.13-2.53,2.53c0,.17.02.34.05.51.07.36.23.68.43.97-.21-.29-.36-.61-.43-.97-.03-.16-.05-.34-.05-.51,0-1.4,1.13-2.53,2.53-2.53s2.53,1.13,2.53,2.53h0ZM358.57,239.65c0,1.74-1.41,3.15-3.15,3.15s-3.15-1.41-3.15-3.15,1.41-3.15,3.15-3.15,3.15,1.41,3.15,3.15ZM340.33,255.2c.33.06.66.15.97.28-.31-.13-.64-.22-.97-.28ZM343.42,257.84c-.09-.37-.25-.71-.45-1.01.2.3.35.64.45,1.01.05.18.08.38.09.58.02.34,0,.62-.07.85-.09.34-.25.57-.39.74.14-.17.3-.39.39-.74.06-.23.09-.51.07-.85-.01-.2-.05-.39-.09-.58ZM345.12,232.06c-.09.17-.19.33-.3.5.12-.16.22-.33.3-.5ZM343.96,226.92c-.36-.35-.77-.66-1.22-.9.44.24.86.55,1.22.9ZM340.37,233.6c.55.29,1.14.46,1.71.48-.58-.02-1.16-.19-1.71-.48ZM339.12,255.15c-.37.04-.74.12-1.08.26.35-.14.71-.22,1.08-.26ZM337.56,283.89c2.04-4.2,9.35-4.35,6.97,4.36h0c-4.2,2.33-6.99.33-6.97-4.36-.73,1.51-1,2.85-.92,3.97.02.32.07.63.14.91-.07-.29-.12-.59-.14-.91-.07-1.12.19-2.46.92-3.97ZM338.34,291.03c-.16-.1-.3-.23-.44-.35.14.13.28.25.44.35ZM363.79,283.69c-.04.07-.07.14-.11.2.04-.07.07-.13.11-.2ZM363.48,284.3c-.04.08-.07.15-.1.23.03-.08.06-.15.1-.23ZM363.23,284.89c-.03.08-.05.16-.08.23.03-.08.05-.15.08-.23ZM363.04,285.46c-.02.08-.04.15-.06.23.02-.07.04-.15.06-.23ZM362.9,286.01c-.01.07-.03.14-.04.22.01-.07.02-.14.04-.22ZM362.83,286.55c0,.07-.01.14-.02.2,0-.07,0-.13.02-.2ZM365.47,281.53c-.06.05-.11.09-.17.15.06-.05.11-.1.17-.15ZM364.89,282.12c-.06.06-.11.12-.17.18.05-.07.11-.12.17-.18ZM352.37,207.21c-2.26.07-4.22.65-5.23-1.74-.03.1-.07.2-.1.3-.14.41-.29.83-.39,1.24.09-.41.24-.83.39-1.24.04-.1.07-.2.1-.3,1.85-5.6,7.7-4.91,5.23,1.74ZM347.8,158.95c-.53.08-1.06-.07-1.52-.54-.08-.08-.14-.23-.18-.44.04.21.11.37.18.44.46.46.99.61,1.52.54ZM349.76,167.13c-.65,4.73-6.65,4.79-8.71.87h0c-.04-6.42,7.05-7.65,8.71-.87ZM337.75,226.36c.32-.3.74-.55,1.27-.73,1.04-.35,2.09-.28,3.04.07-.95-.35-2-.42-3.04-.07-.53.18-.95.43-1.27.73-.53.5-.78,1.15-.82,1.85.04-.7.29-1.35.82-1.85ZM333.58,264.79c-.17.51-.34,1.03-.51,1.54.17-.51.34-1.03.51-1.54ZM332.37,224.51c-.09,1.92-.24,3.85-.45,5.79-.14,1.29-.3,2.58-.48,3.87.18-1.29.34-2.58.48-3.87.2-1.94.35-3.87.45-5.79.06-1.28.1-2.56.11-3.83-.01,1.27-.05,2.55-.11,3.83ZM332.34,215.01c-.07-1.25-.17-2.49-.3-3.72.13,1.23.23,2.47.3,3.72ZM242.87,154.79c-.4.42-.79.85-1.15,1.3-.36.45-.7.9-1.01,1.37-.31.47-.58.95-.82,1.44s-.42.98-.56,1.49c.14-.5.32-1,.56-1.49.23-.49.51-.97.82-1.44.31-.47.65-.93,1.01-1.37s.75-.88,1.15-1.3c.4-.42.81-.82,1.22-1.21-.41.39-.83.79-1.22,1.21ZM232.13,180.2c.28,0,.6-.05.87,0,2.38,4.59.05,4.48-2.61,6.1-4.19-2.97-3.92-6.18,1.74-6.1ZM223.81,181.09c-.42.57-.85,1.19-1.26,1.85.42-.67.84-1.29,1.26-1.85ZM234.4,180.69c.19.11.36.24.51.38-.15-.14-.32-.26-.51-.38ZM235.81,182.84c-.03-.25-.08-.48-.16-.71.08.23.14.47.16.71ZM302.36,148.39c0-1.09.55-2.05,1.39-2.62-.84.57-1.39,1.53-1.39,2.62h0ZM307.66,146.09s.06.04.08.07c-.02-.02-.06-.04-.08-.07ZM268.97,139.27c-1.15.43-2.29.89-3.42,1.35,1.13-.47,2.27-.92,3.42-1.35,4.6-1.73,9.34-3.18,13.94-4.22,1.72-.39,3.43-.73,5.1-1.01,3.34-.55,6.54-.86,9.48-.89.86,0,1.74-.04,2.6,0-.86-.04-1.74,0-2.6,0-2.94.03-6.14.34-9.48.89-1.67.28-3.37.61-5.1,1.01-4.6,1.05-9.34,2.49-13.94,4.22ZM264.2,153.28c1.48,0,2.68,1.2,2.68,2.68s-1.2,2.68-2.68,2.68-2.68-1.2-2.68-2.68,1.2-2.68,2.68-2.68ZM271.34,144.88c2.23-1.16,3.57.51,4.36.48,2.7,6.42-2.29,9.53-6.1,3.49.31-.42-.26-2.92,1.74-3.96ZM308.67,148.39c0-.83-.33-1.59-.86-2.15.53.56.86,1.32.86,2.15h0ZM214.75,204.75c.13-1.03.33-2.16.59-3.35-.26,1.19-.46,2.32-.59,3.35ZM216.67,196.38c-.27.87-.52,1.72-.74,2.56.22-.84.47-1.7.74-2.56.4-1.3.85-2.62,1.34-3.92-.49,1.3-.94,2.62-1.34,3.92ZM218.51,191.16c.34-.86.7-1.71,1.07-2.54-.37.83-.73,1.68-1.07,2.54ZM220.83,204.31c-.2.61-.38,1.19-.56,1.76.17-.56.36-1.15.56-1.76.4-1.21.84-2.5,1.32-3.82-.48,1.31-.92,2.6-1.32,3.82ZM223.28,197.53c-.26.66-.51,1.32-.76,1.98.25-.66.5-1.32.76-1.98.21-.52.42-1.04.63-1.55-.21.51-.42,1.03-.63,1.55ZM224.88,193.71c.27-.61.55-1.2.82-1.76-.27.56-.55,1.15-.82,1.76ZM228.1,187.76c.25-.35.5-.64.74-.89-.24.25-.48.54-.74.89ZM231.77,187.23c.14.01.28.01.42,0-.14,0-.28,0-.42,0ZM239.56,164.88c.26.59.61,1,.99,1.28-.39-.28-.74-.69-.99-1.28ZM241.23,166.49c.22.06.44.09.67.08-.22.02-.45-.02-.67-.08ZM255.25,173.06c-2.76,2.16-5.36,4.51-7.77,7.03,2.4-2.52,5.01-4.87,7.77-7.03,1.38-1.08,2.8-2.11,4.25-3.09-1.45.98-2.87,2.01-4.25,3.09ZM276.56,161.57c-5.41,1.78-10.68,4.31-15.59,7.45,4.92-3.14,10.18-5.67,15.59-7.45,2.16-.71,4.35-1.3,6.55-1.76-2.2.46-4.38,1.05-6.55,1.76ZM286.41,159.22c1.1-.16,2.2-.29,3.3-.38,1.65-.14,3.3-.2,4.94-.18-1.64-.02-3.29.04-4.94.18-1.1.09-2.2.22-3.3.38ZM296.29,158.71c1.09.05,2.17.14,3.25.27-1.08-.13-2.16-.22-3.25-.27ZM320.57,153.19c-2.41,0-4.36-1.95-4.36-4.36s1.95-4.36,4.36-4.36,4.36,1.95,4.36,4.36-1.95,4.36-4.36,4.36ZM325.54,150.75c0-1.28.91-2.35,2.12-2.6-1.21.25-2.12,1.32-2.12,2.6,0,1.1.67,2.04,1.62,2.44-.95-.4-1.62-1.35-1.62-2.44ZM329.22,153.2c.95-.4,1.62-1.35,1.62-2.44,0-1.28-.91-2.35-2.12-2.6,1.21.25,2.12,1.32,2.12,2.6,0,1.1-.67,2.04-1.62,2.44ZM329.58,198.85c-.35-1.13-.72-2.25-1.14-3.35.41,1.1.79,2.22,1.14,3.35ZM325.95,257.06c-.42,1.23-.85,2.45-1.29,3.66.45-1.21.88-2.43,1.29-3.66ZM323.27,264.31c-.48,1.18-.97,2.35-1.47,3.5.5-1.15.99-2.32,1.47-3.5ZM318.63,274.52c.83-1.62,1.63-3.29,2.4-5-.77,1.7-1.58,3.37-2.4,5s-1.68,3.21-2.55,4.74c.87-1.53,1.72-3.11,2.55-4.74ZM315.2,280.78c-.59,1-1.19,1.98-1.8,2.93.61-.95,1.21-1.93,1.8-2.93ZM308.42,289.31c.08-.04.16-.06.24-.08-.08.02-.16.05-.24.08ZM309.4,289.15c.1,0,.19,0,.24-.01-.05,0-.13,0-.24.01ZM362.8,287.06c0,.06,0,.12,0,.18,0-.06,0-.12,0-.18ZM364.17,290.62s-.03-.04-.04-.05c.01.02.03.04.04.05ZM363.89,290.26s-.03-.03-.04-.05c.01.02.03.03.04.05ZM363.63,289.88s-.01-.02-.02-.03c0,0,.01.02.02.03ZM363.04,288.62s-.01-.04-.02-.06c0,.02.01.04.02.06ZM362.92,288.18s-.02-.08-.02-.12c0,.04.01.08.02.12ZM362.84,287.72c0-.05-.01-.11-.02-.16,0,.05,0,.11.02.16ZM364.7,291.21s.03.03.04.04c-.01-.01-.03-.03-.04-.04ZM364.4,290.9s.03.03.05.05c-.02-.02-.03-.03-.05-.05ZM365.02,291.52s.02.02.03.03c0,0-.02-.02-.03-.03ZM367.77,280.18s.01,0,.02,0c0,0-.01,0-.02,0ZM365.91,281.16s.1-.06.14-.1c-.05.03-.1.06-.14.1ZM366.52,280.75s.08-.04.11-.06c-.04.02-.08.04-.11.06ZM367.14,280.42s.05-.02.08-.03c-.03.01-.05.02-.08.03Z"/><path class="cls-5" d="M227.76,302.62c.04-1.3-8.93-2.43-10.44-3.05-2.95-1.2-10.24-6.97-12.2-9.58-.79-1.05-1.7-2.96-2.61-4.36-1.48-2.26-.02-3.16-4.36-3.49-2.08-.15-2.95,0-4.85.81-7.25,3.1-29.24,18.84-35.69,24.44-6.7,5.82-13.1,13.12-15.68,21.79-.61,2.05-1.92,5.97-.42,7.86-.05.27.02.58,0,.87-.44,5.83,5.8,11.09,11.53,10.29,6.24-.88,18.56-11.57,24.8-15.35,16.57-10.04,35.67-16.58,49.91-30.23Z"/><path class="cls-5" d="M217.45,250.47c-.15.79,2.11,4.75,2.73,5.27,3.2,2.68,4.6-.03,6.44-.33,1.34-.22,2.28.84,4.39-.03,1.97-.81,5.97-6.98,6.63-9.12,1.54-5.03-.47-4.42-1.59-7.69-1.7-4.97-2.33-12.44-9.37-11.19-5.29.94-5.74,10.96-8.98,15.49-2.41,3.36-14.79,8.77-6.96,9.68,6.94.81,3.84-.68,4.97-3.81.51-1.42,2.48-1.66,3.35-2.76,2.96-3.73,5.27-7.79,5.65-12.63,2.59,1.94-.16,9.52-1.49,11.57-1.19,1.84-5.44,3.74-5.78,5.55ZM226.46,252.51c-3.36,1-3.65-4.6-3.04-5.22,2.45-2.47,6.92,4.06,3.04,5.22Z"/><path class="cls-5" d="M262.93,185.51c-5.11-1.53-18.57,16.3-19.48,21.27-.36,1.95-.07,1.12.89.9,3.48-.79,5.97-1.22,9.57-1.33,6.37-.21,12.8.16,19.16,0-.76-4.04-2.56-7.69-4.35-11.32-.92-1.87-4.23-9.04-5.8-9.51ZM265.94,203.38c-1.75.88-3.89.17-4.77-1.59-.88-1.75-.17-3.89,1.59-4.77,1.75-.88,3.89-.17,4.77,1.59.88,1.75.17,3.89-1.59,4.77Z"/><path class="cls-5" d="M331.09,311.71c-12.63-11.76-24.86-15.11-39.72-23.01-2.51-1.33-14.14-9.14-15.25-9.15-.78-.01-1.14.83-1.28.86-4.1.78-7.92,2.11-12.24,2.14-1.28,4.49-3.29,6.37-6.09,9.63-.63.74-.67,1.98-.84,2.17-.53.58-5.05,1.48-4.35,4.34,16.01,11.17,33.13,20.58,49.58,31.02,5.43,3.45,14.6,11.9,20.06,13.04,15.98,3.33,23.78-13.18,13.99-24.88-.52-2.22-2.23-4.64-3.86-6.16ZM299.22,307.41c-2.61.33-3.82-.82-3.49-3.49,3.82-3.86,5.09-.75,3.49,3.49Z"/><path class="cls-5" d="M248.69,243.8l7.83.47,22.67-30.95c-3.08.17-6.29-2.29-8.78.36-6.11,8.85-13.4,16.98-19.43,25.88-.53.78-3.02,3.62-2.28,4.24Z"/><path class="cls-5" d="M204.26,213.76l-21.37,29.18c1.73,1,5.76,2.36,7.41,1.33l22.66-30.07c-2.79-.72-5.85-1.62-8.71-.44Z"/><path class="cls-5" d="M193.38,213.33l-16.36,21.13c-1.38,2.73-.09,8.35,2.82,4.54l20.06-26.55c-2.18.14-4.82-.72-6.52.88Z"/><path class="cls-5" d="M249.92,234.15c5.63-7.03,11.43-14.77,15.77-22.56l-6.1,1.73-17.48,22.67c.84,8.59,4.92,1.77,7.81-1.84Z"/><path class="cls-5" d="M240.39,252.52c7.54.98,11.9.42,19.62,3.48,1.26.5,6.39,4.76,7.83,3.48l2.62-9.58c-2.89-.04-5.82.04-8.71,0-7.1-.11-13.75.77-20.03-3.49.54,2.36-4.84,5.65-1.34,6.1Z"/><path class="cls-5" d="M141.08,319.6h1.3c.14-.5-.16-1.5,0-1.73-.37-.16-.61-.35-.76-.56.14.21.39.4.76.56,8.71-12.34,22.23-20.91,34.85-28.77-19.29-25.56-31.2-65.42-18.17-96.14,7-16.49,22.11-24.47,39.78-19.12,6.07,1.84,7.92,6.65,12.37-.61h0c2.63-4.28,4.15-9.02,7.12-13.36,3.03-4.43,7.41-7.83,10.31-12.33-.42-1.81-15.7-7.67-18.3-8.3-17.45-7.77-40.57-8.69-58.36-1.29-57.63,23.95-49.1,101.61-29.17,148.51,3.08,7.24,12.5,27.53,17.83,32.27.14.13.07.75.44.86ZM188.57,156.68h0c-5.5-7.56,5.24-15.26,8.71-6.1-.24,4.93-3.75,8.56-8.71,6.1ZM151.7,292.16c0-.46.09-.9.26-1.29.17-.4.41-.76.71-1.06-.3.3-.54.66-.71,1.06-.17.4-.26.83-.26,1.29h0ZM152.94,278.12c-.24.1-.45.25-.63.42-.36.36-.58.85-.58,1.4s.22,1.04.58,1.4c-.36-.36-.58-.85-.58-1.4s.22-1.04.58-1.4c.18-.18.39-.32.63-.42s.5-.16.77-.16c-.27,0-.53.06-.77.16ZM158.34,292.16c0-.46-.09-.9-.26-1.29-.17-.4-.41-.76-.71-1.06.3.3.54.66.71,1.06.17.4.26.83.26,1.29h0ZM141.83,172.31c.47-.33.94-.67,1.4-1.01-.46.34-.92.68-1.4,1.01ZM132.18,206.98c0-1.66,1.34-3,3-3s3,1.34,3,3-1.34,3-3,3-3-1.34-3-3ZM124.09,198.5h0c.05,1.94-.23,3.97-.49,6.08.27-2.11.55-4.15.49-6.08ZM137.25,184.66c.21-.57.39-1.14.53-1.69-.14.56-.32,1.13-.53,1.69-.14.38-.28.76-.44,1.13.15-.38.3-.76.44-1.13ZM146.75,168.88c.26,1.88,1.06,3.18,2.1,4-1.04-.81-1.84-2.12-2.1-4h0ZM146.75,168.01c.02-4.53,1.91-8.95,6.97-6.1,2.56,1.44,2.11,2.88,2.61,5.23-2.99,4.21-5.95,4.63-9.58.87ZM156.65,167.86c-.1-.17-.19-.34-.25-.49.06.16.15.32.25.49.1.17.2.36.29.55-.09-.2-.19-.38-.29-.55ZM142.9,158.14s.01-.01.02-.02c0,0-.01.01-.02.02ZM140.89,172.94c-.31.2-.63.38-.94.55.31-.17.62-.35.94-.55ZM130.82,177.67c.18-.12.37-.22.56-.31-.19.09-.38.19-.56.31ZM126.82,184.27c.22-.7.46-1.4.73-2.08-.27.68-.52,1.38-.73,2.08ZM125.54,189.05c.29-1.04.59-2.36.98-3.74-.39,1.38-.69,2.7-.98,3.74ZM123.61,197.73c-.12-.19-.23-.39-.33-.63.09.24.21.45.33.63ZM138.03,268.21h0c.62,5.04-.73,7.7-6.1,6.97-4.34-4.81.23-11.52,6.1-6.97ZM140.76,245.02c.28-.28.61-.5.98-.66s.77-.24,1.2-.24h0c-.42,0-.83.09-1.2.24s-.7.38-.98.66-.5.61-.66.98c.16-.37.38-.7.66-.98ZM145.11,245.02c-.28-.28-.61-.5-.98-.66.37.16.7.38.98.66ZM144.97,209.36c-.23,3.03-.35,6.06-.34,9.07,0-3.01.11-6.04.34-9.07.69-8.98,3.19-16.85,7.04-23.31-3.85,6.46-6.35,14.33-7.04,23.31ZM156.73,158.63c.5-.24.97-.46,1.33-.66,1.66-.91,3.48-1.91,5.37-2.86-1.88.95-3.71,1.94-5.37,2.86-.36.2-.83.41-1.33.66ZM174.01,151.05c.41-.17.85-.35,1.29-.45.22-.05.44-.09.66-.1-.22.01-.44.05-.66.1-.44.11-.88.29-1.29.45ZM172.94,147.85c0,.15,0,.31,0,.47,0-.16,0-.32,0-.47ZM157.14,144.94c.32.18.61.41.86.68-.25-.27-.54-.5-.86-.68ZM169.11,144.92c.41,0,.75.04.98.11,1.02.29,1.69.63,2.12,1.04-.43-.41-1.1-.75-2.12-1.04-.23-.06-.57-.1-.98-.11ZM172.49,146.38c.16.22.27.45.34.7-.07-.25-.18-.48-.34-.7ZM172.88,152.66c.02-.45.03-.87,0-1.21.03.35.02.76,0,1.21ZM176.28,150.5c.32.03.63.13.91.34-.29-.21-.59-.31-.91-.34ZM178.25,152.52c.1.39.14.78.12,1.16.02-.38-.01-.78-.12-1.16ZM156.48,144.66c-.3-.09-.61-.15-.96-.17.34.02.66.08.96.17ZM134.74,169.78c-.04.2-.06.38-.06.56,0-.18.03-.37.06-.56.25-1.37,1.16-3.12,2.48-5-1.32,1.89-2.23,3.64-2.48,5ZM129.75,242.16c-.81.34-1.37,1.14-1.37,2.07s.57,1.73,1.37,2.07c-.81-.34-1.37-1.14-1.37-2.07s.57-1.73,1.37-2.07ZM140.11,248.39c.16.37.38.7.66.98-.28-.28-.5-.61-.66-.98ZM142.94,250.26h0c-.42,0-.83-.09-1.2-.24.37.16.77.24,1.2.24ZM145.78,295.99c-.1.16-2.8,1.26-3.42.58-4.15-8.24,6.04-4.8,3.42-.58ZM141.46,316.63c-.01.16,0,.32.06.47-.06-.15-.07-.3-.06-.47ZM141.58,316.14c.06-.17.14-.34.24-.5-.09.17-.18.34-.24.5ZM142.7,314.26c-.15.26-.37.56-.58.88.21-.32.43-.62.58-.88,2.8-4.78,7.59-9.94,12.8-14.32-5.21,4.38-10.01,9.54-12.8,14.32ZM160.79,295.87c-.92.65-1.85,1.34-2.77,2.05.92-.71,1.85-1.4,2.77-2.05,1.18-.83,2.35-1.59,3.5-2.29-1.15.7-2.32,1.46-3.5,2.29ZM153.52,183.69c1.57-2.29,3.32-4.38,5.23-6.25-1.91,1.87-3.66,3.96-5.23,6.25ZM162.78,173.98c4.93-3.68,10.64-6.13,16.84-7.16,1.77-.29,3.58-.47,5.42-.53-1.84.06-3.65.24-5.42.53-6.19,1.03-11.91,3.48-16.84,7.16ZM200.07,168.43c1.45.45,2.9.96,4.36,1.55-1.46-.59-2.91-1.11-4.36-1.55ZM207.13,147.3c0-1.07.43-2.03,1.13-2.73-.7.7-1.13,1.66-1.13,2.73h0ZM214.84,147.3c0,.65-.18,1.26-.47,1.8.29-.54.47-1.15.47-1.8,0-1.07-.43-2.03-1.13-2.73.7.7,1.13,1.66,1.13,2.73ZM210.98,143.44c.8,0,1.54.24,2.16.66-.62-.42-1.36-.66-2.16-.66s-1.54.24-2.16.66c.62-.42,1.36-.66,2.16-.66ZM154.58,144.91c.29-.14.57-.28.88-.43h0c-.3.15-.59.29-.88.43s-.57.29-.87.44c-.16.21-.29.41-.39.62-.2.42-.3.85-.32,1.28.02-.43.12-.86.32-1.28.1-.21.23-.42.39-.62.3-.15.58-.3.87-.44Z"/><text class="cls-8" transform="translate(19.78 91.94)"><tspan x="0" y="0">SN</tspan><tspan class="cls-9" x="103.6" y="0">A</tspan><tspan x="158.27" y="0">CK </tspan><tspan class="cls-7" x="285.81" y="0">D</tspan><tspan x="337.12" y="0">AD </tspan></text><text class="cls-8" transform="translate(111.32 444.68)"><tspan x="0" y="0">SQ</tspan><tspan class="cls-6" x="105.14" y="0">U</tspan><tspan x="158.97" y="0">AD</tspan></text></svg>