<?xml version="1.0" encoding="UTF-8"?><svg id="Layer_1" xmlns="http://www.w3.org/2000/svg" viewBox="0 0 500 500"><defs><style>.cls-1{fill:#322b29;}.cls-2{fill:#fefefe;}.cls-3,.cls-4{fill:#231f20;}.cls-5{fill:#33bba6;}.cls-6{letter-spacing:-.06em;}.cls-4,.cls-7{font-family:AzoSansUber-Regular, 'Azo Sans Uber';font-size:70px;stroke:#231f20;stroke-miterlimit:10;stroke-width:2px;}.cls-7{fill:#fff;}.cls-8{letter-spacing:-.07em;}.cls-9{fill:#b5b6b6;}</style></defs><text class="cls-4" transform="translate(118.82 455.19)"><tspan x="0" y="0">SQ</tspan><tspan class="cls-6" x="105.14" y="0">U</tspan><tspan x="158.97" y="0">AD</tspan></text><text class="cls-4" transform="translate(121.51 96.35)"><tspan x="0" y="0">SN</tspan><tspan class="cls-8" x="103.6" y="0">A</tspan><tspan x="158.27" y="0" xml:space="preserve">CK  </tspan></text><path class="cls-2" d="M212.5,370.27c.14.03.27.07.4.1l6.29.17c-2.77-.39-4.56-1.03-6.7-.27Z"/><path class="cls-2" d="M273.23,372l-54.04-1.45c18.28,4.17,35.76,5.81,54.04,1.45Z"/><path class="cls-1" d="M202.53,367.26c2.54,1.28,5.33,1.92,8.1,2.57l-8.1-2.57Z"/><path class="cls-3" d="M366.43,136.94c-36.4-29.36-91.45-26.08-127.44,1.41-104.41-54.3-158.16,45.4-119.24,136.93,5.43,16.3,14.29,31.34,23.9,45.36-1.67,7.07-2.96,16.44,2.6,22.58,4.09,8.23,13.56,9.55,22,11.48,8.19,7.49,17.94,12.96,28.61,16.17,46.27,11.26,98.58,11.9,139.56-15.35,63.98-41.04,88.43-164.55,30.02-218.59ZM222.59,238.07c3.24-4.52,3.69-14.55,8.98-15.49,7.04-1.25,7.67,6.22,9.37,11.19,1.12,3.27,3.14,2.66,1.59,7.69-2.08,4.44-5.36,11.04-11.02,9.14-5.09,3.08-7.36.75-9.17-4.94.34-1.81,4.59-3.71,5.78-5.55,1.33-2.05,4.08-9.63,1.49-11.57-.46,6.4-4.27,11.64-9.01,15.4-1.13,3.13,1.97,4.62-4.97,3.81-7.84-.91,4.55-6.32,6.96-9.68ZM207.3,251.09c-8.31,5.02-18.68,8.46-26.08-.3-1.67-1.54-1.24-3.83-4.31-3.08-.13.99-.21,1.97-.26,2.94-1.86-8.61-5.53-16.98-5.43-25.85,1.22-.33,2.97-.72,3.06-.61-1.27,16.82,11.16,21.57,25.75,21.82,1.76.09,3.85-1.14,5.05-.82,1.6.43,2.97,4.68,2.21,5.9ZM206.88,176.6l-3.59,9.06-2.95,15.78c-5.71.93-20.6,1.01-27.51,3.37,3.7-17.66,15.4-32.72,34.04-28.22ZM233.54,282.57c-4.44-1.23-21.59.25-21.77-5.23,7.27.01,15.99-4.77,21.5-7.69,1.66-.09,15.58,9.04,20.32,6.81l-2.61,2.6c1.44-.05,2.92.1,4.35,0,.71-.05,1.99-1.9,4.37-.45,9.2,7.09-21.06,24.79-40,10.63-.84-.69-1.7-1.35-2.58-1.97-.64-1.09-1.33-2.37-2.01-3.42.03-.39.07-.81.14-1.3,1.86.13,18.99,2.32,18.3,0ZM224.09,317.66c3.67-1.92,7.28-4.21,10.64-6.64,2.89-1.99,8.36-7.91,12.67-9.84,9.26,1.32,17.37,6.1,26.09,8.88-14.59,8.3-32.91,11.61-49.4,7.6ZM295.53,274.21c-.58.46-1.12.98-1.63,1.53-.25.13-.5.27-.75.4-2.28-1.46-4.51-2.71-6.46-3.18-.76-1.04,5.09-6.37,6.13-8.24,3.22-5.79,2.68-11.51,2.58-17.89-3.03-.72-2.65,1.48-4.31,3.08-3.72,3.57-8.39,7.57-14,6.06,1.68-2.65,2.64-9.74,3.96-11.72,9.98-4.96,10.98-9.99,11.75-20.93l20.35,1.84c1.98.66.94,5.21,5.34,5.2,5.09-.01,4.96-7.68,2.58-10.51-3.13-3.73-21.83-6.66-22.94-7.99-.74-5.87.25-7.9-7.9-8.49-2.06-5.74-6.4-20.67-10.45-22.47,67.82-41.99,51.13,74.04,26.73,102.22-4.02-2.65-8.43-5.98-11.93-6.83-.26-.59.53-1.48.96-2.1Z"/><path class="cls-2" d="M224.01,282.85c1.84-.55,10.73,1.21,10.45-.86-4.44-1.23-21.59.25-21.77-5.23,7.27.01,15.99-4.77,21.5-7.69,1.66-.09,15.58,9.04,20.32,6.81l-2.61,2.6c1.44-.05,2.92.1,4.35,0,1.85,4-.34,7.58-1.74,11.33-11.24,6.86-24.15,5.3-34.85-1.74v-5.23c1.44-.05,2.91.07,4.36,0Z"/><path class="cls-9" d="M254.51,289.82c1.4-3.74,3.59-7.33,1.74-11.33.71-.05,1.99-1.9,4.37-.45,5.71,3.47-3.15,9.97-6.11,11.78Z"/><path class="cls-9" d="M224.01,282.85c-1.45.07-2.92-.06-4.36,0v5.23c-2.68-1.77-4.18-1.04-3.48-6.1l7.85.87Z"/><path class="cls-9" d="M330.74,143.43c.08,5.65-8.79,5.65-8.71,0-.08-5.65,8.79-5.65,8.71,0Z"/><path class="cls-9" d="M346.87,162.61c-.04-6.42,7.05-7.65,8.71-.87-.65,4.73-6.65,4.79-8.71.87Z"/><path class="cls-9" d="M350.35,282.85c-4.2,2.33-7,.33-6.97-4.36,2.04-4.2,9.35-4.35,6.97,4.36Z"/><path class="cls-9" d="M281.52,139.96c2.7,6.42-2.29,9.53-6.1,3.49.06-4.06,2.65-5.32,6.1-3.49Z"/><path class="cls-9" d="M364.39,234.25c.06,4.09-6.36,4.09-6.3,0-.06-4.09,6.36-4.09,6.3,0Z"/><path class="cls-9" d="M237.95,174.81c.28,0,.6-.05.87,0,2.38,4.59.05,4.48-2.61,6.1-4.19-2.97-3.92-6.18,1.74-6.1Z"/><path class="cls-9" d="M358.19,201.82c-2.26.07-4.22.65-5.23-1.74,1.85-5.6,7.7-4.91,5.23,1.74Z"/><path class="cls-9" d="M272.7,150.56c.05,3.48-5.41,3.48-5.36,0-.05-3.48,5.41-3.48,5.36,0Z"/><path class="cls-9" d="M216.17,343.84c-2.2,1.9-3.82,3.22-6.97,2.61-8.38-7.38,7.45-13.35,6.97-2.61Z"/><path class="cls-9" d="M257.99,344.71c-1.98,2.65-3.47,4.84-6.97,2.61-4.31-5.84,4.31-10.22,6.97-2.61Z"/><path class="cls-9" d="M296.33,335.13c.35,2.88-.24,4.76-3.49,4.36-4.11-3.03-.93-6.93,3.49-4.36Z"/><path class="cls-9" d="M249.91,364.97c.06,4.29-6.68,4.29-6.62,0-.06-4.29,6.68-4.29,6.62,0Z"/><path class="cls-9" d="M290.89,354.3c.04,2.55-3.97,2.55-3.93,0-.04-2.55,3.97-2.55,3.93,0Z"/><path class="cls-9" d="M377.26,262.99c.07,4.62-7.19,4.62-7.12,0-.07-4.62,7.19-4.62,7.12,0Z"/><path class="cls-9" d="M305.04,302.02c-2.61.33-3.82-.82-3.49-3.49,3.82-3.86,5.09-.75,3.49,3.49Z"/><path class="cls-9" d="M229.25,241.9c2.45-2.47,6.92,4.06,3.04,5.22-3.36,1-3.65-4.6-3.04-5.22Z"/><path class="cls-9" d="M268.58,191.63c4.09-2.12,7.33,4.35,3.18,6.35-4.09,2.12-7.33-4.35-3.18-6.35Z"/><path class="cls-9" d="M203.1,145.18c-.24,4.93-3.75,8.56-8.71,6.1-5.5-7.56,5.24-15.26,8.71-6.1Z"/><path class="cls-9" d="M159.54,156.51c2.56,1.44,2.11,2.88,2.61,5.23-2.99,4.21-5.95,4.63-9.58.87.02-4.53,1.9-8.95,6.97-6.1Z"/><path class="cls-9" d="M143.85,262.81c.63,5.04-.73,7.7-6.1,6.97-4.34-4.81.23-11.52,6.1-6.97Z"/><path class="cls-9" d="M144,201.58c.06,3.89-6.06,3.89-6,0-.06-3.89,6.06-3.89,6,0Z"/><path class="cls-9" d="M151.6,290.6c-.1.16-2.8,1.26-3.42.58-4.15-8.24,6.04-4.8,3.42-.58Z"/><text class="cls-7" transform="translate(113.68 91.94)"><tspan x="0" y="0">SN</tspan><tspan class="cls-8" x="103.6" y="0">A</tspan><tspan x="158.27" y="0" xml:space="preserve">CK  </tspan></text><text class="cls-7" transform="translate(111.32 444.68)"><tspan x="0" y="0">SQ</tspan><tspan class="cls-6" x="105.14" y="0">U</tspan><tspan x="158.97" y="0">AD</tspan></text><path class="cls-2" d="M162.15,161.74c-.43-8.32-10.29-8.17-9.58.87,3.64,3.76,6.6,3.34,9.58-.87Z"/><path class="cls-2" d="M232.28,247.12c3.89-1.15-.59-7.69-3.04-5.22-.61.62-.32,6.21,3.04,5.22Z"/><path class="cls-2" d="M151.6,290.6c2.62-4.22-7.57-7.66-3.42.58.62.68,3.32-.43,3.42-.58Z"/><path class="cls-2" d="M281.52,139.96c-.79.03-2.13-1.63-4.36-.48-2,1.04-1.43,3.54-1.74,3.96,3.81,6.05,8.79,2.94,6.1-3.49Z"/><path class="cls-2" d="M143.85,262.81c-5.87-4.55-10.44,2.16-6.1,6.97,5.37.73,6.72-1.93,6.1-6.97h0Z"/><path class="cls-2" d="M138,201.58c-.06,3.89,6.06,3.89,6,0,.06-3.89-6.06-3.89-6,0Z"/><path class="cls-2" d="M326.39,139.08c-5.65-.08-5.65,8.79,0,8.71,5.65.08,5.65-8.79,0-8.71Z"/><path class="cls-2" d="M271.76,197.98c4.15-2,.91-8.47-3.18-6.35-4.15,2-.91,8.47,3.18,6.35Z"/><path class="cls-2" d="M237.95,174.81c-5.66-.08-5.93,3.13-1.74,6.1,2.66-1.61,4.99-1.5,2.61-6.1-.27-.05-.59,0-.87,0Z"/><path class="cls-2" d="M301.56,298.53c-.33,2.67.87,3.81,3.49,3.49,1.61-4.24.34-7.34-3.49-3.49Z"/><path class="cls-2" d="M209.2,346.45c3.15.61,4.77-.71,6.97-2.61.48-10.74-15.35-4.77-6.97,2.61Z"/><path class="cls-2" d="M296.33,335.13c-1.62-.42-3.21-1.83-4.85-.05-1.35,2.7.04,3.06,1.36,4.41,3.25.4,3.84-1.48,3.49-4.36Z"/><path class="cls-2" d="M270.02,153.24c3.48.05,3.48-5.41,0-5.36-3.48-.05-3.48,5.41,0,5.36Z"/><path class="cls-2" d="M251.02,347.32c3.5,2.22,4.99.03,6.97-2.61-2.66-7.61-11.28-3.23-6.97,2.61Z"/><path class="cls-2" d="M288.93,352.33c-2.55-.04-2.55,3.97,0,3.93,2.55.04,2.55-3.97,0-3.93Z"/><path class="cls-2" d="M352.48,201.62c.12-.51.32-1.04.49-1.55,1.01,2.39,2.97,1.81,5.23,1.74,2.72-8.2-4.99-6.17-5.72-.19Z"/><path class="cls-2" d="M355.58,161.74c-1.66-6.78-8.76-5.55-8.71.87,2.06,3.92,8.06,3.86,8.71-.87Z"/><path class="cls-2" d="M370.14,262.99c-.07,4.62,7.19,4.62,7.12,0,.07-4.62-7.19-4.62-7.12,0Z"/><path class="cls-2" d="M358.09,234.25c-.06,4.09,6.36,4.09,6.3,0,.06-4.09-6.36-4.09-6.3,0Z"/><path class="cls-2" d="M194.39,151.28c4.97,2.46,8.47-1.17,8.71-6.1-3.48-9.16-14.21-1.46-8.71,6.1h0Z"/><path class="cls-2" d="M343.38,278.49c-.02,4.69,2.77,6.69,6.97,4.36,2.38-8.71-4.93-8.56-6.97-4.36Z"/><path class="cls-5" d="M325.73,341.02c-6.34-1.76-37.39-23.55-46.24-28.39-18.77,9.86-42.12,15.69-62.45,6.81-2.69-1.2-1.78-3.56-6.72-1.94-13.14,5.32-30.57,15.21-41.18,25.03,45.71,38.16,119.03,33.85,165.52-.88-2.88-.92-5.95-.14-8.94-.64ZM209.2,346.45c-8.38-7.38,7.46-13.35,6.97-2.61-2.2,1.9-3.82,3.22-6.97,2.61ZM251.02,347.32c-4.31-5.84,4.31-10.22,6.97-2.61-1.98,2.65-3.47,4.84-6.97,2.61ZM288.93,356.27c-2.55.04-2.55-3.97,0-3.93,2.55-.04,2.55,3.97,0,3.93ZM292.85,339.48c-1.32-1.35-2.71-1.71-1.36-4.41,1.63-1.78,3.22-.37,4.85.05.35,2.88-.24,4.76-3.49,4.36Z"/><path class="cls-5" d="M358.19,139.08c-42.07-36.98-116.53-15.58-138.66,33.42-2.18,2.82-5.95,4.34-8.28,8.27-1.67,2.82-6.23,18.19-4.56,20.07,1.2-.04,2.43.79,3.38.96,4.71.65,10.14.75,14.81,3.49,5.55,6.83,3.02,6.43,12.2,5.23.03-1.56.15-3.1.35-4.63-.2,1.53-.32,3.07-.35,4.63,5.56-2.26,8.01-9.56,10.13-14.7,10.15-17.61,19.76-23.38,38.45-30.39,16.07-6.89,41.79-13.45,50.74,6.75-9.69-9.75-19.15-14.69-33.1-10.45,50.64,14.2,28.56,92.08,8.71,124.58.52.14,1.46-.16,1.74,0-.06-.2-.1-.38-.13-.54.03.17.08.35.13.54,16.76,9.87,36.06,18.43,34.86,41.82,10.37-11,20.01-25.85,25.12-39.86,2.1-4.5,3.55-9.07,4.36-14.25,13.17-42.65,15.6-101.97-19.9-134.96ZM275.42,143.44c.31-.42-.26-2.92,1.74-3.96,2.23-1.16,3.57.51,4.36.48,2.7,6.42-2.29,9.53-6.1,3.49ZM270.02,147.88c3.48-.05,3.48,5.41,0,5.36-3.48.05-3.48-5.41,0-5.36ZM236.21,180.91c-4.19-2.97-3.92-6.18,1.74-6.1.28,0,.6-.05.87,0,2.38,4.59.05,4.48-2.61,6.1ZM326.39,147.79c-5.65.08-5.65-8.79,0-8.71,5.65-.08,5.65,8.79,0,8.71ZM350.35,282.85c-4.2,2.33-7,.33-6.97-4.36,2.04-4.2,9.35-4.35,6.97,4.36ZM346.87,162.61c-.04-6.42,7.05-7.65,8.71-.87-.65,4.73-6.65,4.79-8.71.87ZM352.97,200.08c-.17.51-.37,1.03-.49,1.55.73-5.97,8.43-8,5.72.19-2.26.07-4.22.65-5.23-1.74ZM358.09,234.25c-.06-4.09,6.36-4.09,6.3,0,.06,4.09-6.36,4.09-6.3,0ZM370.14,262.99c-.07-4.62,7.19-4.62,7.12,0,.07,4.62-7.19,4.62-7.12,0Z"/><path class="cls-5" d="M233.58,297.23c.04-1.3-8.93-2.43-10.44-3.05-5.25-2.58-12.36-8.42-14.81-13.94-1.48-2.26-.02-3.16-4.36-3.49-10.78.56-31.61,18.8-40.54,25.24-7.84,7.23-18.46,18.24-16.1,29.65-.84,6.15,5.38,12.01,11.53,11.16,6.24-.88,18.56-11.57,24.8-15.35,16.57-10.04,35.67-16.58,49.91-30.23Z"/><path class="cls-5" d="M223.27,245.08c1.81,5.68,4.07,8.03,9.17,4.94,5.65,1.9,8.95-4.71,11.02-9.14,1.54-5.03-.47-4.42-1.6-7.69-1.7-4.97-2.33-12.44-9.37-11.19-5.29.94-5.74,10.96-8.98,15.49-2.41,3.36-14.79,8.77-6.96,9.68,6.94.81,3.84-.68,4.97-3.81,4.73-3.75,8.55-9,9.01-15.4,2.59,1.94-.16,9.52-1.49,11.57-1.19,1.84-5.44,3.74-5.78,5.55ZM232.28,247.12c-3.36,1-3.65-4.6-3.04-5.22,2.45-2.47,6.92,4.06,3.04,5.22Z"/><path class="cls-5" d="M249.27,201.38c-.36,1.95-.07,1.12.89.9,9.4-2.36,19.14-1,28.74-1.34-1.75-6.62-5.68-16.03-10.15-20.83-5.11-1.53-18.57,16.3-19.48,21.27ZM271.76,197.98c-4.09,2.12-7.33-4.35-3.18-6.35,4.09-2.12,7.33,4.35,3.18,6.35Z"/><path class="cls-5" d="M281.93,274.15c-4.15,1.98-8.72,2.67-13.52,3-.97,5.23-5.48,7.32-6.93,11.8-.53.58-5.05,1.48-4.35,4.34,16.01,11.17,33.13,20.58,49.58,31.02,5.43,3.45,14.6,11.9,20.06,13.04,21.41,3.43,22.07-19.34,10.13-31.04-15.91-14.33-37.87-20.39-54.97-32.16ZM305.04,302.02c-2.61.33-3.82-.82-3.49-3.49,3.82-3.86,5.09-.75,3.49,3.49Z"/><path class="cls-5" d="M262.34,238.87l22.67-30.95c-3.08.17-6.29-2.29-8.78.36-6.49,10.19-16.71,19.5-21.71,30.12l7.83.47Z"/><path class="cls-5" d="M210.08,208.36l-21.37,29.18c1.73,1,5.76,2.36,7.41,1.33l22.66-30.07c-2.79-.72-5.85-1.62-8.71-.44Z"/><path class="cls-5" d="M199.2,207.93l-16.36,21.13c-1.38,2.73-.09,8.35,2.82,4.54l20.06-26.55c-2.18.14-4.82-.72-6.52.88Z"/><path class="cls-5" d="M255.74,228.75c5.63-7.03,11.43-14.77,15.77-22.56l-6.1,1.73-17.48,22.67c.84,8.59,4.92,1.77,7.81-1.84Z"/><path class="cls-5" d="M246.21,247.13c7.54.98,11.9.42,19.62,3.48,1.26.5,6.39,4.76,7.83,3.48l2.62-9.58c-9.75-.64-19.97,2.09-28.74-3.49.54,2.36-4.84,5.65-1.34,6.1Z"/><path class="cls-5" d="M148.21,312.47c8.71-12.34,22.23-20.91,34.85-28.77-27.75-30.22-41.68-125.98,21.61-115.26,6.07,1.84,7.92,6.65,12.37-.61,4.06-9.65,10.55-17.83,17.43-25.69-21.06-13.07-52.66-19.91-76.66-9.59-69.36,31.53-45.56,132.43-10.91,181.64h1.3c.14-.5-.16-1.5,0-1.73ZM203.1,145.18c-.24,4.93-3.75,8.56-8.71,6.1h0c-5.5-7.56,5.24-15.26,8.71-6.1ZM162.15,161.74c-2.99,4.21-5.95,4.63-9.58.87-.7-9.04,9.15-9.19,9.58-.87ZM137.75,269.78c-4.34-4.81.23-11.52,6.1-6.97h0c.62,5.04-.73,7.7-6.1,6.97ZM138,201.58c-.06-3.89,6.06-3.89,6,0,.06,3.89-6.06,3.89-6,0ZM151.6,290.6c-.1.16-2.8,1.26-3.42.58-4.15-8.24,6.04-4.8,3.42-.58Z"/></svg>